<svg width="488" height="425" viewBox="0 0 488 425" fill="none" xmlns="http://www.w3.org/2000/svg">
<g clip-path="url(#clip0_1678_33749)">
<path d="M488 365.513L449.57 389.913L444.629 393.024L401.563 420.413L395.402 424.317L395.036 424.561H95.16L95.038 424.5L90.28 421.511L0 365.513L44.103 334.22L55.083 326.473L92.781 299.694L99.308 295.058L122.549 278.588L186.294 307.868L191.54 310.308L192.15 310.552L214.537 310.613H220.576L378.017 310.857H383.629L409.798 310.918H409.981L415.837 307.807L436.76 296.522L442.982 293.167L470.188 278.588L476.715 310.674L477.874 316.164L488 365.513Z" fill="#FFE55C"/>
<path d="M191.54 310.308L95.038 424.5L90.28 421.511L186.294 307.868L191.54 310.308ZM409.798 310.918L395.402 424.317L401.563 420.413L415.837 307.807L409.981 310.918H409.798ZM192.76 384.911C186.965 389.608 179.584 393.512 170.8 396.623C170.192 396.853 169.683 397.287 169.36 397.851C169.037 398.414 168.919 399.073 169.027 399.713C169.135 400.354 169.462 400.938 169.952 401.364C170.442 401.791 171.065 402.034 171.715 402.052C172.049 402.057 172.381 401.995 172.691 401.869C182.024 398.575 189.954 394.305 196.237 389.303C196.525 389.077 196.765 388.796 196.943 388.476C197.121 388.157 197.233 387.805 197.273 387.441C197.312 387.077 197.279 386.709 197.174 386.359C197.07 386.008 196.896 385.682 196.664 385.399C196.207 384.822 195.542 384.447 194.812 384.356C194.082 384.265 193.345 384.464 192.76 384.911ZM146.156 402.418C139.848 403.272 133.49 403.7 127.124 403.699C125.05 403.76 122.915 403.638 120.841 403.577C120.476 403.552 120.109 403.601 119.762 403.72C119.416 403.839 119.097 404.027 118.824 404.271C118.551 404.516 118.33 404.812 118.173 405.143C118.017 405.475 117.928 405.834 117.913 406.2C117.897 406.569 117.953 406.937 118.079 407.283C118.205 407.63 118.399 407.949 118.648 408.221C118.897 408.493 119.198 408.713 119.532 408.868C119.867 409.024 120.228 409.112 120.597 409.128C122.671 409.25 124.867 409.25 126.941 409.25H127.124C133.755 409.259 140.379 408.81 146.949 407.908C147.677 407.803 148.333 407.413 148.774 406.824C149.214 406.234 149.403 405.494 149.298 404.766C149.192 404.038 148.802 403.382 148.213 402.942C147.624 402.501 146.884 402.313 146.156 402.418ZM238.998 361.792C229.482 362.646 220.21 364.842 213.012 368.075C212.424 368.338 211.944 368.794 211.653 369.369C211.362 369.943 211.278 370.6 211.414 371.229C211.549 371.859 211.898 372.422 212.4 372.825C212.902 373.228 213.527 373.446 214.171 373.443C214.567 373.42 214.958 373.338 215.33 373.199C221.979 370.21 230.519 368.136 239.486 367.343C240.225 367.266 240.905 366.905 241.383 366.336C241.861 365.767 242.099 365.034 242.048 364.293C241.971 363.559 241.608 362.884 241.037 362.416C240.466 361.948 239.733 361.724 238.998 361.792ZM95.16 405.041C95.8304 405.035 96.4765 404.789 96.9813 404.348C97.4861 403.907 97.8163 403.3 97.9122 402.636C98.008 401.973 97.8631 401.297 97.5038 400.731C97.1444 400.165 96.5943 399.746 95.953 399.551C86.254 396.562 79.483 392.231 76.372 386.924C75.9999 386.293 75.3924 385.836 74.6832 385.653C73.9739 385.47 73.221 385.576 72.59 385.948C71.9591 386.32 71.5018 386.928 71.3187 387.637C71.1357 388.346 71.2419 389.099 71.614 389.73C75.396 396.257 83.265 401.503 94.367 404.919L95.16 405.041ZM76.189 366.55C76.6472 366.833 77.1757 366.981 77.714 366.977C78.1793 366.988 78.6392 366.876 79.0466 366.651C79.4539 366.425 79.794 366.096 80.032 365.696C86.498 355.753 89.67 347.884 89.67 341.479C89.67 341.052 89.609 340.625 89.609 340.198C89.6355 339.799 89.5765 339.399 89.4359 339.025C89.2953 338.651 89.0764 338.311 88.7938 338.028C88.5113 337.746 88.1715 337.527 87.7974 337.386C87.4233 337.245 87.0234 337.186 86.6246 337.212C86.2257 337.238 85.8371 337.35 85.4847 337.538C85.1323 337.727 84.8243 337.989 84.5813 338.306C84.3383 338.623 84.1659 338.989 84.0756 339.378C83.9854 339.768 83.9794 340.172 84.058 340.564V341.479C84.058 346.664 81.13 353.801 75.396 362.707C75.1918 363.01 75.0502 363.351 74.9795 363.71C74.9089 364.068 74.9105 364.437 74.9844 364.795C75.0582 365.153 75.2028 365.493 75.4097 365.794C75.6166 366.095 75.8815 366.352 76.189 366.55ZM66.856 325.619H66.49C62.6729 325.649 58.8621 325.935 55.083 326.473L44.103 334.22C48.251 333.183 57.706 331.17 66.49 331.17H66.856C67.5214 331.071 68.1291 330.736 68.5684 330.227C69.0078 329.718 69.2494 329.067 69.2494 328.394C69.2494 327.722 69.0078 327.071 68.5684 326.562C68.1291 326.053 67.5214 325.718 66.856 325.619ZM265.594 363.195C264.876 363.065 264.136 363.214 263.524 363.61C262.912 364.007 262.475 364.622 262.3 365.33C262.155 366.049 262.297 366.797 262.696 367.412C263.095 368.028 263.719 368.463 264.435 368.624C273.524 370.576 280.966 373.992 286.517 378.75C287.033 379.176 287.678 379.413 288.347 379.421C288.754 379.431 289.157 379.348 289.527 379.179C289.897 379.01 290.223 378.759 290.482 378.445C290.95 377.883 291.18 377.16 291.123 376.431C291.066 375.702 290.727 375.024 290.177 374.541C283.894 369.112 275.598 365.33 265.594 363.195ZM299.815 396.196C299.453 396.241 299.104 396.358 298.788 396.539C298.471 396.72 298.195 396.963 297.973 397.253C297.752 397.542 297.59 397.873 297.498 398.226C297.406 398.578 297.385 398.946 297.436 399.307C297.632 401.069 297.734 402.841 297.741 404.614C297.741 410.348 296.643 416.753 294.508 423.646C294.389 423.936 294.327 424.247 294.325 424.561H300.059C302.092 418.102 303.181 411.384 303.292 404.614C303.297 402.616 303.175 400.619 302.926 398.636C302.834 397.901 302.456 397.232 301.873 396.775C301.29 396.318 300.551 396.11 299.815 396.196ZM398.879 355.631C398.607 354.948 398.077 354.399 397.404 354.102C396.731 353.805 395.968 353.785 395.28 354.045C390.278 355.936 384.727 358.193 378.81 360.694C376.37 361.792 373.808 362.768 371.307 363.622C370.699 363.852 370.19 364.286 369.867 364.85C369.544 365.413 369.426 366.072 369.534 366.712C369.642 367.353 369.969 367.937 370.459 368.363C370.949 368.79 371.573 369.033 372.222 369.051C372.536 369.049 372.847 368.987 373.137 368.868C375.76 367.953 378.444 366.916 381.006 365.818C386.862 363.317 392.352 361.121 397.293 359.23C397.976 358.958 398.525 358.428 398.822 357.755C399.119 357.082 399.139 356.319 398.879 355.631ZM356.24 336.416C349.53 338.429 341.356 339.283 331.535 338.917C330.795 338.9 330.077 339.17 329.531 339.67C328.985 340.17 328.654 340.862 328.607 341.601C328.59 342.335 328.862 343.046 329.364 343.582C329.866 344.118 330.557 344.436 331.291 344.468L335.988 344.59C344.284 344.59 351.665 343.614 357.887 341.723C358.498 341.434 358.985 340.934 359.257 340.315C359.529 339.696 359.569 339 359.368 338.354C359.168 337.709 358.741 337.157 358.166 336.801C357.591 336.445 356.907 336.308 356.24 336.416ZM445.361 355.387C445.982 355.378 446.583 355.164 447.069 354.777C447.633 354.311 447.998 353.648 448.088 352.922C448.179 352.196 447.989 351.463 447.557 350.873C442.86 344.773 434.32 343.309 420.412 346.237C420.054 346.309 419.713 346.453 419.411 346.658C419.109 346.864 418.85 347.128 418.651 347.435C418.453 347.742 418.317 348.085 418.253 348.445C418.188 348.805 418.197 349.174 418.277 349.531C418.341 349.894 418.48 350.239 418.683 350.546C418.887 350.853 419.151 351.114 419.46 351.314C419.769 351.515 420.116 351.649 420.479 351.71C420.842 351.77 421.214 351.755 421.571 351.666C432.856 349.287 439.932 350.141 443.104 354.289C443.369 354.635 443.711 354.914 444.103 355.104C444.495 355.295 444.925 355.392 445.361 355.387ZM447.496 375.029C447.139 374.958 446.772 374.959 446.416 375.032C446.06 375.104 445.721 375.247 445.42 375.451C445.12 375.655 444.862 375.917 444.664 376.222C444.465 376.526 444.329 376.867 444.263 377.225L444.019 378.323C443.635 380.396 443.431 382.498 443.409 384.606C443.395 387.457 443.806 390.294 444.629 393.024L449.57 389.913C449.173 388.172 448.968 386.392 448.96 384.606C448.961 382.863 449.145 381.125 449.509 379.421L449.753 378.323C449.879 377.588 449.714 376.833 449.292 376.218C448.871 375.604 448.227 375.177 447.496 375.029ZM375.821 326.351C376.245 326.538 376.7 326.642 377.163 326.656C377.663 326.652 378.153 326.514 378.582 326.256C379.011 325.999 379.364 325.631 379.603 325.192C381.97 320.763 383.344 315.871 383.629 310.857H378.017C377.749 314.948 376.627 318.938 374.723 322.569C374.373 323.217 374.292 323.977 374.497 324.685C374.703 325.393 375.178 325.991 375.821 326.351ZM305.183 338.185C292.312 340.015 290.97 346.725 290.97 349.531C290.97 352.337 292.8 356.607 296.277 360.084C296.543 360.343 296.858 360.546 297.204 360.682C297.55 360.818 297.919 360.885 298.29 360.877C298.657 360.879 299.02 360.804 299.357 360.657C299.693 360.51 299.995 360.294 300.242 360.023C300.5 359.768 300.705 359.464 300.845 359.129C300.985 358.794 301.057 358.434 301.057 358.071C301.057 357.708 300.985 357.348 300.845 357.013C300.705 356.678 300.5 356.374 300.242 356.119C297.863 353.74 296.521 351.422 296.521 349.531C296.521 345.505 303.109 344.102 305.976 343.675C306.712 343.569 307.376 343.176 307.822 342.581C308.268 341.986 308.46 341.239 308.355 340.503C308.303 340.141 308.179 339.792 307.991 339.479C307.802 339.165 307.553 338.892 307.257 338.676C306.962 338.46 306.626 338.305 306.27 338.221C305.914 338.137 305.544 338.124 305.183 338.185ZM346.724 368.746C338.38 369.428 329.981 368.79 321.836 366.855C321.483 366.764 321.116 366.744 320.756 366.796C320.396 366.848 320.049 366.972 319.737 367.159C319.425 367.346 319.153 367.594 318.937 367.887C318.722 368.181 318.567 368.514 318.481 368.868C318.296 369.588 318.403 370.352 318.781 370.992C319.158 371.633 319.774 372.097 320.494 372.284C326.99 373.817 333.645 374.575 340.319 374.541C342.576 374.541 344.894 374.48 347.151 374.297C347.885 374.235 348.565 373.886 349.044 373.327C349.523 372.768 349.764 372.043 349.713 371.308C349.69 370.942 349.594 370.584 349.43 370.255C349.266 369.927 349.039 369.634 348.76 369.395C348.481 369.157 348.157 368.976 347.808 368.864C347.458 368.753 347.09 368.713 346.724 368.746ZM129.076 312.565C132.007 314.397 134.819 316.414 137.494 318.604C141.703 322.081 145.79 325.253 149.572 328.059C150.058 328.386 150.633 328.556 151.219 328.547C151.655 328.552 152.085 328.455 152.477 328.264C152.869 328.074 153.211 327.795 153.476 327.449C153.699 327.155 153.86 326.819 153.95 326.462C154.04 326.104 154.057 325.732 154 325.367C153.943 325.003 153.814 324.654 153.619 324.341C153.424 324.028 153.168 323.757 152.866 323.545C149.145 320.8 145.18 317.689 141.032 314.334C138.189 311.983 135.194 309.823 132.065 307.868C131.761 307.658 131.417 307.513 131.054 307.442C130.691 307.371 130.318 307.376 129.957 307.456C129.596 307.536 129.256 307.69 128.957 307.908C128.659 308.126 128.409 308.403 128.222 308.722C127.832 309.346 127.702 310.099 127.862 310.818C128.022 311.537 128.458 312.165 129.076 312.565ZM106.933 302.5C107.64 302.578 108.35 302.379 108.913 301.944C109.475 301.509 109.847 300.872 109.95 300.168C110.053 299.464 109.879 298.748 109.464 298.17C109.049 297.593 108.426 297.198 107.726 297.071C104.757 296.217 101.951 295.546 99.308 295.058L92.781 299.694C97.3192 300.257 101.806 301.175 106.201 302.439L106.933 302.5ZM213.134 324.826C213.69 324.825 214.233 324.656 214.69 324.34C215.148 324.024 215.498 323.577 215.696 323.057C216.428 321.227 217.16 319.458 217.831 317.567C218.502 315.676 219.6 312.931 220.576 310.613H214.537L212.646 315.615C211.914 317.384 211.243 319.214 210.511 320.983C210.374 321.323 210.306 321.687 210.312 322.053C210.318 322.42 210.397 322.782 210.545 323.117C210.693 323.453 210.906 323.755 211.173 324.007C211.439 324.258 211.754 324.454 212.097 324.582C212.415 324.755 212.773 324.839 213.134 324.826ZM196.969 339.832C191.418 342.333 183.976 341.296 174.46 336.843C174.124 336.651 173.751 336.53 173.366 336.489C172.981 336.448 172.591 336.487 172.222 336.604C171.853 336.72 171.511 336.912 171.22 337.167C170.928 337.423 170.693 337.735 170.528 338.086C170.363 338.436 170.273 338.817 170.263 339.205C170.252 339.592 170.322 339.977 170.468 340.336C170.614 340.695 170.833 341.02 171.11 341.29C171.388 341.56 171.718 341.77 172.081 341.906C179.035 345.139 184.952 346.725 190.259 346.725C193.364 346.762 196.441 346.138 199.287 344.895C199.957 344.577 200.477 344.011 200.739 343.317C201 342.623 200.983 341.855 200.69 341.174C200.373 340.504 199.803 339.987 199.106 339.736C198.409 339.484 197.641 339.519 196.969 339.832ZM476.715 310.674C469.273 313.114 462.868 314.456 457.683 314.639C457.019 314.752 456.418 315.099 455.989 315.618C455.56 316.138 455.332 316.794 455.347 317.467C455.361 318.141 455.618 318.786 456.069 319.286C456.521 319.786 457.137 320.107 457.805 320.19H457.927C463.417 320.007 470.127 318.604 477.874 316.164L476.715 310.674ZM439.383 306.587H439.627C440.361 306.51 441.036 306.146 441.504 305.576C441.972 305.005 442.196 304.272 442.128 303.537C442.067 302.805 442.067 302.012 442.067 301.28C442.1 298.552 442.407 295.834 442.982 293.167L436.76 296.522C436.567 298.101 436.466 299.689 436.455 301.28C436.455 302.195 436.516 303.11 436.577 304.086C436.665 304.771 436.997 305.401 437.513 305.86C438.029 306.32 438.693 306.578 439.383 306.587Z" fill="#FFC419"/>
<path d="M277.794 233.753L259.128 305.184C258.776 306.469 258.114 307.647 257.199 308.615C256.284 309.583 255.145 310.311 253.882 310.735C244.671 313.785 223.87 321.41 230.946 325.68C239.974 331.048 265.228 323.179 268.827 316.652C273.341 308.539 298.351 232.594 298.351 232.594L277.794 233.753Z" fill="url(#paint0_linear_1678_33749)"/>
<path d="M327.753 233.997L350.872 322.325C351.293 323.92 352.105 325.385 353.234 326.589C354.362 327.792 355.773 328.695 357.338 329.218C368.684 333 394.426 342.394 385.703 347.64C374.54 354.35 343.369 344.529 338.916 336.538C333.304 326.473 302.377 232.594 302.377 232.594L327.753 233.997Z" fill="url(#paint1_linear_1678_33749)"/>
<path d="M272.792 252.846C274.073 257.421 282.979 259.678 290.238 256.872L298.29 232.838L277.733 233.997L272.792 252.846Z" fill="#CF1581"/>
<path d="M333.182 254.737L327.753 233.997L302.377 232.594C302.377 232.594 305.793 243.025 310.551 257.238C316.407 261.874 329.766 257.421 333.182 254.737Z" fill="#CF1581"/>
<path d="M126.697 65.7588C126.697 65.7588 154.391 77.6538 177.571 68.1378C183.915 65.5758 189.344 73.3228 184.769 78.3248C180.194 83.3268 172.142 88.4508 160.735 89.1828L126.697 65.7588Z" fill="#3442D7"/>
<path d="M221.674 74.6034C199.409 83.5704 159.149 89.7924 137.25 71.3704C94.9159 35.6854 14.3959 59.4144 22.2649 128.161C30.1339 196.908 114.924 191.662 114.924 191.662L161.711 147.132C137.25 151.585 92.2319 99.7964 146.156 111.447C198.677 122.854 220.881 101.138 230.092 83.9364C233.081 78.3854 227.469 72.2854 221.674 74.6034Z" fill="url(#paint2_linear_1678_33749)"/>
<path d="M67.161 120.475C67.161 120.475 76.86 104.798 100.589 113.826C129.137 124.684 149.023 119.56 161.528 112.057C166.53 109.129 164.212 101.504 158.417 101.748C148.291 102.053 135.054 99.0644 120.597 87.0474C106.14 75.0304 92.964 75.5184 82.96 78.4464" fill="#5865F0"/>
<path d="M67.161 123.282C66.6438 123.271 66.1387 123.124 65.697 122.855C65.0687 122.464 64.62 121.841 64.4486 121.121C64.2773 120.402 64.3971 119.643 64.782 119.012C67.0662 115.734 70.1258 113.073 73.688 111.265C79.117 108.459 88.328 106.141 101.565 111.204C129.869 121.94 149.023 116.328 160.125 109.679C160.672 109.381 161.095 108.898 161.318 108.317C161.542 107.736 161.551 107.094 161.345 106.507C161.169 105.906 160.797 105.382 160.288 105.017C159.78 104.653 159.164 104.468 158.539 104.494C144.936 104.982 131.577 99.7965 118.828 89.1825C108.031 80.2155 96.197 77.4705 83.753 81.1305C83.0602 81.2819 82.3357 81.1653 81.7253 80.8043C81.115 80.4432 80.6639 79.8644 80.463 79.1843C80.2621 78.5042 80.3261 77.7732 80.6422 77.1384C80.9584 76.5036 81.5031 76.012 82.167 75.7625C96.319 71.6145 110.227 74.7865 122.427 84.9125C134.627 95.0385 146.156 99.3695 158.356 98.9425C160.204 98.8768 162.021 99.4259 163.524 100.504C165.027 101.581 166.129 103.127 166.659 104.899C167.189 106.67 167.117 108.567 166.453 110.293C165.79 112.019 164.572 113.476 162.992 114.437C150.792 121.696 129.93 127.979 99.552 116.389C78.446 108.398 69.845 121.391 69.479 121.94C69.244 122.347 68.9062 122.685 68.4994 122.92C68.0926 123.156 67.631 123.28 67.161 123.282Z" fill="#0C1AAB"/>
<path d="M129.015 171.105C128.527 172.813 128.283 173.85 128.283 173.85C90.402 202.825 126.087 254.065 126.087 254.065C133.102 245.708 141.642 237.717 152.134 231.739C157.929 180.743 142.069 171.044 129.015 171.105Z" fill="#FF78B7"/>
<path d="M417.972 0.0614778C385.52 1.34248 373.442 31.2325 380.091 53.4975C387.106 76.7995 397.537 88.5725 399.611 100.589C401.685 112.606 393.389 123.83 381.494 124.44C361.791 125.416 332.145 105.469 304.329 109.251C263.154 114.802 275.354 142.679 208.559 131.516C147.742 121.39 132.126 160.247 129.015 171.105C142.069 171.044 157.929 180.743 152.134 231.739C175.009 218.624 207.278 214.842 253.089 236.253C319.945 267.424 382.348 213.988 382.348 213.988L401.258 157.136C401.258 157.136 484.157 131.638 468.114 43.4935C463.661 18.9715 445.849 -1.09752 417.972 0.0614778Z" fill="url(#paint3_linear_1678_33749)"/>
<path d="M441.518 163.725C442.439 162.556 442.972 161.13 443.042 159.644C443.112 158.158 442.717 156.687 441.91 155.437C441.104 154.188 439.927 153.221 438.544 152.672C437.161 152.124 435.642 152.021 434.198 152.379C417.301 156.649 388.265 159.272 357.826 140.423C311.039 111.448 258.945 147.865 270.901 191.663C284.321 240.707 373.442 260.776 402.417 207.279C402.417 207.279 426.878 200.569 424.682 176.108C431.279 173.521 437.084 169.252 441.518 163.725Z" fill="#5865F0"/>
<path d="M185.257 206.181C192.062 206.181 197.579 197.441 197.579 186.661C197.579 175.88 192.062 167.141 185.257 167.141C178.452 167.141 172.935 175.88 172.935 186.661C172.935 197.441 178.452 206.181 185.257 206.181Z" fill="white"/>
<path d="M184.952 181.476C179.889 181.476 175.741 188.003 175.741 195.994C175.747 197.24 175.848 198.484 176.046 199.715C178.364 203.68 181.597 206.181 185.257 206.181C188.917 206.181 191.418 204.168 193.614 200.935C193.99 199.315 194.175 197.656 194.163 195.994C194.163 188.003 190.076 181.476 184.952 181.476Z" fill="black"/>
<path d="M141.703 158.234C121.634 153.781 119.377 182.756 119.377 182.756C119.377 182.756 130.54 164.944 143.96 183.366C147.925 188.734 148.84 195.749 149.389 202.459C150.06 210.511 150.304 223.077 147.254 234.728C149.328 233.386 151.524 232.044 153.72 230.824C160.125 207.461 165.859 163.663 141.703 158.234Z" fill="#CF1581"/>
<path d="M424.682 182.024C416.588 184.451 408.183 185.684 399.733 185.684C397.293 185.684 395.768 185.562 395.524 185.562C395.158 185.539 394.8 185.443 394.471 185.279C394.143 185.115 393.85 184.887 393.611 184.609C393.373 184.33 393.192 184.006 393.08 183.657C392.969 183.307 392.929 182.938 392.962 182.573C392.976 182.204 393.067 181.841 393.228 181.509C393.389 181.176 393.617 180.88 393.897 180.64C394.178 180.399 394.505 180.219 394.858 180.111C395.212 180.003 395.584 179.969 395.951 180.011C396.134 180.011 410.408 180.987 424.682 176.168C424.865 178.116 424.865 180.076 424.682 182.024ZM342.454 204.838C341.742 204.62 340.973 204.693 340.315 205.042C339.657 205.391 339.165 205.987 338.946 206.698C338.728 207.41 338.801 208.18 339.15 208.838C339.499 209.495 340.095 209.988 340.807 210.206C350.323 213.134 363.926 216.306 378.566 216.306C385.109 216.334 391.635 215.638 398.025 214.232C399.63 212.006 401.097 209.684 402.417 207.278L404.491 206.546C382.043 214.476 357.216 209.413 342.454 204.838Z" fill="#0C1AAB"/>
<path d="M65.819 271.878C64.3921 270.95 63.1847 269.721 62.281 268.279C61.3639 266.857 60.7608 265.256 60.5119 263.582L59.5969 257.787C59.5854 257.646 59.5198 257.515 59.414 257.421L59.048 257.299L58.6819 257.421C58.5761 257.515 58.5105 257.646 58.499 257.787L57.584 263.582C57.3351 265.256 56.732 266.857 55.815 268.279C54.8938 269.708 53.6897 270.932 52.2769 271.878L51.484 272.366C51.423 272.366 51.362 272.488 51.301 272.549C51.243 272.639 51.2212 272.748 51.24 272.854C51.2308 272.94 51.2524 273.026 51.301 273.098C51.362 273.159 51.423 273.281 51.484 273.281L52.2769 273.769C53.6897 274.714 54.8938 275.939 55.815 277.368C56.732 278.79 57.3351 280.391 57.584 282.065L58.499 287.86C58.5105 288.001 58.5761 288.132 58.6819 288.226L59.048 288.348L59.414 288.226C59.5198 288.132 59.5854 288.001 59.5969 287.86L60.5119 282.065C60.7608 280.391 61.3639 278.79 62.281 277.368C63.1847 275.925 64.3921 274.697 65.819 273.769L66.6119 273.281C66.6729 273.281 66.734 273.159 66.795 273.098C66.8435 273.026 66.8651 272.94 66.856 272.854C66.8747 272.748 66.8529 272.639 66.795 272.549C66.734 272.488 66.6729 272.366 66.6119 272.366L65.819 271.878Z" fill="#FFE55C"/>
<path d="M41.724 243.269C39.4668 241.855 37.5504 239.959 36.112 237.718C34.7081 235.468 33.7744 232.957 33.367 230.337L32.025 221.309C31.961 221.107 31.8573 220.92 31.72 220.76C31.5464 220.618 31.3335 220.533 31.11 220.516C30.8889 220.543 30.6787 220.627 30.5 220.76C30.3592 220.91 30.2732 221.103 30.256 221.309L28.853 230.337C28.4422 232.966 27.4865 235.48 26.047 237.718C24.6309 239.956 22.7349 241.853 20.496 243.269L19.337 244.062C19.207 244.13 19.1007 244.237 19.032 244.367C18.9505 244.494 18.9072 244.642 18.9072 244.794C18.9072 244.945 18.9505 245.093 19.032 245.221L19.337 245.526L20.496 246.319C22.7349 247.735 24.6309 249.631 26.047 251.87C27.4865 254.108 28.4422 256.622 28.853 259.251L30.256 268.279C30.2856 268.483 30.3884 268.67 30.5455 268.805C30.7026 268.94 30.9032 269.013 31.11 269.011C31.3275 269.015 31.5409 268.951 31.72 268.828C31.8444 268.658 31.9468 268.474 32.025 268.279L33.367 259.251C33.784 256.633 34.7171 254.124 36.112 251.87C37.5504 249.628 39.4668 247.732 41.724 246.319L42.944 245.526C43.0566 245.453 43.1423 245.346 43.188 245.221C43.2695 245.093 43.3128 244.945 43.3128 244.794C43.3128 244.642 43.2695 244.494 43.188 244.367C43.1423 244.241 43.0566 244.134 42.944 244.062L41.724 243.269Z" fill="#FF78B7"/>
<path d="M478.484 214.416C476.254 212.968 474.344 211.079 472.872 208.865C471.452 206.623 470.517 204.108 470.127 201.484L468.724 192.456C468.718 192.248 468.63 192.051 468.48 191.907C468.401 191.826 468.306 191.761 468.201 191.717C468.096 191.673 467.984 191.65 467.87 191.65C467.756 191.65 467.644 191.673 467.539 191.717C467.434 191.761 467.34 191.826 467.26 191.907C467.11 192.051 467.022 192.248 467.016 192.456L465.613 201.484C465.202 204.113 464.246 206.627 462.807 208.865C461.374 211.09 459.481 212.983 457.256 214.416L456.097 215.148L455.792 215.514C455.714 215.643 455.672 215.79 455.67 215.941C455.683 216.09 455.724 216.235 455.792 216.368C455.861 216.498 455.967 216.604 456.097 216.673L457.256 217.466C459.508 218.865 461.408 220.765 462.807 223.017C464.256 225.25 465.213 227.766 465.613 230.398L467.016 239.365C467.022 239.573 467.11 239.77 467.26 239.914C467.341 239.993 467.436 240.055 467.541 240.097C467.645 240.139 467.757 240.159 467.87 240.158C467.983 240.163 468.096 240.144 468.202 240.102C468.307 240.06 468.402 239.996 468.48 239.914C468.63 239.77 468.718 239.573 468.724 239.365L470.127 230.398C470.496 227.767 471.432 225.249 472.872 223.017C474.31 220.775 476.227 218.879 478.484 217.466L479.704 216.673L479.948 216.368C480.016 216.235 480.057 216.09 480.07 215.941C480.068 215.79 480.026 215.643 479.948 215.514L479.704 215.148L478.484 214.416Z" fill="#8AD7FF"/>
<path d="M416.142 71.0042C416.228 71.7398 416.02 72.4797 415.563 73.0624C415.106 73.6452 414.437 74.0236 413.702 74.1152H413.336C412.658 74.1194 412.002 73.8724 411.495 73.4219C410.988 72.9714 410.666 72.3492 410.591 71.6752C406.687 39.4062 393.084 26.6572 382.897 21.6552C383.686 20.0511 384.583 18.5022 385.581 17.0192C397.171 22.8752 412.055 37.0272 416.142 71.0042ZM433.466 1.83021C431.153 1.14344 428.786 0.653693 426.39 0.366211C435.357 16.1042 449.143 48.9832 435.235 85.9492C435.078 86.3729 435.025 86.8283 435.082 87.2766C435.138 87.725 435.302 88.153 435.56 88.5244C435.818 88.8957 436.161 89.1993 436.561 89.4095C436.961 89.6196 437.406 89.73 437.858 89.7312C438.432 89.7385 438.993 89.5659 439.464 89.2377C439.934 88.9094 440.29 88.4421 440.481 87.9012C453.962 51.9722 442.738 19.6422 433.466 1.83021Z" fill="#29CA7A"/>
</g>
<defs>
<linearGradient id="paint0_linear_1678_33749" x1="249.057" y1="323.514" x2="272.53" y2="251.662" gradientUnits="userSpaceOnUse">
<stop offset="0.18" stop-color="#FF78B7"/>
<stop offset="0.97" stop-color="#F25AA8"/>
</linearGradient>
<linearGradient id="paint1_linear_1678_33749" x1="356.441" y1="332.988" x2="335.384" y2="252.132" gradientUnits="userSpaceOnUse">
<stop offset="0.26" stop-color="#FF78B7"/>
<stop offset="0.51" stop-color="#F96BB0"/>
<stop offset="0.97" stop-color="#EB4A9F"/>
<stop offset="1" stop-color="#EA489E"/>
</linearGradient>
<linearGradient id="paint2_linear_1678_33749" x1="128.789" y1="117.041" x2="141.27" y2="188.204" gradientUnits="userSpaceOnUse">
<stop offset="0.15" stop-color="#5865F0"/>
<stop offset="0.89" stop-color="#3442D7"/>
</linearGradient>
<linearGradient id="paint3_linear_1678_33749" x1="295.033" y1="88.4505" x2="324.41" y2="245.068" gradientUnits="userSpaceOnUse">
<stop offset="0.42" stop-color="#8FFFAB"/>
<stop offset="0.92" stop-color="#58F086"/>
</linearGradient>
<clipPath id="clip0_1678_33749">
<rect width="488" height="424.56" fill="white"/>
</clipPath>
</defs>
</svg>
