<?xml version="1.0" encoding="UTF-8"?>
<svg xmlns="http://www.w3.org/2000/svg" xmlns:xlink="http://www.w3.org/1999/xlink" viewBox="0 0 580 364">
  <defs>
    <linearGradient id="linear-gradient" x1="278.68" y1="248.38" x2="203.29" y2="170.45" gradientUnits="userSpaceOnUse">
      <stop offset="0" stop-color="#eff1fc"/>
      <stop offset="1" stop-color="#fff"/>
    </linearGradient>
  </defs>
  <g id="Sparkles">
    <path d="m107.68,232.73c-4.16-2.68-6.97-7.03-7.71-11.93l-1.25-8.34c-.06-.41-.41-.71-.83-.71h0c-.42,0-.77.3-.83.71l-1.25,8.34c-.73,4.9-3.54,9.25-7.71,11.93l-1.08.7c-.24.15-.38.42-.38.71v.05c0,.29.14.55.38.71l1.08.7c4.16,2.68,6.97,7.03,7.71,11.93l1.25,8.34c.06.41.41.71.83.71h0c.42,0,.77-.3.83-.71l1.25-8.34c.73-4.9,3.54-9.25,7.71-11.93l1.08-.7c.24-.15.38-.42.38-.71v-.05c0-.29-.14-.55-.38-.71l-1.08-.7Z" style="fill: #ffe75c;"/>
    <path d="m87.48,257.82c-2.13-1.37-3.57-3.6-3.95-6.11l-.64-4.27c-.03-.21-.21-.37-.42-.37h0c-.21,0-.39.16-.42.37l-.64,4.27c-.38,2.51-1.81,4.73-3.94,6.11l-.55.36c-.12.08-.2.22-.2.36v.03c0,.15.07.28.2.36l.55.36c2.13,1.37,3.57,3.6,3.94,6.11l.64,4.27c.03.21.21.37.42.37h0c.21,0,.39-.16.42-.37l.64-4.27c.38-2.51,1.81-4.73,3.95-6.11l.55-.36c.12-.08.2-.22.2-.36v-.03c0-.15-.07-.28-.2-.36l-.55-.36Z" style="fill: #ffc619;"/>
    <path d="m419.2,80.07c-2.13-1.37-3.57-3.6-3.95-6.11l-.64-4.27c-.03-.21-.21-.37-.42-.37h0c-.21,0-.39.16-.42.37l-.64,4.27c-.38,2.51-1.81,4.73-3.94,6.11l-.55.36c-.12.08-.2.22-.2.36v.03c0,.15.07.28.2.36l.55.36c2.13,1.37,3.57,3.6,3.94,6.11l.64,4.27c.03.21.21.37.42.37h0c.21,0,.39-.16.42-.37l.64-4.27c.38-2.51,1.81-4.73,3.95-6.11l.55-.36c.12-.08.2-.22.2-.36v-.03c0-.15-.07-.28-.2-.36l-.55-.36Z" style="fill: #57f287;"/>
    <path d="m476.16,261.8c-2.67-1.72-4.46-4.5-4.93-7.63l-.8-5.34c-.04-.26-.27-.46-.53-.46h0c-.27,0-.49.19-.53.46l-.8,5.34c-.47,3.14-2.27,5.92-4.93,7.63l-.69.45c-.15.1-.25.27-.25.45v.03c0,.18.09.35.25.45l.69.45c2.67,1.72,4.46,4.5,4.93,7.63l.8,5.34c.04.26.27.46.53.46h0c.27,0,.49-.19.53-.46l.8-5.34c.47-3.14,2.27-5.92,4.93-7.63l.69-.45c.15-.1.25-.27.25-.45v-.03c0-.18-.09-.35-.25-.45l-.69-.45Z" style="fill: #ffe75c;"/>
    <path d="m244.64,29.34c-2.13-1.37-3.57-3.6-3.95-6.11l-.64-4.27c-.03-.21-.21-.37-.42-.37h0c-.21,0-.39.16-.42.37l-.64,4.27c-.38,2.51-1.81,4.73-3.94,6.11l-.55.36c-.12.08-.2.22-.2.36v.03c0,.15.07.28.2.36l.55.36c2.13,1.37,3.57,3.6,3.94,6.11l.64,4.27c.03.21.21.37.42.37h0c.21,0,.39-.16.42-.37l.64-4.27c.38-2.51,1.81-4.73,3.95-6.11l.55-.36c.12-.08.2-.22.2-.36v-.03c0-.15-.07-.28-.2-.36l-.55-.36Z" style="fill: #ffb0d5;"/>
    <path d="m494.62,271.72c-2.13-1.37-3.57-3.6-3.95-6.11l-.64-4.27c-.03-.21-.21-.37-.42-.37h0c-.21,0-.39.16-.42.37l-.64,4.27c-.38,2.51-1.81,4.73-3.94,6.11l-.55.36c-.12.08-.2.22-.2.36v.03c0,.15.07.28.2.36l.55.36c2.13,1.37,3.57,3.6,3.94,6.11l.64,4.27c.03.21.21.37.42.37h0c.21,0,.39-.16.42-.37l.64-4.27c.38-2.51,1.81-4.73,3.95-6.11l.55-.36c.12-.08.2-.22.2-.36v-.03c0-.15-.07-.28-.2-.36l-.55-.36Z" style="fill: #57f287;"/>
    <path d="m129.01,84.39c-1.49-.96-2.5-2.52-2.76-4.28l-.45-2.99c-.02-.15-.15-.26-.3-.26h0c-.15,0-.28.11-.3.26l-.45,2.99c-.26,1.76-1.27,3.31-2.76,4.28l-.39.25c-.09.06-.14.15-.14.25v.02c0,.1.05.2.14.25l.39.25c1.49.96,2.5,2.52,2.76,4.28l.45,2.99c.02.15.15.26.3.26h0c.15,0,.28-.11.3-.26l.45-2.99c.26-1.76,1.27-3.31,2.76-4.28l.39-.25c.09-.06.14-.15.14-.25v-.02c0-.1-.05-.2-.14-.25l-.39-.25Z" style="fill: #57f287;"/>
    <path d="m426.43,66.21c-1.07-.69-1.78-1.8-1.97-3.05l-.32-2.13c-.02-.11-.11-.18-.21-.18h0c-.11,0-.2.08-.21.18l-.32,2.13c-.19,1.25-.91,2.37-1.97,3.05l-.28.18c-.06.04-.1.11-.1.18h0c0,.09.04.15.1.19l.28.18c1.07.69,1.78,1.8,1.97,3.05l.32,2.13c.02.11.11.18.21.18h0c.11,0,.2-.08.21-.18l.32-2.13c.19-1.25.91-2.37,1.97-3.05l.28-.18c.06-.04.1-.11.1-.18h0c0-.09-.04-.15-.1-.19l-.28-.18Z" style="fill: #ffb0d5;"/>
    <path d="m486.52,246.65c-1.07-.69-1.78-1.8-1.97-3.05l-.32-2.13c-.02-.11-.11-.18-.21-.18h0c-.11,0-.2.08-.21.18l-.32,2.13c-.19,1.25-.91,2.37-1.97,3.05l-.28.18c-.06.04-.1.11-.1.18h0c0,.09.04.15.1.19l.28.18c1.07.69,1.78,1.8,1.97,3.05l.32,2.13c.02.11.11.18.21.18h0c.11,0,.2-.08.21-.18l.32-2.13c.19-1.25.91-2.37,1.97-3.05l.28-.18c.06-.04.1-.11.1-.18h0c0-.09-.04-.15-.1-.19l-.28-.18Z" style="fill: #ff78b9;"/>
    <path d="m233.96,18.29c-1.07-.69-1.78-1.8-1.97-3.05l-.32-2.13c-.02-.11-.11-.18-.21-.18h0c-.11,0-.2.08-.21.18l-.32,2.13c-.19,1.25-.91,2.37-1.97,3.05l-.28.18c-.06.04-.1.11-.1.18h0c0,.09.04.15.1.19l.28.18c1.07.69,1.78,1.8,1.97,3.05l.32,2.13c.02.11.11.18.21.18h0c.11,0,.2-.08.21-.18l.32-2.13c.19-1.25.91-2.37,1.97-3.05l.28-.18c.06-.04.1-.11.1-.18h0c0-.09-.04-.15-.1-.19l-.28-.18Z" style="fill: #57f287;"/>
  </g>
  <g id="Layer_17" data-name="Layer 17">
    <path d="m421.9,338.16c-14.93,1.2-72.83,4.35-105.7,6.11.01.1.01.19.01.29,0,2.19-.89,4.16-2.32,5.59-1.43,1.44-3.41,2.32-5.59,2.32h-43.67c-4.37,0-7.91-3.54-7.91-7.91,0-.1,0-.19.01-.29-32.87-1.76-90.77-4.91-105.7-6.11-21.18-1.69-25.22-5.71-23.43-24.56,2.44-25.89,14.87-106.83,15.43-112.66.57-5.84,1.88-10.54,12.05-10.17,6.94.26,91.05,62.83,143.63,102.43,30.16-27.97,108.46-129.79,116.7-130.1,10.17-.37,11.49,4.33,12.05,10.17.57,5.83,15.43,114.44,17.88,140.33,1.78,18.85-2.26,22.87-23.44,24.56Z" style="fill: #3442d9;"/>
  </g>
  <g id="Layer_18" data-name="Layer 18">
    <path d="m304.72,337.03h-37.83s5.08-9.03,18.92-9.03,18.91,9.03,18.91,9.03Z" style="fill: #242145;"/>
    <path d="m285.81,328l1.41-143.72c22.21-49.79,95.15-16.66,117.46-40.66l10.73,140.05c-39.53,35.29-94.87.56-129.6,44.33Z" style="fill: #fff;"/>
    <path d="m436.3,316.42l-16.19-149.43s-7.72-7.84-15.44-23.37,0,0,0,0l-13.03,87.62,16.42,81.32,28.24,3.86" style="fill: #dee0ff;"/>
    <path d="m162.23,157.83s-7.72,12.05-15.62,14.02l-11.29,144.56,29.65-14.68-2.73-143.91" style="fill: #b0b4ff;"/>
    <path d="m148.68,299.01s-2.95,8.77-13.36,17.41l131.58,20.61s5.08-9.04,18.92-9.04,0,0,0,0l-18.64-33.32-110.96-11.01" style="fill: #b0b4ff;"/>
    <path d="m285.45,328.1l1.77-143.82c-54.96-40.66-100.52,1.79-124.99-26.45l-13.55,141.18c42.54,27.48,104.7-15.34,136.77,29.09Z" style="fill: #d1d4ff;"/>
    <path d="m285.45,328.1l1.77-143.82c0-49.41-89.81-17.51-113.85-63.53l-3.89,147.95c38.19,42.64,85.84,6.21,115.97,59.39Z" style="fill: #e3e5ff;"/>
    <path d="m415.41,283.67s3.39,21.18,20.89,32.75l-131.58,20.61s-5.08-9.04-18.92-9.04,0,0,0,0l18.64-33.32,110.96-11.01" style="fill: #b0b4ff;"/>
    <path d="m285.81,328.1l1.41-143.82c0-49.41-71.72-38.68-90.92-84.71l-3.11,147.95c30.49,42.64,74.26,15.78,92.61,80.57Z" style="fill: url(#linear-gradient);"/>
    <path d="m285.81,328l1.41-143.72c22.21-49.79,95.15-16.66,117.46-40.66l10.73,140.05c-39.53,35.29-94.87.56-129.6,44.33Z" style="fill: #fff;"/>
    <path d="m402.56,278.04c.15,2.49-1.27,4.79-3.54,5.81-15.21,6.85-31.78,7.41-48.13,8.23-.6.03-1.2.06-1.8.09-3.4.18-6.25-2.52-6.25-5.93v-41.47c0-3.16,2.47-5.76,5.62-5.93,13.67-.73,29.46-.98,43.81-5.74,3.71-1.23,7.59,1.34,7.83,5.25l2.46,39.69Z" style="fill: #57f287;"/>
    <path d="m345.55,204.92c-.75,0-1.39-.56-1.49-1.31-.1-.82.48-1.57,1.3-1.67l1.74-.22c12.13-1.51,23.59-2.94,32.98-6.38.78-.28,1.64.11,1.92.89.29.78-.11,1.64-.89,1.92-9.71,3.56-21.34,5.01-33.65,6.54l-1.74.22c-.06,0-.12.01-.19.01Z" style="fill: #a9b3fc;"/>
    <path d="m345.55,194.73c-.75,0-1.39-.56-1.49-1.31-.1-.82.48-1.57,1.3-1.67l1.75-.22c16.68-2.08,32.44-4.04,42.65-11.31.67-.48,1.61-.33,2.09.35.48.67.32,1.61-.35,2.09-10.83,7.72-26.95,9.72-44.02,11.85l-1.75.22c-.06,0-.12.01-.19.01Z" style="fill: #a9b3fc;"/>
    <path d="m345.55,184.54c-.75,0-1.39-.56-1.49-1.31-.1-.82.48-1.57,1.3-1.67l1.74-.22c12.03-1.5,23.4-2.91,32.75-6.29.78-.28,1.64.12,1.92.9.28.78-.12,1.64-.9,1.92-9.67,3.5-21.19,4.93-33.4,6.45l-1.74.22c-.06,0-.12.01-.19.01Z" style="fill: #a9b3fc;"/>
    <path d="m345.55,174.35c-.75,0-1.39-.56-1.49-1.31-.1-.82.48-1.57,1.3-1.67l1.75-.22c16.68-2.08,32.44-4.04,42.65-11.31.67-.48,1.61-.33,2.09.35.48.67.32,1.61-.35,2.09-10.83,7.72-26.95,9.72-44.02,11.85l-1.75.22c-.06,0-.12.01-.19.01Z" style="fill: #a9b3fc;"/>
  </g>
  <g id="Layer_21" data-name="Layer 21">
    <g>
      <rect x="217.79" y="105.67" width="38.82" height="38.82" rx="7.19" ry="7.19" transform="translate(18.91 -30.67) rotate(7.7)" style="fill: #242145;"/>
      <rect x="221.79" y="102.67" width="38.82" height="38.82" rx="7.19" ry="7.19" transform="translate(18.55 -31.24) rotate(7.7)" style="fill: #57f287;"/>
      <g>
        <path d="m240.02,137.05c-.18,0-.36-.05-.53-.15-1.98-1.23-3.55-2.83-4.68-4.75-.28-.48-.12-1.09.36-1.37.48-.28,1.09-.12,1.37.36.96,1.64,2.31,3,4.01,4.06.47.29.61.91.32,1.38-.19.3-.52.47-.85.47Z" style="fill: #242145;"/>
        <path d="m233.92,126.9c-.44,0-.85-.3-.97-.75-.98-3.74.33-8.03,2.93-9.56.48-.28,1.09-.12,1.37.36s.12,1.09-.36,1.37c-1.82,1.07-2.76,4.49-2.01,7.32.14.53-.18,1.08-.71,1.22-.08.02-.17.03-.25.03Z" style="fill: #242145;"/>
        <path d="m233.24,135.61c-.31,0-.61-.14-.81-.41-1.77-2.4-2.99-5.13-3.62-8.1-.12-.54.23-1.07.77-1.19.54-.12,1.07.23,1.19.77.57,2.7,1.68,5.16,3.28,7.33.33.44.23,1.07-.21,1.4-.18.13-.39.2-.59.2Z" style="fill: #242145;"/>
        <path d="m229.34,123.06s-.02,0-.03,0c-.55-.01-.99-.47-.97-1.02.13-5.08,2.1-9.73,5.26-12.43,2.45-2.08,5.47-2.95,8.75-2.51,5.67.77,9.36,4.52,10.67,10.84.11.54-.24,1.07-.78,1.18-.54.11-1.07-.24-1.18-.78-1.13-5.5-4.16-8.61-8.98-9.27-2.7-.37-5.18.34-7.18,2.05-2.74,2.34-4.45,6.43-4.56,10.96-.01.54-.46.98-1,.98Z" style="fill: #242145;"/>
        <path d="m252.14,130.85s-.09,0-.14,0c-.55-.07-.93-.58-.86-1.12.42-3.07.52-5.9.32-8.41-.04-.55.37-1.03.92-1.08.55-.05,1.03.37,1.08.92.21,2.66.1,5.63-.33,8.84-.07.5-.5.87-.99.87Z" style="fill: #242145;"/>
        <path d="m247.96,128.8c-.08,0-.16,0-.24-.03-.54-.13-.87-.67-.74-1.21,1.6-6.62-.42-11.03-2.85-12.95-1.98-1.57-4.42-1.8-6.7-.65-.49.25-1.09.05-1.34-.44-.25-.49-.05-1.09.44-1.34,2.96-1.5,6.27-1.18,8.84.86,2.92,2.31,5.38,7.46,3.55,14.99-.11.46-.52.76-.97.76Z" style="fill: #242145;"/>
        <path d="m244.09,125.82s-.09,0-.14,0c-.55-.07-.93-.58-.86-1.12.31-2.28.08-4.01-.68-5.15-.56-.84-1.4-1.34-2.49-1.48-.55-.07-.93-.58-.86-1.13.07-.55.58-.93,1.13-.86,1.67.23,3.01,1.04,3.89,2.36,1.04,1.56,1.38,3.76,1,6.53-.07.5-.5.87-.99.87Z" style="fill: #242145;"/>
        <path d="m245.6,134.08s-.09,0-.14,0c-6.61-.89-8.2-6.86-7.49-12.14.07-.55.58-.93,1.13-.86.55.07.93.58.86,1.13-.28,2.1-.71,9.01,5.77,9.89.55.07.93.58.86,1.13-.07.5-.5.87-.99.87Z" style="fill: #242145;"/>
      </g>
    </g>
  </g>
  <g id="Layer_22" data-name="Layer 22">
    <g>
      <path d="m532.26,179.38c-13.23,2.68-21.46,7.84-25.57,13.23,1.53,3.92-2.12,8.03-4.81,5.73-2.88-2.44-32.33-22.37-37.4-31.3-1.05-1.62-2.51-5.88-3.74-9.61-.39-1.2-.76-2.35-1.09-3.34-.41-1.22-.81-2.44-1.2-3.67-.14-.42-.28-.85-.41-1.28-.43-1.35-.86-2.71-1.27-4.07-.92-3.01-1.8-6.03-2.64-9.03-.02-.08-.05-.17-.07-.25-6.55-23.43-10.78-45.7-12.84-53.3-3.58-13.18,11.13-23.5,21.29-15.28l45.5,35.85c1.5,1.19,2.64,2.78,3.29,4.59,4.36,12.26,22.13,61.56,24.19,67.36,2.25,6.35-.78,5.78-3.23,4.37Z" style="fill: #3442d9;"/>
      <path d="m532.24,179.37c-13.22,2.67-21.45,7.85-25.56,13.23-.8,1.04-1.44,2.09-1.94,3.13,0,0-21.95-16.85-30.31-23.65-9.08-7.39-12.02-15.52-3.88-21.2,5.39-3.76,11.9-2.71,18.8.48s42.55,27.81,42.55,27.81c.11.07.23.14.34.2Z" style="fill: #fff;"/>
      <path d="m526.09,170.34c-.09,0-.19-.03-.27-.08l-30.08-19.61c-.1-.06-.17-.16-.2-.27-.6-1.85-1.82-3.46-3.45-4.52-.1-.06-.17-.16-.2-.27l-19.74-61.41c-.07-.21,0-.43.19-.56.18-.13.42-.12.59,0,.65.49,1.34.33,1.77.02.43-.31.81-.91.56-1.68-.07-.21,0-.43.19-.56.18-.13.42-.12.59,0l30.73,23.13c.08.06.14.14.17.24.55,1.64,1.57,3.05,2.95,4.09.08.06.14.14.17.24l19.5,58.24c.07.2,0,.42-.17.55-.17.13-.4.14-.58.02-.66-.43-1.33-.25-1.74.07-.41.32-.75.92-.5,1.66.07.2,0,.42-.17.55-.09.07-.2.1-.31.1Zm-29.66-20.43l29.07,18.95c.08-.63.42-1.22.95-1.63.54-.42,1.19-.59,1.82-.51l-19.12-57.12c-1.44-1.12-2.51-2.61-3.12-4.33l-29.74-22.39c-.11.63-.46,1.2-1.02,1.6s-1.21.54-1.84.44l19.35,60.21c1.7,1.15,2.99,2.84,3.65,4.78Z" style="fill: #a9b3fc;"/>
      <path d="m483.68,144.37c-12.27-2.74-21.27,5.12-22.94,13.06-.39-1.2-.76-2.35-1.09-3.34-.41-1.22-.81-2.44-1.2-3.67-.14-.42-.28-.85-.41-1.28-.43-1.35-.86-2.71-1.27-4.07,8.38-13.95,23.78-10.71,23.78-10.71l3.13,10.01Z" style="fill: #a9b3fc;"/>
    </g>
  </g>
  <g id="Layer_20" data-name="Layer 20">
    <g>
      <g>
        <path d="m446.87,99.53c1.21-2.05,2.96-3.13,5.53-1.62,2.2,1.3,3.59,2.52,1.43,6.17l-6.96-4.55Z" style="fill: #6990ff;"/>
        <path d="m448.63,100.29c.68-1.1,1.64-1.66,3-.86,1.16.68,1.9,1.34.85,3.25l-3.85-2.39Z" style="fill: #b7ccff;"/>
      </g>
      <g>
        <path d="m435.48,118.86c-1.21,2.05-1.3,4.11,1.26,5.62,2.2,1.3,3.94,1.91,6.1-1.74l-7.36-3.88Z" style="fill: #6990ff;"/>
        <path d="m437,120.03c-.63,1.12-.66,2.24.7,3.04,1.16.68,2.09,1.02,3.25-.83l-3.96-2.21Z" style="fill: #b7ccff;"/>
      </g>
      <path d="m451.61,115.34c5.42-9.2,4.39-11.34-1.49-14.8-4.09-2.41-6.56-4.55-12.95,6.29-6.39,10.84-3.32,11.96.78,14.38,5.88,3.46,8.25,3.33,13.67-5.87Z" style="fill: #6990ff;"/>
      <path d="m447.49,112.92c1.06-1.8,2.22-3.53,1.61-4.89s-2.81-2.8-3.15-3.01c-.98-.62-2.07-1.02-2.88-.21s-1.82,2.34-2.75,3.89c-.91,1.56-1.77,3.23-2.07,4.29s.56,1.86,1.57,2.42c.35.19,2.72,1.41,4.16,1.29,1.49-.12,2.44-1.98,3.5-3.78Z" style="fill: #b7ccff;"/>
      <g>
        <path d="m435.65,109.59h0c-.28.23-.54.41-.78.55-3.54,2.12-3.56-2.75-.78-3.23.71-.13,1.13-.2,1.37-.39.12-.1.19-.16.19-.16,0,0,.08.03.2.09.92.39,1.18,1.57.52,2.32l-.72.82Z" style="fill: #55f186;"/>
        <path d="m434.87,110.14c.77-.39,2.15-1.72,3.09-3.3,3.68-6.18-4.13-8.21-2.76-1.91.62,2.83.06,4.6-.33,5.21Z" style="fill: #29cc7a;"/>
      </g>
    </g>
    <g>
      <path d="m406.7,115.61c-.15,0-.3-.03-.45-.11l-.12-.06c-.49-.25-.68-.85-.43-1.35.25-.49.85-.69,1.35-.43l.1.05c.49.25.69.85.45,1.34-.18.35-.53.55-.9.55Z" style="fill: #ffe75c;"/>
      <path d="m412.94,117.01c-.52,0-.96-.41-1-.94-.03-.55.38-1.03.94-1.06l.24-.02c.56-.05,1.03.36,1.08.91s-.36,1.03-.91,1.08l-.28.02s-.04,0-.06,0Zm-3.08-.24c-.07,0-.15,0-.22-.02l-.27-.06c-.54-.13-.86-.68-.73-1.21.13-.54.67-.86,1.21-.73l.23.05c.54.12.88.66.75,1.2-.11.46-.52.78-.97.78Zm6.35-.45c-.41,0-.8-.26-.94-.67-.18-.52.09-1.09.61-1.28l.23-.08c.52-.19,1.09.07,1.29.59.19.52-.07,1.09-.59,1.29l-.26.09c-.11.04-.22.06-.33.06Zm3.05-1.41c-.35,0-.69-.18-.87-.51-.27-.48-.1-1.09.39-1.36l.23-.13c.48-.27,1.09-.1,1.36.39.27.48.1,1.09-.39,1.36l-.23.13c-.15.09-.32.13-.49.13Zm2.86-1.76c-.33,0-.65-.16-.84-.46-.3-.46-.17-1.08.29-1.38l.21-.14c.46-.31,1.08-.18,1.39.28.31.46.18,1.08-.28,1.39l-.23.15c-.17.11-.36.16-.54.16Zm2.81-1.85c-.33,0-.65-.16-.84-.46-.3-.46-.17-1.08.29-1.38l.22-.14c.46-.3,1.08-.16,1.38.3.3.46.16,1.08-.3,1.38l-.21.14c-.17.11-.36.16-.54.16Zm2.88-1.73c-.36,0-.7-.19-.88-.53-.26-.49-.08-1.09.41-1.35l.23-.12c.49-.26,1.09-.07,1.35.41.26.49.07,1.09-.41,1.35l-.22.12c-.15.08-.31.12-.47.12Zm3.05-1.39c-.41,0-.79-.25-.94-.66-.19-.52.08-1.09.6-1.28l.26-.09c.53-.18,1.09.1,1.27.62.18.52-.1,1.09-.62,1.27l-.23.08c-.11.04-.23.06-.34.06Z" style="fill: #ffe75c;"/>
      <path d="m434.14,107.36c-.49,0-.92-.36-.99-.86-.08-.55.3-1.05.85-1.13l.13-.02c.55-.07,1.05.31,1.12.86.07.55-.31,1.05-.86,1.12l-.12.02s-.09,0-.14,0Z" style="fill: #ffe75c;"/>
    </g>
    <g>
      <rect x="273.46" y="39.21" width="146.58" height="36.51" rx="18.25" ry="18.25" transform="translate(-2.54 96.66) rotate(-15.81)" style="fill: #242145;"/>
      <g>
        <rect x="269.46" y="35.21" width="146.58" height="36.51" rx="18.25" ry="18.25" transform="translate(-1.6 95.42) rotate(-15.81)" style="fill: #fff;"/>
        <g>
          <path d="m296.32,64.53l-2.28.65,1.16-2.07c.54-.96.19-2.18-.77-2.72-.96-.54-2.18-.19-2.72.77l-1.16,2.07-.65-2.28c-.3-1.06-1.41-1.68-2.47-1.38s-1.68,1.41-1.38,2.47l.65,2.28-2.07-1.16c-.96-.54-2.18-.19-2.72.77-.54.96-.19,2.18.77,2.72l2.07,1.16-2.28.65c-1.06.3-1.68,1.41-1.38,2.47s1.41,1.68,2.47,1.38l2.28-.65-1.16,2.07c-.54.96-.19,2.18.77,2.72.48.27,1.03.32,1.52.18s.93-.47,1.2-.95l1.16-2.07.65,2.28c.3,1.06,1.41,1.68,2.47,1.38s1.68-1.41,1.38-2.47l-.65-2.28,2.07,1.16c.48.27,1.03.32,1.52.18s.93-.47,1.2-.95c.54-.96.19-2.18-.77-2.72l-2.07-1.16,2.28-.65c1.06-.3,1.68-1.41,1.38-2.47s-1.41-1.68-2.47-1.38Z" style="fill: #242145;"/>
          <path d="m317.44,58.55l-2.28.65,1.16-2.07c.54-.96.19-2.18-.77-2.72-.96-.54-2.18-.19-2.72.77l-1.16,2.07-.65-2.28c-.3-1.06-1.41-1.68-2.47-1.38s-1.68,1.41-1.38,2.47l.65,2.28-2.07-1.16c-.96-.54-2.18-.19-2.72.77-.54.96-.19,2.18.77,2.72l2.07,1.16-2.28.65c-1.06.3-1.68,1.41-1.38,2.47s1.41,1.68,2.47,1.38l2.28-.65-1.16,2.07c-.54.96-.19,2.18.77,2.72.48.27,1.03.32,1.52.18s.93-.47,1.2-.95l1.16-2.07.65,2.28c.3,1.06,1.41,1.68,2.47,1.38s1.68-1.41,1.38-2.47l-.65-2.28,2.07,1.16c.48.27,1.03.32,1.52.18s.93-.47,1.2-.95c.54-.96.19-2.18-.77-2.72l-2.07-1.16,2.28-.65c1.06-.3,1.68-1.41,1.38-2.47s-1.41-1.68-2.47-1.38Z" style="fill: #242145;"/>
          <path d="m338.57,52.57l-2.28.65,1.16-2.07c.54-.96.19-2.18-.77-2.72-.96-.54-2.18-.19-2.72.77l-1.16,2.07-.65-2.28c-.3-1.06-1.41-1.68-2.47-1.38s-1.68,1.41-1.38,2.47l.65,2.28-2.07-1.16c-.96-.54-2.18-.19-2.72.77-.54.96-.19,2.18.77,2.72l2.07,1.16-2.28.65c-1.06.3-1.68,1.41-1.38,2.47s1.41,1.68,2.47,1.38l2.28-.65-1.16,2.07c-.54.96-.19,2.18.77,2.72.48.27,1.03.32,1.52.18s.93-.47,1.2-.95l1.16-2.07.65,2.28c.3,1.06,1.41,1.68,2.47,1.38s1.68-1.41,1.38-2.47l-.65-2.28,2.07,1.16c.48.27,1.03.32,1.52.18s.93-.47,1.2-.95c.54-.96.19-2.18-.77-2.72l-2.07-1.16,2.28-.65c1.06-.3,1.68-1.41,1.38-2.47s-1.41-1.68-2.47-1.38Z" style="fill: #242145;"/>
          <path d="m359.69,46.59l-2.28.65,1.16-2.07c.54-.96.19-2.18-.77-2.72-.96-.54-2.18-.19-2.72.77l-1.16,2.07-.65-2.28c-.3-1.06-1.41-1.68-2.47-1.38s-1.68,1.41-1.38,2.47l.65,2.28-2.07-1.16c-.96-.54-2.18-.19-2.72.77-.54.96-.19,2.18.77,2.72l2.07,1.16-2.28.65c-1.06.3-1.68,1.41-1.38,2.47s1.41,1.68,2.47,1.38l2.28-.65-1.16,2.07c-.54.96-.19,2.18.77,2.72.48.27,1.03.32,1.52.18s.93-.47,1.2-.95l1.16-2.07.65,2.28c.3,1.06,1.41,1.68,2.47,1.38s1.68-1.41,1.38-2.47l-.65-2.28,2.07,1.16c.48.27,1.03.32,1.52.18s.93-.47,1.2-.95c.54-.96.19-2.18-.77-2.72l-2.07-1.16,2.28-.65c1.06-.3,1.68-1.41,1.38-2.47s-1.41-1.68-2.47-1.38Z" style="fill: #242145;"/>
          <path d="m380.82,40.6l-2.28.65,1.16-2.07c.54-.96.19-2.18-.77-2.72-.96-.54-2.18-.19-2.72.77l-1.16,2.07-.65-2.28c-.3-1.06-1.41-1.68-2.47-1.38s-1.68,1.41-1.38,2.47l.65,2.28-2.07-1.16c-.96-.54-2.18-.19-2.72.77-.54.96-.19,2.18.77,2.72l2.07,1.16-2.28.65c-1.06.3-1.68,1.41-1.38,2.47s1.41,1.68,2.47,1.38l2.28-.65-1.16,2.07c-.54.96-.19,2.18.77,2.72.48.27,1.03.32,1.52.18s.93-.47,1.2-.95l1.16-2.07.65,2.28c.3,1.06,1.41,1.68,2.47,1.38s1.68-1.41,1.38-2.47l-.65-2.28,2.07,1.16c.48.27,1.03.32,1.52.18s.93-.47,1.2-.95c.54-.96.19-2.18-.77-2.72l-2.07-1.16,2.28-.65c1.06-.3,1.68-1.41,1.38-2.47s-1.41-1.68-2.47-1.38Z" style="fill: #242145;"/>
          <path d="m401.94,34.62l-2.28.65,1.16-2.07c.54-.96.19-2.18-.77-2.72-.96-.54-2.18-.19-2.72.77l-1.16,2.07-.65-2.28c-.3-1.06-1.41-1.68-2.47-1.38s-1.68,1.41-1.38,2.47l.65,2.28-2.07-1.16c-.96-.54-2.18-.19-2.72.77-.54.96-.19,2.18.77,2.72l2.07,1.16-2.28.65c-1.06.3-1.68,1.41-1.38,2.47s1.41,1.68,2.47,1.38l2.28-.65-1.16,2.07c-.54.96-.19,2.18.77,2.72.48.27,1.03.32,1.52.18s.93-.47,1.2-.95l1.16-2.07.65,2.28c.3,1.06,1.41,1.68,2.47,1.38s1.68-1.41,1.38-2.47l-.65-2.28,2.07,1.16c.48.27,1.03.32,1.52.18s.93-.47,1.2-.95c.54-.96.19-2.18-.77-2.72l-2.07-1.16,2.28-.65c1.06-.3,1.68-1.41,1.38-2.47s-1.41-1.68-2.47-1.38Z" style="fill: #242145;"/>
        </g>
      </g>
    </g>
    <g>
      <path d="m365.17,98.99c-.63.3-1.39.31-2.06-.04-1.13-.59-1.56-1.98-.98-3.11l2.11-4.03c.59-1.13,1.98-1.56,3.11-.98,1.13.59,1.56,1.98.98,3.11l-2.11,4.03c-.24.46-.61.8-1.05,1.01Z" style="fill: #ffe75c;"/>
      <path d="m361.71,97.19c-.63.3-1.39.31-2.06-.04-1.13-.59-1.56-1.98-.98-3.11l2.11-4.03c.59-1.13,1.98-1.56,3.11-.98,1.13.59,1.56,1.98.98,3.11l-2.11,4.03c-.24.46-.61.8-1.05,1.01Z" style="fill: #ffe75c;"/>
      <path d="m358.71,95.62c-.63.3-1.39.31-2.06-.04-1.13-.59-1.56-1.98-.98-3.11l2.11-4.03c.59-1.13,1.98-1.56,3.11-.98,1.13.59,1.56,1.98.98,3.11l-2.11,4.03c-.24.46-.61.8-1.05,1.01Z" style="fill: #ffe75c;"/>
      <path d="m390.33,106.99c-.63.3-1.39.31-2.06-.04l-31.24-16.31c-1.13-.59-1.56-1.98-.98-3.11.59-1.13,1.98-1.56,3.11-.98l31.24,16.31c1.13.59,1.56,1.98.98,3.11-.24.46-.61.8-1.05,1.01Z" style="fill: #ffe75c;"/>
      <path d="m401.89,118.94c-.47.23-.97.42-1.48.58-2.82.89-5.81.62-8.43-.75-5.4-2.82-7.51-9.51-4.69-14.92,2.82-5.4,9.51-7.51,14.92-4.69,2.62,1.37,4.55,3.67,5.43,6.49.89,2.82.62,5.81-.75,8.43-1.12,2.14-2.87,3.83-5.01,4.85Zm-7.58-15.78c-1.22.58-2.26,1.55-2.93,2.83-1.65,3.15-.42,7.06,2.73,8.71,1.53.8,3.28.95,4.92.44,1.65-.52,2.99-1.64,3.79-3.17h0c.8-1.53.95-3.28.44-4.92-.52-1.64-1.64-2.99-3.17-3.79-1.87-.98-4-.94-5.77-.1Z" style="fill: #ffe75c;"/>
    </g>
    <g>
      <path d="m349.77,146.91l-6.6-17.13c-1.14-2.96-1.06-6.18.23-9.08,1.29-2.9,3.62-5.12,6.58-6.26,6.1-2.35,12.99.7,15.34,6.81l6.6,17.13-22.15,8.52Zm4.47-28.26c-.82,0-1.65.15-2.46.46-1.71.66-3.06,1.94-3.81,3.62s-.79,3.54-.13,5.25l4.8,12.47,12.81-4.93-4.8-12.47c-1.05-2.72-3.66-4.4-6.42-4.4Z" style="fill: #ffe75c;"/>
      <path d="m373.3,159.05l-14.88,5.73c-3.53,1.36-7.5-.4-8.86-3.93l-5.73-14.88c-1.36-3.53,2.19-12.93,5.72-14.28l13.09-.3c3.53-1.36,7.5.4,8.86,3.93l8.59,9.86c1.36,3.53-3.27,12.51-6.8,13.87Z" style="fill: #ffc619;"/>
      <rect x="348.28" y="127.47" width="29.65" height="29.65" rx="6.85" ry="6.85" transform="translate(-26.88 139.94) rotate(-21.05)" style="fill: #ffe75c;"/>
      <path d="m366.09,142.48l2.22,4.07c.31.57.05,1.29-.56,1.52l-4.21,1.62c-.61.23-1.28-.12-1.43-.75l-1.09-4.5c-.11-.46-.47-.81-.93-.94-1.18-.34-2.15-1.13-2.58-2.25-.81-2.1.56-4.58,3.06-5.54s5.18-.04,5.99,2.06c.43,1.12.24,2.35-.41,3.4-.25.4-.28.9-.05,1.32Z" style="fill: #242145;"/>
    </g>
    <path d="m219.89,229.52l40.13,19.74c8.17,4.02,14.31-3.47,11.06-13.48l-15.98-49.19c-3.26-10.02-13.47-15.04-18.38-9.04l-24.15,29.45c-4.92,5.99-.85,18.5,7.32,22.52Z" style="fill: #ffc619;"/>
    <g>
      <ellipse cx="245.38" cy="226.27" rx="5.77" ry="8.29" transform="translate(-83.52 169.42) rotate(-32.87)" style="fill: #242145;"/>
      <path d="m239.26,190.1l-.11,15.44c-.01,1.91.69,3.92,1.83,5.61,1.14,1.7,2.72,3.07,4.48,3.73,3.51,1.32,6.38-.71,6.41-4.54l.11-15.44c.03-3.83-2.8-8.01-6.31-9.34-3.51-1.32-6.38.71-6.41,4.54Z" style="fill: #242145;"/>
    </g>
    <path d="m338.79,173.83l.84,34.68c.16,3.89-2.5,7.33-6.31,8.14-7.99,1.7-16.09,3.52-23.21,6.97-5.15,2.5-11.17-1.15-11.41-6.87l-.76-30.67c-.11-2.53,1.11-8.69,6.97-12.44,8.6-5.5,15.81-7.28,24.21-7.28,4.96,0,9.46,2.52,9.67,7.47Z" style="fill: #ffb0d5;"/>
  </g>
  <g id="Layer_23" data-name="Layer 23">
    <g>
      <polygon points="154.32 74.52 145.26 80.16 135.31 75.78 136.54 67.79 154.32 74.52" style="fill: #242145;"/>
      <g>
        <path d="m112.86,32.33c6.11,2.46,36.45,4.47,36.45,4.47l-6.97,34.51-21.95-20.05-9.02-16.25,1.49-2.68Z" style="fill: #e3e5ff;"/>
        <path d="m160.49,18.1c2.44.61,10.55,3.07,10.55,3.07l-18.34,53.05-1.01.26-5.03-19.71,9.22-34.04,4.6-2.63Z" style="fill: #e3e5ff;"/>
        <path d="m136.85,75.59c0-2.67,2.77-4.28,5.49-4.28-3.65-20.5-26.09-20.53-29.48-38.98l-9.06,4.43,33.04,38.82" style="fill: #fff;"/>
        <path d="m151.7,74.48c-1.23-6.37-3.65-35.07,8.8-56.39,0,0-6.26,2.98-12.26,1.57-4.86,10.68-8.98,31.98-5.89,51.65,6.67,0,9.35,3.17,9.35,3.17Z" style="fill: #fff;"/>
        <path d="m151.7,74.89s11.63-53.22,12.45-56.72,1.19-4.62,7.45-2.91c6.26,1.71,44.8,10.29,47.63,11.11,2.83.82,4.47,1.34,2.09,5.66s-22.66,45.24-22.66,45.24l-46.96-2.39Z" style="fill: #ff78b9;"/>
        <path d="m198.65,77.28l-46.96-2.39c-.02,1.7-3.65,2.05-8.78,2.05-4.36,0-5.75-.48-6.07-1.35-.22-.59-.6-1.11-1.01-1.59l-31.82-37.52c-.66-.77-1.83-.96-2.62-.33-.84.67-.93,1.88-.25,2.67l32.97,37.75c-.82,1.62-.01,4,1.95,4h58.53c3.13,0,5.18-1.58,4.06-3.3Z" style="fill: #ff78b9;"/>
      </g>
    </g>
    <path d="m295.45,254.77c-.48,0-.95-.23-1.24-.65-.47-.68-.29-1.62.39-2.08,10.74-7.33,25.3-8.81,38.13-9.28.86-.02,1.52.62,1.55,1.44.03.83-.62,1.52-1.44,1.55-12.4.46-26.44,1.85-36.55,8.76-.26.18-.55.26-.84.26Z" style="fill: #a9b3fc;"/>
    <path d="m295.45,265.96c-.48,0-.95-.23-1.24-.65-.47-.68-.29-1.62.39-2.08,10.74-7.33,25.3-8.81,38.13-9.28.86-.04,1.52.62,1.55,1.44.03.83-.62,1.52-1.44,1.55-12.4.46-26.44,1.85-36.55,8.76-.26.18-.55.26-.84.26Z" style="fill: #a9b3fc;"/>
    <path d="m295.45,277.15c-.48,0-.95-.23-1.24-.65-.47-.68-.29-1.62.39-2.08,10.74-7.33,25.3-8.81,38.13-9.28.86-.04,1.52.62,1.55,1.44.03.83-.62,1.52-1.44,1.55-12.4.46-26.44,1.85-36.55,8.76-.26.18-.55.26-.84.26Z" style="fill: #a9b3fc;"/>
    <path d="m295.45,288.34c-.48,0-.95-.23-1.24-.65-.47-.68-.29-1.62.39-2.08,3.49-2.39,7.69-4.32,12.46-5.76.79-.24,1.63.21,1.87,1,.24.79-.21,1.63-1,1.87-4.48,1.34-8.39,3.15-11.63,5.36-.26.18-.55.26-.84.26Z" style="fill: #a9b3fc;"/>
  </g>
  <g id="Layer_24" data-name="Layer 24">
    <g>
      <path d="m103.56,187.92l-59.84-8.83c-8.62-1.27-13.25-9.24-10.38-17.71l17.73-52.34c2.65-7.83,11.41-13.14,19.58-11.94l56.73,8.37c8.17,1.21,13.03,8.53,10.83,16.42l-14.71,52.79c-2.38,8.54-11.32,14.51-19.94,13.24Z" style="fill: #242145;"/>
      <path d="m100.56,183.92l-59.84-8.83c-8.62-1.27-13.25-9.24-10.38-17.71l17.73-52.34c2.65-7.83,11.41-13.14,19.58-11.94l56.73,8.37c8.17,1.21,13.03,8.53,10.83,16.42l-14.71,52.79c-2.38,8.54-11.32,14.51-19.94,13.24Z" style="fill: #fff;"/>
      <g>
        <path d="m64.42,104.99l-8.42,8.22c-1.73,1.68-1.1,4.21,1.12,4.54l10.95,1.62c2.23.33,4.36-1.79,3.85-3.8l-2.53-9.83c-.51-1.99-3.27-2.39-4.97-.73Z" style="fill: #ffe75c;"/>
        <g>
          <path d="m65.37,115.61c.3-.92-.23-1.77-1.19-1.91s-1.97.49-2.27,1.4.23,1.78,1.19,1.92,1.97-.49,2.27-1.41Z" style="fill: #242145;"/>
          <path d="m66.68,106.05h0c-.91-.13-1.88.46-2.17,1.33l-1.15,3.52c-.29.88.22,1.7,1.14,1.83h0c.91.14,1.89-.47,2.17-1.34l1.15-3.52c.28-.87-.23-1.69-1.14-1.82Z" style="fill: #242145;"/>
        </g>
      </g>
      <g>
        <path d="m65.89,134.3c1.38-4.31-1.09-8.31-5.5-8.97s-9.15,2.29-10.58,6.59,1.01,8.39,5.48,9.04,9.22-2.34,10.61-6.67Z" style="fill: #57f287;"/>
        <path d="m62.26,133.77h0c.29-.9-.22-1.74-1.15-1.88l-5.46-.81c-.93-.14-1.92.48-2.21,1.38h0c-.3.9.21,1.74,1.14,1.88l5.47.81c.93.14,1.92-.48,2.21-1.39Z" style="fill: #242145;"/>
      </g>
      <g>
        <path d="m53.56,165l-10.83-1.6c-1.77-.26-2.74-1.9-2.16-3.65l3.52-10.62c.57-1.72,2.46-2.91,4.21-2.65l10.71,1.58c1.75.26,2.73,1.87,2.17,3.59l-3.4,10.63c-.56,1.75-2.46,2.97-4.23,2.71Z" style="fill: #ff78b9;"/>
        <g>
          <path d="m48.15,151.07h0c-.88.55-1.23,1.61-.78,2.37l3.92,6.56c.45.76,1.53.92,2.42.36h0c.88-.56,1.22-1.63.77-2.39l-3.92-6.54c-.45-.75-1.53-.91-2.4-.35Z" style="fill: #242145;"/>
          <path d="m56.32,152.27h0c.45.75.11,1.81-.77,2.37l-7.63,4.85c-.88.56-1.96.4-2.42-.36h0c-.45-.76-.1-1.82.78-2.38l7.63-4.84c.88-.55,1.95-.4,2.4.35Z" style="fill: #242145;"/>
        </g>
      </g>
      <g>
        <path d="m122.95,117.95c-.07,0-.14,0-.21-.02l-39.83-5.88c-.76-.11-1.29-.82-1.18-1.59.11-.77.83-1.29,1.59-1.18l39.83,5.88c.76.11,1.29.82,1.18,1.59-.1.7-.7,1.2-1.38,1.2Z" style="fill: #a9b3fc;"/>
        <path d="m106.34,121.99c-.07,0-.14,0-.21-.02l-25.17-3.71c-.76-.11-1.29-.82-1.18-1.59.11-.77.83-1.3,1.59-1.18l25.17,3.71c.76.11,1.29.82,1.18,1.59-.1.7-.7,1.2-1.38,1.2Z" style="fill: #a9b3fc;"/>
      </g>
      <g>
        <path d="m116.66,139.86c-.07,0-.14,0-.21-.02l-40.41-5.96c-.76-.11-1.29-.82-1.18-1.59.11-.77.83-1.29,1.59-1.18l40.41,5.96c.76.11,1.29.82,1.18,1.59-.1.7-.7,1.2-1.38,1.2Z" style="fill: #a9b3fc;"/>
        <path d="m99.78,144.05c-.07,0-.14,0-.21-.02l-25.53-3.77c-.76-.11-1.29-.82-1.18-1.59.11-.77.83-1.29,1.59-1.18l25.53,3.77c.76.11,1.29.82,1.18,1.59-.1.7-.7,1.2-1.38,1.2Z" style="fill: #a9b3fc;"/>
      </g>
      <g>
        <path d="m110.61,162.47c-.07,0-.14,0-.21-.02l-41-6.05c-.76-.11-1.29-.82-1.18-1.59.11-.77.83-1.29,1.59-1.18l41,6.05c.76.11,1.29.82,1.18,1.59-.1.7-.7,1.2-1.38,1.2Z" style="fill: #a9b3fc;"/>
        <path d="m93.45,166.82c-.07,0-.14,0-.21-.02l-25.91-3.82c-.76-.11-1.29-.82-1.18-1.59.11-.76.83-1.29,1.59-1.18l25.91,3.82c.76.11,1.29.82,1.18,1.59-.1.7-.7,1.2-1.38,1.2Z" style="fill: #a9b3fc;"/>
      </g>
    </g>
  </g>
</svg>