<?xml version="1.0" encoding="UTF-8"?>
<svg id="Vector" xmlns="http://www.w3.org/2000/svg" xmlns:xlink="http://www.w3.org/1999/xlink" viewBox="0 0 446 290">
  <defs>
    <style>
      .cls-1 {
        fill: #276ad5;
      }

      .cls-2 {
        fill: url(#linear-gradient-2);
      }

      .cls-3 {
        fill: #fff;
      }

      .cls-4 {
        fill: #242145;
      }

      .cls-5 {
        fill: #91ffad;
      }

      .cls-6 {
        fill: #eb459f;
      }

      .cls-7 {
        fill: #008c3c;
      }

      .cls-8 {
        fill: #ffc619;
      }

      .cls-9 {
        fill: #6990ff;
      }

      .cls-10 {
        fill: #b2e9ff;
      }

      .cls-11 {
        fill: #66bcff;
      }

      .cls-12 {
        fill: #b7ccff;
      }

      .cls-13 {
        fill: url(#linear-gradient-3);
      }

      .cls-14 {
        fill: url(#linear-gradient);
      }

      .cls-15 {
        fill: #423d80;
      }

      .cls-16 {
        fill: #29cc7a;
      }

      .cls-17 {
        fill: #3f99f2;
      }

      .cls-18 {
        fill: #8cd9ff;
      }
    </style>
    <linearGradient id="linear-gradient" x1="235.02" y1="204.84" x2="232.27" y2="194.58" gradientTransform="translate(80.17 -66.6) rotate(19.52)" gradientUnits="userSpaceOnUse">
      <stop offset=".26" stop-color="#3f99f2"/>
      <stop offset=".83" stop-color="#276ad5"/>
    </linearGradient>
    <linearGradient id="linear-gradient-2" x1="222.89" y1="20.05" x2="222.89" y2="159.79" gradientTransform="translate(38.89 -64.64) rotate(18.03)" gradientUnits="userSpaceOnUse">
      <stop offset="0" stop-color="#57f287"/>
      <stop offset=".69" stop-color="#29cc7a"/>
      <stop offset=".72" stop-color="#1fc16a"/>
      <stop offset=".77" stop-color="#17b85e"/>
      <stop offset=".84" stop-color="#12b357"/>
      <stop offset=".99" stop-color="#11b255"/>
    </linearGradient>
    <linearGradient id="linear-gradient-3" x1="259.03" y1="-56.72" x2="259.03" y2="66.04" gradientTransform="translate(-36.76 100.39) rotate(-3.88)" gradientUnits="userSpaceOnUse">
      <stop offset="0" stop-color="#91ffad"/>
      <stop offset=".14" stop-color="#83fca4"/>
      <stop offset=".46" stop-color="#6bf694"/>
      <stop offset=".76" stop-color="#5cf38a"/>
      <stop offset="1" stop-color="#57f287"/>
    </linearGradient>
  </defs>
  <g>
    <g id="buckle">
      <path class="cls-1" d="m416.59,163.24l20.27-15.07c.75-.56,1.81-.55,2.5.09.4.37.78.89.97,1.6.58,2.16-.29,4.89-1.15,5.61-.86.72-22.3,16.4-22.3,16.4,0,0-1.44-5.47-.29-8.63Z"/>
      <path class="cls-17" d="m419.14,154.32s8.92-7.87,9.4-7.96,1.25-.38,1.34.58,1.15,19.38,1.25,20.14-.48,1.44-1.15,2.01-12.76,10.26-12.76,10.26c0,0-3.64,6.04,2.3,8.15,0,0,16.11-12.95,16.88-13.52s1.63-1.92,1.73-3.74c.1-1.82-1.24-31.65-1.34-33.19-.19-2.78-3.45-3.55-5.76-1.73-2.3,1.82-12.09,10.17-12.09,10.17,0,0-5.18,4.7.19,8.82Z"/>
    </g>
    <g>
      <path class="cls-11" d="m416.5,229.76c-1.92,14.96-5.37,60.24-49.5,60.24-4.66,0-9.46-.38-14.41-1.04-.01,0-.02,0-.03-.01-1.14-.4-.89-1.62.58-1.46,2.04.22,13.48,1.73,23.75-.86,28.77-7.26,24.17-31.55,21.87-39.23-3.18-10.59-8.35-18.42-4.89-23.41,3.44-4.98,13.54-19.54,21.1-56.79,2.69-13.23,3.49-40.01,4.47-50.8.25-2.73.72-3.64,1.29-2.83,1.11,36.54-2.32,101.28-4.23,116.18Z"/>
      <path class="cls-11" d="m114.87,276.65c-.17.06-.37.12-.56.18-16.26,5.09-31.83,9.72-48.49,11.63-28.71,3.3-42.21.36-50.25-18.42-8.06-18.8.75-55.75,3.26-70.22,1.73-9.98-2.11-37.98-4.41-49.88-2.3-11.89-6.91-15.73-8.06-40.66-1.15-24.94,37.98-72.51,42.98-78.27,4.98-5.76,6.14-2.69,4.6,2.68-11.17,39.1-6.9,90.55-6.9,90.55,1.15,17.65,8.63,64.65,10.16,77.88,1.54,13.24.39,19.95-7.67,26.48-8.05,6.52-33.75,27.81-27.42,46.23,6.33,18.43,46.08,14.24,91.79.63,3.19-.95,3.75.2.99,1.18Z"/>
      <path class="cls-10" d="m432.61,22.58c-7.83,16.63-13.04,54.1-11.89,90.54,0,.15.01.31.01.46-.57-.81-1.04.1-1.29,2.83-.99,10.79-1.78,37.58-4.47,50.8-7.55,37.25-17.65,51.8-21.1,56.79-3.45,4.99,1.71,12.82,4.89,23.41,2.3,7.67,6.9,31.97-21.87,39.23-10.26,2.59-21.71,1.08-23.75.86-1.47-.16-1.72,1.06-.58,1.46-41.95-5.69-93.94-32.51-147.47-30.8-36.61,1.17-64.31,10.38-90.22,18.5,2.76-.98,2.2-2.13-.99-1.18-45.71,13.61-85.46,17.79-91.79-.63-6.33-18.42,19.37-39.71,27.42-46.23,8.06-6.52,9.21-13.24,7.67-26.48-1.53-13.23-9.01-60.23-10.16-77.88,0,0,55.95-40.74,121.64-61.95,22.87-7.38,46.91-12.38,70.19-12.48,2.49-.01,4.93,0,7.35.04,85.24,1.19,127.79,29.15,144.21,29.89,16.88.76,16.11-39.52,33.38-57.55,4.89-5.11,11.89-6.14,8.83.39Z"/>
    </g>
    <g id="belt">
      <path class="cls-17" d="m40.31,127.7c0,13.24-3.65,27.05-11.51,37.98-7.87,10.94-9.6,14-9.6,14,0,0-5.56,7.67-5.56,12.47,0,3.04,2.97,4.15,5.55,4.61.06.43-.05,1.53-.36,3.05-4.03,0-6.49-1.08-8.02-2.97-1.72-5.6-.94-11.2,3.41-18.13,5.18-8.25,19.46-25.93,21.11-39.72,1.75-14.73-.33-29.98-5.11-34.23,7.12.54,10.1,11.04,10.1,22.91Z"/>
      <path d="m19.2,179.69c-.96,1.3.57,8.21-.02,17.23-2.58-.46-5.54-1.72-5.54-4.75,0-4.8,5.56-12.47,5.56-12.47Z"/>
      <path class="cls-18" d="m35.33,139.02c-1.65,13.79-15.93,31.46-21.11,39.72-4.35,6.93-5.14,12.54-3.41,18.13-2.99-3.67-2.41-10.41-2.91-18.13-.58-8.63-4.32-10.54-1.15-21.11,1.15-3.83,11.8-18.09,15.35-23.4,1.15-1.73-2.88-28.97,6.14-29.74,0,0,.02,0,.03,0,1.65-.14,3.18.83,3.92,2.31,3.21,6.41,4.71,19.21,3.16,32.23Z"/>
      <ellipse class="cls-17" cx="13.93" cy="163.1" rx="1.82" ry="4.12"/>
      <ellipse class="cls-17" cx="22.54" cy="148.89" rx="1.61" ry="4.4"/>
      <ellipse class="cls-17" cx="27.96" cy="130.03" rx="1.41" ry="4.72"/>
    </g>
    <path class="cls-18" d="m424.78,179.16c-.36,0-.71-.15-.96-.45-.44-.53-.37-1.32.16-1.76l9.28-7.77-1.32-22.54c-.04-.69.49-1.28,1.17-1.32.72-.04,1.28.49,1.32,1.17l1.36,23.16c.02.4-.14.78-.45,1.03l-9.76,8.17c-.23.2-.52.29-.8.29Z"/>
  </g>
  <g id="handheld">
    <path class="cls-15" d="m63.61,141.88c-1.44-.8-4.67-1.98-2.84-7.98,1.83-6,5.9-17.66,9.2-19.2,2.65-1.23,6.27-.91,5.85.49s-12.21,26.69-12.21,26.69Z"/>
    <path class="cls-15" d="m110.51,52.44c-1.37-.8-3.96-2.91-7.62,1.62s-10.48,13.75-9.93,17.28c.44,2.83,2.58,5.69,3.44,4.64s14.11-23.53,14.11-23.53Z"/>
    <path class="cls-1" d="m149.52,87.11h0c-7.53,16.59-26.86,52.86-32.03,61.75,0,0-2.21,4.3-4.8,8.45.27-3.88-1.02-8.16-4.65-10.07-2.18-1.15-30.85-15.25-39.87-19.69.57-1.01,1.07-1.89,1.42-2.57,2.08-4.06,24.07-47.25,34.9-65.27,8.28,4.08,38.22,18.82,40.45,19.99,2.8,1.48,4.21,4.37,4.58,7.41Z"/>
    <path class="cls-17" d="m152.34,80.21c-.41,1.41-1.41,3.82-2.81,6.91-.37-3.04-1.77-5.93-4.58-7.41-2.23-1.17-32.17-15.91-40.45-19.99,2.29-3.81,4.08-6.5,5.08-7.45,13.58-12.94,34.43,2.26,38.53,6.04,4.1,3.78,6.88,12.92,4.23,21.91Z"/>
    <path class="cls-17" d="m112.7,157.31h0c-1.56,2.52-3.26,4.96-4.7,6.35-10.84,10.53-33.22-.08-42.09-10.07-7.33-8.27-1.19-19.84,2.27-26.04,9.02,4.44,37.69,18.54,39.87,19.69,3.62,1.9,4.91,6.19,4.65,10.07Z"/>
    <polygon class="cls-3" points="140.34 83.6 109.32 141.5 75.36 124.71 106.41 66.95 140.34 83.6"/>
    <path class="cls-5" d="m85.49,154.65c-.83,1.05-2.36,1.22-3.41.39s-1.22-2.36-.39-3.41,2.36-1.22,3.41-.39,1.22,2.36.39,3.41Zm5.77-11.15c-1.05-.83-2.57-.66-3.41.39s-.66,2.57.39,3.41,2.57.66,3.41-.39.66-2.57-.39-3.41Zm-6.57,4.2c.83-1.05.66-2.57-.39-3.41-1.05-.83-2.57-.66-3.41.39s-.66,2.57.39,3.41,2.57.66,3.41-.39Zm7.75,6.16c.83-1.05.66-2.57-.39-3.41-1.05-.83-2.57-.66-3.41.39s-.66,2.57.39,3.41c1.05.83,2.57.66,3.41-.39Z"/>
    <polygon class="cls-5" points="136.48 61.46 133.61 59.96 135.12 57.09 131.12 54.99 129.62 57.87 126.75 56.36 124.66 60.36 127.53 61.86 126.02 64.73 130.02 66.82 131.52 63.95 134.39 65.46 136.48 61.46"/>
  </g>
  <g id="keys">
    <path class="cls-10" d="m370.84,57.49c0,.64-.03,1.25-.09,1.84-.7-.06-1.28-.12-1.71-.17-.49-.06-.99.11-1.32.48-1.75,1.91-2.96,4.08-3.85,6.81-.21.64.19,1.32.86,1.44l.18.03c.58.1,1.13.16,1.76.22.13.01.26.03.4.04-1.85,2.18-3.63,3.43-3.63,3.43-15.11-5.76-38.56-11.94-38.56-11.94.04-.96.08-2.2.25-3.09.68-3.63,2.35-6.7,4.48-8.66,1.21-1.12,2.57-1.9,3.97-2.21,6.34-1.44,37.27,6.76,37.27,11.79Z"/>
    <path class="cls-1" d="m369.04,59.16c-.49-.06-.99.11-1.32.48-1.75,1.91-2.96,4.08-3.85,6.81-.21.64.19,1.32.86,1.44l.18.03c-.89,1.34-2.78,2.2-3.06-.2-.36-3.26,3.1-8.29,4.16-9.55,1.92-2.3,3.63-.69,3.04,1Z"/>
    <path class="cls-11" d="m329.17,25.55c6.83-2.73,15.71-5.01,26.85-6.61,29.92-4.32,33.7-3.49,37.54-2.59,4.32,1.01,6.93,6.04,6.19,13.24-.43,4.17-4.03,22.44-7.18,31.5-1.09,3.11-3.31,7.78-9.94,8.35-3.69.32-10.38-.71-15.57-1.25-.13-.01-.26-.03-.4-.04-.63-.06-1.18-.12-1.76-.22l-.18-.03c-.66-.11-1.07-.79-.86-1.44.9-2.73,2.1-4.9,3.85-6.81.34-.37.84-.54,1.32-.48.43.05,1.01.11,1.71.17,2.22.21,5.61.44,8.87.17,2.3-.18,4.75-2.16,6.19-6.91,1.44-4.74,3.45-15.67,3.88-18.99.44-3.31,0-7.48-4.89-7.48s-36.63,1.53-54.63,9.16l-2.61,1.25c-1.67.92-3.48,2.18-4.41,3.71-.41.66-.65,1.38-.65,2.13,0,.17.01.34.04.5.33,2.74,3.41,4.2,7.06,5.02-2.13,1.97-3.8,5.03-4.48,8.66-5.19-1.47-14.61-5.71-13.7-14.47.34-3.22,2.09-6.4,5.39-9.36.66-.6,1.4-1.19,2.19-1.77,2.13-1.55,4.72-3.03,7.79-4.4l2.38-1.02Z"/>
    <path class="cls-18" d="m325.53,27.15c-.2-.99-.39-2.05-.56-3.17-.17-1.15-.3-2.29-.39-3.39.9-.19,1.72-.55,2.48-1.04.08,1.29.23,2.67.44,4.07.08.59.22,1.46.42,2.47l-2.38,1.07Z"/>
    <path class="cls-18" d="m331.2,34.87s.36.57.54.79c.46.41.97.65,1.53.67.14.01.28,0,.42-.02,1.47-.21,2.12-1.63,2.43-3.18.08-.34.13-.68.17-1.02.04-.32.07-.63.09-.93.17-2.23.05-5.05-.34-8.02-.04-.26-.07-.53-.11-.79-.01-.08-.02-.16-.03-.25-.5-3.21-2.21-12.33-5.76-12.46-.13-.01-.25,0-.39.02h-.01c-.98.15-1.61.85-2.01,1.76-.43,1.01-.6,2.29-.68,3.37-.04.43-.06.9-.08,1.39-.64.86-1.52,1.49-2.53,1.79-.04-1.22-.02-2.35.06-3.38.19-2.38.73-4.22,1.63-5.46.54-.75,1.2-1.31,2-1.64.39-.16.79-.29,1.24-.35.29-.04.58-.06.87-.05,3.9.15,6.61,4.88,8.08,14.08.04.26.08.54.12.82.02.15.04.32.07.47.43,3.11.58,6.07.43,8.49h0c-.01.14-.02.29-.03.42-.02.33-.06.64-.1.95-.5,3.93-2.09,6.11-4.77,6.51-.28.03-.57.05-.87.04-.76-.03-1.48-.22-2.15-.62-.72-.42-1.49-1.23-2.21-2.31,0-.03,1.86-.93,2.39-1.08Z"/>
    <g id="key">
      <path class="cls-18" d="m297.91,14.28c-7.13,1.63-32.75,7.6-32.75,7.6l-4.61,3.63c-.97.84-1.05.96.42,7.5.19.84.55.96,1.33.99s2.46-.41,2.46-.41l.59-3.39,1.26-.24,3.55,4.85,2.12-.2s.15-2.97.41-3.05c1.36-.43.83.8,1.61.64.77-.16,1.17-.34,1.17-.34l.53-3.62s3.48-.63,4.07-.89c.08-.04,1.07-.44,2.25,1.04,1.19,1.49,2.93,3.77,3.39,4.08s1.93.08,2.22-.39c.52-.84,2.01-6.83,2.78-6.99.89-.18,1.4,1.35,1.83,2.19.36.69,2.8-.37,2.8-.37l1.02-3.8,3.31-.76"/>
      <polygon class="cls-11" points="268.64 27.55 264.65 27.4 264.26 25.05 267.73 22.86 267.89 22.83 298.23 15.64 298.69 17.59 268.51 24.73 267.3 25.5 268.46 25.54 298.9 18.62 299.35 20.57 268.64 27.55"/>
      <path class="cls-9" d="m329.03,17.71c-.55.73-1.21,1.35-1.97,1.83-.75.49-1.58.85-2.48,1.04-.21.05-.41.09-.62.12l-2,.28c-.1-.75-.24-1.6-.39-2.51l2.04-.29c.29-.04.55-.1.82-.19,1.01-.31,1.89-.94,2.54-1.79.01,0,.01,0,.01,0,.83-1.1,1.17-2.44.98-3.8-.05-.33-.13-.66-.23-.96.39-.91,1.02-1.61,2.01-1.76h.01c.37.72.62,1.51.74,2.35.29,2.03-.23,4.05-1.46,5.69Z"/>
      <path class="cls-9" d="m328.13,7.5c-.8.33-1.46.88-2,1.64-.93-.77-2.14-1.2-3.42-1.16-.18.01-.36.03-.53.05l-2.36.34c-.03-.21-.06-.39-.08-.54-.08-.53-.19-1.22-.38-1.97l2.46-.34c.27-.04.53-.06.8-.07,2.12-.08,4.08.71,5.52,2.07Z"/>
      <path class="cls-9" d="m319.51,29.05c-3.09,1.38-8.95,2.18-11.44,2.27-2.48.08-5.57-.87-6.63-3.6-.68-1.75-1.27-3.58-1.76-5.38-.26-.94-.49-1.86-.69-2.76h-.01c-.27-1.13-.5-2.23-.7-3.25-.14-.72-.25-1.41-.36-2.04-.25-1.5-.41-2.72-.49-3.52-.28-2.73-.14-6.37,2.03-7.78,3.37-2.19,8.86-3.34,14.39-2.89,3.52.29,4.91,3.32,5.51,5.75.2.75.3,1.44.38,1.97.02.15.05.34.08.54.34,2.09,1.16,6.52,1.76,10.1.15.91.29,1.77.39,2.51.03.22.07.42.09.62.52,3.86.54,6.06-2.55,7.45Z"/>
      <path class="cls-12" d="m313.04,8.6c-1.53-.96-5.99.12-7.81,1.46-1.25.92-1.43,2.07-1.45,3.26-.04,2.03,1.03,6.96,1.57,8.14.59,1.3,1.47,1.96,3.12,2.13,1.92.19,5.54-.11,6.96-1.38,2.16-1.92.91-11.55-2.38-13.62Z"/>
      <ellipse class="cls-4" cx="307.56" cy="5.23" rx="2.1" ry="1.3" transform="translate(8.58 77.55) rotate(-14.57)"/>
      <ellipse class="cls-4" cx="312.37" cy="26.73" rx="2.1" ry="1.3" transform="translate(-.39 48.42) rotate(-8.86)"/>
      <rect class="cls-9" x="308.06" y="10.63" width="3.14" height="4.11" rx="1.54" ry="1.54" transform="translate(5.3 71.13) rotate(-13.22)"/>
      <rect class="cls-9" x="309.29" y="17.15" width="3.14" height="4.11" rx="1.54" ry="1.54" transform="translate(-.59 21.02) rotate(-3.87)"/>
    </g>
  </g>
  <g id="walkie">
    <path class="cls-17" d="m153.12,155.15c-2.2,5.34-3.94,9.56-3.94,9.56l-21.76,9.23c2.46-4.73,7.98-15.46,13.02-25.18.69-.22,1.41-.36,2.17-.42,4.75-.4,9.02,2.51,10.52,6.82Z"/>
    <path class="cls-1" d="m162.08,133.72c-.97,2.11-5.53,13.12-8.96,21.43-1.49-4.3-5.77-7.22-10.52-6.82-.76.06-1.48.21-2.17.42,4.54-8.78,8.68-16.74,9.79-18.7,2.33-4.15,5.59-8.34,9.88-6.3,4.29,2.05,3.22,7.21,1.98,9.96Z"/>
    <path class="cls-17" d="m94.12,247.87c3.39-8.5,26.75-64.41,37.31-80.93,2.74-4.29,9.87-6.02,15.61-4.42,8.55,2.38,31.73,13.49,38.06,18.5,4.09,3.23,5.14,9.67,3.49,15.93-4.88,18.54-24.82,70.57-30.85,81.1-3.05,5.32-8.78,9.09-15.45,9.18-9.75.13-43.29-13.74-47.39-21.53-3.13-5.94-3.15-11.9-.79-17.83Z"/>
    <path class="cls-1" d="m140.47,225.82c-11.52-4.48-14.48-31.92-3.01-50.16,2.87-4.42,6.26-5.23,9.74-4.06,7.47,2.52,23.35,10.36,29.04,13.49,2.92,1.6,4.28,5.12,3.3,8.89-5.21,20.1-28.78,35.83-39.08,31.83Z"/>
    <path class="cls-3" d="m145.75,178.07l24.72,10.98c.83.37,1.19,1.34.81,2.16l-7.57,16.37c-.37.8-1.32,1.16-2.13.8l-24.72-10.98c-.83-.37-1.19-1.34-.81-2.16l7.57-16.37c.37-.8,1.32-1.16,2.13-.8Z"/>
    <path class="cls-18" d="m113.71,228.42l1.62-3.52c.38-.82,1.34-1.18,2.16-.81l9.23,4.15c.83.37,1.2,1.35.82,2.18l-1.62,3.52c-.38.82-1.34,1.18-2.16.81l-9.23-4.15c-.83-.37-1.2-1.35-.82-2.18Zm16.72,9.33l9.23,4.15c.82.37,1.79,0,2.16-.81l1.62-3.52c.38-.83.01-1.81-.82-2.18l-9.23-4.15c-.82-.37-1.79,0-2.16.81l-1.62,3.52c-.38.83-.01,1.81.82,2.18Zm28.1,4.79l-9.23-4.15c-.82-.37-1.79,0-2.16.81l-1.62,3.52c-.38.83-.01,1.81.82,2.18l9.23,4.15c.82.37,1.79,0,2.16-.81l1.62-3.52c.38-.83.01-1.81-.82-2.18Zm-48.15-2.94l9.23,4.15c.82.37,1.79,0,2.16-.81l1.62-3.52c.38-.83.01-1.81-.82-2.18l-9.23-4.15c-.82-.37-1.79,0-2.16.81l-1.62,3.52c-.38.83-.01,1.81.82,2.18Zm16.71,1.45l-1.62,3.52c-.38.83-.01,1.81.82,2.18l9.23,4.15c.82.37,1.79,0,2.16-.81l1.62-3.52c.38-.83.01-1.81-.82-2.18l-9.23-4.15c-.82-.37-1.79,0-2.16.81Zm27.3,10.49l-9.23-4.15c-.82-.37-1.79,0-2.16.81l-1.62,3.52c-.38.83-.01,1.81.82,2.18l9.23,4.15c.82.37,1.79,0,2.16-.81l1.62-3.52c.38-.83.01-1.81-.82-2.18Zm-36.77.39l1.62-3.52c.38-.83.01-1.81-.82-2.18l-9.23-4.15c-.82-.37-1.79,0-2.16.81l-1.62,3.52c-.38.83-.01,1.81.82,2.18l9.23,4.15c.82.37,1.79,0,2.16-.81Zm15.91,7.15l1.62-3.52c.38-.83.01-1.81-.82-2.18l-9.23-4.15c-.82-.37-1.79,0-2.16.81l-1.62,3.52c-.38.83-.01,1.81.82,2.18l9.23,4.15c.82.37,1.79,0,2.16-.81Zm16.71,1.45l-9.23-4.15c-.82-.37-1.79,0-2.16.81l-1.62,3.52c-.38.83-.01,1.81.82,2.18l9.23,4.15c.82.37,1.79,0,2.16-.81l1.62-3.52c.38-.83.01-1.81-.82-2.18Zm-35.37-5.04l-10.4-4.67c-.5-.22-1.09,0-1.32.49-1.42,3.08-.05,6.73,3.04,8.12l5.7,2.56c.5.22,1.09,0,1.32-.49l2.16-4.68c.23-.5,0-1.1-.5-1.33Zm15.32,6.88l-9.23-4.15c-.82-.37-1.79,0-2.16.81l-1.62,3.52c-.38.83-.01,1.81.82,2.18l9.23,4.15c.82.37,1.79,0,2.16-.81l1.62-3.52c.38-.83.01-1.81-.82-2.18Zm16.44,7.39l-9.9-4.45c-.74-.33-1.61,0-1.95.73l-1.75,3.81c-.34.75-.01,1.63.74,1.97l5.31,2.39c3.07,1.38,6.68.03,8.09-3.03h0c.25-.54,0-1.18-.53-1.42Z"/>
    <ellipse class="cls-5" cx="132.52" cy="204.35" rx="3.92" ry="9.15" transform="translate(-107.3 246.88) rotate(-67.09)"/>
    <ellipse class="cls-5" cx="162.06" cy="219.35" rx="3.92" ry="9.15" transform="translate(-103.07 283.24) rotate(-67.09)"/>
    <circle class="cls-5" cx="140.59" cy="223.55" r="6.3"/>
  </g>
  <g id="book">
    <path class="cls-17" d="m346.09,61.45l-6.23-6.82c-.58-.98-1.99-.97-2.55.02l-45.4,80c-.49.86-.46,1.91.07,2.74l6.08,11.09c.33.52.91.82,1.52.81l1.55-.68,58.87,28.75c.94.48,2.02.63,3.05.43h0c1.39-.26,2.59-1.13,3.28-2.36l43.23-77.17c.28-.51.44-1.07.46-1.65h0c.05-1.59-.95-3.02-2.46-3.53l-.33-.11-.38-2.35,1.94-3.87c.47-.88.64-1.89.47-2.87h0c-.26-1.5-1.27-2.77-2.68-3.35l-54.69-22.42c-.49-.2-1.01-.3-1.54-.29h0c-1.37.02-2.62.76-3.3,1.95l-.97,1.69Z"/>
    <path class="cls-1" d="m327.71,90.66c.2.11.41.17.62.17.43,0,.85-.22,1.08-.62l16.65-28.79-1.77-1.94-17.04,29.47c-.35.6-.14,1.36.46,1.71Z"/>
    <path class="cls-3" d="m406.86,90.61l-42.45,75.37c-.55.97-1.41,1.72-2.44,2.13h0c-1.24.49-2.62.44-3.82-.12l-57.81-28.59-.65-.32-4.68-2.24c-.43-.22-.87.27-.61.68,0,0,4.04,7.67,4.25,8.13.5,1.1,1.04.93,1.37.77l1.01-.5c.38.17.91.38,1.25.55l55.92,26.8c1.41.69,3.06.69,4.46,0h0c.93-.46,1.69-1.19,2.18-2.1l42.18-75.27-.15-5.28Z"/>
    <path class="cls-1" d="m305.48,145l8.84,4s-2.24,12.13-14.34,19.67c-11.86,7.39-12.1,18.8-12.1,18.8l-4.18-6.45s-.86,1.44-1.76,5.97c0,0-4.73-5.13.2-14.1s18.04-14.43,20.61-19.98c2.57-5.55,2.73-7.9,2.73-7.9Z"/>
    <polygon class="cls-5" points="376.02 107.99 366.55 103.97 371.91 94.71 355.92 87.92 350.56 97.19 341.08 93.17 332.03 108.81 341.5 112.83 336.14 122.09 352.13 128.88 357.49 119.61 366.96 123.63 376.02 107.99"/>
  </g>
  <g id="compass">
    <g>
      <rect class="cls-1" x="218.68" y="194.92" width="29.93" height="9.58" transform="translate(-53.31 89.56) rotate(-19.52)"/>
      <rect class="cls-14" x="226.89" y="194.92" width="13.51" height="9.58" transform="translate(-53.31 89.56) rotate(-19.52)"/>
    </g>
    <g>
      <ellipse class="cls-17" cx="231.38" cy="188.04" rx="35.37" ry="9.4" transform="translate(-50.07 89.64) rotate(-19.83)"/>
      <path class="cls-11" d="m207.77,191.86c6.25-3.46,11.42.28,2.8,5.06-6.25,3.46-11.42-.28-2.8-5.06Z"/>
      <ellipse class="cls-17" cx="226.58" cy="177.3" rx="12.03" ry="3.2" transform="translate(-46.71 87.38) rotate(-19.83)"/>
    </g>
    <g>
      <path class="cls-17" d="m245.96,269.43c-19.41,0-35.2-15.79-35.2-35.2s15.79-35.2,35.2-35.2,35.2,15.79,35.2,35.2-15.79,35.2-35.2,35.2Z"/>
      <path class="cls-11" d="m245.39,266.61c-.69,0-1.25-.56-1.25-1.25s.56-1.25,1.25-1.25c17.04,0,30.89-13.86,30.89-30.9,0-.69.56-1.25,1.25-1.25s1.25.56,1.25,1.25c0,18.41-14.98,33.4-33.39,33.4Z"/>
      <circle class="cls-3" cx="245.96" cy="234.23" r="27.05"/>
      <path class="cls-17" d="m261.4,265.11c-4.08,0-7.39,3.31-7.39,7.39s3.31,7.38,7.39,7.38,7.39-3.31,7.39-7.38-3.31-7.39-7.39-7.39Zm0,10.69c-1.82,0-3.31-1.48-3.31-3.3s1.49-3.31,3.31-3.31,3.31,1.48,3.31,3.31-1.49,3.3-3.31,3.3Z"/>
      <g>
        <polygon class="cls-5" points="251.65 236.44 264.21 226.06 248.42 228.34 237.76 215.85 240.27 231.5 227.71 241.88 243.5 239.61 254.16 252.09 251.65 236.44"/>
        <path class="cls-11" d="m250.43,236.57l-9.38,20.09-.42-21.47c-.02-1.04.2-2.06.64-3l9.38-20.09.42,21.47c.02,1.04-.2,2.06-.64,3Z"/>
        <path class="cls-1" d="m245.96,237.83c-1.99,0-3.61-1.62-3.61-3.61s1.62-3.61,3.61-3.61,3.61,1.62,3.61,3.61-1.62,3.61-3.61,3.61Z"/>
        <path class="cls-17" d="m248.32,236.3c0,.65-.98,1.17-2.19,1.17s-2.19-.52-2.19-1.17,1.13-1.78,2.34-1.78,2.05,1.14,2.05,1.78Z"/>
      </g>
    </g>
  </g>
  <g id="mouse">
    <g>
      <path class="cls-1" d="m341.85,220.96c-4.09.48-7.55-.97-10.3-2.98,1.43-2.13-2.11-7.02-4.96-9.09-2.85-2.05-5.92-2.98-6.09-.41-1.04-1.17-6.03-5.7-8.68-14.02-1.14-3.61,1.09-8.8,4.27-12.11,3.79-3.94,9.08-6.4,15.08-4.36,2.95,1.01,13.75,7.28,20.37,15.68,2.44.35,5.88,4.48,6.36,9.67.67,7.33-4.97,16.3-16.06,17.62Z"/>
      <path class="cls-17" d="m331.55,217.98c-1.48,1.59-11.09-.67-11.05-9.5.17-2.57,3.24-1.64,6.09.41,2.85,2.07,6.39,6.96,4.96,9.09Z"/>
      <path class="cls-17" d="m350.63,210.63s-.07.07-.11.11c-.76-1.2-1.89-2.55-2.67-3.45.58-.8.57-2.02-.08-3.02-.08-.14-2.17-3.33-4.82-5.58-1.02-.86-2.36-.82-3.11.05-1.09-1.02-3.05-2.75-5.05-4.11,2.71-2.12,6.09-3.39,10.26-3.68.37-.03.74.09,1.02.33,2.36,1.98,12.82,11.57,4.56,19.36Z"/>
      <path class="cls-17" d="m350.52,210.74c-10.34,9.63-19.51.09-22.23-3.26-.52-.64-.7-1.5-.43-2.27,1.51-4.52,3.75-8.13,6.92-10.59l5.05,4.11c-.05.06-.11.14-.16.21-.71,1.07-.38,2.7.72,3.63,1.93,1.64,3.58,4.16,3.62,4.22.77,1.19,2.19,1.64,3.22,1.05.04-.02.07-.05.11-.07.2-.14.35-.3.49-.49l2.67,3.45Z"/>
      <path class="cls-5" d="m347.85,207.28c-.13.19-.29.35-.49.49-.04.02-.07.05-.11.07-1.03.59-2.45.15-3.22-1.05-.04-.06-1.69-2.58-3.62-4.22-1.11-.93-1.43-2.57-.72-3.63.05-.07.1-.15.16-.21.75-.87,2.08-.91,3.11-.05,2.65,2.25,4.74,5.44,4.82,5.58.65,1,.66,2.22.08,3.02Z"/>
      <path class="cls-1" d="m346.27,209.36c-1.23,0-2.5-.68-3.29-1.89-.28-.42-1.74-2.55-3.38-3.94-1.6-1.35-2.02-3.67-.95-5.28.08-.11.16-.23.24-.33,1.21-1.4,3.34-1.49,4.87-.2,2.87,2.43,5.07,5.87,5.09,5.9.89,1.37.91,3.15.01,4.39-.22.31-.49.58-.79.79l-.15.09s-.04.03-.1.06c-.48.28-1.01.41-1.55.41Zm-4.93-10.05c-.22,0-.41.08-.55.24-.02.02-.04.06-.07.09-.36.54-.13,1.46.49,1.98,1.86,1.57,3.41,3.81,3.85,4.46.42.65,1.12.94,1.57.68.02-.01.03-.02.05-.03.05-.04.1-.09.15-.16h0c.24-.35.28-1.01-.11-1.62-.04-.06-2.04-3.15-4.58-5.31-.26-.22-.55-.33-.8-.33Z"/>
      <path class="cls-1" d="m339.84,199.98c-.28,0-.56-.09-.79-.28l-5.05-4.11c-.52-.42-.61-1.18-.22-1.71.4-.54,1.15-.67,1.7-.29,2.13,1.44,4.18,3.26,5.21,4.23.49.46.53,1.23.09,1.74-.25.28-.59.43-.94.43Z"/>
      <path class="cls-1" d="m350.51,212c-.38,0-.74-.17-.99-.49l-2.67-3.45c-.41-.54-.33-1.3.2-1.73.52-.43,1.29-.36,1.74.15,1.25,1.44,2.16,2.62,2.78,3.6.36.56.21,1.31-.34,1.69-.22.15-.47.23-.72.23Z"/>
    </g>
    <g>
      <path class="cls-16" d="m361.11,271.63c-1.13,1.3-5.56,6.04-10.53,6.51-2.12.2-4.11-.42-5.76-1.79-1.89-1.57-3-3.82-3.22-6.51-.37-4.58,1.91-10.32,5.96-14.97,1.88-2.17,4.13-3.81,6.41-5.07-5.16-.37-11.81-1.61-19.9-4.77-7.79-3.04-13.12-7.38-14.24-11.62-.42-1.59-.18-3.06.68-4.13.04-.05.09-.11.14-.16,4.05-4.67,12.17-.01,20.77,4.91,5.58,3.2,14.01,8.02,15.94,5.87.02-.02.03-.03.04-.05,4.23-4.88-3.33-18.68-6.4-23.28-.62-.92-.52-2.2.33-2.92.99-.84,2.46-.61,3.16.44,1.39,2.06,13.32,20.3,6.14,28.57-.03.03-.06.07-.09.1-4.24,4.74-12.51,0-21.26-5.01-4.33-2.48-10.41-5.96-13.61-6.27-1.06-.1-1.77,1.06-1.21,1.96,1.16,1.87,4.29,4.91,11.16,7.59,15.67,6.11,25.4,4.58,29.06,4,1.41-.22,3.77-.59,4.18,1.68.4,2.2-1.65,2.78-4.03,3.46-3.5,1-10.01,2.86-14.04,7.5-3.27,3.76-5.2,8.4-4.92,11.82.12,1.54.69,2.74,1.69,3.56.78.65,1.61.91,2.61.82,3.12-.29,6.73-3.87,7.87-5.24.01-.01.02-.03.03-.04"/>
      <path class="cls-7" d="m353.96,251.03c-.48,0-.93-.27-1.14-.74-.28-.63,0-1.37.63-1.65,3.45-1.54,8.94-2.37,9.17-2.41.68-.11,1.32.37,1.42,1.05.1.68-.37,1.32-1.05,1.42-.05,0-5.39.81-8.52,2.21-.17.07-.34.11-.51.11Z"/>
      <path class="cls-3" d="m372.7,261.19l-4.8,5.8c-.84,1.03-1.6,1.87-2.27,2.53l-6.05-5.82c.52-.66,1.03-1.24,1.43-1.68,1.81-1.96,5.91-6.07,5.91-6.07l5.78,5.23Z"/>
      <path class="cls-16" d="m365.63,269.52c-3.13,3.15-4.52,2.82-5.69,2.11,0,0-1.91-1.81-2.01-1.92-1.3-1.56.17-4.09,1.65-6l6.05,5.82Z"/>
    </g>
  </g>
  <g id="phone">
    <path class="cls-2" d="m191.47,27.26h63.93c3.61,0,6.54,2.93,6.54,6.54v110.3c0,5.03-4.08,9.11-9.11,9.11h-59.52c-4.94,0-8.96-4.01-8.96-8.96V34.37c0-3.93,3.19-7.12,7.12-7.12Z" transform="translate(-16.97 73.51) rotate(-18.03)"/>
    <path class="cls-13" d="m213.72,149.6c-3.74.25-7.29-2.09-8.45-5.58l-31.25-94.07c-.47-1.41-.35-2.93.34-4.28.69-1.35,1.91-2.39,3.34-2.85l54.46-17.38c.37-.12.76-.2,1.16-.22,2.24-.15,4.3,1.21,5,3.32l31.43,94.62c.71,2.12.52,4.4-.54,6.41-1.04,1.99-2.79,3.46-4.94,4.15l-48.58,15.5c-.65.21-1.31.33-1.97.38Z"/>
    <path class="cls-1" d="m213.53,146.86c-2.51.17-4.89-1.39-5.66-3.71l-31.25-94.07c-.49-1.49.38-3.16,1.91-3.65l54.46-17.38c.17-.05.34-.09.51-.1.84-.06,1.87.42,2.21,1.44l31.43,94.63c.47,1.41.34,2.93-.36,4.28s-1.89,2.34-3.34,2.8l-48.59,15.5c-.43.14-.88.22-1.32.25Z"/>
    <ellipse class="cls-5" cx="234.13" cy="127.17" rx="7.02" ry="7.15" transform="translate(-8.07 16.14) rotate(-3.88)"/>
    <g>
      <path class="cls-5" d="m191.86,71.35c1.22,5.61,6.33,19.31,9.28,23.87.53.82.91,1.12,1.95.97,11.91-1.66,32.01-7.79,38.38-11.64.48-.29.74-.99.61-1.85-1.06-7.19-4.11-18.62-7.03-25.15-.62-1.39-1.25-1.81-2.8-1.47-6.47,1.4-26.53,6.02-38.92,11.7-1.54.71-1.84,1.86-1.47,3.57Z"/>
      <path class="cls-1" d="m232.91,60.42c-2.88,7.21-6.44,12.04-8.92,14.81-2.61,2.93-4.54,4.21-4.62,4.26-.19.13-.42.2-.65.21-.01,0-.08,0-.19,0-.64,0-2.86-.07-6.46-.9-3.69-.86-9.72-2.76-17.48-6.93-.62-.33-.85-1.11-.52-1.72.33-.62,1.1-.85,1.72-.52,7.51,4.04,13.31,5.87,16.85,6.69,2.94.68,4.86.81,5.62.83.59-.44,2.03-1.6,3.82-3.61,2.34-2.62,5.71-7.19,8.46-14.06.26-.65,1-.97,1.66-.71.65.26.97,1,.71,1.66Z"/>
      <path class="cls-1" d="m240.5,82.29c-.24.38-.66.59-1.08.59-.23,0-.47-.06-.68-.2-6.48-4.08-12.29-6.1-16.02-7.07-.68-.18-1.09-.87-.91-1.55.18-.68.87-1.09,1.55-.91,3.91,1.02,9.98,3.13,16.74,7.38.59.38.77,1.16.4,1.76Z"/>
      <path class="cls-1" d="m213.27,78.44c-2.67,2.76-6.43,7.5-9.21,14.43-.2.5-.68.8-1.18.8-.16,0-.32-.03-.47-.09-.65-.26-.97-1-.71-1.66,2.93-7.32,6.91-12.33,9.74-15.25.49-.51,1.3-.52,1.8-.03.51.49.52,1.3.03,1.8Z"/>
    </g>
  </g>
  <path class="cls-6" d="m133.16,19.61c-2.81-1.81-4.71-4.75-5.2-8.05l-.84-5.63c-.04-.28-.28-.48-.56-.48h0c-.28,0-.52.21-.56.48l-.84,5.63c-.5,3.31-2.39,6.24-5.2,8.05l-.73.47c-.16.1-.26.28-.26.48v.03c0,.19.1.37.26.48l.73.47c2.81,1.81,4.71,4.75,5.2,8.05l.84,5.63c.04.28.28.48.56.48h0c.28,0,.52-.21.56-.48l.84-5.63c.5-3.31,2.39-6.24,5.2-8.05l.73-.47c.16-.1.26-.28.26-.48v-.03c0-.19-.1-.37-.26-.48l-.73-.47Z"/>
  <path class="cls-8" d="m159.05,35.82c-1.95-1.25-3.26-3.29-3.6-5.58l-.58-3.9c-.03-.19-.19-.33-.39-.33h0c-.19,0-.36.14-.39.33l-.58,3.9c-.34,2.29-1.66,4.32-3.6,5.58l-.51.33c-.11.07-.18.2-.18.33v.02c0,.13.07.26.18.33l.51.33c1.95,1.25,3.26,3.29,3.6,5.58l.58,3.9c.03.19.19.33.39.33h0c.19,0,.36-.14.39-.33l.58-3.9c.34-2.29,1.66-4.32,3.6-5.58l.51-.33c.11-.07.18-.2.18-.33v-.02c0-.13-.07-.26-.18-.33l-.51-.33Z"/>
</svg>