<?xml version="1.0" encoding="UTF-8"?>
<svg id="Vector" xmlns="http://www.w3.org/2000/svg" xmlns:xlink="http://www.w3.org/1999/xlink" viewBox="0 0 580 364">
  <defs>
    <style>
      .cls-1 {
        fill: url(#linear-gradient-2);
      }

      .cls-2 {
        fill: #fff;
      }

      .cls-3 {
        fill: #d11583;
      }

      .cls-4 {
        fill: #3d58d9;
      }

      .cls-5 {
        fill: #ff8c19;
      }

      .cls-6 {
        fill: #17ddd3;
      }

      .cls-7 {
        fill: #c7ccd1;
      }

      .cls-8 {
        fill: #0ec2bc;
      }

      .cls-9 {
        fill: #eb459f;
      }

      .cls-10 {
        fill: #abb2ba;
      }

      .cls-11 {
        fill: #c65c47;
      }

      .cls-12 {
        fill: #808aff;
        opacity: .25;
      }

      .cls-13 {
        fill: #008c3c;
      }

      .cls-14 {
        fill: #5865f2;
      }

      .cls-15 {
        fill: #008fb7;
      }

      .cls-16 {
        fill: #9e4334;
      }

      .cls-17 {
        fill: #ffc619;
      }

      .cls-18 {
        fill: #6990ff;
      }

      .cls-19 {
        fill: #ff78b9;
      }

      .cls-20 {
        fill: #57f287;
      }

      .cls-21 {
        fill: #e3e5e8;
      }

      .cls-22 {
        fill: #66bcff;
      }

      .cls-23 {
        fill: #b7ccff;
      }

      .cls-24 {
        fill: url(#linear-gradient-3);
      }

      .cls-25 {
        fill: #db816f;
      }

      .cls-26 {
        fill: url(#linear-gradient);
      }

      .cls-27 {
        fill: #3442d9;
      }

      .cls-28 {
        fill: #ffe75c;
      }

      .cls-29 {
        fill: #29cc7a;
      }

      .cls-30 {
        fill: #3f99f2;
      }

      .cls-31 {
        fill: #231f20;
      }

      .cls-32 {
        fill: url(#linear-gradient-4);
      }

      .cls-33 {
        fill: #ffaed7;
      }

      .cls-34 {
        fill: #8cd9ff;
      }

      .cls-35 {
        fill: #733436;
      }
    </style>
    <linearGradient id="linear-gradient" x1="357.03" y1="262.3" x2="387.71" y2="246.84" gradientUnits="userSpaceOnUse">
      <stop offset="0" stop-color="#4970de"/>
      <stop offset="1" stop-color="#6990ff"/>
    </linearGradient>
    <linearGradient id="linear-gradient-2" x1="247.71" y1="154.33" x2="166.16" y2="122.77" gradientUnits="userSpaceOnUse">
      <stop offset="0" stop-color="#0ec2bc"/>
      <stop offset="1" stop-color="#008fb7"/>
    </linearGradient>
    <linearGradient id="linear-gradient-3" x1="90.58" y1="114.39" x2="40.11" y2="159.38" xlink:href="#linear-gradient-2"/>
    <linearGradient id="linear-gradient-4" x1="177.59" y1="203.64" x2="188.12" y2="313.66" xlink:href="#linear-gradient-2"/>
  </defs>
  <path class="cls-19" d="m229.85,114.24c-1.84-1.17-3.08-3.07-3.42-5.22l-.57-3.66c-.03-.18-.18-.31-.37-.31h0c-.18,0-.34.14-.36.32l-.53,3.67c-.31,2.16-1.53,4.07-3.35,5.27l-.47.31c-.1.07-.17.19-.17.31v.02c0,.13.07.24.17.31l.48.3c1.84,1.17,3.08,3.07,3.42,5.22l.57,3.66c.03.18.18.31.37.31h0c.18,0,.34-.14.36-.32l.53-3.67c.31-2.16,1.53-4.07,3.35-5.27l.47-.31c.1-.07.17-.19.17-.31v-.02c0-.13-.07-.24-.17-.31l-.48-.3Z"/>
  <g>
    <path class="cls-12" d="m573.78,116.45c-.38-7.5-8.44-20.03-29.08-20.01-3.59-11.45-12.7-21.89-31.39-19.95-21.33,2.22-34.05,25.32-34.05,25.32,0,0-21.31-3.5-30.08,14.63h124.6Z"/>
    <path class="cls-12" d="m446.47,50.33c-3.11-26.08-29.55-23.31-29.55-23.31,0,0-6.27-22.23-31.31-22.43-27.16-.21-51.08,21.59-51.08,21.59,0,0-37.31-3.4-48.07,24.14h160.01Z"/>
    <path class="cls-12" d="m0,77.5c5.99-15.35,21.15-15.35,28.83-6.56,7.25-2.42,14.69-.88,18,6.56H0Z"/>
    <path class="cls-12" d="m477.82,31.15c7.73-19.8,27.28-19.8,37.2-8.47,9.35-3.12,18.95-1.13,23.23,8.47h-60.42Z"/>
    <path class="cls-34" d="m319.63,117.31c-1.84-1.17-3.08-3.07-3.42-5.22l-.57-3.66c-.03-.18-.18-.31-.37-.31h0c-.18,0-.34.14-.36.32l-.53,3.67c-.31,2.16-1.53,4.07-3.35,5.27l-.47.31c-.1.07-.17.19-.17.31v.02c0,.13.07.24.17.31l.48.3c1.84,1.17,3.08,3.07,3.42,5.22l.57,3.66c.03.18.18.31.37.31h0c.18,0,.34-.14.36-.32l.53-3.67c.31-2.16,1.53-4.07,3.35-5.27l.47-.31c.1-.07.17-.19.17-.31v-.02c0-.13-.07-.24-.17-.31l-.48-.3Z"/>
  </g>
  <path class="cls-20" d="m254.3,232.72c-1.87-1.19-3.13-3.12-3.47-5.3l-.58-3.72c-.03-.18-.19-.32-.37-.32h0c-.19,0-.34.14-.37.32l-.53,3.73c-.31,2.19-1.55,4.14-3.41,5.35l-.48.31c-.11.07-.17.19-.17.32v.02c0,.13.07.25.17.31l.48.31c1.87,1.19,3.13,3.12,3.47,5.3l.58,3.72c.03.18.19.32.37.32h0c.19,0,.34-.14.37-.32l.53-3.73c.31-2.19,1.55-4.14,3.41-5.35l.48-.31c.11-.07.17-.19.17-.32v-.02c0-.13-.07-.25-.17-.31l-.48-.31Z"/>
  <path class="cls-28" d="m258.7,80.22c-2.56-1.63-4.3-4.28-4.77-7.28l-.8-5.11c-.04-.25-.26-.44-.51-.43h0c-.25,0-.47.19-.51.44l-.73,5.12c-.43,3.01-2.13,5.68-4.68,7.34l-.66.43c-.15.1-.23.26-.23.43v.03c0,.17.09.34.24.43l.67.42c2.56,1.63,4.3,4.28,4.77,7.28l.8,5.11c.04.25.26.44.51.43h0c.25,0,.47-.19.51-.44l.73-5.12c.43-3.01,2.13-5.68,4.68-7.34l.66-.43c.15-.1.23-.26.23-.43v-.03c0-.17-.09-.34-.24-.43l-.67-.42Z"/>
  <g>
    <g>
      <path class="cls-19" d="m380.93,225.37s-5.94,45.42-3.09,56.53c2.24,8.73,22.9,9.72,35,8.72,9.11-.75,15.83-3.18,19.16-12.59,4.81-13.59,3.5-23.72-.62-25.78,0-6.64-2.2-20.92-2.2-20.92l-48.25-5.96Z"/>
      <path class="cls-9" d="m403.57,290.83l-.45.09c-11.16-.2-23.56-2.37-25.27-9.02-2.44-9.48,1.53-43.97,2.74-53.86l25.44,4.96c-13.28,28.87-16.8,56.67-2.46,57.83Z"/>
      <path class="cls-9" d="m418,256.87c11.48,3.33,16.73-1.48,13.37-4.61-2.14,2.2-8.31,2.67-23.51,0,0,0,1.53,2.12,10.13,4.61Z"/>
    </g>
    <g>
      <path class="cls-34" d="m373.7,155.33l.34,78.93c16.84,7.39,27.07,7.25,29.96,3.4l17.07-69.88c-1.17-8.13-13.37-10.43-47.36-12.45Z"/>
      <path class="cls-22" d="m406.78,240.13c-5.3-1.07-16.81-10.91-9.08-41.71,8.13-32.42,20.96-33.3,28.43-31.35l-19.34,73.06Z"/>
      <path class="cls-34" d="m438.85,237.03l15.92-1.66c.87,3.94-1.09,7.02-8.34,8.87-9.78,2.49-30.83,2.95-37.5-1.75-6.67-4.7-8.02-25.98-4.28-41.96,3.74-15.98,12.76-30.57,22.55-35.92,8.54-4.66,34.91,1.1,40.01,6.52,4.47,4.76,2.33,11.19,2.33,11.19l-30.67,54.71Z"/>
      <path class="cls-22" d="m430.97,220.6c-.31,2.27.06,6.03,1.92,12.62,1.6,5.66,2.85,7.67,8.41,7.13,5.56-.54,14.88-3.32,15.08-7.23.2-3.91-1.69-6.9-1.69-6.9,7.11-4.08,14.33-8.48,15.3-17.54,2.64-24.65,1.08-30.56-6.62-29.39-13.67,2.07-17.19,4.14-19.58,10.01-11.44,28.15-12.28,27.33-12.82,31.3Z"/>
      <path class="cls-30" d="m443,221.18c3.1-2.64,12.04-11.27,14.2-24.47,1.67,2.97,3.82,8.03,3.3,13.88-.06.69.45,1.29,1.14,1.35.7.05,1.29-.45,1.35-1.14.91-10.32-5.41-18.14-5.68-18.47-.33-.4-.86-.56-1.35-.4-.49.16-.83.6-.86,1.11-1.06,16.61-14.5,26.86-14.64,26.96-.27.2-.44.5-.49.83s.04.67.25.93c.28.36,5.75,7.29,12.33,7.29,1.03,0,2.09-.19,3.16-.59-.47-1.41-1.02-2.28-1.02-2.28.03-.02.07-.04.1-.06-4.92,1.69-9.89-2.92-11.79-4.98Z"/>
    </g>
    <g>
      <path class="cls-4" d="m279.97,176.91c-7.01-3.26-17.3,5.35-15.09,15.84,2,9.48,17.08,35.04,41.65,46.39l16.8-24.36c-20-16.67-32.67-32.89-43.37-37.86Z"/>
      <path class="cls-34" d="m318.83,218.13s-23.07,26.73-20.08,41.98c1.01,5.17,8.17,8.46,8.17,8.46l14.78-49.1-2.87-1.34Z"/>
      <path class="cls-18" d="m379.07,232.22l-56.37-14.09c-17.4,28.81-21.62,50.02-17.67,78.89,4.29,31.4,13.83,55.43,13.83,55.43,0,0-3.65,11.66,1.98,11.66h21.19c5.94,0,11.35-27.8,4.5-57.48l32.33-11.6c4.86-14.52-.28-24.89-.28-24.89,0,0,11.04-1.12,14.42-11.6,3.38-10.48-13.92-26.31-13.92-26.31Z"/>
      <path class="cls-34" d="m354.37,276.6c6.15,4.03,24.06,7.06,30.8,5.98,2.34-.37,3.42-6.08,1.83-6.25-10.74-1.2-24.9-4.86-24.9-4.86l-7.73,5.14Z"/>
      <path class="cls-26" d="m388,267.27c-7.17,6.05-23.72,11.29-33.75,10.72-10.04-.56-14.22-7.11-16.09-15.34-1.98-8.7,1.42-14.75,7.98-15.59,13.22-1.68,17.83,1.5,18.71,4.99,0,0,9.48-3.62,17.46-3.87,9.6-.3,15.37,10.92,5.7,19.08Z"/>
      <path class="cls-4" d="m323.63,221.68c-2.24,5.99,1.12,13.47,18.71,12.53,17.58-.94,24.13-3.55,24.13-3.55l-42.84-8.98Z"/>
      <path class="cls-34" d="m366.47,230.66s-8.14,2.34-16.52,10.79c-5.19,5.23-6.86,8.62-6.16,9.46.78.94,8.65,1.26,10.58-.25,1.49-1.16,3.63-3.81,9.1-8.78,8.01-7.26,13.94-10.29,13.94-10.29l-10.94-.94Z"/>
      <path class="cls-18" d="m378.94,289.4l-35.31,14.96c10.23,25.72,28.15,54.05,34.15,58.39,6,4.34,23.35-4.19,23.48-12.62.13-8.43-14.6-43.5-22.32-60.74Z"/>
    </g>
    <path class="cls-19" d="m372.03,208.08c-1.67,5.04-5.8,8.73-9.15,7.78-1.11-.31-2.6-1.94-3.61-3.92,1.25-2.63,4.84-4.49,9.07-4.42,1.31.01,2.56.22,3.69.56Z"/>
    <g>
      <path class="cls-18" d="m363.82,151.64c45.74,8.6,52.09,12.02,43.55,48.16-8.98,38.04-16.59,38.79-62.32,29.18-38.98-8.19-51.99-19.2-42.81-51.38,9.18-32.18,22.43-33.32,61.57-25.97Z"/>
      <ellipse class="cls-31" cx="370.24" cy="184.94" rx="6.01" ry="4.87" transform="translate(68.19 467.87) rotate(-69.67)"/>
      <g>
        <path class="cls-18" d="m421.42,205.91c-5.37,21.49-12.62,19.88-25.04,17.13l5.37-21.49,5.37-21.49c12.42,2.75,19.68,4.36,14.31,25.86Z"/>
        <path class="cls-23" d="m411.72,203.5c-2.47,9.82-3.95,9.85-12.37,7.87l2.56-10.18,2.56-10.18c8.42,1.98,9.72,2.67,7.24,12.49Z"/>
      </g>
      <g>
        <path class="cls-23" d="m308.48,173.49c2.74-7.47,9-9.24,27.7-4.46s23.68,9.38,22.18,17.19c-1.82,9.4-5.65,19.86-10.03,22.84-4.99,3.41-13.88,2.57-23.29.19-8.51-2.15-17.77-5.89-19.45-13.19-1.19-5.16-.59-13.09,2.89-22.57Z"/>
        <path class="cls-18" d="m313.29,185.89l6.11,1.56c2.18.56,3.5,2.78,2.95,4.96-.56,2.18-2.78,3.5-4.96,2.95l-6.11-1.56c-2.18-.56-3.5-2.78-2.95-4.96.56-2.18,2.78-3.5,4.96-2.95Z"/>
        <path class="cls-18" d="m333.84,191.11l6.11,1.56c2.18.56,3.5,2.78,2.95,4.96-.56,2.18-2.78,3.5-4.96,2.95l-6.11-1.56c-2.18-.56-3.5-2.78-2.95-4.96.56-2.18,2.78-3.5,4.96-2.95Z"/>
      </g>
      <g>
        <path class="cls-29" d="m371.18,157.87c9.47-.72,27.39-13.57,17.75-18.26-8.63-4.2-23.63,4.59-33.22,6.38l4.74,10.4,10.73,1.47Z"/>
        <path class="cls-13" d="m360.44,154.86c-.66,0-1.21-.51-1.25-1.17-.04-.69.48-1.28,1.17-1.32,13.04-.79,23.42-7.67,30.84-20.45.35-.6,1.11-.8,1.71-.45.6.35.8,1.11.45,1.71-7.87,13.55-18.92,20.85-32.85,21.69-.03,0-.05,0-.08,0Z"/>
        <path class="cls-20" d="m332.63,139.49c.47-9.48,8.22-11.99,14.6-7.4,6.05,4.34,7.55,12.41,13.04,19.16,4.01,4.93,9.1,6.63,14,6.06-9.47,1.96-22.46,2.32-31.27-2.46-6.02-3.26-10.67-9.35-10.37-15.35Z"/>
        <path class="cls-13" d="m350.68,157.61c-1.69-.37-3.31-.85-4.85-1.47-4.84-6.13-6.84-14-6.95-14.4-.17-.67.24-1.35.91-1.52.67-.16,1.35.24,1.52.91.03.12,2.79,10.93,9.37,16.48Z"/>
      </g>
      <g>
        <path class="cls-31" d="m372.37,206.91c-.13.56-.3,1.11-.51,1.64l-11,2.84-1.53.67c-.7-1.34-1.19-2.84-1.19-4.22,0-.93.63-2.62,5.4-3.61,5.13-1.08,9.82-1.45,8.82,2.68Z"/>
        <path class="cls-19" d="m372.03,208.08c-1.67,5.04-5.8,8.73-9.15,7.78-1.11-.31-2.6-1.94-3.61-3.92,1.25-2.63,4.84-4.49,9.07-4.42,1.31.01,2.56.22,3.69.56Z"/>
      </g>
    </g>
  </g>
  <g>
    <g>
      <path class="cls-20" d="m236,347c6.11-14.99,10.07-22.79,22.88-40.01-14.07,7.74-29.3,25.68-30.74,49.89l4.02,4.7c18.58-25.33,26.95-34.23,45.1-47.83-16.69,1.67-31.41,16.03-41.27,33.24Z"/>
      <g>
        <path class="cls-7" d="m151.46,364c6.11-18.89,6.99-21.35,11.76-21.16,3.08-13.3,4.86-17.8,11.21-17.8,10.89,0,40.27.97,44.14,1.45s5.79,2.16,7.98,7.98c2.42,6.41,6.38,19.87,8.38,29.53h-83.47Z"/>
        <path class="cls-21" d="m164.6,342.25c-4.09.41-3.96,1.94,1.65,4.39,4.39,1.92,9.18,2.79,14.4,2.06,8.9-1.25,18.5-4.57,14.67-5.35-4.94-1.01-26.61-1.51-30.72-1.1Z"/>
        <path class="cls-10" d="m217.19,332.42s-12.08.25-32.6-.67c-22.09-.99-12.96-6.73-7.06-6.67s38.1,1.03,41.06,1.4c3.86.48,6.3,2.73,7.86,7.93,1.56,5.2-9.25-2-9.25-2Z"/>
      </g>
    </g>
    <g>
      <g>
        <path class="cls-11" d="m242.9,161.31l-15.85-7.84-5.75,17.52s4.13,6.86,12.18,9.58l9.41-19.26Z"/>
        <path class="cls-25" d="m232.63,166.42c-4.77,4.14-6.09,10.12-2.87,11.44,3.22,1.33,8.88-10.16,8.88-10.16l-6.01-1.28Z"/>
        <path class="cls-7" d="m225.55,198.39s13.53,11.29,22.03,3.48c7.54-6.92,10.13-34.45,10.13-34.45,0,0,41.52-20.54,38.17-41.76-3.21-20.32-19.62-17.45-19.62-17.45l-50.72,90.18Z"/>
        <path class="cls-10" d="m277.04,125.06c3.5,6.16,9.51,10.31,13.51,8.32,3.99-1.98,5.35-8.64-.5-19.72-5.85-11.08-14.39-10.14-16.21-6.03-1.83,4.12-.3,11.26,3.2,17.42Z"/>
        <path class="cls-21" d="m219.11,192.74c-.74,5.73,6.85,15.22,18.45,15.8,10.84-17.77,16.1-46.85,16.1-46.85,0,0,20.96-10.39,35.66-31.81-15.18-7.6-20.94-27.67-7.84-24.58-19.67-8.8-33.2,36.96-35.76,52.43-19.82,19.63-25.88,29.29-26.62,35.01Z"/>
        <path class="cls-16" d="m253.15,168.82c3.35-1.84,9.05-2.05,11.79-.72,1.89.92-.96,5.85-5.24,7.82-1.84,5.44-4.31,8.25-9.91,8.17-4.57-.06-5.63-1.62-4.36-5.24,2.04-5.84,4.99-8.54,7.73-10.04Z"/>
        <path class="cls-16" d="m265.3,160.27c3.35-.05,7-.22,5.57,3.45-1.43,3.67-2.43,5.86-9,5.51-4.68-.25-6.03-1.62-3.81-6.16,1.14-2.34,3.89-2.75,7.24-2.8Z"/>
        <path class="cls-11" d="m229.31,155.56s5.11-2.49,17.88-4.07c6.65-.82,11.82.61,9.89,8.7-2.29,9.65-4.45,16.51-7.67,14.57-3.38-2.03-2.84-10-2.15-14.02-5.18,8.97-10.29,9.2-14.41,8.35-6.33-1.3-3.54-13.54-3.54-13.54Z"/>
        <path class="cls-25" d="m249.4,174.76c-3.38-2.03-2.84-9.99-2.14-14.01-5.19,8.97-10.29,9.2-14.41,8.35-.79-.16-1.43-.49-1.96-.95,5.71-5.81,13.46-9.99,17.09-11.37,2.37-.9,2.55.76,2.76,4.7.28,5.16.83,14.58-1.34,13.28Z"/>
        <path class="cls-35" d="m261.9,171.64c-4.13,0-6.08-2.38-6.16-2.48-.43-.54-.34-1.33.19-1.76.54-.43,1.32-.34,1.75.18.08.09,1.5,1.7,4.64,1.54.73-.02,1.28.5,1.31,1.19.03.69-.5,1.28-1.19,1.31-.18,0-.36.01-.54.01Z"/>
        <path class="cls-6" d="m223.16,144.26c4.47.36,5.95,5.87,5.95,5.87,0,0,3.53.25,4.25,3.82.72,3.58-4.15,11.57-7.17,15.59-3.02,4.02-6.67,4.65-8.75,1.33,0,0-9.97,2.65-6.75-5.55,3.23-8.2,7.83-21.43,12.47-21.06Z"/>
        <path class="cls-1" d="m178.09,100.65l-15.42,4.94,11.33,40.08c9.86,10.16,15.65,13.83,36.4,20.48,1.49.48,2.1.52,2.68-.1,4.72-5.08,8.34-12.06,9.63-16.09.53-1.66.23-2.81-.38-3.32-2.11-1.75-17.97-14.2-21.01-17.79-2.55-3.01-18.21-23.01-23.22-28.19Z"/>
      </g>
      <g>
        <path class="cls-21" d="m113.52,63.12s-5.59,8.52-5.5,12.15c.09,3.63,3.15,7.86,3.15,7.86l24.18,2.3-21.83-22.31Z"/>
        <path class="cls-8" d="m177.31,101.88s4.61,31.57-4.6,51.39c-2.36,5.08-9.86,4.9-9.86,4.9l-61.61,1.87s-8.77-2.18-9.63-5.06c-.84-2.81,2.74-7.21,2.74-7.21,0,0-3.9-14.95-6.59-33.13-.73-4.9-2.06-19.17-2.06-19.17,0,0-.4-9.11,4.05-10.64,6.34-2.18,24.9-4.07,37.35-2,12.45,2.08,50.2,19.05,50.2,19.05Z"/>
        <path class="cls-15" d="m148.83,153.89c-.5,0-.97-.3-1.17-.8-.25-.64.07-1.37.71-1.62,6.5-2.52,6.62-11.56,3.63-43.64-.06-.69.44-1.3,1.13-1.36.69-.06,1.3.44,1.36,1.13,3,32.23,3.26,42.92-5.22,46.2-.15.06-.3.08-.45.08Z"/>
        <path class="cls-24" d="m45.57,138.58c-4.35,7.5,2.48,18.62,12.88,23.94,7.48,3.83,27.21-19.95,38.45-35.19,4.21-5.71,6.5-19.23,1.03-28.36-6.27-10.46-10.59-6.89-10.59-6.89,0,0-36.36,37.16-41.78,46.49Z"/>
        <path class="cls-14" d="m141.52,103.33s-3.53,10.88-8.05,8.45c-7.55-4.06-17.16-25.71-18.25-29.84,0,0,9.4-.18,11.9.39,3.44.79,14.4,21,14.4,21Z"/>
        <path class="cls-14" d="m161.48,106.43s2.06,6.51,4.23,6.69,6.17-3.45,7.53-8.8l-11.76,2.11Z"/>
        <path class="cls-15" d="m94.32,134.94c-.69.84-1.38,1.7-2.06,2.56-.07.09-.16.17-.25.23-.21-.97-.43-2.01-.66-3.1.34-.42.68-.85,1.02-1.27,5.48-6.76,10.66-13.14,8.8-21.93-4.31-20.3-8.28-25.22-10.27-26.35-.32-.18-.62-.28-.92-.32.93-.31,2.1-.61,3.46-.89,3.71,3.43,7.05,12.31,10.17,27.04,2.11,9.95-3.69,17.11-9.29,24.03Z"/>
        <g>
          <path class="cls-27" d="m118.12,124.72s.52,13.03,1.14,18.04c.24,1.94.67,3.06,2.53,3.61,2.91.85,16.6.05,19.2-.46s3.36-.62,3.78-4.06c.63-5.18.22-19.6.22-19.6l-26.88,2.46Z"/>
          <path class="cls-14" d="m119.42,119.04c-1.48.17-1.6.77-1.16,7.98.14,2.27,13.09,3.51,14.9,3.38,3.1-.23,11.89-3.1,11.89-4.49,0-7.01-.18-7.56-2.23-7.63-2.26-.07-22.39.65-23.39.76Z"/>
          <ellipse class="cls-17" cx="132.44" cy="124.94" rx="2.12" ry="2.34" transform="translate(-23.58 31.09) rotate(-12.3)"/>
        </g>
        <g>
          <path class="cls-27" d="m163.01,123.17s.35,12,.77,16.64c.16,1.8.45,2.84,1.7,3.41,1.96.89,7.59,1.03,9.34.66s3.23-1.15,4.39-4.05c1.58-3.94,1.85-17.93,1.85-17.93l-18.05,1.27Z"/>
          <path class="cls-14" d="m163.88,117.99c-.99.1-1.07.65-.78,7.29.09,2.09,10.62,4.25,11.83,4.2,2.08-.09,6.16-2.95,6.16-4.23,0-6.45-.12-6.96-1.5-7.1-1.52-.15-15.03-.23-15.71-.16Z"/>
          <ellipse class="cls-17" cx="174.64" cy="123.92" rx="1.58" ry="2.27" transform="translate(-16.07 26.53) rotate(-8.31)"/>
        </g>
      </g>
      <g>
        <path class="cls-9" d="m99.41,158.86c-.29,1.55-.58,5.26.18,7.89l64.66-1.75s-.24-4.47-.85-7.13c-.38-1.66-1.57-3.39-15.6-3.26-21.99.2-40.72,2.38-46.4,3.36-1.4.24-1.9.42-1.99.91Z"/>
        <path class="cls-17" d="m137.5,154.85s-.43-2.72,2.3-3.17,7.99-.66,10.34-.54c1.86.09,2.45.59,2.77,4.22.46,5.3.73,10.93.73,10.93l-4.63.36-.77-12.05-10.73.26Z"/>
        <path class="cls-17" d="m145.05,160.92c-.89,0-1.61-.71-1.64-1.6-.03-.91.69-1.66,1.59-1.69l5.34-.2c.89-.06,1.66.69,1.69,1.59.03.91-.69,1.66-1.59,1.69l-5.34.2s-.03,0-.05,0Z"/>
      </g>
      <g>
        <g>
          <path class="cls-8" d="m100.66,43.29s-4.2-12.31-2.66-16.45c1.45-3.91,6.53-11.97,9.43-13.23,10.88-4.7,32.67-11.73,37.86-13.31,4.23-1.29,11.87,1.76,15.52,5.07,2.8,2.54,7.19,14.3,7.19,14.3l-67.35,23.62Z"/>
          <path class="cls-17" d="m98.86,36.36c13.18-6.71,28.78-14.88,68.68-24.01,1.77-.4,3.98,6.64,3.98,6.64l-72.04,23.6s-2.38-5.33-.63-6.23Z"/>
          <path class="cls-15" d="m110.52,12.33c-3.53,1.48-9.83,14.51.1,10.09,21.43-9.55,43.53-24.88,27.51-19.84-18.43,5.81-25.49,8.86-27.61,9.75Z"/>
          <path class="cls-19" d="m167.33,11.7c1.75,4.31.93,8.62-1.6,9.63-1.87.75-4.98-1.23-7.38-6.29-1.99-4.2-2.6-7.89-.04-8.81s7.26,1.16,9.01,5.46Z"/>
          <path class="cls-9" d="m164.97,14.98c1.34,2.73.7,5.05-.64,5.68s-3.47-1.1-4.75-3.85c-1.29-2.75-1.77-5.24-.44-5.87,1.34-.63,4.18.69,5.83,4.04Z"/>
          <ellipse class="cls-2" cx="162.2" cy="9.89" rx="2.1" ry="2.44" transform="translate(7.18 58.64) rotate(-20.95)"/>
        </g>
        <g>
          <ellipse class="cls-27" cx="138.12" cy="35.63" rx="59.07" ry="9.25" transform="translate(-4.31 43.48) rotate(-17.62)"/>
          <path class="cls-21" d="m182.69,100.24c-11.88,7.62-34.34,11.64-44.57,3.96-7.52-5.65-16.44-28.2-16.44-28.2,0,0-7.1-8.53-14.44-19.04-2.2-3.15-2.3-6.5-2.14-8.35,0-.04.01-.09.02-.15.09-.71.92-1.66,2.5-2.81l2.03-1.32c4.95-2.98,14-6.87,27.37-10.99l41.92,24.2,3.02,1.83c7.26,6.05,8.65,7.74,1.31,14.63,3.54,6.35,10.76,18.98-.58,26.24Z"/>
          <path class="cls-11" d="m178.94,57.54c-.11.28-.22.58-.33.87l-3.08-.28c-9.71-.69-14.56.33-25.49,9.53-2.26-7.38-16.23-14.24-16.23-14.24,0,0,4.04-14.36,3.21-20.08.46-.14,1.65-.5,1.78-.54,21.97-6.61,29.48-5.88,32.34-3.86,9.03,6.8,12.97,14.53,7.8,28.6Z"/>
          <ellipse class="cls-31" cx="179.59" cy="50.56" rx="4.85" ry="1.7" transform="translate(106.89 222.38) rotate(-82.79)"/>
          <path class="cls-21" d="m185.41,40.15c.1-2.89-4.07-6.61-7.64-5.81-3.11.7-6.05,3.46-4.92,6.11,1.29,3.04,6.73,2.87,8.65,2.59s3.84-.82,3.91-2.89Z"/>
          <path class="cls-25" d="m177.29,52.82c2.36,0,4.5,1.83,5.75,5.56,1.28,3.82-2.83,5.66-9.05,5-5.54-.59-5.93-3.43-4.17-5.84,2.18-2.99,5.12-4.72,7.47-4.72Z"/>
          <ellipse class="cls-31" cx="160.98" cy="51.73" rx="5.1" ry="2.34" transform="translate(82.35 201.42) rotate(-80.1)"/>
          <path class="cls-21" d="m149.24,42.98c-.81-2.79,4.81-7.69,8.98-7.71,4.82-.02,7.6,3.27,7.35,5.44-.36,3.08-7.35,3.99-9.89,4.17s-5.8.27-6.44-1.9Z"/>
          <g>
            <path class="cls-7" d="m119.69,57.84c0,12.55,7.5,10.1,7.42,1.21l-7.42-1.21Z"/>
            <path class="cls-11" d="m123.56,46.07c2.45,2.9,3.72,9.16,3.54,13.6-.12,2.99-6.98,1.81-10.7-7.35-2.97-7.32,4.23-9.74,7.16-6.26Z"/>
            <path class="cls-16" d="m124.92,49.25c-1.45-2.18-4.53-2.63-3.81,1.9.73,4.53,6.08,10.34,5.8,5.44-.18-3.26-1.02-5.88-2-7.35Z"/>
          </g>
          <path d="m172.26,72.81c-.29.6-.61,1.13-.95,1.59l-3.13-2.75,4.63-2.52.17-.16c1.02.08,1.71.27,1.86.64.6,1.44-2.58,3.21-2.58,3.21Z"/>
          <path class="cls-9" d="m171.34,74.36c-2.85,3.95-7.01,2.8-9.75-1.38-.81-1.23-1.08-2.02-.6-2.57.02-.05.08-.1.13-.14.21-.01.42-.01.64-.01,2.61,0,4.97.54,6.74,1.43,1.41.71,2.43,1.63,2.84,2.68Z"/>
          <path class="cls-2" d="m173.09,68.97c-.56,1.59-2.56,2.41-4.59,2.71-1.35.22-2.73.21-3.7.05-1.89-.29-3.2-.75-3.81-1.33.02-.05.08-.1.13-.14.47-.39,1.39-.64,2.89-.83h.01c.52-.07,1.12-.12,1.8-.17h.03c2.78-.22,5.52-.42,7.24-.29Z"/>
          <path class="cls-7" d="m161.18,99.03c-.35,0-.58-.01-.64-.02-.69-.04-1.21-.64-1.17-1.32.04-.69.62-1.2,1.32-1.17.08,0,7.83.39,9.11-4.85.16-.67.84-1.08,1.51-.92.67.16,1.08.84.92,1.51-1.53,6.28-8.82,6.77-11.05,6.77Z"/>
        </g>
      </g>
      <g>
        <g>
          <g>
            <path class="cls-20" d="m4.68,41.54s2.55-18.85,16.81-18.03c13.52.78,7.15,7.58-.21,11.54-9.2,4.95-16.6,6.49-16.6,6.49Z"/>
            <path class="cls-29" d="m14.12,33.1c-.32,0-.63-.12-.88-.36-.49-.48-.5-1.28-.01-1.77,17.01-17.25,35.35-11.12,43.5-4.78.54.42.64,1.21.22,1.75-.42.54-1.21.64-1.75.22-7.5-5.84-24.41-11.44-40.19,4.56-.24.25-.57.37-.89.37Z"/>
          </g>
          <path class="cls-28" d="m73.48,138.52c-.54-9.07-1.06-17.81-1.55-26.06-.29-4.77,2.61-14.87,2.85-19.4.18-3.45-4.21-4.89-4.35-7.26-1.87-31.13-3.77-67.47-4.45-77.88-.11-1.73-2.11-2.63-3.49-1.58l-6.04,4.6c-1.46,1.11-2.26,2.87-2.13,4.7.99,14.13,5.32,83.52,7.95,122.88h11.23Z"/>
          <path class="cls-28" d="m37.14,32.39h0c.67-.78,1.84-.89,2.65-.26l20.92,16.29-.65,25.51-2.07-1.11c-.46-6.52-1.27-14.61-9.62-24.65-5.83-7.01-9.53-11.3-11.23-13.26-.63-.72-.63-1.8,0-2.52Z"/>
          <path class="cls-28" d="m85.26.39h0c-1.08-.72-2.53-.43-3.24.65l-16.24,24.52.79,31.11,1.95-3.85c-.42-9.41,1.49-14.18,7.88-28.57,3.43-7.72,7.84-17.05,9.68-20.92.5-1.05.15-2.29-.81-2.94Z"/>
        </g>
        <path class="cls-6" d="m55.66,145.65c-3.14,6.53-5.44,17.99-1.93,22.46,3.51,4.47,7.7,3.48,14.15.64,4.11-1.81,5.93-5.26,5.93-5.26,0,0-11.38-31.87-18.14-17.84Z"/>
        <g>
          <path class="cls-11" d="m58.62,134.86c-4.4,3.63-5.92,4.92-1.33,27.72,1.63,8.11,8.04,6.25,16.88,2.75,7.53-2.98,8.89-7.1,6.4-21.04,0,0,5-4.47.83-9.88-3.61-4.68-6.27-5.99-10.9-5.14-3.42.63-8.72,2.99-11.88,5.59Z"/>
          <path class="cls-25" d="m64.83,168.17c-2.83.39-4.96-.75-1.95-3.17,2.89-2.33,11.24-5.91,14.24-5.56,3.41.39.77,3.91-2.01,5.5-1.28.73-2.89,2.91-2.89,2.91l-7.39.33Z"/>
          <path class="cls-16" d="m82.45,141.59c-.56,1.27-1.36,2.16-1.7,2.52-.7-2.27-1.84-3.68-3.5-4.31-2.9-1.1-7.48.19-12.91,3.64-.58.37-1.35.2-1.72-.38-.37-.59-.2-1.36.38-1.73,4.32-2.75,10.46-5.65,15.14-3.87,1.88.72,3.32,2.1,4.31,4.13Z"/>
          <path class="cls-16" d="m81.71,154.27c-.41-1.52-1.2-2.57-2.37-3.14-2.76-1.34-7.64-.17-12.73,3.07-.58.37-1.35.2-1.72-.38-.37-.58-.2-1.36.38-1.73,5.91-3.76,11.58-4.95,15.17-3.21.3.15.61.33.92.55.23,1.82.35,3.43.35,4.84Z"/>
        </g>
        <path class="cls-28" d="m69.06,164.67c-4.25,1.7-4.52,1.9-4.45,3.84.64,15.71,1.22,22.65,1.27,23.39.18,2.53-2.9,4-2.54,7.09.36,3.08,4.35,20.68,4.64,24.3.26,3.29,7.98,117.09,9.31,137.68.11,1.77,1.61,3.11,3.38,3.04l2.93-.11c1.83-.07,3.24-1.62,3.13-3.44-1.1-19.25-6.95-110.56-11.96-194.84-.16-2.68-.21-3.14-5.71-.94Z"/>
      </g>
      <g>
        <path class="cls-8" d="m101.73,244.32c.36,9.55-2.54,40.03,2.54,63.24,0,0-5.74,9.54-3.02,11.73s5.8,3.75,5.8,3.75l22.25-6.17s6.23-2.3,7.38-5.32c1.15-3.02-3.39-8.83-3.39-8.83,0,0,1.33-22.61,1.33-44.02,0-28.3.85-51.88.85-51.88l10.88-.72s24.22-17.98,24.18-23.22c-.12-16.32-1.33-19.23-3.51-19.23-3.75,0-61.67,1.57-67.11,2.54s-5.01,3.64-4.72,8.83c.36,6.41,1.81,11.97,1.81,11.97,0,0,4.35,47.74,4.72,57.32Z"/>
        <path class="cls-32" d="m138.61,203.33s18.32,11,41.45,22.37c-1.27,4.35-1.45,6.17,1.99,7.8-4.99,12.33-5.65,39.22-6.71,42-3.39,3.66-3.11,7.3.22,11.12,1.57,1.8,4.53,4.72,4.53,4.72l25.07-6.32c4.72-7.26,6.65-8.46,1.43-13.18,5.34-17.29,11.88-47.97,11.07-56.29-.6-6.17-31.86-26.36-41.69-31.44-1.29-4.46-2.72-5.26-6.53-3.63l-30.83,22.85Z"/>
        <path class="cls-15" d="m148.14,184.8c0,.87-.01,1.7-.03,2.51-.16,9.79-1.35,15.72-3.63,18.93l-4.32.28c.72-.2,1.34-.62,1.9-1.26,4.61-5.28,3.88-24.65,2.71-41.02.85-.02,1.69-.05,2.51-.07.57,8.16.87,14.97.86,20.63Z"/>
        <path class="cls-15" d="m154.56,184.55c-1.83,2.07-4.34,2.6-6.45,2.76-.18.02-.36.03-.54.04h-.07c-.66,0-1.21-.52-1.25-1.18-.03-.69.5-1.28,1.18-1.32.25-.01.48-.03.71-.05,2.18-.21,3.56-.8,4.55-1.91,2.25-2.55,2.93-8.4,2.18-18.94.87-.02,1.7-.04,2.5-.06.79,11.34-.05,17.53-2.81,20.66Z"/>
        <path class="cls-15" d="m111.22,312.3s-2.27,5.18-1.84,8.78c.09.68-.4,1.31-1.09,1.39-.05.01-.1.01-.15.01-.62,0-1.16-.47-1.24-1.1-.45-3.72,1.33-8.41,1.88-9.73-2.65-15.44-2.32-30.09-1.97-45.6.22-9.87.45-20.09-.04-31.3-.65-14.82-2.13-28.56-3.31-39.6-1.72-15.95-2.6-25.07-1.05-29.2.85-.07,1.87-.14,3.04-.2-.05.07-.11.13-.18.19-2.23,1.94-.88,14.46.67,28.94,1.19,11.08,2.67,24.86,3.33,39.76.49,11.3.26,21.55.04,31.47-.35,15.5-.68,30.14,2,45.47.04.25.01.5-.09.72Z"/>
        <path class="cls-15" d="m185.67,229.76c-3.17,0-4.32-1.26-4.61-1.66-.4-.56-.27-1.34.3-1.74.54-.39,1.29-.27,1.7.24.13.13,2.49,2.17,11.53-1.67.63-.27,1.37.03,1.64.66.27.63-.03,1.37-.66,1.64-4.53,1.92-7.7,2.53-9.9,2.53Z"/>
      </g>
      <g>
        <path class="cls-17" d="m157.68,352.38c1.18,2.32.79,8.21.29,9.79s-2.33,1.83-5.69,1.83h-30.18c-2,0-1.73-3.17-2.95-3.17-1.06,0-.68,3.17-2.34,3.17h-11.58c-1,0-1.37-.98-1.49-2.42-.33-3.75-.6-9.04,1.63-8.92s39.78-2.03,49.82-1.26c1.69.13,2.32.63,2.49.96Z"/>
        <path class="cls-19" d="m156.93,351.7c-.12-6.59-.36-9.79-8.04-11.85-7.17-1.92-16.2-4.53-16.2-4.53,1.39-6.23,2.47-14.59.79-17.78-1.15-2.18-8.1-3.87-16.32-.91-3.14,1.13-2.06,5.44-2.06,5.44l-9.37,7.98s-1.15,11.79-1.15,15.72c0,3.45.04,7.66.95,8.11,2.06,1.03,19.03,1.51,28.11,1.65,19.47.3,23.34-1.6,23.3-3.84Z"/>
        <path class="cls-9" d="m156.93,351.7c.04,2.24-3.82,4.14-23.29,3.84-1.38-.02-2.94-.05-4.6-.09.22-6.08,3.63-9.32,11.33-9.67,7.37-.34,12.66-2.97,9.93-5.51,6.3,2.07,6.52,5.27,6.63,11.43Z"/>
        <path class="cls-9" d="m118.01,355.1c-6.09-.27-11.39-.66-12.48-1.21-.91-.45-.96-4.67-.96-8.11,0-1.43.15-3.9.34-6.47,9.98,2.63,12.22,7.36,13.1,15.79Z"/>
        <path class="cls-17" d="m120.22,320.31c2.19.44,3.52,2.6,2.76,7.04-.38,2.25-2.43,3.34-7.45,3.94-9,1.08-12.16.47-12.27-3.27-.12-4.47,1.56-5.7,4.47-6.65,3.92-1.28,10.29-1.5,12.48-1.06Z"/>
        <path class="cls-33" d="m123.12,338.28c-.32,0-.63-.12-.88-.36-.49-.48-.5-1.27-.02-1.76.17-.17,4.2-4.21,11.16-3.29.68.09,1.17.72,1.08,1.4-.09.68-.71,1.16-1.4,1.08-5.67-.74-8.91,2.43-9.05,2.56-.24.25-.57.37-.89.37Z"/>
        <path class="cls-33" d="m127.91,340.36c-.27,0-.54-.08-.76-.26-.55-.42-.65-1.21-.22-1.75.15-.19,3.68-4.61,11-3.78.69.08,1.18.7,1.1,1.38-.08.69-.7,1.17-1.38,1.1-5.95-.68-8.71,2.79-8.74,2.83-.25.32-.62.48-.99.48Z"/>
      </g>
      <g>
        <path class="cls-17" d="m230.57,317.52c1.14,2.26.66,6.48-.28,7.76-.56.76-2.76,1.82-5.79,2.35-1.57.27-17.23,1.89-29.33.41-1.93-.24-2.54-2.47-3.76-2.47-1.06,0-.71,2.35-2.23,2.71-2.69.63-7.94.15-10.64-.24-1.35-.19-1.5-.74-1.6-1.47-.42-3-1.39-9.06.85-8.94s40.54-1.93,50.57-1.18c1.68.13,2.05.73,2.22,1.06Z"/>
        <path class="cls-19" d="m229.37,316.7c.01-6.41-.17-9.53-7.81-11.53-7.13-1.87-16.11-4.41-16.11-4.41,1.55-4.34,4.17-13.79,2.04-16.56-2.33-3.03-10.2-3.48-15.83-1.28-3.11,1.21-1.99,4.61-1.99,4.61l-11.08,8.11s-1.38,11.47-1.46,15.29c-.07,3.35-.26,6.74.64,7.18,2.04,1,18.57,2.16,27.64,2.29,19.46.29,23.95-1.53,23.96-3.71Z"/>
        <path class="cls-9" d="m229.37,316.7c0,2.17-4.49,4-23.95,3.7-1.22-.02-2.57-.05-4.01-.1.36-5.89,3.83-9.03,11.51-9.37,7.37-.33,12.71-2.87,10.06-5.35,6.24,2.01,6.4,5.12,6.39,11.12Z"/>
        <path class="cls-9" d="m190.35,319.69c-6.12-.45-11.48-1.04-12.58-1.58-.9-.44-.71-3.82-.64-7.18.03-1.39.23-3.79.48-6.29,9.79,2.53,12.01,7.05,12.74,15.05Z"/>
        <path class="cls-17" d="m193.52,286.01c2.19.44,3.52,2.6,2.76,7.04-.38,2.25-2.43,3.34-7.45,3.94-9,1.08-12.16.47-12.27-3.27-.12-4.47,1.56-5.7,4.47-6.65,3.92-1.28,10.29-1.5,12.48-1.06Z"/>
        <path class="cls-33" d="m197.35,304.61c-.32,0-.63-.12-.88-.36-.49-.48-.5-1.27-.02-1.76.17-.17,4.2-4.21,11.16-3.29.68.09,1.17.72,1.08,1.4-.09.68-.71,1.16-1.4,1.08-5.67-.74-8.91,2.43-9.05,2.56-.24.25-.57.37-.89.37Z"/>
        <path class="cls-33" d="m202.13,306.69c-.27,0-.54-.08-.76-.26-.55-.42-.65-1.21-.22-1.75.15-.19,3.68-4.61,11-3.78.69.08,1.18.7,1.1,1.38-.08.69-.7,1.17-1.38,1.1-5.95-.68-8.71,2.79-8.74,2.83-.25.32-.62.48-.99.48Z"/>
      </g>
    </g>
  </g>
  <g>
    <path class="cls-5" d="m465.46,320.66s-12.22,20.63-17.26,30.99c-4.02,8.25,4.68,10.03,11.97,7.27,14.18-5.38,28.6-28.36,28.6-28.36l-23.3-9.89Z"/>
    <path class="cls-5" d="m528.63,330.51s.5,20.9.79,27.02c-2.59,2.35-2.94,6.47.82,6.47s8.43,0,11.06,0c4.85,0,13.2-35.19,13.2-35.19l-25.88,1.7Z"/>
    <path class="cls-5" d="m461.21,272.21s-3.38-12.03-1.08-22.24c2.35-10.43,10.66-8.48,13.46,4.46,1.85,8.57-2.2,21.38-2.2,21.38l-10.18-3.6Z"/>
    <path class="cls-17" d="m480.11,324.32c1.01,9.44,4.9,32.05,4.9,32.05-3.59,6.83.12,7.62,3.96,7.62,2.94,0,5.47,0,8.65,0,5.94,0,11.18-14.95,12.59-38.32l-30.1-1.35Z"/>
    <path class="cls-17" d="m551.63,289.19s6.37-17.7,12.53-26.23c6.17-8.53,11.43-9.42,13.8-5.46,2.82,4.7,3.37,11.6-2.63,20.32-6,8.72-17.62,15.82-17.62,15.82l-6.09-4.46Z"/>
    <g>
      <path class="cls-17" d="m470.21,271.22s1.31-15.04,13.86-18.53c12.84-3.57,15.58,4.8,8.06,13.49-7.52,8.7-12.08,9.63-12.08,9.63l-9.84-4.59Z"/>
      <path class="cls-5" d="m478.02,271.28c4.57-2.24,16.33-14.93,7.43-11.82-8.9,3.1-13.09,14.6-7.43,11.82Z"/>
    </g>
    <g>
      <path class="cls-17" d="m567.88,296.1c-9.53-16.02-37.97-10.61-63.16-12.23-10.9-.7-18.84-6.2-31.42-12.6-12.75-6.48-23.84-6.13-32.24,3.7-11.73-8.32-17.33-5.88-18.75-1.9-1.76,4.94-.07,17.06,27.87,38.88,20.28,15.84,45.4,20.75,70.93,20.98,13.12.12,26.18-1.45,26.18-1.45,2.06,11.62,5.5,25.69,5.5,25.69-3.59,6.83-.02,6.82,3.82,6.82,2.94,0,5.47,0,8.65,0,5.94,0,13.33-49.9,2.63-67.9Z"/>
      <path class="cls-9" d="m434.21,297.4c-.16-.02-.31-.04-.47-.07-2.31-2.45-4.2-4.7-5.75-6.78.81.2,1.73.35,2.74.4,4.04.19,9.07-3.64,11.99-3.02,3.19.66-1.98,10.21-8.51,9.47Z"/>
      <path class="cls-28" d="m503.42,297.83c-2.42-1.13-5.85-7.16-13.46-17.98h.02s.01.01.02.01c4.79,2.18,9.4,3.67,14.71,4.01.07,0,.15.01.22.01,4,7.06,2.79,15.96-1.51,13.95Z"/>
      <path class="cls-28" d="m548.5,299.58c-3.11-.03-6.45-9.1-12.72-15.3,4.83.13,9.42.44,13.6,1.16,4.35,7.03.93,14.16-.88,14.14Z"/>
      <ellipse cx="450.17" cy="278.65" rx="3.47" ry="1.81" transform="translate(-72.93 360.31) rotate(-40.63)"/>
    </g>
    <g>
      <path class="cls-19" d="m519.92,332.92c0,2.08,8.39,2.12,11.25.83,5.76-2.59,9.11-13.69,4.67-34.16h-9.73c2.32,8.92,5.11,33.71-6.18,33.34Z"/>
      <g>
        <path class="cls-9" d="m528.18,317.78c-.98-.09-1.62,2.72-2.25,6.55-.47,2.86.03,3.67,1.17,4.2,1.38.64,5.07,1.11,8.08.35,1.89-.48,2.53-2.97,2.92-4.85.72-3.5.92-6.11-.23-5.97-.07.88-.05,1.11-4.55.94s-5.17-.38-5.15-1.22Z"/>
        <path class="cls-3" d="m538.27,323.21c-.05.26-.1.54-.16.82-.13.65-.3,1.38-.55,2.07-1.16.26-2.86.48-5.33.48-3.16,0-5.18-.68-6.42-1.38.04-.27.08-.56.13-.88.11-.65.21-1.28.32-1.86.39.38,1.97,1.62,5.97,1.62,4.73,0,6.01-.84,6.02-.85l.02-.02Z"/>
      </g>
      <g>
        <path class="cls-22" d="m509.94,284.11c2.84.56,8.23,2,12.17,8.78,3.6,6.19,2.84,7.33,5.33,7.39s8.28.61,9.33-.28,6.75-8.51,5.51-15.41c-1.31-7.34-11.12-11.32-19.4-11.21-5.64.08-10.39-1.68-12.95,10.72Z"/>
        <path class="cls-30" d="m529.87,297.31c-.07.64-.62,1.11-1.24,1.11-.05,0-.1,0-.14-.01-.69-.08-1.18-.69-1.11-1.38.02-.11,1.12-10.67-4.52-16.74-3.66-3.94-7.79-4.33-9.86-4.23.94-1.22,1.98-1.91,3.11-2.28,2.55.45,5.7,1.71,8.58,4.81,6.43,6.92,5.23,18.24,5.18,18.72Z"/>
        <path class="cls-34" d="m527.45,271.08c-1.54.05-1.68,2.43-1.68,2.43,4.23,1.21,6.36,4.32,8.19,13.24.44,2.13,3.21,2.84,6.21,2.83,2.45,0,3.33-.42,3.83-2.92s1.5-7.96-2.17-10.85-11.69-4.81-14.39-4.73Z"/>
        <path class="cls-22" d="m538.69,284.3c.01.69-.53,1.26-1.23,1.28h-.02c-.68,0-1.24-.54-1.25-1.22-.1-4.32-2.83-11.17-9.93-12.52.25-.41.63-.75,1.19-.76,1.04-.03,2.87.24,4.94.74,4.39,3.24,6.21,8.68,6.3,12.48Z"/>
      </g>
    </g>
  </g>
</svg>