<svg xmlns="http://www.w3.org/2000/svg" viewBox="0 0 549.2 498">
  <title>Safety-Center-Content-Moderation</title>
  <g id="Lock_Box" data-name="Lock Box">
    <path id="Box" d="M263.9,60.1H167.7c-7.3,0-15.9,5.6-19.1,12.6L110,155.3c-3.2,6.9.1,12.6,7.4,12.6h7.7L148,190.4a1.4,1.4,0,0,0,2.3-1.2l-3.7-21.3h67c7.3,0,15.9-5.7,19.1-12.6l38.6-82.6C274.6,65.7,271.3,60.1,263.9,60.1Z" style="fill: #8cd9ff"/>
    <g id="Lock">
      <path id="Loop" d="M170.9,151.3c-10.9-1.6-16.1-11.2-11.4-21.4l21.9-48.1c4.6-10.2,17.3-17.1,28.2-15.5s16,11.3,11.4,21.4l-21.9,48.1C194.5,146,181.8,153,170.9,151.3Zm35.7-78.4c-7-1-15.2,3.4-18.1,10L166.6,131c-3,6.5.3,12.7,7.3,13.7s15.1-3.4,18.1-9.9l21.9-48.1C216.9,80.1,213.6,74,206.6,72.9Z" style="fill: #808bff"/>
      <path id="Shadow" d="M208.6,102.8c-7.3-6.1-66.7,23.8-61,38.2a28,28,0,0,0,5,7.3l.9.9c4.3,4.8,12.3,8.5,20.2,8.7a44.4,44.4,0,0,0,40.6-23.5C217.9,127.6,221,113.3,208.6,102.8Z"/>
      <ellipse id="Base" cx="180.2" cy="124.4" rx="36.6" ry="25.2" transform="translate(-36 89.8) rotate(-25.5)" style="fill: #5865f2"/>
      <path id="Highlight" d="M182,129.3a43.1,43.1,0,0,0-10-28.8,51.6,51.6,0,0,0-16.5,10.9c4,5.8,11.4,17.6,16,30.8a16.4,16.4,0,0,0,7,9.1,56.5,56.5,0,0,0,9.9-3C184.6,145.3,181.6,139.6,182,129.3Z" style="fill: #808bff"/>
      <g id="Middle">
        <ellipse cx="179.5" cy="124.2" rx="27.6" ry="19.7" transform="translate(-35.2 85) rotate(-24.3)" style="fill: #5865f2"/>
        <path d="M204.1,126.9a17.2,17.2,0,0,0,1.2-12.6c-2.3-5.2-7.8-9-15.4-9.8-13.6-1.5-29,6.7-34.4,18.4-2.1,4.5-2.4,8.8-1.2,12.5,2.3,5.3,7.7,9,15.4,9.9C183.3,146.8,198.7,138.5,204.1,126.9Z" style="fill: #d1d4ff"/>
      </g>
      <g id="Dial">
        <path d="M166.6,124.1l.7,1.4a18.3,18.3,0,0,0,3.7,4.6l.5.3a8.6,8.6,0,0,0,5.3.8,13.5,13.5,0,0,0,4.8-1.4l1.6-1c4.7-3.4,4.9-9.6.8-12.8l-2.8-2a2,2,0,0,0-2.2.1l-10.6,4.7-.4.2C166.9,120,165.7,122.4,166.6,124.1Z" style="fill: #5865f2"/>
        <ellipse cx="174.8" cy="120" rx="9.2" ry="6.5" transform="translate(-33.9 82.7) rotate(-24.3)" style="fill: #808bff"/>
      </g>
    </g>
  </g>
  <g id="Phone">
    <path d="M287.2,384H147.5c-15.1-.3-24.6-20.9-21.4-27.8L235.8,158.3c3.2-6.9,12.4-12.4,20.5-12.4l135.5-15.2c3.2,0,14.3,23.5,11.3,32.1L307.7,371.5C304.5,378.4,295.4,384,287.2,384Z" style="fill: #808bff"/>
    <path d="M275.7,366.3H136c-8.2,0-12.3-5.6-9.1-12.4l97.4-213.3c3.2-6.8,12.4-12.4,20.5-12.4H384.6c8.1,0,12.2,5.6,9.1,12.4L296.2,353.9C293.1,360.7,283.9,366.3,275.7,366.3Z" style="fill: #242145"/>
    <path d="M271.3,358.9H147.2c-8.2,0-12.3-5.6-9.1-12.4L228.8,148c3.1-6.8,12.3-12.4,20.5-12.4h124c8.2,0,12.3,5.6,9.2,12.4L291.8,346.5C288.6,353.3,279.4,358.9,271.3,358.9Z" style="fill: #5865f2"/>
    <g id="Imported_Wumpus" data-name="Imported Wumpus">
      <path d="M297.1,215.9a19.7,19.7,0,0,0,6.3-6.2c2.2-3.9,1.3-7.2-1.8-8.6a7.9,7.9,0,0,0-3.2-.6H298c-5.8,0-10.2,3.2-17.3,7.7a154.4,154.4,0,0,1-14.4,7.9Z" style="fill: #55f186"/>
      <path d="M279.3,217.9c-.6,0-1-.3-.9-.8a3.1,3.1,0,0,1,1.9-2.4,66.2,66.2,0,0,0,24.8-20.4,3.1,3.1,0,0,1,2.6-1.4c.8.2.9,1.1.2,2a73,73,0,0,1-27.7,22.8A1.8,1.8,0,0,1,279.3,217.9Z" style="fill: #008d3c"/>
      <path d="M285.7,216.2l-23.5.2c-6.5-1.9-7.4-7.8-2.8-15,3.4-5.3,10.6-9.7,16.7-9.6s7.1,5,7.5,9.4C284.6,210.8,285.7,216.2,285.7,216.2Z" style="fill: #26cb7a"/>
      <path d="M272.8,222.5a.9.9,0,0,1-.7-.3,19.9,19.9,0,0,1-4.7-19.5,3.9,3.9,0,0,1,2.3-2.2c1-.3,1.6.3,1.3,1.2a18.1,18.1,0,0,0,4.5,17.6c.4.5.1,1.5-.8,2.3A2.8,2.8,0,0,1,272.8,222.5Z" style="fill: #008d3c"/>
      <path d="M219,231.6a68.3,68.3,0,0,1,7.8-.2c.6,0,.9.5.5,1.2L209.2,264a2.5,2.5,0,0,1-1.9,1.3,59,59,0,0,1-7.4-.4c-4.5-.3-6-4.2-3.6-9.1a167,167,0,0,1,8.7-15.1C208.2,235.8,214.1,232,219,231.6Z" style="fill: #698eff"/>
      <path d="M214.7,237.8a24.9,24.9,0,0,1,4.1-.2c.8-.1,1,.7.4,1.6L209.7,256a3.4,3.4,0,0,1-2.3,1.6,36.8,36.8,0,0,1-3.9-.2c-1.6-.2-2-1.7-1.2-3.5,1.7-3.3,5.1-9.3,7.3-12.7A7.8,7.8,0,0,1,214.7,237.8Z" style="fill: #b7ccff"/>
      <path d="M211.6,245h0a121,121,0,0,0-8.1,16.1c-3.4,8.1-1.1,14.3,5.8,16s20.8,1.8,31.6,1.9,26.6-.6,33.6-1.8c8.7-1.6,18.1-7.8,24-15.9a126.2,126.2,0,0,0,10.4-16.2h0A110,110,0,0,0,317,229c3.4-8.1,1.1-14.3-5.8-15.9s-20.7-1.9-31.5-1.9-26.7.5-33.7,1.8c-8.7,1.5-18.1,7.7-24,15.8A138,138,0,0,0,211.6,245" style="fill: #698eff"/>
      <path d="M256.6,261.2h-16c-9.7-.4-10.4-4.6-8.2-10.6s4.4-9.6,8.5-15.9,8.2-7.2,12.4-7.2h27.1c4.2,0,5.6,3.6,3,8.1l-6.6,11.5C271.6,256.3,264.4,261.2,256.6,261.2Z" style="fill: #b7ccff"/>
      <path d="M246.6,246.7h-3.5a6.7,6.7,0,0,0-5.1,3.1c-1,1.8-.3,3.2,1.5,3.2H243a6.6,6.6,0,0,0,5.1-3.2C249.1,248.1,248.4,246.7,246.6,246.7Z" style="fill: #698eff"/>
      <path d="M262.7,246.7h-3.4a6.7,6.7,0,0,0-5.1,3.1c-1,1.8-.3,3.2,1.5,3.2h3.4a6.6,6.6,0,0,0,5.2-3.2C265.3,248.1,264.6,246.7,262.7,246.7Z" style="fill: #698eff"/>
      <ellipse cx="290.7" cy="238.4" rx="6.3" ry="3.5" transform="translate(-85.3 242.2) rotate(-39.9)"/>
      <ellipse cx="229.9" cy="238.3" rx="6.3" ry="3.5" transform="translate(-99.4 203.2) rotate(-39.9)"/>
      <path d="M319,231.8c-2.6-.2-4.7-.3-7.4-.3a2.5,2.5,0,0,0-1.9,1.3l-18,31.4c-.4.6-.1,1.2.5,1.2,2.8,0,5-.1,7.8-.3,4.9-.3,10.9-4.2,14-9.1a165.6,165.6,0,0,0,8.6-15.1C325.1,236,323.6,232.1,319,231.8Z" style="fill: #698eff"/>
      <path d="M315.7,237.1a36.8,36.8,0,0,0-3.9-.2,3,3,0,0,0-2.2,1.6L300,255.3c-.5.9-.4,1.6.4,1.6s2.6-.1,4.2-.2a7.9,7.9,0,0,0,5-3.4c2.2-3.4,5.7-9.4,7.3-12.7S317.3,237.3,315.7,237.1Z" style="fill: #b7ccff"/>
    </g>
    <path id="Top_Notch" data-name="Top Notch" d="M324.8,141.5H278.7c-3.6,0-5.2-2.5-3.5-5.5h0c1.6-3.1,6-5.5,9.6-5.5h46c3.7,0,5.3,2.4,3.6,5.5h0A12.2,12.2,0,0,1,324.8,141.5Z" style="fill: #242145"/>
    <path id="Side_Line" data-name="Side Line" d="M374.3,205l-1.4-.7a1.9,1.9,0,0,1-.9-2.4l15-32.4a1.5,1.5,0,0,1,2.2-.7l1.4.7a1.9,1.9,0,0,1,.9,2.4l-14.9,32.4A1.6,1.6,0,0,1,374.3,205Z" style="fill: #b0b4ff"/>
    <path id="Bottom_Line" data-name="Bottom Line" d="M216,376.5H193.6A1.6,1.6,0,0,1,192,375l-.2-1.3a1.5,1.5,0,0,1,1.4-1.5h22.5a1.7,1.7,0,0,1,1.6,1.5V375A1.3,1.3,0,0,1,216,376.5Z" style="fill: #5865f2"/>
  </g>
  <g id="PassKey_Box" data-name="PassKey Box">
    <path id="Box-2" data-name="Box" d="M178.6,288.8H35.6c-9.3,0-20.8,7.6-25.7,16.9L2.2,320.2c-4.9,9.3-1.3,16.9,8,16.9H153.1c9.3,0,20.9-7.6,25.8-16.9l7.6-14.5C191.4,296.4,187.9,288.8,178.6,288.8Z" style="fill: #d1d4ff"/>
    <g id="Passkey">
      <path d="M118,327.4l-93.6-.8c-5.8-.1-11.2-6.9-7.5-14.2,0,0,13.9-14.9,21.2-14.9l93.3.9c7.4.1,10.3,8.3,6.5,16.4h0C134.2,322.1,125.6,327,118,327.4Z"/>
      <path d="M117,324l-93.4-.4c-7.3,0-10.2-5.9-6.5-13.1h0c3.7-7.2,12.7-13.1,20-13l93.4.4c7.3,0,10.3,5.9,6.5,13.1h0C133.3,318.3,124.4,324.1,117,324Z" style="fill: #57f287"/>
      <path d="M42.4,304.9c-.3-.5-.9-.6-1.6-.2l-4.3,2.8,2.2-3.7a.9.9,0,0,0-.4-1.3,1.6,1.6,0,0,0-1.6.9L34,307.8l-1.1-2.9c-.2-.4-.9-.5-1.5-.1a1.2,1.2,0,0,0-.8,1.5l1.2,3H27.3a1.7,1.7,0,0,0-1.5,1.1c-.2.6.1,1.1.7,1.1h3.7l-4.5,2.9a1.3,1.3,0,0,0-.8,1.5.8.8,0,0,0,.7.4l.9-.2,4.3-2.8-2.2,3.6c-.3.6-.1,1.2.4,1.3h.2a1.8,1.8,0,0,0,1.4-.9l2.7-4.5,1.1,2.9c.2.3.4.5.7.5a1.1,1.1,0,0,0,.8-.3c.7-.4,1-1.1.8-1.5l-1.2-3H40a2,2,0,0,0,1.5-1.2c.2-.6-.1-1.1-.7-1.1H37.1l4.5-2.9C42.2,306,42.6,305.3,42.4,304.9Z" style="fill: #294741"/>
      <path d="M59.8,304.7c-.2-.4-.9-.5-1.5-.1l-4.4,2.8,2.2-3.7c.3-.6.2-1.2-.4-1.3a1.7,1.7,0,0,0-1.6.9l-2.7,4.4-1.1-2.9c-.2-.4-.9-.5-1.5-.2s-1,1.1-.8,1.6l1.2,3H44.8a2,2,0,0,0-1.6,1.1c-.2.6.1,1.1.7,1.1h3.7l-4.5,2.8c-.6.4-1,1.1-.7,1.6s.3.4.7.4l.8-.3,4.3-2.7-2.1,3.6c-.4.6-.2,1.2.3,1.3h.2a1.9,1.9,0,0,0,1.5-.9l2.6-4.5,1.2,2.9c.1.3.3.4.7.4a1,1,0,0,0,.7-.2,1.4,1.4,0,0,0,.8-1.6l-1.2-2.9h4.5a1.7,1.7,0,0,0,1.5-1.1c.2-.6,0-1.1-.7-1.1H54.6l4.4-2.9A1.4,1.4,0,0,0,59.8,304.7Z" style="fill: #294741"/>
      <path d="M77.2,304.6c-.2-.4-.9-.5-1.5-.1l-4.4,2.8,2.2-3.7c.3-.6.2-1.2-.4-1.3a1.7,1.7,0,0,0-1.6.9l-2.6,4.4-1.2-2.9c-.2-.5-.9-.5-1.5-.2s-1,1.1-.8,1.6l1.2,3H62.2a1.7,1.7,0,0,0-1.5,1.1c-.3.6,0,1.1.6,1.1H65l-4.5,2.8a1.4,1.4,0,0,0-.7,1.6.7.7,0,0,0,.7.4l.8-.3,4.3-2.7-2.1,3.6c-.4.6-.2,1.2.3,1.3h.3a1.7,1.7,0,0,0,1.4-.8l2.6-4.5,1.2,2.9a.7.7,0,0,0,.7.4,1.3,1.3,0,0,0,.8-.2,1.4,1.4,0,0,0,.7-1.6l-1.2-2.9h4.5a1.7,1.7,0,0,0,1.5-1.1.7.7,0,0,0-.7-1.1H72l4.5-2.8A1.4,1.4,0,0,0,77.2,304.6Z" style="fill: #294741"/>
      <path d="M94.6,304.5c-.2-.4-.9-.5-1.5-.1l-4.3,2.8,2.1-3.7c.4-.6.2-1.2-.4-1.3a1.8,1.8,0,0,0-1.6.9l-2.6,4.4-1.2-2.9c-.2-.5-.8-.5-1.5-.2a1.7,1.7,0,0,0-.8,1.6l1.3,3H79.6a1.7,1.7,0,0,0-1.5,1.1c-.3.6,0,1.1.7,1.1h3.6L77.9,314a1.4,1.4,0,0,0-.7,1.6.7.7,0,0,0,.7.4l.8-.3,4.4-2.7-2.2,3.6c-.4.6-.2,1.2.4,1.3h.2a1.7,1.7,0,0,0,1.4-.8l2.6-4.5,1.2,2.9a.7.7,0,0,0,.7.4l.8-.2c.6-.4,1-1.1.8-1.6l-1.2-2.9h4.4a1.7,1.7,0,0,0,1.5-1.1c.3-.6,0-1.1-.6-1.1H89.4l4.5-2.8A1.4,1.4,0,0,0,94.6,304.5Z" style="fill: #294741"/>
      <path d="M112,304.4c-.2-.4-.9-.5-1.5-.1l-4.3,2.7,2.1-3.6c.4-.6.2-1.2-.3-1.3a1.9,1.9,0,0,0-1.7.9l-2.6,4.4-1.2-2.9c-.2-.5-.8-.6-1.5-.2a1.4,1.4,0,0,0-.7,1.6l1.2,3H97a1.7,1.7,0,0,0-1.5,1.1c-.2.6.1,1.1.7,1.1h3.6l-4.4,2.8a1.4,1.4,0,0,0-.8,1.6.8.8,0,0,0,.7.4,1.1,1.1,0,0,0,.8-.3l4.4-2.7-2.2,3.6c-.3.6-.2,1.2.4,1.3h.2a1.6,1.6,0,0,0,1.4-.9l2.6-4.4,1.2,2.9a.7.7,0,0,0,.7.4l.8-.2c.6-.4,1-1.1.8-1.6l-1.2-3h4.4a2,2,0,0,0,1.6-1.1c.2-.6-.1-1.1-.7-1.1h-3.7l4.5-2.8A1.4,1.4,0,0,0,112,304.4Z" style="fill: #294741"/>
      <path d="M129.4,304.3c-.2-.5-.8-.5-1.5-.1l-4.3,2.7,2.1-3.6c.4-.6.2-1.2-.3-1.3a1.8,1.8,0,0,0-1.7.8l-2.6,4.5-1.2-2.9c-.1-.5-.8-.6-1.4-.2a1.4,1.4,0,0,0-.8,1.6l1.2,2.9h-4.5a1.7,1.7,0,0,0-1.5,1.1c-.2.6.1,1.1.7,1.1h3.6l-4.4,2.8a1.4,1.4,0,0,0-.8,1.6,1,1,0,0,0,.7.4,1.1,1.1,0,0,0,.8-.3l4.4-2.8-2.2,3.7c-.3.6-.2,1.2.4,1.3h.2a1.6,1.6,0,0,0,1.4-.9l2.7-4.4,1.1,2.9a.7.7,0,0,0,.7.4l.8-.2c.6-.4,1-1.1.8-1.6l-1.2-3H127a1.9,1.9,0,0,0,1.6-1.1c.2-.6-.1-1.1-.7-1.1h-3.7l4.5-2.8C129.3,305.5,129.7,304.8,129.4,304.3Z" style="fill: #294741"/>
    </g>
    <g id="Lock-2" data-name="Lock">
      <g id="Lock-3" data-name="Lock">
        <path d="M157.7,323.8H146.8c-1.5,0-2.1-1.2-1.3-2.7l5.1-9.5a5.1,5.1,0,0,1,4.1-2.7h10.9c1.5,0,2,1.2,1.2,2.7l-5,9.5A5.2,5.2,0,0,1,157.7,323.8Z" style="fill: #5865f2"/>
        <path d="M156,316.6c-3.4,0-4.7-2.8-2.9-6.2l3-5.6c1.8-3.4,6-6.2,9.5-6.2s4.7,2.8,2.9,6.2l-3,5.6C163.7,313.8,159.5,316.6,156,316.6Zm7.8-14.7a5.5,5.5,0,0,0-4.4,2.9l-3,5.6c-.8,1.6-.2,2.9,1.4,2.9a5.5,5.5,0,0,0,4.4-2.9l3-5.6C166,303.2,165.4,301.9,163.8,301.9Z" style="fill: #5865f2"/>
      </g>
      <path id="Hole" d="M159.4,314.7c.7-1.3.2-2.4-1.1-2.4a4.8,4.8,0,0,0-3.7,2.4c-.4.9-.4,1.7.1,2.1l-1,2c-.3.5-.1.9.3.9h.8a1.5,1.5,0,0,0,1.3-.9l1.1-2A4.5,4.5,0,0,0,159.4,314.7Z"/>
    </g>
  </g>
  <g id="Download_Box" data-name="Download Box">
    <path id="Box-3" data-name="Box" d="M393,357.8H317.6c-7.9,0-16.9,6.3-20.1,14.2l-20.6,50.1c-3.2,7.9.6,14.2,8.5,14.2h75.3c7.9,0,16.9-6.3,20.1-14.2L401.4,372C404.6,364.1,400.9,357.8,393,357.8Z" style="fill: #b5e6ff"/>
    <g id="Paper">
      <polygon points="328.3 423.6 289.8 423.6 312.9 367.4 340.5 367.4 346.9 378.1 328.3 423.6" style="fill: #fff"/>
      <polygon id="Corner" points="347 378.9 334.7 378.9 339.6 367.1 341.4 367.8 337.7 376.9 347 376.9 347 378.9" style="fill: #b5e6ff"/>
    </g>
    <g id="Arrow">
      <path d="M377.2,376.1h-8.6a3.6,3.6,0,0,0-2.9,2l-6.6,16.2h-5.4c-1.1,0-2.2,1.4-1.7,2.1l7.5,11c.3.5,1.1.5,1.7,0l15.5-11c1.1-.8,1.1-2.1,0-2.1h-5l6.7-16.2A1.3,1.3,0,0,0,377.2,376.1Z" style="fill: #808bff"/>
      <path d="M374.3,414.1H341.1a.8.8,0,0,1-.8-1.2h0a2.1,2.1,0,0,1,1.8-1.2h33.2c.6,0,.9.5.7,1.2h0A2.3,2.3,0,0,1,374.3,414.1Z" style="fill: #808bff"/>
    </g>
    <g id="X">
      <path d="M371.2,450.9H346.8c-3.6,0-5.3-2.9-3.8-6.5l6.7-16.2c1.4-3.6,5.5-6.5,9.1-6.5h24.4c3.6,0,5.3,2.9,3.8,6.5l-6.6,16.2C378.9,448,374.8,450.9,371.2,450.9Z" style="fill: #ff78b9"/>
      <polygon id="X-2" data-name="X" points="376.9 430.7 374.5 426.8 366.6 432.4 363.3 426.8 357.8 430.7 361.1 436.3 353.2 441.9 355.5 445.8 363.4 440.2 366.7 445.8 372.2 441.9 368.9 436.3 376.9 430.7" style="fill: #fff"/>
    </g>
    <g id="Hand">
      <path d="M417.2,451.1a6.7,6.7,0,0,0-9-3.9c-3.5,1.5-5.6,4.9-4.1,8.7-1.5-3.8-5.2-4.7-8.8-3.2s-5.6,5-4.1,8.8l-5-13.1a6.9,6.9,0,0,0-9.1-4.2,7.6,7.6,0,0,0-3.8,9.8l7.2,19c-.5-2-2.1-3.8-6.1-2.1s-2.4,8.6-2.4,8.6l.7,1.8c4.4,11.6,17.7,20,28.4,15.4l9.3-4c10.8-4.7,15.8-18,11.4-29.6v-.3l-4.4-11.5V451Z" style="fill: #e3e5ff"/>
      <g id="Interior_Lines" data-name="Interior Lines">
        <polygon points="378.2 470.6 383.3 484.8 385.1 484.1 380 469.9 378.2 470.6" style="fill: #808bff"/>
        <polygon points="391.3 458.5 389.5 459.1 392 466.7 393.8 466 391.3 458.5" style="fill: #808bff"/>
      </g>
    </g>
  </g>
  <g id="Envelope_Box" data-name="Envelope Box">
    <path id="Box-4" data-name="Box" d="M511.1,218.7H425.8c-7.5,0-16.3,6.1-19.6,13.6l-31.6,70.9c-3.3,7.5,0,13.5,7.5,13.5h9.6l-8,11.3a1.1,1.1,0,0,0,1.2,1.7l38.8-13h43.7c7.5,0,16.3-6,19.6-13.5l31.6-70.9C522,224.8,518.6,218.7,511.1,218.7Z" style="fill: #ff78b9"/>
    <g id="Envelope">
      <path d="M483.9,271.1l-67.5,33c-4.5,2.2-8.6,1.1-9.3-2.4l-4.8-27c-.6-3.5,2.5-8.2,7-10.4l67.5-32.9c4.5-2.2,8.7-1.2,9.3,2.3l4.8,27.1C491.5,264.3,488.4,268.9,483.9,271.1Z" style="fill: #c9edff"/>
      <path d="M462.3,260.4a183.3,183.3,0,0,0,12.2-14.1c4.2-5.4,8-10.7,10.7-14.5l-1.2-1c-2.7,3.8-6.6,9.3-11,14.9-10.2,13.1-18.3,20.9-23.3,22.5-9.1,2.9-38.6,2.2-46.5,1.9a13.4,13.4,0,0,0-.7,1.8c3.1.1,9.2.3,16.2.3,4.5,0,9.4-.1,14-.3l-13.4,30.8,2.3-1.1,12.9-29.8c6.3-.3,11.8-.9,15.1-1.9s6.7-3.6,11.1-7.9l19,11.2,2.4-1.2Z" style="fill: #66bcff"/>
    </g>
    <g id="X-3" data-name="X">
      <path d="M545,198.7H517.6c-3.6,0-7.7,2.9-9.3,6.4l-12.2,27.4c-1.6,3.6,0,6.4,3.5,6.4h27.5c3.5,0,7.6-2.8,9.2-6.4l12.3-27.4C550.1,201.6,548.6,198.7,545,198.7Z" style="fill: #8cd9ff"/>
      <polygon points="541.2 208.9 538.4 203.8 524.9 213.1 519.7 203.8 512.3 208.9 517.5 218.2 503.9 227.6 506.8 232.7 520.3 223.3 525.5 232.7 532.9 227.6 527.7 218.2 541.2 208.9" style="fill: #fff"/>
    </g>
  </g>
  <g id="Hand_Box" data-name="Hand Box">
    <path id="Box-5" data-name="Box" d="M402.3,54.8,385.2,67.4a17.1,17.1,0,0,0-5.8,7.1l-28,67c-2.4,5.7.3,10.3,6,10.3H481.9c5.7,0,12.3-4.6,14.7-10.3l33.2-79.6c2.4-5.7-.3-10.3-6-10.3H411.2A15.2,15.2,0,0,0,402.3,54.8Z" style="fill: #e3e5ff"/>
    <path id="Header" d="M379.3,74.8H524.5L530,61.4c2.3-5.4-.2-9.8-5.7-9.8H411a14.6,14.6,0,0,0-8.5,3.1L385,67.5a16.2,16.2,0,0,0-5.5,6.8Z" style="fill: #5865f2"/>
    <path id="Triangle" d="M409.9,87.2l-46.9,46a4.3,4.3,0,0,0,3,7.3h55.4a4.3,4.3,0,0,0,4.2-5.1l-8.4-45.9A4.4,4.4,0,0,0,409.9,87.2Z" style="fill: #5865f2"/>
    <g id="Hand-2" data-name="Hand">
      <path d="M413.1,105.5a5.2,5.2,0,0,0-4.5,2.9c.6-1.6-.3-2.9-2.2-2.9a5.3,5.3,0,0,0-4.5,2.9c.7-1.6-.3-2.9-2.1-2.9a5.3,5.3,0,0,0-4.6,2.9l-3.8,9.1c.4-1.1.5-2.7-1.6-2.7s-4.8,3.7-4.8,3.7l-2.4,5.9c-2.7,6.4-.2,11.6,5.5,11.6h5.1c5.8,0,12.6-5.2,15.3-11.6l2.2-5.3.3-.6,4.2-10.1C415.9,106.8,414.9,105.5,413.1,105.5Z" style="fill: #e3e5ff"/>
      <g id="Interior_Lines-2" data-name="Interior Lines">
        <polygon points="401.9 105.8 397.2 117.1 399.3 117.1 404.1 105.8 401.9 105.8" style="fill: #5865f2"/>
        <polygon points="408.6 105.8 403.9 117.1 406 117.1 410.7 105.8 408.6 105.8" style="fill: #5865f2"/>
        <polygon points="386.8 123.4 388.9 123.4 393.2 113.2 391.1 113.2 386.8 123.4" style="fill: #5865f2"/>
      </g>
    </g>
    <ellipse cx="485.3" cy="157.1" rx="36.7" ry="24.2" transform="translate(9.6 341.2) rotate(-39.1)" style="fill: #ffbe04"/>
    <g id="Exclamation_Mark" data-name="Exclamation Mark">
      <path d="M499.3,133.4c-2.7-.2-10.5,2.5-22.1,34.1-.8,2.2,1.9,2.8,3.7.8,26.5-29.2,22.7-33.8,20.4-34.5Z" style="fill: #fff"/>
      <ellipse cx="473.8" cy="176" rx="3.9" ry="2.6" transform="translate(-4.9 338.2) rotate(-39.1)" style="fill: #fff"/>
    </g>
    <g id="Lines">
      <polygon points="441.9 90.2 441 92.3 503.2 92.3 504.1 90.2 441.9 90.2" style="fill: #b0b4ff"/>
      <polygon points="436.7 102.5 498.9 102.5 499.8 100.3 437.7 100.3 436.7 102.5" style="fill: #b0b4ff"/>
      <polygon points="432.8 111.9 468.9 111.9 469.8 109.7 433.7 109.7 432.8 111.9" style="fill: #b0b4ff"/>
    </g>
  </g>
  <g id="Sparkles">
    <path d="M111.1,386.2c-5.5-1-14.9-6.2-15.2-27.4a1.5,1.5,0,0,0-1.4-1.5,1.5,1.5,0,0,0-1.4,1.5v.2c.3,24.1-10.9,25.9-15.7,26.7a1.7,1.7,0,0,0-1.4,1.6,1.7,1.7,0,0,0,1.6,1.7c5.2.7,16.2,2.9,16.5,25.1a1.5,1.5,0,0,0,1.5,1.6c1,.1,1.6-.7,1.6-1.7-.3-22.2,9.1-23.3,14.2-24.5a1.6,1.6,0,0,0,1.3-1.9A1.6,1.6,0,0,0,111.1,386.2Z" style="fill: #b0b4ff"/>
    <path d="M477.4,357.6c-3-.6-8.1-3.4-8.3-14.9a.7.7,0,0,0-.7-.8.7.7,0,0,0-.8.8h0c.2,13.1-5.9,14-8.6,14.5a.9.9,0,0,0-.7.9.9.9,0,0,0,.9.9c2.8.4,8.8,1.6,8.9,13.7a.9.9,0,0,0,.9.8.7.7,0,0,0,.8-.9c-.1-12.1,5-12.7,7.8-13.3a.9.9,0,0,0,.7-1.1C478.2,357.9,477.9,357.7,477.4,357.6Z" style="fill: #91ffad"/>
    <path d="M96,84.8c-4.7-.8-12.8-5.2-13-23.4a1.2,1.2,0,0,0-1.2-1.2,1.2,1.2,0,0,0-1.2,1.3h0c.2,20.6-9.3,22.1-13.4,22.8A1.4,1.4,0,0,0,66,85.7a1.4,1.4,0,0,0,1.3,1.5c4.5.6,13.9,2.5,14.1,21.4a1.3,1.3,0,0,0,1.3,1.4,1.4,1.4,0,0,0,1.4-1.5c-.2-18.9,7.8-19.9,12.1-20.9A1.4,1.4,0,0,0,97.4,86,1.7,1.7,0,0,0,96,84.8Z" style="fill: #ff78b9"/>
    <path d="M421.4,411.5c-2.5-.4-6.8-2.8-6.9-12.6a.8.8,0,0,0-.7-.7c-.4,0-.6.3-.6.7h0c.1,11.1-5.1,11.9-7.3,12.3a.7.7,0,0,0-.6.7.8.8,0,0,0,.7.8c2.4.3,7.5,1.3,7.6,11.5a.8.8,0,0,0,.7.8.7.7,0,0,0,.7-.8c-.1-10.2,4.2-10.7,6.6-11.3.4-.1.7-.5.6-.8A1,1,0,0,0,421.4,411.5Z" style="fill: #ffe75c"/>
    <path d="M472.3,34.3c-4.6-.8-12.7-5.2-12.9-23.3a1.3,1.3,0,0,0-1.3-1.3,1.2,1.2,0,0,0-1.2,1.3h0c.3,20.6-9.3,22.1-13.4,22.8a1.6,1.6,0,0,0-1.2,1.3,1.5,1.5,0,0,0,1.4,1.5c4.5.6,13.9,2.5,14.1,21.4a1.3,1.3,0,0,0,1.3,1.4,1.5,1.5,0,0,0,1.4-1.5c-.3-18.9,7.7-19.9,12.1-20.9a1.3,1.3,0,0,0,1.1-1.6A1.5,1.5,0,0,0,472.3,34.3Z" style="fill: #91ffad"/>
    <path d="M437.3,19.3c-3.7-.6-10-4.1-10.2-18.3a1,1,0,0,0-1-1,.9.9,0,0,0-.9,1h0c.2,16.2-7.3,17.3-10.5,17.9a1.3,1.3,0,0,0-1,1.1,1.3,1.3,0,0,0,1.1,1.2c3.5.4,10.9,1.9,11.1,16.7a1,1,0,0,0,1,1.1A1.1,1.1,0,0,0,428,38c-.2-14.9,6.1-15.7,9.5-16.4a1.2,1.2,0,0,0,.9-1.3A1.3,1.3,0,0,0,437.3,19.3Z" style="fill: #ffe75c"/>
  </g>
</svg>
