<svg id="Layer_1" data-name="Layer 1" xmlns="http://www.w3.org/2000/svg" xmlns:xlink="http://www.w3.org/1999/xlink" viewBox="0 0 300 329">
  <defs>
    <linearGradient id="linear-gradient" x1="-795.36" y1="182.21" x2="-847.52" y2="158.03" gradientTransform="matrix(-1, 0, 0, 1, -621.97, 0)" gradientUnits="userSpaceOnUse">
      <stop offset="0.09" stop-color="#698eff"/>
      <stop offset="1" stop-color="#4970de"/>
    </linearGradient>
  </defs>
  <title>Family-Center-Activity-Emailer</title>
  <path d="M159.4,226.6A62.2,62.2,0,0,1,102,188.2a62.2,62.2,0,0,1-3.5-35.9,62.1,62.1,0,0,1,48.8-48.9,62.2,62.2,0,1,1,12.1,123.2Zm0-123.3a60.9,60.9,0,0,0-33.9,10.3A60.3,60.3,0,0,0,103,141a61.1,61.1,0,1,0,99.6-19.8A61,61,0,0,0,159.4,103.3Z" style="fill: #a9c2f2"/>
  <path d="M159.4,262.9a98.5,98.5,0,1,1,81.8-153.2,98.5,98.5,0,0,1-81.8,153.2Zm0-195.8a97.4,97.4,0,0,0-89.9,60.1A97.2,97.2,0,0,0,196.6,254.3,97.3,97.3,0,0,0,159.4,67.1Z" style="fill: #8cd9ff"/>
  <path d="M159.4,305.1a140.8,140.8,0,1,1,99.4-41.3A140.9,140.9,0,0,1,159.4,305.1Zm0-280.2A139.5,139.5,0,1,0,258,65.8,139.3,139.3,0,0,0,159.4,24.9Z" style="fill: #8cd9ff"/>
  <path d="M241.2,281a2.9,2.9,0,0,0,0-5.7,2.9,2.9,0,1,0,0,5.7Z" style="fill: #ffc619"/>
  <path d="M20.7,185.3a2.9,2.9,0,1,0-2.9-2.9A2.9,2.9,0,0,0,20.7,185.3Z" style="fill: #ff78b9"/>
  <path d="M213.7,39.6a4.4,4.4,0,0,0,4.4-4.4,4.4,4.4,0,0,0-4.4-4.3,4.3,4.3,0,0,0-4.3,4.3A4.4,4.4,0,0,0,213.7,39.6Z" style="fill: #5865f2"/>
  <g>
    <circle cx="159.4" cy="164.4" r="62.2" style="fill: #ffe75c"/>
    <path d="M121.5,213.8a214.5,214.5,0,0,1,18.2-38.4l43.5-2.1,4.5,24.6s-5.5,14.8-9.9,26a65.5,65.5,0,0,1-18.4,2.7A62.5,62.5,0,0,1,121.5,213.8Z" style="fill: #698eff"/>
    <path d="M183.2,173.3s15-7.6,28.2-13.4c7-3.1,10-3.3,11.7-.6.7.9.5,2.4.3,3.7s.2,1.6,1.3,2,8.1,2.5,7.3,8.1c-.4,2.6-2.8,5-6.4,5.9-5.7,1.4-10,.8-12.4,2s-13.4,8.1-25.5,16.9l-48-22.5Z" style="fill: url(#linear-gradient)"/>
    <path d="M185.3,174.8l-41.6.4c6.8,7,19.5,10.9,29.5,8.9S185.3,174.8,185.3,174.8Z" style="fill: #3d58d9"/>
    <path d="M147.3,131a6.2,6.2,0,0,1-2.2-4.7c0-2.9,2.2-5.4,5.3-6.4a13.5,13.5,0,0,1,2.9-.5h.3c4.7,0,6.8,2.5,10.3,5.9a68.9,68.9,0,0,0,8,5.9Z" style="fill: #55f186"/>
    <path d="M160.6,132.5a1.1,1.1,0,0,0,1.1-.6,1.2,1.2,0,0,0-.4-1.7,21.9,21.9,0,0,1-10.5-15.4,1.3,1.3,0,0,0-1.5-1,1.2,1.2,0,0,0-1,1.4A25,25,0,0,0,160,132.4Z" style="fill: #008d3c"/>
    <path d="M156.2,131.2l18.8.3c6.1-1.5,9.5-5.9,9.1-11.4-.2-3.9-3.9-7.2-8.9-7.2s-8,3.8-10.4,7.1C159.7,127.2,156.2,131.2,156.2,131.2Z" style="fill: #26cb7a"/>
    <path d="M163.7,135.9a.8.8,0,0,0,.7-.2c6.4-3.9,11.1-9.3,12.7-14.6a1.2,1.2,0,0,0-.8-1.6,1.3,1.3,0,0,0-1.6.9c-.6,2.2-3.2,8-11.6,13.2a1.2,1.2,0,0,0-.4,1.7A1.1,1.1,0,0,0,163.7,135.9Z" style="fill: #008d3c"/>
    <path d="M202.7,142.9l-6.1-.2a.9.9,0,0,0-1,1v23.5a.9.9,0,0,0,.9,1l6.1-.2a7.6,7.6,0,0,0,7.1-6.9,62,62,0,0,0-.1-11.4A7.4,7.4,0,0,0,202.7,142.9Z" style="fill: #698eff"/>
    <path d="M201.5,146.9h-4.4a1.4,1.4,0,0,0-1.5,1.2v12.6a1.4,1.4,0,0,0,1.5,1.2c2.3,0,2.8-.1,4.4-.2s3.3-1.2,3.4-2.6a43.1,43.1,0,0,0,0-9.5A3.4,3.4,0,0,0,201.5,146.9Z" style="fill: #b7ccff"/>
    <path d="M124.3,153a63.3,63.3,0,0,1,1-12.2,14.6,14.6,0,0,1,11.9-11.9c5.1-1,17.5-1.4,26.2-1.4s21.1.4,26.2,1.4a14.6,14.6,0,0,1,12,11.9,63.9,63.9,0,0,1,.9,12.2h0a63.5,63.5,0,0,1-.9,12.1,14.6,14.6,0,0,1-12,11.9c-5.1,1-17.5,1.4-26.2,1.4s-21.1-.4-26.2-1.4a14.6,14.6,0,0,1-11.9-11.9,62.9,62.9,0,0,1-1-12.1Z" style="fill: #698eff"/>
    <path d="M166.1,162.3H178c5.9,0,9.7-3.2,10.6-7.4s.8-6.6.4-11-3-5-6.1-5.1H162.7a5.7,5.7,0,0,0-5.7,5.7v8C157,158.9,160.3,162.3,166.1,162.3Z" style="fill: #b7ccff"/>
    <path d="M179.7,152.2h2.6a2.3,2.3,0,0,1,2.4,2.2,2.3,2.3,0,0,1-2.4,2.2h-2.6a2.2,2.2,0,1,1,0-4.4Z" style="fill: #698eff"/>
    <path d="M167.7,152.2h2.5a2.2,2.2,0,1,1,0,4.4h-2.5a2.2,2.2,0,1,1,0-4.4Z" style="fill: #698eff"/>
    <circle cx="150.4" cy="146.4" r="3.4"/>
    <circle cx="195.6" cy="146.4" r="3.4"/>
    <path d="M152.6,171.2a8.7,8.7,0,0,0,6.2-.8c1.7-.9,2.7-2.3,2.5-3.5s-10.2-5.4-12.4-4.7-1.3,1.1-1.4,2.2A6.9,6.9,0,0,0,152.6,171.2Z" style="fill: #e9459d"/>
    <path d="M122.4,142.9l6.1-.2a1,1,0,0,1,1,1v23.5a.9.9,0,0,1-1,1l-6.1-.2a7.5,7.5,0,0,1-7-6.9,72.3,72.3,0,0,1,0-11.4A7.6,7.6,0,0,1,122.4,142.9Z" style="fill: #698eff"/>
    <path d="M123.6,146.9H128a1.4,1.4,0,0,1,1.5,1.2v12.6a1.3,1.3,0,0,1-1.4,1.2c-2.3,0-2.8-.1-4.5-.2a3.4,3.4,0,0,1-3.4-2.6,50.3,50.3,0,0,1,0-9.5C120.3,148.1,121.8,147,123.6,146.9Z" style="fill: #b7ccff"/>
    <path d="M104.4,193.5a64.3,64.3,0,0,0,12.5,16.3c9.3-5,18.1-10,18.1-10l6.7-23.4a39.6,39.6,0,0,0-21.4,6.7Z" style="fill: #698eff"/>
    <path d="M124.5,208h.6l11.5-6a1.3,1.3,0,0,0,.5-1.7,1.2,1.2,0,0,0-1.6-.5l-11.5,6a1.1,1.1,0,0,0-.6,1.6A1.2,1.2,0,0,0,124.5,208Z" style="fill: #3d58d9"/>
    <path d="M152.6,171.2a8.7,8.7,0,0,0,6.2-.8,18.5,18.5,0,0,0-6.1-4.4,19.2,19.2,0,0,0-5.2-1.6A6.9,6.9,0,0,0,152.6,171.2Z" style="fill: #ffadd6"/>
  </g>
  <path d="M128.4,82.9a14.8,14.8,0,0,1-6.7-10.3l-1.1-7.2a.7.7,0,0,0-.7-.7h0a.7.7,0,0,0-.7.7l-1.1,7.2a14.8,14.8,0,0,1-6.7,10.3l-.9.6c-.2.2-.4.4-.4.6h0a.8.8,0,0,0,.4.6l.9.6a14.8,14.8,0,0,1,6.7,10.4l1.1,7.2a.7.7,0,0,0,.7.6h0a.7.7,0,0,0,.7-.6l1.1-7.2a14.8,14.8,0,0,1,6.7-10.4l.9-.6a.7.7,0,0,0,.3-.6h0a.9.9,0,0,0-.3-.6Z" style="fill: #57f287"/>
  <path d="M122.8,251.3a13.7,13.7,0,0,1-6.1-9.4l-1-6.6a.6.6,0,0,0-.6-.5h0a.8.8,0,0,0-.7.5l-1,6.6a13.3,13.3,0,0,1-6,9.4l-.9.5a.6.6,0,0,0-.3.6h0a.9.9,0,0,0,.3.6l.9.5a13.1,13.1,0,0,1,6,9.4l1,6.6a.8.8,0,0,0,.7.5h0a.6.6,0,0,0,.6-.5l1-6.6a13.5,13.5,0,0,1,6.1-9.4l.8-.5a.9.9,0,0,0,.3-.6h0a.6.6,0,0,0-.3-.6Z" style="fill: #ff78b9"/>
  <path d="M218.3,110a7.1,7.1,0,0,1-3-4.8l-.5-3.3a.3.3,0,0,0-.3-.3h0c-.2,0-.4.1-.4.3l-.5,3.3a7.1,7.1,0,0,1-3,4.8l-.5.2a.4.4,0,0,0-.1.3h0c0,.1,0,.3.1.3l.5.3a7.1,7.1,0,0,1,3,4.7l.5,3.3c0,.2.2.3.4.3h0a.3.3,0,0,0,.3-.3l.5-3.3a7.1,7.1,0,0,1,3-4.7l.5-.3c.1,0,.1-.2.1-.3h0a.4.4,0,0,0-.1-.3Z" style="fill: #66bcff"/>
  <path d="M104.3,103.1a6.7,6.7,0,0,1-2.9-4.6l-.5-3.1a.3.3,0,0,0-.3-.3h0a.3.3,0,0,0-.3.3l-.5,3.1a6.7,6.7,0,0,1-2.9,4.6l-.4.2-.2.3h0c0,.1.1.2.2.3l.4.2a6.7,6.7,0,0,1,2.9,4.6l.5,3.1a.3.3,0,0,0,.3.3h0a.3.3,0,0,0,.3-.3l.5-3.1a6.7,6.7,0,0,1,2.9-4.6l.4-.2c.1-.1.2-.2.2-.3h0l-.2-.3Z" style="fill: #66bcff"/>
  <g>
    <circle cx="30.8" cy="108" r="30.8" transform="translate(-77.8 136.4) rotate(-88.8)" style="fill: #5865f2"/>
    <path d="M30.6,97.1V94a15.3,15.3,0,0,1,15.3,15.3h-3A12.3,12.3,0,0,0,30.6,97.1Zm9.2,12.2h-3a6.1,6.1,0,0,0-6.2-6.1v-3.1A9.2,9.2,0,0,1,39.8,109.3Zm-9.2-3v3h3.1a2.7,2.7,0,0,0-.9-2.1A3.1,3.1,0,0,0,30.6,106.3Zm4.6,7.6h6.2a1.4,1.4,0,0,1,1,.5,1.6,1.6,0,0,1,.5,1.1v6.1a1.6,1.6,0,0,1-.5,1.1,1.3,1.3,0,0,1-1,.4H33.7a16.9,16.9,0,0,1-16.9-16.8V98.6a1.6,1.6,0,0,1,.5-1.1,1.4,1.4,0,0,1,1.1-.4h6.1A1.4,1.4,0,0,1,26,98.6v6.1a1.5,1.5,0,0,1-.4,1.1,1.6,1.6,0,0,1-1.1.5H23A10.6,10.6,0,0,0,33.7,117v-1.5a1.5,1.5,0,0,1,.4-1.1A1.6,1.6,0,0,1,35.2,113.9Z" style="fill: #fff;fill-rule: evenodd"/>
  </g>
  <g>
    <circle cx="71.4" cy="208.1" r="23.9" style="fill: #66bcff"/>
    <path d="M59.4,198.5v1.8A13.8,13.8,0,0,0,65.8,212v5.6H83.3v-2.4c0-3.1-6.2-4.7-9.3-4.7h-.3a10.4,10.4,0,0,1-10.2-10.2v-1.8Zm14.6,0a4.5,4.5,0,0,0-3.3,1.4,4.8,4.8,0,0,0,0,6.8,4.5,4.5,0,0,0,3.3,1.4,4.8,4.8,0,0,0,0-9.6Z" style="fill: #fff"/>
  </g>
  <g>
    <circle cx="194.4" cy="305.1" r="23.9" style="fill: #5865f2"/>
    <path d="M187.7,311.1c.3,0,.6-.4.7-.7v-.5c0-5.3,3.5-9.6,9.1-9.6a10.1,10.1,0,0,1,5.6,1.8.5.5,0,0,0,.8-.5h0c0-5.3-4.7-9.6-10.5-9.6s-10.6,4.3-10.6,9.6a8.8,8.8,0,0,0,1.1,4.2,1.2,1.2,0,0,1-.2,1.5L182,309a1.2,1.2,0,0,0,.8,2.1Z" style="fill: #fff"/>
    <path d="M205.1,313.3a1.7,1.7,0,0,1-.1-1.2,5.7,5.7,0,0,0,.4-2.2,7.3,7.3,0,0,0-14.6,0,7.2,7.2,0,0,0,7.3,7.1h7.2a1.2,1.2,0,0,0,1.1-1.8Z" style="fill: #fff"/>
  </g>
  <g>
    <circle cx="151.4" cy="24.1" r="24.1" style="fill: #ff78b9"/>
    <rect x="139.3" y="12" width="10.8" height="10.83" rx="3" style="fill: #fff"/>
    <path d="M158,12h0a5.5,5.5,0,0,1,5.4,5.5h0a5.4,5.4,0,0,1-5.4,5.4h0a5.4,5.4,0,0,1-5.4-5.4h0A5.5,5.5,0,0,1,158,12Z" style="fill: #fff"/>
    <path d="M144.7,25.3h0a5.4,5.4,0,0,1,5.4,5.4h0a5.4,5.4,0,0,1-5.4,5.4h0a5.4,5.4,0,0,1-5.4-5.4h0A5.4,5.4,0,0,1,144.7,25.3Z" style="fill: #fff"/>
    <path d="M158,25.3h0a5.4,5.4,0,0,1,5.4,5.4h0a5.4,5.4,0,0,1-5.4,5.4h0a5.4,5.4,0,0,1-5.4-5.4h0A5.4,5.4,0,0,1,158,25.3Z" style="fill: #fff"/>
  </g>
  <g>
    <circle cx="256.3" cy="134" r="30.8" style="fill: #29cc7a"/>
    <path d="M244.4,146.1h-.1l1-5.9h-6.1l.5-2.7h6.1l1.7-9.2h-5.9c-.1,0-.1,0-.1-.1h-.1l.5-2.7H248l1.1-6h3l-1,5.9h9.2l1-6h3.1l-1.1,5.9h6c.1,0,.1,0,.1.1h0l-.4,2.7h-6.2l-.6,3.1h-3l.5-3.1h-9.2l-1.6,9.2h3.4v3h-3.9l-1.1,6h-2.9Z" style="fill: #fff"/>
    <path d="M256.7,133.7a1.4,1.4,0,0,0-1,.5,1.2,1.2,0,0,0-.5,1v9.7a1.5,1.5,0,0,0,1.5,1.4h1.7l.2.3V150l.2.2h.4l3.7-3.4a1.8,1.8,0,0,1,1-.4h6.8a1.2,1.2,0,0,0,1-.4,1.4,1.4,0,0,0,.5-1v-9.7a1.8,1.8,0,0,0-1.5-1.5Z" style="fill: #fff"/>
  </g>
</svg>
