<?xml version="1.0" encoding="UTF-8"?>
<svg xmlns="http://www.w3.org/2000/svg" xmlns:xlink="http://www.w3.org/1999/xlink" viewBox="0 0 1800 720">
  <defs>
    <linearGradient id="linear-gradient" x1="900" y1="-3.1" x2="900" y2="710.7" gradientUnits="userSpaceOnUse">
      <stop offset="0" stop-color="#5864f2"/>
      <stop offset=".2" stop-color="#4b57e8"/>
      <stop offset=".7" stop-color="#3a46dd"/>
      <stop offset="1" stop-color="#3541d9"/>
    </linearGradient>
  </defs>
  <g id="background">
    <rect width="1800" height="720" style="fill: url(#linear-gradient); isolation: isolate;"/>
  </g>
  <g id="Blog_1" data-name="Blog 1">
    <g>
      <g>
        <path d="m341.1,391.8l-29.7-77.1c-5.1-13.3-4.8-27.8,1-40.9,5.8-13,16.3-23,29.6-28.2,27.5-10.6,58.4,3.2,69,30.6l29.7,77.1-99.7,38.4Zm20.1-127.2c-3.7,0-7.4.7-11.1,2.1-7.7,3-13.8,8.8-17.1,16.3-3.3,7.5-3.6,15.9-.6,23.6l21.6,56.1,57.7-22.2-21.6-56.1c-4.7-12.3-16.5-19.8-28.9-19.8Z" style="fill: #ffe65c;"/>
        <path d="m447,446.4l-66.9,25.8c-15.9,6.1-33.7-1.8-39.9-17.7l-25.8-66.9c-6.1-15.9,9.9-58.2,25.8-64.3l58.9-1.3c15.9-6.1,33.7,1.8,39.9,17.7l38.7,44.4c6.1,15.9-14.7,56.3-30.6,62.4Z" style="fill: #ffc518;"/>
        <rect x="334.4" y="304.3" width="133.4" height="133.4" rx="30.8" ry="30.8" transform="translate(-106.5 168.9) rotate(-21.1)" style="fill: #ffe65c;"/>
        <path d="m414.6,371.9l10,18.3c1.4,2.6.2,5.8-2.5,6.8l-19,7.3c-2.7,1.1-5.8-.5-6.5-3.4l-4.9-20.3c-.5-2.1-2.1-3.7-4.2-4.2-5.3-1.5-9.7-5.1-11.6-10.1-3.6-9.4,2.5-20.6,13.8-24.9,11.2-4.3,23.3-.2,26.9,9.3,1.9,5.1,1.1,10.6-1.8,15.3-1.1,1.8-1.3,4.1-.2,5.9Z" style="fill: #242145;"/>
      </g>
      <g>
        <path d="m971.9,391.8l-99.7-38.4,29.7-77.1c10.6-27.5,41.5-41.2,69-30.6,13.3,5.1,23.8,15.1,29.6,28.2,5.8,13,6.2,27.5,1,40.9l-29.7,77.1Zm-70.6-51.3l57.7,22.2,21.6-56.1c3-7.7,2.8-16.1-.6-23.6-3.3-7.5-9.4-13.3-17.1-16.3-15.9-6.1-33.8,1.8-39.9,17.7l-21.6,56.1Z" style="fill: #ffe65c;"/>
        <path d="m866,446.4l66.9,25.8c15.9,6.1,33.7-1.8,39.9-17.7l25.8-66.9c6.1-15.9-9.9-58.2-25.8-64.3l-58.9-1.3c-15.9-6.1-33.7,1.8-39.9,17.7l-38.7,44.4c-6.1,15.9,14.7,56.3,30.6,62.4Z" style="fill: #ffc518;"/>
        <rect x="845.2" y="304.3" width="133.4" height="133.4" rx="30.8" ry="30.8" transform="translate(1629.6 1044.8) rotate(-158.9)" style="fill: #ffe65c;"/>
        <path d="m898.4,371.9l-10,18.3c-1.4,2.6-.2,5.8,2.5,6.8l19,7.3c2.7,1.1,5.8-.5,6.5-3.4l4.9-20.3c.5-2.1,2.1-3.7,4.2-4.2,5.3-1.5,9.7-5.1,11.6-10.1,3.6-9.4-2.5-20.6-13.8-24.9-11.2-4.3-23.3-.2-26.9,9.3-1.9,5.1-1.1,10.6,1.8,15.3,1.1,1.8,1.3,4.1.2,5.9Z" style="fill: #242145;"/>
      </g>
      <g>
        <path d="m1383.6,391.8l-29.7-77.1c-5.1-13.3-4.8-27.8,1-40.9,5.8-13,16.3-23,29.6-28.2,27.5-10.6,58.4,3.2,69,30.6l29.7,77.1-99.7,38.4Zm20.1-127.2c-3.7,0-7.4.7-11.1,2.1-7.7,3-13.8,8.8-17.1,16.3-3.3,7.5-3.6,15.9-.6,23.6l21.6,56.1,57.7-22.2-21.6-56.1c-4.7-12.3-16.5-19.8-28.9-19.8Z" style="fill: #ffe65c;"/>
        <path d="m1489.5,446.4l-66.9,25.8c-15.9,6.1-33.7-1.8-39.9-17.7l-25.8-66.9c-6.1-15.9,9.9-58.2,25.8-64.3l58.9-1.3c15.9-6.1,33.7,1.8,39.9,17.7l38.7,44.4c6.1,15.9-14.7,56.3-30.6,62.4Z" style="fill: #ffc518;"/>
        <rect x="1376.9" y="304.3" width="133.4" height="133.4" rx="30.8" ry="30.8" transform="translate(-36.9 543.4) rotate(-21.1)" style="fill: #ffe65c;"/>
        <path d="m1457.1,371.9l10,18.3c1.4,2.6.2,5.8-2.5,6.8l-19,7.3c-2.7,1.1-5.8-.5-6.5-3.4l-4.9-20.3c-.5-2.1-2.1-3.7-4.2-4.2-5.3-1.5-9.7-5.1-11.6-10.1-3.6-9.4,2.5-20.6,13.8-24.9,11.2-4.3,23.3-.2,26.9,9.3,1.9,5.1,1.1,10.6-1.8,15.3-1.1,1.8-1.3,4.1-.2,5.9Z" style="fill: #242145;"/>
      </g>
    </g>
    <g>
      <g>
        <g>
          <path d="m1716.6,710.8l-99.7-38.4,29.7-77.1c10.6-27.5,41.5-41.2,69-30.6,13.3,5.1,23.8,15.1,29.6,28.2,5.8,13,6.2,27.5,1,40.9l-29.7,77.1Zm-70.6-51.3l57.7,22.2,21.6-56.1c3-7.7,2.8-16.1-.6-23.6-3.3-7.5-9.4-13.3-17.1-16.3-15.9-6.1-33.8,1.8-39.9,17.7l-21.6,56.1Z" style="fill: #ffe65c;"/>
          <path d="m1743.3,706.5l-5.2,13.5h-77c-.7,2.8-3.7,4.3-6.4,3.3l-8.6-3.3h-65.7c-1.6-6.7-1.9-12.7-.3-17l.3-.4,38.3-44c4-10.3,12.8-17.2,22.9-19.2,5.5-1.1,11.3-.7,16.9,1.5l58.9,1.3s0,0,0,0c3.4,1.3,6.9,4.4,10.1,8.4,11.7,14.8,20.4,43.4,15.6,55.8Z" style="fill: #ffc518;"/>
          <path d="m1731.8,680.5l-15.2,39.5h-55.4c-.7,2.8-3.7,4.3-6.4,3.3l-8.6-3.3h-65.2c-1.8-5.5-2-11.5-.4-17.4.3-1,.6-2.1,1-3.1l25.8-66.9c6.1-15.9,24-23.8,39.9-17.7l3.6,1.4,63.4,24.4c1.2.5,2.4,1,3.5,1.6,0,0,0,0,0,0,4,2.2,7.4,5.1,10,8.6,6.2,8.2,8.1,19.3,4.1,29.6Z" style="fill: #ffe65c;"/>
          <path d="m1681.8,685.3s0,0,0,0c-2,5-6.3,8.5-11.6,10.1-2.1.6-3.7,2.2-4.2,4.2l-4.9,20.3s0,0,0,0c-.7,2.8-3.7,4.3-6.4,3.3l-8.6-3.3-10.4-4c-2.7-1.1-3.9-4.3-2.5-6.8l10-18.3c1-1.9.9-4.1-.2-5.9-2.9-4.7-3.8-10.2-1.9-15.3,0,0,0,0,0,0,3.6-9.5,15.7-13.6,27-9.3,11.2,4.3,17.4,15.5,13.8,24.9Z" style="fill: #242145;"/>
        </g>
        <g>
          <path d="m1085.9,710.8l-29.7-77.1c-5.1-13.3-4.8-27.8,1-40.9,5.8-13,16.3-23,29.6-28.2,27.5-10.6,58.4,3.2,69,30.6l29.7,77.1-99.7,38.4Zm20.1-127.2c-3.7,0-7.4.7-11.1,2.1-7.7,3-13.8,8.8-17.1,16.3-3.3,7.5-3.6,15.9-.6,23.6l21.6,56.1,57.7-22.2-21.6-56.1c-4.7-12.3-16.5-19.8-28.9-19.8Z" style="fill: #ffe65c;"/>
          <path d="m1222,720h-65.7l-8.6,3.3c-2.7,1-5.7-.5-6.4-3.3h-77l-5.2-13.5c-4.8-12.4,4-41.1,15.6-55.8,3.2-4.1,6.6-7.1,10.1-8.4,0,0,0,0,0,0l58.9-1.3c5.6-2.2,11.4-2.6,16.9-1.5,10.1,2,18.9,8.9,22.9,19.2l38.3,44,.3.4c1.6,4.3,1.3,10.3-.3,17Z" style="fill: #ffc518;"/>
          <path d="m1221.6,720h-65.2l-8.6,3.3c-2.7,1-5.7-.5-6.4-3.3h-55.4l-15.2-39.5c-4-10.3-2-21.4,4.1-29.6,2.6-3.5,6-6.4,10-8.6,0,0,0,0,0,0,1.1-.6,2.3-1.1,3.5-1.6l63.4-24.4,3.6-1.4c15.9-6.1,33.7,1.8,39.9,17.7l25.8,66.9c.4,1,.7,2.1,1,3.1,1.6,5.9,1.4,11.9-.4,17.4Z" style="fill: #ffe65c;"/>
          <path d="m1166.8,716l-10.4,4-8.6,3.3c-2.7,1-5.7-.5-6.4-3.3,0,0,0,0,0,0l-4.9-20.3c-.5-2.1-2.1-3.7-4.2-4.2-5.3-1.5-9.6-5-11.6-10.1,0,0,0,0,0,0-3.6-9.4,2.5-20.6,13.8-24.9,11.2-4.3,23.3-.2,27,9.3,0,0,0,0,0,0,1.9,5,1.1,10.6-1.9,15.3-1.1,1.8-1.3,4.1-.2,5.9l10,18.3c1.4,2.6.2,5.8-2.5,6.8Z" style="fill: #242145;"/>
        </g>
        <g>
          <path d="m674.1,710.8l-99.7-38.4,29.7-77.1c10.6-27.5,41.5-41.2,69-30.6,13.3,5.1,23.8,15.1,29.6,28.2,5.8,13,6.2,27.5,1,40.9l-29.7,77.1Zm-70.6-51.3l57.7,22.2,21.6-56.1c3-7.7,2.8-16.1-.6-23.6-3.3-7.5-9.4-13.3-17.1-16.3-15.9-6.1-33.8,1.8-39.9,17.7l-21.6,56.1Z" style="fill: #ffe65c;"/>
          <path d="m700.8,706.5l-5.2,13.5h-77c-.7,2.8-3.7,4.3-6.4,3.3l-8.6-3.3h-65.7c-1.6-6.7-1.9-12.7-.3-17l.3-.4,38.3-44c4-10.3,12.8-17.2,22.9-19.2,5.5-1.1,11.3-.7,16.9,1.5l58.9,1.3s0,0,0,0c3.4,1.3,6.9,4.4,10.1,8.4,11.7,14.8,20.4,43.4,15.6,55.8Z" style="fill: #ffc518;"/>
          <path d="m689.3,680.5l-15.2,39.5h-55.4c-.7,2.8-3.7,4.3-6.4,3.3l-8.6-3.3h-65.2c-1.8-5.5-2-11.5-.4-17.4.3-1,.6-2.1,1-3.1l25.8-66.9c6.1-15.9,24-23.8,39.9-17.7l3.5,1.4,63.4,24.4c1.2.5,2.4,1,3.5,1.6,0,0,0,0,0,0,4,2.2,7.4,5.1,10,8.6,6.2,8.2,8.1,19.3,4.1,29.6Z" style="fill: #ffe65c;"/>
          <path d="m639.3,685.3s0,0,0,0c-2,5-6.3,8.5-11.6,10.1-2.1.6-3.7,2.2-4.2,4.2l-4.9,20.3s0,0,0,0c-.7,2.8-3.7,4.3-6.4,3.3l-8.6-3.3-10.4-4c-2.7-1.1-3.9-4.3-2.5-6.8l10-18.3c1-1.9.9-4.1-.2-5.9-2.9-4.7-3.8-10.2-1.9-15.3,0,0,0,0,0,0,3.6-9.5,15.7-13.6,27-9.3,11.2,4.3,17.4,15.5,13.8,24.9Z" style="fill: #242145;"/>
        </g>
      </g>
      <g>
        <path d="m153.6,710.8l-99.7-38.4,29.7-77.1c10.6-27.5,41.5-41.2,69-30.6,13.3,5.1,23.8,15.1,29.6,28.2,5.8,13,6.2,27.5,1,40.9l-29.7,77.1Zm-70.6-51.3l57.7,22.2,21.6-56.1c3-7.7,2.8-16.1-.6-23.6-3.3-7.5-9.4-13.3-17.1-16.3-15.9-6.1-33.8,1.8-39.9,17.7l-21.6,56.1Z" style="fill: #ffe65c;"/>
        <path d="m180.3,706.5l-5.2,13.5h-77c-.7,2.8-3.7,4.3-6.4,3.3l-8.6-3.3H17.5c-1.6-6.7-1.9-12.7-.3-17l.3-.4,38.3-44c4-10.3,12.8-17.2,22.9-19.2,5.5-1.1,11.3-.7,16.9,1.5l58.9,1.3s0,0,0,0c3.4,1.3,6.9,4.4,10.1,8.4,11.7,14.8,20.4,43.4,15.6,55.8Z" style="fill: #ffc518;"/>
        <path d="m168.8,680.5l-15.2,39.5h-55.4c-.7,2.8-3.7,4.3-6.4,3.3l-8.6-3.3H17.9c-1.8-5.5-2-11.5-.4-17.4.3-1,.6-2.1,1-3.1l25.8-66.9c6.1-15.9,24-23.8,39.9-17.7l3.5,1.4,63.4,24.4c1.2.5,2.4,1,3.5,1.6,0,0,0,0,0,0,4,2.2,7.4,5.1,10,8.6,6.2,8.2,8.1,19.3,4.1,29.6Z" style="fill: #ffe65c;"/>
        <path d="m118.8,685.3s0,0,0,0c-2,5-6.3,8.5-11.6,10.1-2.1.6-3.7,2.2-4.2,4.2l-4.9,20.3s0,0,0,0c-.7,2.8-3.7,4.3-6.4,3.3l-8.6-3.3-10.4-4c-2.7-1.1-3.9-4.3-2.5-6.8l10-18.3c1-1.9.9-4.1-.2-5.9-2.9-4.7-3.8-10.2-1.9-15.3,0,0,0,0,0,0,3.6-9.5,15.7-13.6,27-9.3,11.2,4.3,17.4,15.5,13.8,24.9Z" style="fill: #242145;"/>
      </g>
    </g>
    <g>
      <g>
        <g>
          <path d="m1724.8,0l-6.1,15.8h0c0,0-15,39-15,39l-22.1-8.5-32.2-12.4-3.3-1.3,7.7-20,4.8-12.5h-24.1l-7.7,19.9-9.8,25.5,24.4,9.4,32.1,12.3,43.2,16.6,17.1-44.3,1.5-3.8,11.2-29c.8-2.2,1.6-4.4,2.1-6.7h-23.6Z" style="fill: #ffe65c;"/>
          <path d="m1610.8,138.4l66.9,25.8c15.9,6.1,33.7-1.8,39.9-17.7l25.8-66.9c6.1-15.9-9.9-58.2-25.8-64.3l-58.9-1.3c-15.9-6.1-33.7,1.8-39.9,17.7l-38.7,44.4c-6.1,15.9,14.7,56.3,30.6,62.4Z" style="fill: #ffc518;"/>
          <path d="m1731.8,53.5l-25.8,66.9c-6.1,15.9-24,23.8-39.9,17.7l-66.9-25.8c-14.9-5.7-22.8-21.7-18.7-36.8.3-1,.6-2.1,1-3.1l25.8-66.9c.8-2,1.7-3.8,2.8-5.6h68.6l35.4,13.6c1.2.5,2.4,1,3.5,1.6,0,0,0,0,0,0,.3.2.7.4,1,.6,8.6,5.1,14.1,14,15,23.6.4,4.6-.1,9.4-1.9,14Z" style="fill: #ffe65c;"/>
          <path d="m1643.2,63.9l-10,18.3c-1.4,2.6-.2,5.8,2.5,6.8l19,7.3c2.7,1.1,5.8-.5,6.5-3.4l4.9-20.3c.5-2.1,2.1-3.7,4.2-4.2,5.3-1.5,9.7-5.1,11.6-10.1,3.6-9.4-2.5-20.6-13.8-24.9-11.2-4.3-23.3-.2-26.9,9.3-1.9,5.1-1.1,10.6,1.8,15.3,1.1,1.8,1.3,4.1.2,5.9Z" style="fill: #242145;"/>
        </g>
        <g>
          <path d="m1175.7,19.9l-7.7-19.9h-24.1l4.8,12.5,7.7,20-3.3,1.3-32.2,12.4-22.1,8.5-15-38.9h0c0,0-6.1-15.8-6.1-15.8h-23.6c.5,2.3,1.2,4.5,2.1,6.7l11.2,29,1.5,3.8,17.1,44.3,43.2-16.6,32.1-12.3,24.4-9.4-9.8-25.5Z" style="fill: #ffe65c;"/>
          <path d="m1191.7,138.4l-66.9,25.8c-15.9,6.1-33.7-1.8-39.9-17.7l-25.8-66.9c-6.1-15.9,9.9-58.2,25.8-64.3l58.9-1.3c15.9-6.1,33.7,1.8,39.9,17.7l38.7,44.4c6.1,15.9-14.7,56.3-30.6,62.4Z" style="fill: #ffc518;"/>
          <path d="m1203.3,112.4l-66.9,25.8c-15.9,6.1-33.7-1.8-39.9-17.7l-25.8-66.9c-1.8-4.6-2.4-9.4-1.9-14,.9-9.7,6.4-18.5,15-23.6.3-.2.7-.4,1-.6,0,0,0,0,0,0,1.1-.6,2.3-1.2,3.5-1.6l35.4-13.6h68.6c1.1,1.7,2.1,3.6,2.8,5.6l25.8,66.9c.4,1,.7,2.1,1,3.1,4.1,15-3.8,31-18.7,36.8Z" style="fill: #ffe65c;"/>
          <path d="m1159.3,63.9l10,18.3c1.4,2.6.2,5.8-2.5,6.8l-19,7.3c-2.7,1.1-5.8-.5-6.5-3.4l-4.9-20.3c-.5-2.1-2.1-3.7-4.2-4.2-5.3-1.5-9.7-5.1-11.6-10.1-3.6-9.4,2.5-20.6,13.8-24.9,11.2-4.3,23.3-.2,26.9,9.3,1.9,5.1,1.1,10.6-1.8,15.3-1.1,1.8-1.3,4.1-.2,5.9Z" style="fill: #242145;"/>
        </g>
        <g>
          <path d="m682.3,0l-6.1,15.8h0c0,0-15,39-15,39l-22.1-8.5-32.2-12.4-3.3-1.3,7.7-20,4.8-12.5h-24.1l-7.7,19.9-9.8,25.5,24.4,9.4,32.1,12.3,43.2,16.6,17.1-44.3,1.5-3.8,11.2-29c.8-2.2,1.6-4.4,2.1-6.7h-23.6Z" style="fill: #ffe65c;"/>
          <path d="m568.3,138.4l66.9,25.8c15.9,6.1,33.7-1.8,39.9-17.7l25.8-66.9c6.1-15.9-9.9-58.2-25.8-64.3l-58.9-1.3c-15.9-6.1-33.7,1.8-39.9,17.7l-38.7,44.4c-6.1,15.9,14.7,56.3,30.6,62.4Z" style="fill: #ffc518;"/>
          <path d="m689.3,53.5l-25.8,66.9c-6.1,15.9-24,23.8-39.9,17.7l-66.9-25.8c-14.9-5.7-22.8-21.7-18.7-36.8.3-1,.6-2.1,1-3.1l25.8-66.9c.8-2,1.7-3.8,2.8-5.6h68.6l35.4,13.6c1.2.5,2.4,1,3.5,1.6,0,0,0,0,0,0,.3.2.7.4,1,.6,8.6,5.1,14.1,14,15,23.6.4,4.6-.1,9.4-1.9,14Z" style="fill: #ffe65c;"/>
          <path d="m600.7,63.9l-10,18.3c-1.4,2.6-.2,5.8,2.5,6.8l19,7.3c2.7,1.1,5.8-.5,6.5-3.4l4.9-20.3c.5-2.1,2.1-3.7,4.2-4.2,5.3-1.5,9.7-5.1,11.6-10.1,3.6-9.4-2.5-20.6-13.8-24.9-11.2-4.3-23.3-.2-26.9,9.3-1.9,5.1-1.1,10.6,1.8,15.3,1.1,1.8,1.3,4.1.2,5.9Z" style="fill: #242145;"/>
        </g>
      </g>
      <g>
        <path d="m161.8,0l-6.1,15.8h0c0,0-15,39-15,39l-22.1-8.5-32.2-12.4-3.3-1.3,7.7-20,4.8-12.5h-24.1l-7.7,19.9-9.8,25.5,24.4,9.4,32.1,12.3,43.2,16.6,17.1-44.3,1.5-3.8,11.2-29c.8-2.2,1.5-4.4,2.1-6.7h-23.6Z" style="fill: #ffe65c;"/>
        <path d="m47.8,138.4l66.9,25.8c15.9,6.1,33.7-1.8,39.9-17.7l25.8-66.9c6.1-15.9-9.9-58.2-25.8-64.3l-58.9-1.3c-15.9-6.1-33.7,1.8-39.9,17.7l-38.7,44.4c-6.1,15.9,14.7,56.3,30.6,62.4Z" style="fill: #ffc518;"/>
        <path d="m168.8,53.5l-25.8,66.9c-6.1,15.9-24,23.8-39.9,17.7l-66.9-25.8c-14.9-5.7-22.8-21.7-18.7-36.8.3-1,.6-2.1,1-3.1L44.3,5.6c.8-2,1.7-3.8,2.8-5.6h68.6l35.4,13.6c1.2.5,2.4,1,3.5,1.6,0,0,0,0,0,0,.3.2.7.4,1,.6,8.6,5.1,14.1,14,15,23.6.5,4.6-.1,9.4-1.9,14Z" style="fill: #ffe65c;"/>
        <path d="m80.2,63.9l-10,18.3c-1.4,2.6-.2,5.8,2.5,6.8l19,7.3c2.7,1.1,5.8-.5,6.5-3.4l4.9-20.3c.5-2.1,2.1-3.7,4.2-4.2,5.3-1.5,9.7-5.1,11.6-10.1,3.6-9.4-2.5-20.6-13.8-24.9-11.2-4.3-23.3-.2-26.9,9.3-1.9,5.1-1.1,10.6,1.8,15.3,1.1,1.8,1.3,4.1.2,5.9Z" style="fill: #242145;"/>
      </g>
    </g>
    <g>
      <path d="m1058.3,226c-8-5.2-13.4-13.5-14.8-22.9l-2.4-16c-.1-.8-.8-1.4-1.6-1.4h0c-.8,0-1.5.6-1.6,1.4l-2.4,16c-1.4,9.4-6.8,17.8-14.8,22.9l-2.1,1.3c-.5.3-.7.8-.7,1.4h0c0,.6.3,1.2.7,1.5l2.1,1.3c8,5.2,13.4,13.5,14.8,22.9l2.4,16c.1.8.8,1.4,1.6,1.4h0c.8,0,1.5-.6,1.6-1.4l2.4-16c1.4-9.4,6.8-17.8,14.8-22.9l2.1-1.3c.5-.3.7-.8.7-1.4h0c0-.6-.3-1.2-.7-1.5l-2.1-1.3Z" style="fill: #59f186;"/>
      <path d="m575.2,531.7c-8.8-5.7-14.7-14.8-16.3-25.2l-2.6-17.6c-.1-.9-.9-1.5-1.8-1.5h0c-.9,0-1.6.6-1.8,1.5l-2.6,17.6c-1.5,10.3-7.5,19.5-16.3,25.2l-2.3,1.5c-.5.3-.8.9-.8,1.5h0c0,.7.3,1.3.8,1.6l2.3,1.5c8.8,5.7,14.7,14.8,16.3,25.2l2.6,17.6c.1.9.9,1.5,1.8,1.5h0c.9,0,1.6-.6,1.8-1.5l2.6-17.6c1.5-10.3,7.5-19.5,16.3-25.2l2.3-1.5c.5-.3.8-.9.8-1.5h0c0-.7-.3-1.3-.8-1.6l-2.3-1.5Z" style="fill: #ff78b8;"/>
      <path d="m442.3,192.3c-7.1-4.6-11.9-12-13.2-20.4l-2.1-14.3c-.1-.7-.7-1.2-1.4-1.2h0c-.7,0-1.3.5-1.4,1.2l-2.1,14.3c-1.3,8.4-6.1,15.8-13.2,20.4l-1.9,1.2c-.4.3-.7.7-.7,1.2h0c0,.6.2,1,.7,1.3l1.9,1.2c7.1,4.6,11.9,12,13.2,20.4l2.1,14.3c.1.7.7,1.2,1.4,1.2h0c.7,0,1.3-.5,1.4-1.2l2.1-14.3c1.3-8.4,6.1-15.8,13.2-20.4l1.9-1.2c.4-.3.7-.7.7-1.2h0c0-.6-.2-1-.7-1.3l-1.9-1.2Z" style="fill: #8bd8ff;"/>
      <path d="m1260.3,453.3c-7.1-4.6-11.9-12-13.2-20.4l-2.1-14.3c-.1-.7-.7-1.2-1.4-1.2h0c-.7,0-1.3.5-1.4,1.2l-2.1,14.3c-1.3,8.4-6.1,15.8-13.2,20.4l-1.9,1.2c-.4.3-.7.7-.7,1.2h0c0,.6.2,1,.7,1.3l1.9,1.2c7.1,4.6,11.9,12,13.2,20.4l2.1,14.3c.1.7.7,1.2,1.4,1.2h0c.7,0,1.3-.5,1.4-1.2l2.1-14.3c1.3-8.4,6.1-15.8,13.2-20.4l1.9-1.2c.4-.3.7-.7.7-1.2h0c0-.6-.2-1-.7-1.3l-1.9-1.2Z" style="fill: #59f186;"/>
      <path d="m220.6,464.8c-8.5-5.5-14.3-14.4-15.8-24.5l-2.6-17.1c-.1-.8-.9-1.5-1.7-1.5h0c-.9,0-1.6.6-1.7,1.5l-2.6,17.1c-1.5,10.1-7.3,19-15.8,24.5l-2.2,1.4c-.5.3-.8.9-.8,1.4h0c0,.7.3,1.2.8,1.6l2.2,1.4c8.5,5.5,14.3,14.4,15.8,24.5l2.6,17.1c.1.8.9,1.5,1.7,1.5h0c.9,0,1.6-.6,1.7-1.5l2.6-17.1c1.5-10.1,7.3-19,15.8-24.5l2.2-1.4c.5-.3.8-.9.8-1.4h0c0-.7-.3-1.2-.8-1.6l-2.2-1.4Z" style="fill: #59f186;"/>
      <path d="m1264.6,134.6c-6-3.9-10-10.1-11.1-17.1l-1.8-12c0-.6-.6-1-1.2-1h0c-.6,0-1.1.4-1.2,1l-1.8,12c-1.1,7-5.1,13.3-11.1,17.1l-1.6,1c-.3.2-.6.6-.6,1h0c0,.5.2.9.6,1.1l1.6,1c6,3.9,10,10.1,11.1,17.1l1.8,12c0,.6.6,1,1.2,1h0c.6,0,1.1-.4,1.2-1l1.8-12c1.1-7,5.1-13.3,11.1-17.1l1.6-1c.3-.2.6-.6.6-1h0c0-.5-.2-.9-.6-1.1l-1.6-1Z" style="fill: #ff78b8;"/>
      <path d="m521.9,586.9c-5.3-3.4-8.8-8.9-9.8-15.1l-1.6-10.6c0-.5-.5-.9-1.1-.9h0c-.5,0-1,.4-1.1.9l-1.6,10.6c-.9,6.2-4.5,11.7-9.8,15.1l-1.4.9c-.3.2-.5.5-.5.9h0c0,.4.2.8.5,1l1.4.9c5.3,3.4,8.8,8.9,9.8,15.1l1.6,10.6c0,.5.5.9,1.1.9h0c.5,0,1-.4,1.1-.9l1.6-10.6c.9-6.2,4.5-11.7,9.8-15.1l1.4-.9c.3-.2.5-.5.5-.9h0c0-.4-.2-.8-.5-1l-1.4-.9Z" style="fill: #59f186;"/>
      <path d="m477,530.6c-3.2-2-5.3-5.3-5.9-9.1l-.9-6.3c0-.3-.3-.5-.6-.5h0c-.3,0-.6.2-.6.5l-.9,6.3c-.6,3.7-2.7,7-5.9,9.1l-.8.5c-.2.1-.3.3-.3.5h0c0,.3.1.5.3.6l.8.5c3.2,2,5.3,5.3,5.9,9.1l.9,6.3c0,.3.3.5.6.5h0c.3,0,.6-.2.6-.5l.9-6.3c.6-3.7,2.7-7,5.9-9.1l.8-.5c.2-.1.3-.3.3-.5h0c0-.3-.1-.5-.3-.6l-.8-.5Z" style="fill: #8bd8ff;"/>
      <path d="m1546.1,247.7c8.8-5.7,14.7-14.8,16.3-25.2l2.6-17.6c.1-.9.9-1.5,1.8-1.5h0c.9,0,1.6.6,1.8,1.5l2.6,17.6c1.5,10.3,7.5,19.5,16.3,25.2l2.3,1.5c.5.3.8.9.8,1.5h0c0,.7-.3,1.3-.8,1.6l-2.3,1.5c-8.8,5.7-14.7,14.8-16.3,25.2l-2.6,17.6c-.1.9-.9,1.5-1.8,1.5h0c-.9,0-1.6-.6-1.8-1.5l-2.6-17.6c-1.5-10.3-7.5-19.5-16.3-25.2l-2.3-1.5c-.5-.3-.8-.9-.8-1.5h0c0-.7.3-1.3.8-1.6l2.3-1.5Z" style="fill: #ff78b8;"/>
      <path d="m1599.3,302.9c5.3-3.4,8.8-8.9,9.8-15.1l1.6-10.6c0-.5.5-.9,1.1-.9h0c.5,0,1,.4,1.1.9l1.6,10.6c.9,6.2,4.5,11.7,9.8,15.1l1.4.9c.3.2.5.5.5.9h0c0,.4-.2.8-.5,1l-1.4.9c-5.3,3.4-8.8,8.9-9.8,15.1l-1.6,10.6c0,.5-.5.9-1.1.9h0c-.5,0-1-.4-1.1-.9l-1.6-10.6c-.9-6.2-4.5-11.7-9.8-15.1l-1.4-.9c-.3-.2-.5-.5-.5-.9h0c0-.4.2-.8.5-1l1.4-.9Z" style="fill: #59f186;"/>
      <path d="m81.3,241.9c5.3-3.4,8.8-8.9,9.8-15.1l1.6-10.6c0-.5.5-.9,1.1-.9h0c.5,0,1,.4,1.1.9l1.6,10.6c.9,6.2,4.5,11.7,9.8,15.1l1.4.9c.3.2.5.5.5.9h0c0,.4-.2.8-.5,1l-1.4.9c-5.3,3.4-8.8,8.9-9.8,15.1l-1.6,10.6c0,.5-.5.9-1.1.9h0c-.5,0-1-.4-1.1-.9l-1.6-10.6c-.9-6.2-4.5-11.7-9.8-15.1l-1.4-.9c-.3-.2-.5-.5-.5-.9h0c0-.4.2-.8.5-1l1.4-.9Z" style="fill: #59f186;"/>
      <path d="m1644.3,246.6c3.2-2,5.3-5.3,5.9-9.1l.9-6.3c0-.3.3-.5.6-.5h0c.3,0,.6.2.6.5l.9,6.3c.6,3.7,2.7,7,5.9,9.1l.8.5c.2.1.3.3.3.5h0c0,.3-.1.5-.3.6l-.8.5c-3.2,2-5.3,5.3-5.9,9.1l-.9,6.3c0,.3-.3.5-.6.5h0c-.3,0-.6-.2-.6-.5l-.9-6.3c-.6-3.7-2.7-7-5.9-9.1l-.8-.5c-.2-.1-.3-.3-.3-.5h0c0-.3.1-.5.3-.6l.8-.5Z" style="fill: #8bd8ff;"/>
      <path d="m1094.9,264.3c-4-2.6-6.7-6.7-7.4-11.5l-1.2-8c0-.4-.4-.7-.8-.7h0c-.4,0-.7.3-.8.7l-1.2,8c-.7,4.7-3.4,8.9-7.4,11.5l-1,.7c-.2.1-.4.4-.4.7h0c0,.3.1.6.4.7l1,.7c4,2.6,6.7,6.7,7.4,11.5l1.2,8c0,.4.4.7.8.7h0c.4,0,.7-.3.8-.7l1.2-8c.7-4.7,3.4-8.9,7.4-11.5l1-.7c.2-.1.4-.4.4-.7h0c0-.3-.1-.6-.4-.7l-1-.7Z" style="fill: #8bd8ff;"/>
      <path d="m1537,602c8-5.2,13.4-13.5,14.8-22.9l2.4-16c.1-.8.8-1.4,1.6-1.4h0c.8,0,1.5.6,1.6,1.4l2.4,16c1.4,9.4,6.8,17.8,14.8,22.9l2.1,1.3c.5.3.7.8.7,1.4h0c0,.6-.3,1.2-.7,1.5l-2.1,1.3c-8,5.2-13.4,13.5-14.8,22.9l-2.4,16c-.1.8-.8,1.4-1.6,1.4h0c-.8,0-1.5-.6-1.6-1.4l-2.4-16c-1.4-9.4-6.8-17.8-14.8-22.9l-2.1-1.3c-.5-.3-.7-.8-.7-1.4h0c0-.6.3-1.2.7-1.5l2.1-1.3Z" style="fill: #8bd8ff;"/>
      <path d="m1500.3,640.3c4-2.6,6.7-6.7,7.4-11.5l1.2-8c0-.4.4-.7.8-.7h0c.4,0,.7.3.8.7l1.2,8c.7,4.7,3.4,8.9,7.4,11.5l1,.7c.2.1.4.4.4.7h0c0,.3-.1.6-.4.7l-1,.7c-4,2.6-6.7,6.7-7.4,11.5l-1.2,8c0,.4-.4.7-.8.7h0c-.4,0-.7-.3-.8-.7l-1.2-8c-.7-4.7-3.4-8.9-7.4-11.5l-1-.7c-.2-.1-.4-.4-.4-.7h0c0-.3.1-.6.4-.7l1-.7Z" style="fill: #59f186;"/>
    </g>
    <g>
      <g>
        <rect x="527.7" y="335.9" width="230.9" height="57.5" rx="28.7" ry="28.7" transform="translate(1162.5 890.7) rotate(-164.2)" style="fill: #242145;"/>
        <g>
          <rect x="530.6" y="329.6" width="230.9" height="57.5" rx="28.7" ry="28.7" transform="translate(1170.1 879.1) rotate(-164.2)" style="fill: #fff;"/>
          <g>
            <path d="m719.2,375.8l3.6,1-1.8-3.3c-.8-1.5-.3-3.4,1.2-4.3,1.5-.8,3.4-.3,4.3,1.2l1.8,3.3,1-3.6c.5-1.7,2.2-2.6,3.9-2.2s2.6,2.2,2.2,3.9l-1,3.6,3.3-1.8c1.5-.8,3.4-.3,4.3,1.2.8,1.5.3,3.4-1.2,4.3l-3.3,1.8,3.6,1c1.7.5,2.6,2.2,2.2,3.9-.5,1.7-2.2,2.6-3.9,2.2l-3.6-1,1.8,3.3c.8,1.5.3,3.4-1.2,4.3-.8.4-1.6.5-2.4.3s-1.5-.7-1.9-1.5l-1.8-3.3-1,3.6c-.5,1.7-2.2,2.6-3.9,2.2-1.7-.5-2.6-2.2-2.2-3.9l1-3.6-3.3,1.8c-.8.4-1.6.5-2.4.3s-1.5-.7-1.9-1.5c-.8-1.5-.3-3.4,1.2-4.3l3.3-1.8-3.6-1c-1.7-.5-2.6-2.2-2.2-3.9.5-1.7,2.2-2.6,3.9-2.2Z" style="fill: #242145;"/>
            <path d="m685.9,366.3l3.6,1-1.8-3.3c-.8-1.5-.3-3.4,1.2-4.3,1.5-.8,3.4-.3,4.3,1.2l1.8,3.3,1-3.6c.5-1.7,2.2-2.6,3.9-2.2s2.6,2.2,2.2,3.9l-1,3.6,3.3-1.8c1.5-.8,3.4-.3,4.3,1.2.8,1.5.3,3.4-1.2,4.3l-3.3,1.8,3.6,1c1.7.5,2.6,2.2,2.2,3.9s-2.2,2.6-3.9,2.2l-3.6-1,1.8,3.3c.8,1.5.3,3.4-1.2,4.3-.8.4-1.6.5-2.4.3s-1.5-.7-1.9-1.5l-1.8-3.3-1,3.6c-.5,1.7-2.2,2.6-3.9,2.2-1.7-.5-2.6-2.2-2.2-3.9l1-3.6-3.3,1.8c-.8.4-1.6.5-2.4.3s-1.5-.7-1.9-1.5c-.8-1.5-.3-3.4,1.2-4.3l3.3-1.8-3.6-1c-1.7-.5-2.6-2.2-2.2-3.9.5-1.7,2.2-2.6,3.9-2.2Z" style="fill: #242145;"/>
            <path d="m652.7,356.9l3.6,1-1.8-3.3c-.8-1.5-.3-3.4,1.2-4.3,1.5-.8,3.4-.3,4.3,1.2l1.8,3.3,1-3.6c.5-1.7,2.2-2.6,3.9-2.2,1.7.5,2.6,2.2,2.2,3.9l-1,3.6,3.3-1.8c1.5-.8,3.4-.3,4.3,1.2.8,1.5.3,3.4-1.2,4.3l-3.3,1.8,3.6,1c1.7.5,2.6,2.2,2.2,3.9s-2.2,2.6-3.9,2.2l-3.6-1,1.8,3.3c.8,1.5.3,3.4-1.2,4.3-.8.4-1.6.5-2.4.3s-1.5-.7-1.9-1.5l-1.8-3.3-1,3.6c-.5,1.7-2.2,2.6-3.9,2.2s-2.6-2.2-2.2-3.9l1-3.6-3.3,1.8c-.8.4-1.6.5-2.4.3s-1.5-.7-1.9-1.5c-.8-1.5-.3-3.4,1.2-4.3l3.3-1.8-3.6-1c-1.7-.5-2.6-2.2-2.2-3.9.5-1.7,2.2-2.6,3.9-2.2Z" style="fill: #242145;"/>
            <path d="m619.4,347.5l3.6,1-1.8-3.3c-.8-1.5-.3-3.4,1.2-4.3,1.5-.8,3.4-.3,4.3,1.2l1.8,3.3,1-3.6c.5-1.7,2.2-2.6,3.9-2.2s2.6,2.2,2.2,3.9l-1,3.6,3.3-1.8c1.5-.8,3.4-.3,4.3,1.2.8,1.5.3,3.4-1.2,4.3l-3.3,1.8,3.6,1c1.7.5,2.6,2.2,2.2,3.9-.5,1.7-2.2,2.6-3.9,2.2l-3.6-1,1.8,3.3c.8,1.5.3,3.4-1.2,4.3-.8.4-1.6.5-2.4.3-.8-.2-1.5-.7-1.9-1.5l-1.8-3.3-1,3.6c-.5,1.7-2.2,2.6-3.9,2.2-1.7-.5-2.6-2.2-2.2-3.9l1-3.6-3.3,1.8c-.8.4-1.6.5-2.4.3-.8-.2-1.5-.7-1.9-1.5-.8-1.5-.3-3.4,1.2-4.3l3.3-1.8-3.6-1c-1.7-.5-2.6-2.2-2.2-3.9.5-1.7,2.2-2.6,3.9-2.2Z" style="fill: #242145;"/>
            <path d="m586.1,338.1l3.6,1-1.8-3.3c-.8-1.5-.3-3.4,1.2-4.3,1.5-.8,3.4-.3,4.3,1.2l1.8,3.3,1-3.6c.5-1.7,2.2-2.6,3.9-2.2,1.7.5,2.6,2.2,2.2,3.9l-1,3.6,3.3-1.8c1.5-.8,3.4-.3,4.3,1.2.8,1.5.3,3.4-1.2,4.3l-3.3,1.8,3.6,1c1.7.5,2.6,2.2,2.2,3.9-.5,1.7-2.2,2.6-3.9,2.2l-3.6-1,1.8,3.3c.8,1.5.3,3.4-1.2,4.3-.8.4-1.6.5-2.4.3-.8-.2-1.5-.7-1.9-1.5l-1.8-3.3-1,3.6c-.5,1.7-2.2,2.6-3.9,2.2-1.7-.5-2.6-2.2-2.2-3.9l1-3.6-3.3,1.8c-.8.4-1.6.5-2.4.3-.8-.2-1.5-.7-1.9-1.5-.8-1.5-.3-3.4,1.2-4.3l3.3-1.8-3.6-1c-1.7-.5-2.6-2.2-2.2-3.9.5-1.7,2.2-2.6,3.9-2.2Z" style="fill: #242145;"/>
            <path d="m552.8,328.6l3.6,1-1.8-3.3c-.8-1.5-.3-3.4,1.2-4.3,1.5-.8,3.4-.3,4.3,1.2l1.8,3.3,1-3.6c.5-1.7,2.2-2.6,3.9-2.2,1.7.5,2.6,2.2,2.2,3.9l-1,3.6,3.3-1.8c1.5-.8,3.4-.3,4.3,1.2.8,1.5.3,3.4-1.2,4.3l-3.3,1.8,3.6,1c1.7.5,2.6,2.2,2.2,3.9-.5,1.7-2.2,2.6-3.9,2.2l-3.6-1,1.8,3.3c.8,1.5.3,3.4-1.2,4.3-.8.4-1.6.5-2.4.3s-1.5-.7-1.9-1.5l-1.8-3.3-1,3.6c-.5,1.7-2.2,2.6-3.9,2.2-1.7-.5-2.6-2.2-2.2-3.9l1-3.6-3.3,1.8c-.8.4-1.6.5-2.4.3s-1.5-.7-1.9-1.5c-.8-1.5-.3-3.4,1.2-4.3l3.3-1.8-3.6-1c-1.7-.5-2.6-2.2-2.2-3.9s2.2-2.6,3.9-2.2Z" style="fill: #242145;"/>
          </g>
        </g>
      </g>
      <g>
        <rect x="1051.5" y="335.9" width="230.9" height="57.5" rx="28.7" ry="28.7" transform="translate(-55.2 331.8) rotate(-15.8)" style="fill: #242145;"/>
        <g>
          <rect x="1048.5" y="329.6" width="230.9" height="57.5" rx="28.7" ry="28.7" transform="translate(-53.6 330.7) rotate(-15.8)" style="fill: #fff;"/>
          <g>
            <path d="m1090.8,375.8l-3.6,1,1.8-3.3c.8-1.5.3-3.4-1.2-4.3-1.5-.8-3.4-.3-4.3,1.2l-1.8,3.3-1-3.6c-.5-1.7-2.2-2.6-3.9-2.2-1.7.5-2.6,2.2-2.2,3.9l1,3.6-3.3-1.8c-1.5-.8-3.4-.3-4.3,1.2-.8,1.5-.3,3.4,1.2,4.3l3.3,1.8-3.6,1c-1.7.5-2.6,2.2-2.2,3.9.5,1.7,2.2,2.6,3.9,2.2l3.6-1-1.8,3.3c-.8,1.5-.3,3.4,1.2,4.3.8.4,1.6.5,2.4.3s1.5-.7,1.9-1.5l1.8-3.3,1,3.6c.5,1.7,2.2,2.6,3.9,2.2s2.6-2.2,2.2-3.9l-1-3.6,3.3,1.8c.8.4,1.6.5,2.4.3.8-.2,1.5-.7,1.9-1.5.8-1.5.3-3.4-1.2-4.3l-3.3-1.8,3.6-1c1.7-.5,2.6-2.2,2.2-3.9-.5-1.7-2.2-2.6-3.9-2.2Z" style="fill: #242145;"/>
            <path d="m1124.1,366.3l-3.6,1,1.8-3.3c.8-1.5.3-3.4-1.2-4.3-1.5-.8-3.4-.3-4.3,1.2l-1.8,3.3-1-3.6c-.5-1.7-2.2-2.6-3.9-2.2s-2.6,2.2-2.2,3.9l1,3.6-3.3-1.8c-1.5-.8-3.4-.3-4.3,1.2-.8,1.5-.3,3.4,1.2,4.3l3.3,1.8-3.6,1c-1.7.5-2.6,2.2-2.2,3.9.5,1.7,2.2,2.6,3.9,2.2l3.6-1-1.8,3.3c-.8,1.5-.3,3.4,1.2,4.3.8.4,1.6.5,2.4.3s1.5-.7,1.9-1.5l1.8-3.3,1,3.6c.5,1.7,2.2,2.6,3.9,2.2s2.6-2.2,2.2-3.9l-1-3.6,3.3,1.8c.8.4,1.6.5,2.4.3.8-.2,1.5-.7,1.9-1.5.8-1.5.3-3.4-1.2-4.3l-3.3-1.8,3.6-1c1.7-.5,2.6-2.2,2.2-3.9-.5-1.7-2.2-2.6-3.9-2.2Z" style="fill: #242145;"/>
            <path d="m1157.3,356.9l-3.6,1,1.8-3.3c.8-1.5.3-3.4-1.2-4.3-1.5-.8-3.4-.3-4.3,1.2l-1.8,3.3-1-3.6c-.5-1.7-2.2-2.6-3.9-2.2-1.7.5-2.6,2.2-2.2,3.9l1,3.6-3.3-1.8c-1.5-.8-3.4-.3-4.3,1.2-.8,1.5-.3,3.4,1.2,4.3l3.3,1.8-3.6,1c-1.7.5-2.6,2.2-2.2,3.9.5,1.7,2.2,2.6,3.9,2.2l3.6-1-1.8,3.3c-.8,1.5-.3,3.4,1.2,4.3.8.4,1.6.5,2.4.3s1.5-.7,1.9-1.5l1.8-3.3,1,3.6c.5,1.7,2.2,2.6,3.9,2.2s2.6-2.2,2.2-3.9l-1-3.6,3.3,1.8c.8.4,1.6.5,2.4.3s1.5-.7,1.9-1.5c.8-1.5.3-3.4-1.2-4.3l-3.3-1.8,3.6-1c1.7-.5,2.6-2.2,2.2-3.9-.5-1.7-2.2-2.6-3.9-2.2Z" style="fill: #242145;"/>
            <path d="m1190.6,347.5l-3.6,1,1.8-3.3c.8-1.5.3-3.4-1.2-4.3-1.5-.8-3.4-.3-4.3,1.2l-1.8,3.3-1-3.6c-.5-1.7-2.2-2.6-3.9-2.2s-2.6,2.2-2.2,3.9l1,3.6-3.3-1.8c-1.5-.8-3.4-.3-4.3,1.2-.8,1.5-.3,3.4,1.2,4.3l3.3,1.8-3.6,1c-1.7.5-2.6,2.2-2.2,3.9.5,1.7,2.2,2.6,3.9,2.2l3.6-1-1.8,3.3c-.8,1.5-.3,3.4,1.2,4.3.8.4,1.6.5,2.4.3.8-.2,1.5-.7,1.9-1.5l1.8-3.3,1,3.6c.5,1.7,2.2,2.6,3.9,2.2,1.7-.5,2.6-2.2,2.2-3.9l-1-3.6,3.3,1.8c.8.4,1.6.5,2.4.3s1.5-.7,1.9-1.5c.8-1.5.3-3.4-1.2-4.3l-3.3-1.8,3.6-1c1.7-.5,2.6-2.2,2.2-3.9-.5-1.7-2.2-2.6-3.9-2.2Z" style="fill: #242145;"/>
            <path d="m1223.9,338.1l-3.6,1,1.8-3.3c.8-1.5.3-3.4-1.2-4.3-1.5-.8-3.4-.3-4.3,1.2l-1.8,3.3-1-3.6c-.5-1.7-2.2-2.6-3.9-2.2s-2.6,2.2-2.2,3.9l1,3.6-3.3-1.8c-1.5-.8-3.4-.3-4.3,1.2-.8,1.5-.3,3.4,1.2,4.3l3.3,1.8-3.6,1c-1.7.5-2.6,2.2-2.2,3.9.5,1.7,2.2,2.6,3.9,2.2l3.6-1-1.8,3.3c-.8,1.5-.3,3.4,1.2,4.3.8.4,1.6.5,2.4.3.8-.2,1.5-.7,1.9-1.5l1.8-3.3,1,3.6c.5,1.7,2.2,2.6,3.9,2.2,1.7-.5,2.6-2.2,2.2-3.9l-1-3.6,3.3,1.8c.8.4,1.6.5,2.4.3s1.5-.7,1.9-1.5c.8-1.5.3-3.4-1.2-4.3l-3.3-1.8,3.6-1c1.7-.5,2.6-2.2,2.2-3.9s-2.2-2.6-3.9-2.2Z" style="fill: #242145;"/>
            <path d="m1257.2,328.6l-3.6,1,1.8-3.3c.8-1.5.3-3.4-1.2-4.3-1.5-.8-3.4-.3-4.3,1.2l-1.8,3.3-1-3.6c-.5-1.7-2.2-2.6-3.9-2.2-1.7.5-2.6,2.2-2.2,3.9l1,3.6-3.3-1.8c-1.5-.8-3.4-.3-4.3,1.2-.8,1.5-.3,3.4,1.2,4.3l3.3,1.8-3.6,1c-1.7.5-2.6,2.2-2.2,3.9s2.2,2.6,3.9,2.2l3.6-1-1.8,3.3c-.8,1.5-.3,3.4,1.2,4.3.8.4,1.6.5,2.4.3s1.5-.7,1.9-1.5l1.8-3.3,1,3.6c.5,1.7,2.2,2.6,3.9,2.2s2.6-2.2,2.2-3.9l-1-3.6,3.3,1.8c.8.4,1.6.5,2.4.3s1.5-.7,1.9-1.5c.8-1.5.3-3.4-1.2-4.3l-3.3-1.8,3.6-1c1.7-.5,2.6-2.2,2.2-3.9-.5-1.7-2.2-2.6-3.9-2.2Z" style="fill: #242145;"/>
          </g>
        </g>
      </g>
      <g>
        <rect x="1569.3" y="335.9" width="230.9" height="57.5" rx="28.7" ry="28.7" transform="translate(3206.4 1174.5) rotate(-164.2)" style="fill: #242145;"/>
        <g>
          <rect x="1572.3" y="329.6" width="230.9" height="57.5" rx="28.7" ry="28.7" transform="translate(3214 1163) rotate(-164.2)" style="fill: #fff;"/>
          <g>
            <path d="m1760.9,375.8l3.6,1-1.8-3.3c-.8-1.5-.3-3.4,1.2-4.3,1.5-.8,3.4-.3,4.3,1.2l1.8,3.3,1-3.6c.5-1.7,2.2-2.6,3.9-2.2s2.6,2.2,2.2,3.9l-1,3.6,3.3-1.8c1.5-.8,3.4-.3,4.3,1.2.8,1.5.3,3.4-1.2,4.3l-3.3,1.8,3.6,1c1.7.5,2.6,2.2,2.2,3.9-.5,1.7-2.2,2.6-3.9,2.2l-3.6-1,1.8,3.3c.8,1.5.3,3.4-1.2,4.3-.8.4-1.6.5-2.4.3s-1.5-.7-1.9-1.5l-1.8-3.3-1,3.6c-.5,1.7-2.2,2.6-3.9,2.2s-2.6-2.2-2.2-3.9l1-3.6-3.3,1.8c-.8.4-1.6.5-2.4.3s-1.5-.7-1.9-1.5c-.8-1.5-.3-3.4,1.2-4.3l3.3-1.8-3.6-1c-1.7-.5-2.6-2.2-2.2-3.9.5-1.7,2.2-2.6,3.9-2.2Z" style="fill: #242145;"/>
            <path d="m1727.6,366.3l3.6,1-1.8-3.3c-.8-1.5-.3-3.4,1.2-4.3,1.5-.8,3.4-.3,4.3,1.2l1.8,3.3,1-3.6c.5-1.7,2.2-2.6,3.9-2.2s2.6,2.2,2.2,3.9l-1,3.6,3.3-1.8c1.5-.8,3.4-.3,4.3,1.2.8,1.5.3,3.4-1.2,4.3l-3.3,1.8,3.6,1c1.7.5,2.6,2.2,2.2,3.9s-2.2,2.6-3.9,2.2l-3.6-1,1.8,3.3c.8,1.5.3,3.4-1.2,4.3-.8.4-1.6.5-2.4.3s-1.5-.7-1.9-1.5l-1.8-3.3-1,3.6c-.5,1.7-2.2,2.6-3.9,2.2-1.7-.5-2.6-2.2-2.2-3.9l1-3.6-3.3,1.8c-.8.4-1.6.5-2.4.3s-1.5-.7-1.9-1.5c-.8-1.5-.3-3.4,1.2-4.3l3.3-1.8-3.6-1c-1.7-.5-2.6-2.2-2.2-3.9.5-1.7,2.2-2.6,3.9-2.2Z" style="fill: #242145;"/>
            <path d="m1694.3,356.9l3.6,1-1.8-3.3c-.8-1.5-.3-3.4,1.2-4.3,1.5-.8,3.4-.3,4.3,1.2l1.8,3.3,1-3.6c.5-1.7,2.2-2.6,3.9-2.2,1.7.5,2.6,2.2,2.2,3.9l-1,3.6,3.3-1.8c1.5-.8,3.4-.3,4.3,1.2.8,1.5.3,3.4-1.2,4.3l-3.3,1.8,3.6,1c1.7.5,2.6,2.2,2.2,3.9s-2.2,2.6-3.9,2.2l-3.6-1,1.8,3.3c.8,1.5.3,3.4-1.2,4.3-.8.4-1.6.5-2.4.3s-1.5-.7-1.9-1.5l-1.8-3.3-1,3.6c-.5,1.7-2.2,2.6-3.9,2.2-1.7-.5-2.6-2.2-2.2-3.9l1-3.6-3.3,1.8c-.8.4-1.6.5-2.4.3s-1.5-.7-1.9-1.5c-.8-1.5-.3-3.4,1.2-4.3l3.3-1.8-3.6-1c-1.7-.5-2.6-2.2-2.2-3.9.5-1.7,2.2-2.6,3.9-2.2Z" style="fill: #242145;"/>
            <path d="m1661.1,347.5l3.6,1-1.8-3.3c-.8-1.5-.3-3.4,1.2-4.3,1.5-.8,3.4-.3,4.3,1.2l1.8,3.3,1-3.6c.5-1.7,2.2-2.6,3.9-2.2s2.6,2.2,2.2,3.9l-1,3.6,3.3-1.8c1.5-.8,3.4-.3,4.3,1.2.8,1.5.3,3.4-1.2,4.3l-3.3,1.8,3.6,1c1.7.5,2.6,2.2,2.2,3.9-.5,1.7-2.2,2.6-3.9,2.2l-3.6-1,1.8,3.3c.8,1.5.3,3.4-1.2,4.3-.8.4-1.6.5-2.4.3-.8-.2-1.5-.7-1.9-1.5l-1.8-3.3-1,3.6c-.5,1.7-2.2,2.6-3.9,2.2-1.7-.5-2.6-2.2-2.2-3.9l1-3.6-3.3,1.8c-.8.4-1.6.5-2.4.3-.8-.2-1.5-.7-1.9-1.5-.8-1.5-.3-3.4,1.2-4.3l3.3-1.8-3.6-1c-1.7-.5-2.6-2.2-2.2-3.9.5-1.7,2.2-2.6,3.9-2.2Z" style="fill: #242145;"/>
            <path d="m1627.8,338.1l3.6,1-1.8-3.3c-.8-1.5-.3-3.4,1.2-4.3,1.5-.8,3.4-.3,4.3,1.2l1.8,3.3,1-3.6c.5-1.7,2.2-2.6,3.9-2.2s2.6,2.2,2.2,3.9l-1,3.6,3.3-1.8c1.5-.8,3.4-.3,4.3,1.2.8,1.5.3,3.4-1.2,4.3l-3.3,1.8,3.6,1c1.7.5,2.6,2.2,2.2,3.9-.5,1.7-2.2,2.6-3.9,2.2l-3.6-1,1.8,3.3c.8,1.5.3,3.4-1.2,4.3-.8.4-1.6.5-2.4.3-.8-.2-1.5-.7-1.9-1.5l-1.8-3.3-1,3.6c-.5,1.7-2.2,2.6-3.9,2.2-1.7-.5-2.6-2.2-2.2-3.9l1-3.6-3.3,1.8c-.8.4-1.6.5-2.4.3-.8-.2-1.5-.7-1.9-1.5-.8-1.5-.3-3.4,1.2-4.3l3.3-1.8-3.6-1c-1.7-.5-2.6-2.2-2.2-3.9.5-1.7,2.2-2.6,3.9-2.2Z" style="fill: #242145;"/>
            <path d="m1594.5,328.6l3.6,1-1.8-3.3c-.8-1.5-.3-3.4,1.2-4.3,1.5-.8,3.4-.3,4.3,1.2l1.8,3.3,1-3.6c.5-1.7,2.2-2.6,3.9-2.2s2.6,2.2,2.2,3.9l-1,3.6,3.3-1.8c1.5-.8,3.4-.3,4.3,1.2.8,1.5.3,3.4-1.2,4.3l-3.3,1.8,3.6,1c1.7.5,2.6,2.2,2.2,3.9s-2.2,2.6-3.9,2.2l-3.6-1,1.8,3.3c.8,1.5.3,3.4-1.2,4.3-.8.4-1.6.5-2.4.3s-1.5-.7-1.9-1.5l-1.8-3.3-1,3.6c-.5,1.7-2.2,2.6-3.9,2.2-1.7-.5-2.6-2.2-2.2-3.9l1-3.6-3.3,1.8c-.8.4-1.6.5-2.4.3s-1.5-.7-1.9-1.5c-.8-1.5-.3-3.4,1.2-4.3l3.3-1.8-3.6-1c-1.7-.5-2.6-2.2-2.2-3.9.5-1.7,2.2-2.6,3.9-2.2Z" style="fill: #242145;"/>
          </g>
        </g>
      </g>
      <g>
        <rect x="9.8" y="335.9" width="230.9" height="57.5" rx="28.7" ry="28.7" transform="translate(-94.6 47.9) rotate(-15.8)" style="fill: #242145;"/>
        <g>
          <rect x="6.8" y="329.6" width="230.9" height="57.5" rx="28.7" ry="28.7" transform="translate(-93 46.9) rotate(-15.8)" style="fill: #fff;"/>
          <g>
            <path d="m49.1,375.8l-3.6,1,1.8-3.3c.8-1.5.3-3.4-1.2-4.3-1.5-.8-3.4-.3-4.3,1.2l-1.8,3.3-1-3.6c-.5-1.7-2.2-2.6-3.9-2.2s-2.6,2.2-2.2,3.9l1,3.6-3.3-1.8c-1.5-.8-3.4-.3-4.3,1.2-.8,1.5-.3,3.4,1.2,4.3l3.3,1.8-3.6,1c-1.7.5-2.6,2.2-2.2,3.9.5,1.7,2.2,2.6,3.9,2.2l3.6-1-1.8,3.3c-.8,1.5-.3,3.4,1.2,4.3.8.4,1.6.5,2.4.3s1.5-.7,1.9-1.5l1.8-3.3,1,3.6c.5,1.7,2.2,2.6,3.9,2.2s2.6-2.2,2.2-3.9l-1-3.6,3.3,1.8c.8.4,1.6.5,2.4.3.8-.2,1.5-.7,1.9-1.5.8-1.5.3-3.4-1.2-4.3l-3.3-1.8,3.6-1c1.7-.5,2.6-2.2,2.2-3.9-.5-1.7-2.2-2.6-3.9-2.2Z" style="fill: #242145;"/>
            <path d="m82.4,366.3l-3.6,1,1.8-3.3c.8-1.5.3-3.4-1.2-4.3-1.5-.8-3.4-.3-4.3,1.2l-1.8,3.3-1-3.6c-.5-1.7-2.2-2.6-3.9-2.2s-2.6,2.2-2.2,3.9l1,3.6-3.3-1.8c-1.5-.8-3.4-.3-4.3,1.2-.8,1.5-.3,3.4,1.2,4.3l3.3,1.8-3.6,1c-1.7.5-2.6,2.2-2.2,3.9.5,1.7,2.2,2.6,3.9,2.2l3.6-1-1.8,3.3c-.8,1.5-.3,3.4,1.2,4.3.8.4,1.6.5,2.4.3s1.5-.7,1.9-1.5l1.8-3.3,1,3.6c.5,1.7,2.2,2.6,3.9,2.2s2.6-2.2,2.2-3.9l-1-3.6,3.3,1.8c.8.4,1.6.5,2.4.3.8-.2,1.5-.7,1.9-1.5.8-1.5.3-3.4-1.2-4.3l-3.3-1.8,3.6-1c1.7-.5,2.6-2.2,2.2-3.9-.5-1.7-2.2-2.6-3.9-2.2Z" style="fill: #242145;"/>
            <path d="m115.7,356.9l-3.6,1,1.8-3.3c.8-1.5.3-3.4-1.2-4.3-1.5-.8-3.4-.3-4.3,1.2l-1.8,3.3-1-3.6c-.5-1.7-2.2-2.6-3.9-2.2-1.7.5-2.6,2.2-2.2,3.9l1,3.6-3.3-1.8c-1.5-.8-3.4-.3-4.3,1.2-.8,1.5-.3,3.4,1.2,4.3l3.3,1.8-3.6,1c-1.7.5-2.6,2.2-2.2,3.9s2.2,2.6,3.9,2.2l3.6-1-1.8,3.3c-.8,1.5-.3,3.4,1.2,4.3.8.4,1.6.5,2.4.3s1.5-.7,1.9-1.5l1.8-3.3,1,3.6c.5,1.7,2.2,2.6,3.9,2.2s2.6-2.2,2.2-3.9l-1-3.6,3.3,1.8c.8.4,1.6.5,2.4.3s1.5-.7,1.9-1.5c.8-1.5.3-3.4-1.2-4.3l-3.3-1.8,3.6-1c1.7-.5,2.6-2.2,2.2-3.9-.5-1.7-2.2-2.6-3.9-2.2Z" style="fill: #242145;"/>
            <path d="m148.9,347.5l-3.6,1,1.8-3.3c.8-1.5.3-3.4-1.2-4.3-1.5-.8-3.4-.3-4.3,1.2l-1.8,3.3-1-3.6c-.5-1.7-2.2-2.6-3.9-2.2s-2.6,2.2-2.2,3.9l1,3.6-3.3-1.8c-1.5-.8-3.4-.3-4.3,1.2-.8,1.5-.3,3.4,1.2,4.3l3.3,1.8-3.6,1c-1.7.5-2.6,2.2-2.2,3.9.5,1.7,2.2,2.6,3.9,2.2l3.6-1-1.8,3.3c-.8,1.5-.3,3.4,1.2,4.3.8.4,1.6.5,2.4.3.8-.2,1.5-.7,1.9-1.5l1.8-3.3,1,3.6c.5,1.7,2.2,2.6,3.9,2.2,1.7-.5,2.6-2.2,2.2-3.9l-1-3.6,3.3,1.8c.8.4,1.6.5,2.4.3s1.5-.7,1.9-1.5c.8-1.5.3-3.4-1.2-4.3l-3.3-1.8,3.6-1c1.7-.5,2.6-2.2,2.2-3.9-.5-1.7-2.2-2.6-3.9-2.2Z" style="fill: #242145;"/>
            <path d="m182.2,338.1l-3.6,1,1.8-3.3c.8-1.5.3-3.4-1.2-4.3-1.5-.8-3.4-.3-4.3,1.2l-1.8,3.3-1-3.6c-.5-1.7-2.2-2.6-3.9-2.2-1.7.5-2.6,2.2-2.2,3.9l1,3.6-3.3-1.8c-1.5-.8-3.4-.3-4.3,1.2-.8,1.5-.3,3.4,1.2,4.3l3.3,1.8-3.6,1c-1.7.5-2.6,2.2-2.2,3.9.5,1.7,2.2,2.6,3.9,2.2l3.6-1-1.8,3.3c-.8,1.5-.3,3.4,1.2,4.3.8.4,1.6.5,2.4.3.8-.2,1.5-.7,1.9-1.5l1.8-3.3,1,3.6c.5,1.7,2.2,2.6,3.9,2.2,1.7-.5,2.6-2.2,2.2-3.9l-1-3.6,3.3,1.8c.8.4,1.6.5,2.4.3s1.5-.7,1.9-1.5c.8-1.5.3-3.4-1.2-4.3l-3.3-1.8,3.6-1c1.7-.5,2.6-2.2,2.2-3.9-.5-1.7-2.2-2.6-3.9-2.2Z" style="fill: #242145;"/>
            <path d="m215.5,328.6l-3.6,1,1.8-3.3c.8-1.5.3-3.4-1.2-4.3-1.5-.8-3.4-.3-4.3,1.2l-1.8,3.3-1-3.6c-.5-1.7-2.2-2.6-3.9-2.2-1.7.5-2.6,2.2-2.2,3.9l1,3.6-3.3-1.8c-1.5-.8-3.4-.3-4.3,1.2-.8,1.5-.3,3.4,1.2,4.3l3.3,1.8-3.6,1c-1.7.5-2.6,2.2-2.2,3.9s2.2,2.6,3.9,2.2l3.6-1-1.8,3.3c-.8,1.5-.3,3.4,1.2,4.3.8.4,1.6.5,2.4.3s1.5-.7,1.9-1.5l1.8-3.3,1,3.6c.5,1.7,2.2,2.6,3.9,2.2s2.6-2.2,2.2-3.9l-1-3.6,3.3,1.8c.8.4,1.6.5,2.4.3s1.5-.7,1.9-1.5c.8-1.5.3-3.4-1.2-4.3l-3.3-1.8,3.6-1c1.7-.5,2.6-2.2,2.2-3.9s-2.2-2.6-3.9-2.2Z" style="fill: #242145;"/>
          </g>
        </g>
      </g>
    </g>
    <g>
      <g>
        <path d="m462.2,702.2c0,2.6-.4,5.2-1.1,7.9-.1.4-.3.9-.4,1.3-1.1,3.2-2.7,6.1-4.7,8.6h-65.4l-131.8-37.3c-12.7-3.6-20.9-15.1-20.9-27.6s.4-5.2,1.1-7.9c.8-2.8,1.9-5.3,3.4-7.6,6.7-10.4,19.6-15.8,32.1-12.2l166.8,47.2c12.7,3.6,20.9,15.1,20.9,27.6Z" style="fill: #242145;"/>
        <g>
          <path d="m465.2,695.9c0,2.6-.3,5.2-1.1,7.8-.8,2.8-1.9,5.3-3.4,7.6-2.2,3.5-5.2,6.4-8.5,8.6h-36.3l-154.1-43.6c-12.7-3.6-20.9-15.1-20.9-27.6s.4-5.2,1.1-7.8c.1-.4.3-.9.4-1.3,4.8-14.5,20.2-22.7,35.1-18.5l166.8,47.2c12.7,3.6,20.9,15.1,20.9,27.6Z" style="fill: #fff;"/>
          <g>
            <path d="m426.2,689.8l3.6,1-1.8-3.3c-.8-1.5-.3-3.4,1.2-4.3,1.5-.8,3.4-.3,4.3,1.2l1.8,3.3,1-3.6c.5-1.7,2.2-2.6,3.9-2.2s2.6,2.2,2.2,3.9l-1,3.6,3.3-1.8c1.5-.8,3.4-.3,4.3,1.2.8,1.5.3,3.4-1.2,4.3l-3.3,1.8,3.6,1c1.7.5,2.6,2.2,2.2,3.9-.5,1.7-2.2,2.6-3.9,2.2l-3.6-1,1.8,3.3c.8,1.5.3,3.4-1.2,4.3-.8.4-1.6.5-2.4.3s-1.5-.7-1.9-1.5l-1.8-3.3-1,3.6c-.5,1.7-2.2,2.6-3.9,2.2-1.7-.5-2.6-2.2-2.2-3.9l1-3.6-3.3,1.8c-.8.4-1.6.5-2.4.3s-1.5-.7-1.9-1.5c-.8-1.5-.3-3.4,1.2-4.3l3.3-1.8-3.6-1c-1.7-.5-2.6-2.2-2.2-3.9.5-1.7,2.2-2.6,3.9-2.2Z" style="fill: #242145;"/>
            <path d="m392.9,680.3l3.6,1-1.8-3.3c-.8-1.5-.3-3.4,1.2-4.3,1.5-.8,3.4-.3,4.3,1.2l1.8,3.3,1-3.6c.5-1.7,2.2-2.6,3.9-2.2s2.6,2.2,2.2,3.9l-1,3.6,3.3-1.8c1.5-.8,3.4-.3,4.3,1.2.8,1.5.3,3.4-1.2,4.3l-3.3,1.8,3.6,1c1.7.5,2.6,2.2,2.2,3.9s-2.2,2.6-3.9,2.2l-3.6-1,1.8,3.3c.8,1.5.3,3.4-1.2,4.3-.8.4-1.6.5-2.4.3s-1.5-.7-1.9-1.5l-1.8-3.3-1,3.6c-.5,1.7-2.2,2.6-3.9,2.2-1.7-.5-2.6-2.2-2.2-3.9l1-3.6-3.3,1.8c-.8.4-1.6.5-2.4.3s-1.5-.7-1.9-1.5c-.8-1.5-.3-3.4,1.2-4.3l3.3-1.8-3.6-1c-1.7-.5-2.6-2.2-2.2-3.9.5-1.7,2.2-2.6,3.9-2.2Z" style="fill: #242145;"/>
            <path d="m359.7,670.9l3.6,1-1.8-3.3c-.8-1.5-.3-3.4,1.2-4.3,1.5-.8,3.4-.3,4.3,1.2l1.8,3.3,1-3.6c.5-1.7,2.2-2.6,3.9-2.2,1.7.5,2.6,2.2,2.2,3.9l-1,3.6,3.3-1.8c1.5-.8,3.4-.3,4.3,1.2.8,1.5.3,3.4-1.2,4.3l-3.3,1.8,3.6,1c1.7.5,2.6,2.2,2.2,3.9s-2.2,2.6-3.9,2.2l-3.6-1,1.8,3.3c.8,1.5.3,3.4-1.2,4.3-.8.4-1.6.5-2.4.3s-1.5-.7-1.9-1.5l-1.8-3.3-1,3.6c-.5,1.7-2.2,2.6-3.9,2.2s-2.6-2.2-2.2-3.9l1-3.6-3.3,1.8c-.8.4-1.6.5-2.4.3s-1.5-.7-1.9-1.5c-.8-1.5-.3-3.4,1.2-4.3l3.3-1.8-3.6-1c-1.7-.5-2.6-2.2-2.2-3.9.5-1.7,2.2-2.6,3.9-2.2Z" style="fill: #242145;"/>
            <path d="m326.4,661.5l3.6,1-1.8-3.3c-.8-1.5-.3-3.4,1.2-4.3,1.5-.8,3.4-.3,4.3,1.2l1.8,3.3,1-3.6c.5-1.7,2.2-2.6,3.9-2.2s2.6,2.2,2.2,3.9l-1,3.6,3.3-1.8c1.5-.8,3.4-.3,4.3,1.2.8,1.5.3,3.4-1.2,4.3l-3.3,1.8,3.6,1c1.7.5,2.6,2.2,2.2,3.9-.5,1.7-2.2,2.6-3.9,2.2l-3.6-1,1.8,3.3c.8,1.5.3,3.4-1.2,4.3-.8.4-1.6.5-2.4.3-.8-.2-1.5-.7-1.9-1.5l-1.8-3.3-1,3.6c-.5,1.7-2.2,2.6-3.9,2.2-1.7-.5-2.6-2.2-2.2-3.9l1-3.6-3.3,1.8c-.8.4-1.6.5-2.4.3-.8-.2-1.5-.7-1.9-1.5-.8-1.5-.3-3.4,1.2-4.3l3.3-1.8-3.6-1c-1.7-.5-2.6-2.2-2.2-3.9.5-1.7,2.2-2.6,3.9-2.2Z" style="fill: #242145;"/>
            <path d="m293.1,652.1l3.6,1-1.8-3.3c-.8-1.5-.3-3.4,1.2-4.3,1.5-.8,3.4-.3,4.3,1.2l1.8,3.3,1-3.6c.5-1.7,2.2-2.6,3.9-2.2,1.7.5,2.6,2.2,2.2,3.9l-1,3.6,3.3-1.8c1.5-.8,3.4-.3,4.3,1.2.8,1.5.3,3.4-1.2,4.3l-3.3,1.8,3.6,1c1.7.5,2.6,2.2,2.2,3.9-.5,1.7-2.2,2.6-3.9,2.2l-3.6-1,1.8,3.3c.8,1.5.3,3.4-1.2,4.3-.8.4-1.6.5-2.4.3-.8-.2-1.5-.7-1.9-1.5l-1.8-3.3-1,3.6c-.5,1.7-2.2,2.6-3.9,2.2-1.7-.5-2.6-2.2-2.2-3.9l1-3.6-3.3,1.8c-.8.4-1.6.5-2.4.3-.8-.2-1.5-.7-1.9-1.5-.8-1.5-.3-3.4,1.2-4.3l3.3-1.8-3.6-1c-1.7-.5-2.6-2.2-2.2-3.9.5-1.7,2.2-2.6,3.9-2.2Z" style="fill: #242145;"/>
            <path d="m259.8,642.6l3.6,1-1.8-3.3c-.8-1.5-.3-3.4,1.2-4.3,1.5-.8,3.4-.3,4.3,1.2l1.8,3.3,1-3.6c.5-1.7,2.2-2.6,3.9-2.2,1.7.5,2.6,2.2,2.2,3.9l-1,3.6,3.3-1.8c1.5-.8,3.4-.3,4.3,1.2.8,1.5.3,3.4-1.2,4.3l-3.3,1.8,3.6,1c1.7.5,2.6,2.2,2.2,3.9-.5,1.7-2.2,2.6-3.9,2.2l-3.6-1,1.8,3.3c.8,1.5.3,3.4-1.2,4.3-.8.4-1.6.5-2.4.3s-1.5-.7-1.9-1.5l-1.8-3.3-1,3.6c-.5,1.7-2.2,2.6-3.9,2.2-1.7-.5-2.6-2.2-2.2-3.9l1-3.6-3.3,1.8c-.8.4-1.6.5-2.4.3s-1.5-.7-1.9-1.5c-.8-1.5-.3-3.4,1.2-4.3l3.3-1.8-3.6-1c-1.7-.5-2.6-2.2-2.2-3.9s2.2-2.6,3.9-2.2Z" style="fill: #242145;"/>
          </g>
        </g>
      </g>
      <g>
        <path d="m986.1,655c0,12.5-8.3,24.1-20.9,27.6l-131.8,37.3h-65.4c-2-2.5-3.6-5.4-4.7-8.6-.1-.4-.3-.9-.4-1.3-.7-2.6-1.1-5.2-1.1-7.9,0-12.5,8.3-24.1,20.9-27.6l166.8-47.2c12.5-3.5,25.5,1.8,32.1,12.2,1.4,2.3,2.6,4.8,3.4,7.6.7,2.6,1.1,5.3,1.1,7.9Z" style="fill: #242145;"/>
        <g>
          <path d="m983.1,648.7c0,12.5-8.3,24.1-20.9,27.6l-154.1,43.6h-36.3c-3.4-2.2-6.3-5.1-8.5-8.6-1.4-2.3-2.6-4.9-3.4-7.6-.7-2.6-1.1-5.2-1.1-7.8,0-12.5,8.3-24.1,20.9-27.6l166.8-47.2c14.8-4.2,30.2,4,35.1,18.5.1.4.3.9.4,1.3.7,2.6,1.1,5.3,1.1,7.8Z" style="fill: #fff;"/>
          <g>
            <path d="m797.8,689.8l-3.6,1,1.8-3.3c.8-1.5.3-3.4-1.2-4.3-1.5-.8-3.4-.3-4.3,1.2l-1.8,3.3-1-3.6c-.5-1.7-2.2-2.6-3.9-2.2-1.7.5-2.6,2.2-2.2,3.9l1,3.6-3.3-1.8c-1.5-.8-3.4-.3-4.3,1.2-.8,1.5-.3,3.4,1.2,4.3l3.3,1.8-3.6,1c-1.7.5-2.6,2.2-2.2,3.9.5,1.7,2.2,2.6,3.9,2.2l3.6-1-1.8,3.3c-.8,1.5-.3,3.4,1.2,4.3.8.4,1.6.5,2.4.3s1.5-.7,1.9-1.5l1.8-3.3,1,3.6c.5,1.7,2.2,2.6,3.9,2.2s2.6-2.2,2.2-3.9l-1-3.6,3.3,1.8c.8.4,1.6.5,2.4.3.8-.2,1.5-.7,1.9-1.5.8-1.5.3-3.4-1.2-4.3l-3.3-1.8,3.6-1c1.7-.5,2.6-2.2,2.2-3.9-.5-1.7-2.2-2.6-3.9-2.2Z" style="fill: #242145;"/>
            <path d="m831.1,680.3l-3.6,1,1.8-3.3c.8-1.5.3-3.4-1.2-4.3-1.5-.8-3.4-.3-4.3,1.2l-1.8,3.3-1-3.6c-.5-1.7-2.2-2.6-3.9-2.2s-2.6,2.2-2.2,3.9l1,3.6-3.3-1.8c-1.5-.8-3.4-.3-4.3,1.2-.8,1.5-.3,3.4,1.2,4.3l3.3,1.8-3.6,1c-1.7.5-2.6,2.2-2.2,3.9.5,1.7,2.2,2.6,3.9,2.2l3.6-1-1.8,3.3c-.8,1.5-.3,3.4,1.2,4.3.8.4,1.6.5,2.4.3s1.5-.7,1.9-1.5l1.8-3.3,1,3.6c.5,1.7,2.2,2.6,3.9,2.2s2.6-2.2,2.2-3.9l-1-3.6,3.3,1.8c.8.4,1.6.5,2.4.3.8-.2,1.5-.7,1.9-1.5.8-1.5.3-3.4-1.2-4.3l-3.3-1.8,3.6-1c1.7-.5,2.6-2.2,2.2-3.9-.5-1.7-2.2-2.6-3.9-2.2Z" style="fill: #242145;"/>
            <path d="m864.3,670.9l-3.6,1,1.8-3.3c.8-1.5.3-3.4-1.2-4.3-1.5-.8-3.4-.3-4.3,1.2l-1.8,3.3-1-3.6c-.5-1.7-2.2-2.6-3.9-2.2-1.7.5-2.6,2.2-2.2,3.9l1,3.6-3.3-1.8c-1.5-.8-3.4-.3-4.3,1.2-.8,1.5-.3,3.4,1.2,4.3l3.3,1.8-3.6,1c-1.7.5-2.6,2.2-2.2,3.9.5,1.7,2.2,2.6,3.9,2.2l3.6-1-1.8,3.3c-.8,1.5-.3,3.4,1.2,4.3.8.4,1.6.5,2.4.3s1.5-.7,1.9-1.5l1.8-3.3,1,3.6c.5,1.7,2.2,2.6,3.9,2.2s2.6-2.2,2.2-3.9l-1-3.6,3.3,1.8c.8.4,1.6.5,2.4.3s1.5-.7,1.9-1.5c.8-1.5.3-3.4-1.2-4.3l-3.3-1.8,3.6-1c1.7-.5,2.6-2.2,2.2-3.9-.5-1.7-2.2-2.6-3.9-2.2Z" style="fill: #242145;"/>
            <path d="m897.6,661.5l-3.6,1,1.8-3.3c.8-1.5.3-3.4-1.2-4.3-1.5-.8-3.4-.3-4.3,1.2l-1.8,3.3-1-3.6c-.5-1.7-2.2-2.6-3.9-2.2s-2.6,2.2-2.2,3.9l1,3.6-3.3-1.8c-1.5-.8-3.4-.3-4.3,1.2-.8,1.5-.3,3.4,1.2,4.3l3.3,1.8-3.6,1c-1.7.5-2.6,2.2-2.2,3.9.5,1.7,2.2,2.6,3.9,2.2l3.6-1-1.8,3.3c-.8,1.5-.3,3.4,1.2,4.3.8.4,1.6.5,2.4.3.8-.2,1.5-.7,1.9-1.5l1.8-3.3,1,3.6c.5,1.7,2.2,2.6,3.9,2.2,1.7-.5,2.6-2.2,2.2-3.9l-1-3.6,3.3,1.8c.8.4,1.6.5,2.4.3s1.5-.7,1.9-1.5c.8-1.5.3-3.4-1.2-4.3l-3.3-1.8,3.6-1c1.7-.5,2.6-2.2,2.2-3.9-.5-1.7-2.2-2.6-3.9-2.2Z" style="fill: #242145;"/>
            <path d="m930.9,652.1l-3.6,1,1.8-3.3c.8-1.5.3-3.4-1.2-4.3-1.5-.8-3.4-.3-4.3,1.2l-1.8,3.3-1-3.6c-.5-1.7-2.2-2.6-3.9-2.2s-2.6,2.2-2.2,3.9l1,3.6-3.3-1.8c-1.5-.8-3.4-.3-4.3,1.2-.8,1.5-.3,3.4,1.2,4.3l3.3,1.8-3.6,1c-1.7.5-2.6,2.2-2.2,3.9.5,1.7,2.2,2.6,3.9,2.2l3.6-1-1.8,3.3c-.8,1.5-.3,3.4,1.2,4.3.8.4,1.6.5,2.4.3.8-.2,1.5-.7,1.9-1.5l1.8-3.3,1,3.6c.5,1.7,2.2,2.6,3.9,2.2,1.7-.5,2.6-2.2,2.2-3.9l-1-3.6,3.3,1.8c.8.4,1.6.5,2.4.3s1.5-.7,1.9-1.5c.8-1.5.3-3.4-1.2-4.3l-3.3-1.8,3.6-1c1.7-.5,2.6-2.2,2.2-3.9s-2.2-2.6-3.9-2.2Z" style="fill: #242145;"/>
            <path d="m964.2,642.6l-3.6,1,1.8-3.3c.8-1.5.3-3.4-1.2-4.3-1.5-.8-3.4-.3-4.3,1.2l-1.8,3.3-1-3.6c-.5-1.7-2.2-2.6-3.9-2.2-1.7.5-2.6,2.2-2.2,3.9l1,3.6-3.3-1.8c-1.5-.8-3.4-.3-4.3,1.2-.8,1.5-.3,3.4,1.2,4.3l3.3,1.8-3.6,1c-1.7.5-2.6,2.2-2.2,3.9s2.2,2.6,3.9,2.2l3.6-1-1.8,3.3c-.8,1.5-.3,3.4,1.2,4.3.8.4,1.6.5,2.4.3s1.5-.7,1.9-1.5l1.8-3.3,1,3.6c.5,1.7,2.2,2.6,3.9,2.2s2.6-2.2,2.2-3.9l-1-3.6,3.3,1.8c.8.4,1.6.5,2.4.3s1.5-.7,1.9-1.5c.8-1.5.3-3.4-1.2-4.3l-3.3-1.8,3.6-1c1.7-.5,2.6-2.2,2.2-3.9-.5-1.7-2.2-2.6-3.9-2.2Z" style="fill: #242145;"/>
          </g>
        </g>
      </g>
      <g>
        <path d="m1503.9,702.2c0,2.6-.3,5.2-1.1,7.8-.1.4-.2.8-.4,1.3-1.1,3.2-2.7,6.1-4.7,8.7h-65.4l-131.8-37.3c-12.7-3.6-20.9-15.1-20.9-27.6s.4-5.2,1.1-7.9c.8-2.7,1.9-5.3,3.4-7.6,6.6-10.5,19.6-15.8,32.1-12.3l166.8,47.2c12.7,3.6,20.9,15.1,20.9,27.6Z" style="fill: #242145;"/>
        <g>
          <path d="m1506.9,695.9c0,2.6-.4,5.2-1.1,7.9-.8,2.7-1.9,5.3-3.4,7.6-2.2,3.5-5.2,6.4-8.6,8.7h-36.3l-154.1-43.6c-12.7-3.6-20.9-15.1-20.9-27.6s.3-5.2,1.1-7.8c.1-.4.2-.9.4-1.3,4.8-14.5,20.3-22.8,35.1-18.6l166.8,47.2c12.7,3.6,20.9,15.1,20.9,27.6Z" style="fill: #fff;"/>
          <g>
            <path d="m1467.9,689.8l3.6,1-1.8-3.3c-.8-1.5-.3-3.4,1.2-4.3,1.5-.8,3.4-.3,4.3,1.2l1.8,3.3,1-3.6c.5-1.7,2.2-2.6,3.9-2.2s2.6,2.2,2.2,3.9l-1,3.6,3.3-1.8c1.5-.8,3.4-.3,4.3,1.2.8,1.5.3,3.4-1.2,4.3l-3.3,1.8,3.6,1c1.7.5,2.6,2.2,2.2,3.9-.5,1.7-2.2,2.6-3.9,2.2l-3.6-1,1.8,3.3c.8,1.5.3,3.4-1.2,4.3-.8.4-1.6.5-2.4.3s-1.5-.7-1.9-1.5l-1.8-3.3-1,3.6c-.5,1.7-2.2,2.6-3.9,2.2s-2.6-2.2-2.2-3.9l1-3.6-3.3,1.8c-.8.4-1.6.5-2.4.3s-1.5-.7-1.9-1.5c-.8-1.5-.3-3.4,1.2-4.3l3.3-1.8-3.6-1c-1.7-.5-2.6-2.2-2.2-3.9.5-1.7,2.2-2.6,3.9-2.2Z" style="fill: #242145;"/>
            <path d="m1434.6,680.3l3.6,1-1.8-3.3c-.8-1.5-.3-3.4,1.2-4.3,1.5-.8,3.4-.3,4.3,1.2l1.8,3.3,1-3.6c.5-1.7,2.2-2.6,3.9-2.2s2.6,2.2,2.2,3.9l-1,3.6,3.3-1.8c1.5-.8,3.4-.3,4.3,1.2.8,1.5.3,3.4-1.2,4.3l-3.3,1.8,3.6,1c1.7.5,2.6,2.2,2.2,3.9s-2.2,2.6-3.9,2.2l-3.6-1,1.8,3.3c.8,1.5.3,3.4-1.2,4.3-.8.4-1.6.5-2.4.3s-1.5-.7-1.9-1.5l-1.8-3.3-1,3.6c-.5,1.7-2.2,2.6-3.9,2.2-1.7-.5-2.6-2.2-2.2-3.9l1-3.6-3.3,1.8c-.8.4-1.6.5-2.4.3s-1.5-.7-1.9-1.5c-.8-1.5-.3-3.4,1.2-4.3l3.3-1.8-3.6-1c-1.7-.5-2.6-2.2-2.2-3.9.5-1.7,2.2-2.6,3.9-2.2Z" style="fill: #242145;"/>
            <path d="m1401.3,670.9l3.6,1-1.8-3.3c-.8-1.5-.3-3.4,1.2-4.3,1.5-.8,3.4-.3,4.3,1.2l1.8,3.3,1-3.6c.5-1.7,2.2-2.6,3.9-2.2,1.7.5,2.6,2.2,2.2,3.9l-1,3.6,3.3-1.8c1.5-.8,3.4-.3,4.3,1.2.8,1.5.3,3.4-1.2,4.3l-3.3,1.8,3.6,1c1.7.5,2.6,2.2,2.2,3.9s-2.2,2.6-3.9,2.2l-3.6-1,1.8,3.3c.8,1.5.3,3.4-1.2,4.3-.8.4-1.6.5-2.4.3s-1.5-.7-1.9-1.5l-1.8-3.3-1,3.6c-.5,1.7-2.2,2.6-3.9,2.2-1.7-.5-2.6-2.2-2.2-3.9l1-3.6-3.3,1.8c-.8.4-1.6.5-2.4.3s-1.5-.7-1.9-1.5c-.8-1.5-.3-3.4,1.2-4.3l3.3-1.8-3.6-1c-1.7-.5-2.6-2.2-2.2-3.9.5-1.7,2.2-2.6,3.9-2.2Z" style="fill: #242145;"/>
            <path d="m1368.1,661.5l3.6,1-1.8-3.3c-.8-1.5-.3-3.4,1.2-4.3,1.5-.8,3.4-.3,4.3,1.2l1.8,3.3,1-3.6c.5-1.7,2.2-2.6,3.9-2.2s2.6,2.2,2.2,3.9l-1,3.6,3.3-1.8c1.5-.8,3.4-.3,4.3,1.2.8,1.5.3,3.4-1.2,4.3l-3.3,1.8,3.6,1c1.7.5,2.6,2.2,2.2,3.9-.5,1.7-2.2,2.6-3.9,2.2l-3.6-1,1.8,3.3c.8,1.5.3,3.4-1.2,4.3-.8.4-1.6.5-2.4.3-.8-.2-1.5-.7-1.9-1.5l-1.8-3.3-1,3.6c-.5,1.7-2.2,2.6-3.9,2.2-1.7-.5-2.6-2.2-2.2-3.9l1-3.6-3.3,1.8c-.8.4-1.6.5-2.4.3-.8-.2-1.5-.7-1.9-1.5-.8-1.5-.3-3.4,1.2-4.3l3.3-1.8-3.6-1c-1.7-.5-2.6-2.2-2.2-3.9.5-1.7,2.2-2.6,3.9-2.2Z" style="fill: #242145;"/>
            <path d="m1334.8,652.1l3.6,1-1.8-3.3c-.8-1.5-.3-3.4,1.2-4.3,1.5-.8,3.4-.3,4.3,1.2l1.8,3.3,1-3.6c.5-1.7,2.2-2.6,3.9-2.2s2.6,2.2,2.2,3.9l-1,3.6,3.3-1.8c1.5-.8,3.4-.3,4.3,1.2.8,1.5.3,3.4-1.2,4.3l-3.3,1.8,3.6,1c1.7.5,2.6,2.2,2.2,3.9-.5,1.7-2.2,2.6-3.9,2.2l-3.6-1,1.8,3.3c.8,1.5.3,3.4-1.2,4.3-.8.4-1.6.5-2.4.3-.8-.2-1.5-.7-1.9-1.5l-1.8-3.3-1,3.6c-.5,1.7-2.2,2.6-3.9,2.2-1.7-.5-2.6-2.2-2.2-3.9l1-3.6-3.3,1.8c-.8.4-1.6.5-2.4.3-.8-.2-1.5-.7-1.9-1.5-.8-1.5-.3-3.4,1.2-4.3l3.3-1.8-3.6-1c-1.7-.5-2.6-2.2-2.2-3.9.5-1.7,2.2-2.6,3.9-2.2Z" style="fill: #242145;"/>
            <path d="m1301.5,642.6l3.6,1-1.8-3.3c-.8-1.5-.3-3.4,1.2-4.3,1.5-.8,3.4-.3,4.3,1.2l1.8,3.3,1-3.6c.5-1.7,2.2-2.6,3.9-2.2s2.6,2.2,2.2,3.9l-1,3.6,3.3-1.8c1.5-.8,3.4-.3,4.3,1.2.8,1.5.3,3.4-1.2,4.3l-3.3,1.8,3.6,1c1.7.5,2.6,2.2,2.2,3.9s-2.2,2.6-3.9,2.2l-3.6-1,1.8,3.3c.8,1.5.3,3.4-1.2,4.3-.8.4-1.6.5-2.4.3s-1.5-.7-1.9-1.5l-1.8-3.3-1,3.6c-.5,1.7-2.2,2.6-3.9,2.2-1.7-.5-2.6-2.2-2.2-3.9l1-3.6-3.3,1.8c-.8.4-1.6.5-2.4.3s-1.5-.7-1.9-1.5c-.8-1.5-.3-3.4,1.2-4.3l3.3-1.8-3.6-1c-1.7-.5-2.6-2.2-2.2-3.9s2.2-2.6,3.9-2.2Z" style="fill: #242145;"/>
          </g>
        </g>
      </g>
    </g>
    <g>
      <g>
        <rect x="769.7" y="26.6" width="230.9" height="57.5" rx="28.7" ry="28.7" transform="translate(1721.7 349.8) rotate(-164.2)" style="fill: #242145;"/>
        <g>
          <path d="m1000.3,72.7c0,2.6-.4,5.2-1.1,7.9-.8,2.7-1.9,5.3-3.4,7.6-6.6,10.5-19.6,15.8-32.1,12.3l-166.8-47.2c-12.7-3.6-20.9-15.1-20.9-27.7s.4-5.2,1.1-7.8c.1-.4.2-.8.4-1.3,2.4-7.3,7.5-13,13.9-16.4h29l159,45c12.6,3.6,20.9,15.1,20.9,27.6Z" style="fill: #fff;"/>
          <g>
            <path d="m961.3,66.5l3.6,1-1.8-3.3c-.8-1.5-.3-3.4,1.2-4.3,1.5-.8,3.4-.3,4.3,1.2l1.8,3.3,1-3.6c.5-1.7,2.2-2.6,3.9-2.2s2.6,2.2,2.2,3.9l-1,3.6,3.3-1.8c1.5-.8,3.4-.3,4.3,1.2.8,1.5.3,3.4-1.2,4.3l-3.3,1.8,3.6,1c1.7.5,2.6,2.2,2.2,3.9-.5,1.7-2.2,2.6-3.9,2.2l-3.6-1,1.8,3.3c.8,1.5.3,3.4-1.2,4.3-.8.4-1.6.5-2.4.3s-1.5-.7-1.9-1.5l-1.8-3.3-1,3.6c-.5,1.7-2.2,2.6-3.9,2.2-1.7-.5-2.6-2.2-2.2-3.9l1-3.6-3.3,1.8c-.8.4-1.6.5-2.4.3s-1.5-.7-1.9-1.5c-.8-1.5-.3-3.4,1.2-4.3l3.3-1.8-3.6-1c-1.7-.5-2.6-2.2-2.2-3.9.5-1.7,2.2-2.6,3.9-2.2Z" style="fill: #242145;"/>
            <path d="m928,57.1l3.6,1-1.8-3.3c-.8-1.5-.3-3.4,1.2-4.3,1.5-.8,3.4-.3,4.3,1.2l1.8,3.3,1-3.6c.5-1.7,2.2-2.6,3.9-2.2s2.6,2.2,2.2,3.9l-1,3.6,3.3-1.8c1.5-.8,3.4-.3,4.3,1.2.8,1.5.3,3.4-1.2,4.3l-3.3,1.8,3.6,1c1.7.5,2.6,2.2,2.2,3.9s-2.2,2.6-3.9,2.2l-3.6-1,1.8,3.3c.8,1.5.3,3.4-1.2,4.3-.8.4-1.6.5-2.4.3s-1.5-.7-1.9-1.5l-1.8-3.3-1,3.6c-.5,1.7-2.2,2.6-3.9,2.2-1.7-.5-2.6-2.2-2.2-3.9l1-3.6-3.3,1.8c-.8.4-1.6.5-2.4.3s-1.5-.7-1.9-1.5c-.8-1.5-.3-3.4,1.2-4.3l3.3-1.8-3.6-1c-1.7-.5-2.6-2.2-2.2-3.9.5-1.7,2.2-2.6,3.9-2.2Z" style="fill: #242145;"/>
            <path d="m894.7,47.7l3.6,1-1.8-3.3c-.8-1.5-.3-3.4,1.2-4.3,1.5-.8,3.4-.3,4.3,1.2l1.8,3.3,1-3.6c.5-1.7,2.2-2.6,3.9-2.2,1.7.5,2.6,2.2,2.2,3.9l-1,3.6,3.3-1.8c1.5-.8,3.4-.3,4.3,1.2.8,1.5.3,3.4-1.2,4.3l-3.3,1.8,3.6,1c1.7.5,2.6,2.2,2.2,3.9s-2.2,2.6-3.9,2.2l-3.6-1,1.8,3.3c.8,1.5.3,3.4-1.2,4.3-.8.4-1.6.5-2.4.3s-1.5-.7-1.9-1.5l-1.8-3.3-1,3.6c-.5,1.7-2.2,2.6-3.9,2.2s-2.6-2.2-2.2-3.9l1-3.6-3.3,1.8c-.8.4-1.6.5-2.4.3s-1.5-.7-1.9-1.5c-.8-1.5-.3-3.4,1.2-4.3l3.3-1.8-3.6-1c-1.7-.5-2.6-2.2-2.2-3.9.5-1.7,2.2-2.6,3.9-2.2Z" style="fill: #242145;"/>
            <path d="m861.4,38.2l3.6,1-1.8-3.3c-.8-1.5-.3-3.4,1.2-4.3,1.5-.8,3.4-.3,4.3,1.2l1.8,3.3,1-3.6c.5-1.7,2.2-2.6,3.9-2.2s2.6,2.2,2.2,3.9l-1,3.6,3.3-1.8c1.5-.8,3.4-.3,4.3,1.2.8,1.5.3,3.4-1.2,4.3l-3.3,1.8,3.6,1c1.7.5,2.6,2.2,2.2,3.9-.5,1.7-2.2,2.6-3.9,2.2l-3.6-1,1.8,3.3c.8,1.5.3,3.4-1.2,4.3-.8.4-1.6.5-2.4.3-.8-.2-1.5-.7-1.9-1.5l-1.8-3.3-1,3.6c-.5,1.7-2.2,2.6-3.9,2.2-1.7-.5-2.6-2.2-2.2-3.9l1-3.6-3.3,1.8c-.8.4-1.6.5-2.4.3-.8-.2-1.5-.7-1.9-1.5-.8-1.5-.3-3.4,1.2-4.3l3.3-1.8-3.6-1c-1.7-.5-2.6-2.2-2.2-3.9.5-1.7,2.2-2.6,3.9-2.2Z" style="fill: #242145;"/>
            <path d="m828.2,28.8l3.6,1-1.8-3.3c-.8-1.5-.3-3.4,1.2-4.3,1.5-.8,3.4-.3,4.3,1.2l1.8,3.3,1-3.6c.5-1.7,2.2-2.6,3.9-2.2s2.6,2.2,2.2,3.9l-1,3.6,3.3-1.8c1.5-.8,3.4-.3,4.3,1.2.8,1.5.3,3.4-1.2,4.3l-3.3,1.8,3.6,1c1.7.5,2.6,2.2,2.2,3.9-.5,1.7-2.2,2.6-3.9,2.2l-3.6-1,1.8,3.3c.8,1.5.3,3.4-1.2,4.3-.8.4-1.6.5-2.4.3-.8-.2-1.5-.7-1.9-1.5l-1.8-3.3-1,3.6c-.5,1.7-2.2,2.6-3.9,2.2-1.7-.5-2.6-2.2-2.2-3.9l1-3.6-3.3,1.8c-.8.4-1.6.5-2.4.3-.8-.2-1.5-.7-1.9-1.5-.8-1.5-.3-3.4,1.2-4.3l3.3-1.8-3.6-1c-1.7-.5-2.6-2.2-2.2-3.9.5-1.7,2.2-2.6,3.9-2.2Z" style="fill: #242145;"/>
            <path d="m794.9,19.4l3.6,1-1.8-3.3c-.8-1.5-.3-3.4,1.2-4.3,1.5-.8,3.4-.3,4.3,1.2l1.8,3.3,1-3.6c.5-1.7,2.2-2.6,3.9-2.2,1.7.5,2.6,2.2,2.2,3.9l-1,3.6,3.3-1.8c1.5-.8,3.4-.3,4.3,1.2.8,1.5.3,3.4-1.2,4.3l-3.3,1.8,3.6,1c1.7.5,2.6,2.2,2.2,3.9-.5,1.7-2.2,2.6-3.9,2.2l-3.6-1,1.8,3.3c.8,1.5.3,3.4-1.2,4.3-.8.4-1.6.5-2.4.3s-1.5-.7-1.9-1.5l-1.8-3.3-1,3.6c-.5,1.7-2.2,2.6-3.9,2.2-1.7-.5-2.6-2.2-2.2-3.9l1-3.6-3.3,1.8c-.8.4-1.6.5-2.4.3s-1.5-.7-1.9-1.5c-.8-1.5-.3-3.4,1.2-4.3l3.3-1.8-3.6-1c-1.7-.5-2.6-2.2-2.2-3.9s2.2-2.6,3.9-2.2Z" style="fill: #242145;"/>
          </g>
        </g>
      </g>
      <g>
        <rect x="1293.5" y="26.6" width="230.9" height="57.5" rx="28.7" ry="28.7" transform="translate(38.2 386) rotate(-15.8)" style="fill: #242145;"/>
        <g>
          <path d="m1518.1,25.5c0,12.5-8.3,24.1-20.9,27.6l-166.8,47.2c-12.5,3.5-25.5-1.8-32.1-12.2-1.5-2.3-2.6-4.8-3.4-7.6-.7-2.6-1.1-5.2-1.1-7.8,0-12.5,8.3-24.1,20.9-27.6L1473.8,0h29c6.3,3.3,11.4,9.1,13.9,16.3.1.4.3.9.4,1.3.7,2.6,1.1,5.2,1.1,7.8Z" style="fill: #fff;"/>
          <g>
            <path d="m1332.9,66.5l-3.6,1,1.8-3.3c.8-1.5.3-3.4-1.2-4.3-1.5-.8-3.4-.3-4.3,1.2l-1.8,3.3-1-3.6c-.5-1.7-2.2-2.6-3.9-2.2-1.7.5-2.6,2.2-2.2,3.9l1,3.6-3.3-1.8c-1.5-.8-3.4-.3-4.3,1.2-.8,1.5-.3,3.4,1.2,4.3l3.3,1.8-3.6,1c-1.7.5-2.6,2.2-2.2,3.9.5,1.7,2.2,2.6,3.9,2.2l3.6-1-1.8,3.3c-.8,1.5-.3,3.4,1.2,4.3.8.4,1.6.5,2.4.3s1.5-.7,1.9-1.5l1.8-3.3,1,3.6c.5,1.7,2.2,2.6,3.9,2.2s2.6-2.2,2.2-3.9l-1-3.6,3.3,1.8c.8.4,1.6.5,2.4.3.8-.2,1.5-.7,1.9-1.5.8-1.5.3-3.4-1.2-4.3l-3.3-1.8,3.6-1c1.7-.5,2.6-2.2,2.2-3.9-.5-1.7-2.2-2.6-3.9-2.2Z" style="fill: #242145;"/>
            <path d="m1366.1,57.1l-3.6,1,1.8-3.3c.8-1.5.3-3.4-1.2-4.3-1.5-.8-3.4-.3-4.3,1.2l-1.8,3.3-1-3.6c-.5-1.7-2.2-2.6-3.9-2.2s-2.6,2.2-2.2,3.9l1,3.6-3.3-1.8c-1.5-.8-3.4-.3-4.3,1.2-.8,1.5-.3,3.4,1.2,4.3l3.3,1.8-3.6,1c-1.7.5-2.6,2.2-2.2,3.9.5,1.7,2.2,2.6,3.9,2.2l3.6-1-1.8,3.3c-.8,1.5-.3,3.4,1.2,4.3.8.4,1.6.5,2.4.3s1.5-.7,1.9-1.5l1.8-3.3,1,3.6c.5,1.7,2.2,2.6,3.9,2.2s2.6-2.2,2.2-3.9l-1-3.6,3.3,1.8c.8.4,1.6.5,2.4.3.8-.2,1.5-.7,1.9-1.5.8-1.5.3-3.4-1.2-4.3l-3.3-1.8,3.6-1c1.7-.5,2.6-2.2,2.2-3.9-.5-1.7-2.2-2.6-3.9-2.2Z" style="fill: #242145;"/>
            <path d="m1399.4,47.7l-3.6,1,1.8-3.3c.8-1.5.3-3.4-1.2-4.3-1.5-.8-3.4-.3-4.3,1.2l-1.8,3.3-1-3.6c-.5-1.7-2.2-2.6-3.9-2.2-1.7.5-2.6,2.2-2.2,3.9l1,3.6-3.3-1.8c-1.5-.8-3.4-.3-4.3,1.2-.8,1.5-.3,3.4,1.2,4.3l3.3,1.8-3.6,1c-1.7.5-2.6,2.2-2.2,3.9.5,1.7,2.2,2.6,3.9,2.2l3.6-1-1.8,3.3c-.8,1.5-.3,3.4,1.2,4.3.8.4,1.6.5,2.4.3s1.5-.7,1.9-1.5l1.8-3.3,1,3.6c.5,1.7,2.2,2.6,3.9,2.2s2.6-2.2,2.2-3.9l-1-3.6,3.3,1.8c.8.4,1.6.5,2.4.3s1.5-.7,1.9-1.5c.8-1.5.3-3.4-1.2-4.3l-3.3-1.8,3.6-1c1.7-.5,2.6-2.2,2.2-3.9-.5-1.7-2.2-2.6-3.9-2.2Z" style="fill: #242145;"/>
            <path d="m1432.7,38.2l-3.6,1,1.8-3.3c.8-1.5.3-3.4-1.2-4.3-1.5-.8-3.4-.3-4.3,1.2l-1.8,3.3-1-3.6c-.5-1.7-2.2-2.6-3.9-2.2s-2.6,2.2-2.2,3.9l1,3.6-3.3-1.8c-1.5-.8-3.4-.3-4.3,1.2-.8,1.5-.3,3.4,1.2,4.3l3.3,1.8-3.6,1c-1.7.5-2.6,2.2-2.2,3.9.5,1.7,2.2,2.6,3.9,2.2l3.6-1-1.8,3.3c-.8,1.5-.3,3.4,1.2,4.3.8.4,1.6.5,2.4.3.8-.2,1.5-.7,1.9-1.5l1.8-3.3,1,3.6c.5,1.7,2.2,2.6,3.9,2.2,1.7-.5,2.6-2.2,2.2-3.9l-1-3.6,3.3,1.8c.8.4,1.6.5,2.4.3s1.5-.7,1.9-1.5c.8-1.5.3-3.4-1.2-4.3l-3.3-1.8,3.6-1c1.7-.5,2.6-2.2,2.2-3.9-.5-1.7-2.2-2.6-3.9-2.2Z" style="fill: #242145;"/>
            <path d="m1465.9,28.8l-3.6,1,1.8-3.3c.8-1.5.3-3.4-1.2-4.3-1.5-.8-3.4-.3-4.3,1.2l-1.8,3.3-1-3.6c-.5-1.7-2.2-2.6-3.9-2.2s-2.6,2.2-2.2,3.9l1,3.6-3.3-1.8c-1.5-.8-3.4-.3-4.3,1.2-.8,1.5-.3,3.4,1.2,4.3l3.3,1.8-3.6,1c-1.7.5-2.6,2.2-2.2,3.9.5,1.7,2.2,2.6,3.9,2.2l3.6-1-1.8,3.3c-.8,1.5-.3,3.4,1.2,4.3.8.4,1.6.5,2.4.3.8-.2,1.5-.7,1.9-1.5l1.8-3.3,1,3.6c.5,1.7,2.2,2.6,3.9,2.2,1.7-.5,2.6-2.2,2.2-3.9l-1-3.6,3.3,1.8c.8.4,1.6.5,2.4.3s1.5-.7,1.9-1.5c.8-1.5.3-3.4-1.2-4.3l-3.3-1.8,3.6-1c1.7-.5,2.6-2.2,2.2-3.9s-2.2-2.6-3.9-2.2Z" style="fill: #242145;"/>
            <path d="m1499.2,19.4l-3.6,1,1.8-3.3c.8-1.5.3-3.4-1.2-4.3-1.5-.8-3.4-.3-4.3,1.2l-1.8,3.3-1-3.6c-.5-1.7-2.2-2.6-3.9-2.2-1.7.5-2.6,2.2-2.2,3.9l1,3.6-3.3-1.8c-1.5-.8-3.4-.3-4.3,1.2-.8,1.5-.3,3.4,1.2,4.3l3.3,1.8-3.6,1c-1.7.5-2.6,2.2-2.2,3.9s2.2,2.6,3.9,2.2l3.6-1-1.8,3.3c-.8,1.5-.3,3.4,1.2,4.3.8.4,1.6.5,2.4.3s1.5-.7,1.9-1.5l1.8-3.3,1,3.6c.5,1.7,2.2,2.6,3.9,2.2s2.6-2.2,2.2-3.9l-1-3.6,3.3,1.8c.8.4,1.6.5,2.4.3s1.5-.7,1.9-1.5c.8-1.5.3-3.4-1.2-4.3l-3.3-1.8,3.6-1c1.7-.5,2.6-2.2,2.2-3.9-.5-1.7-2.2-2.6-3.9-2.2Z" style="fill: #242145;"/>
          </g>
        </g>
      </g>
      <g>
        <rect x="251.9" y="26.6" width="230.9" height="57.5" rx="28.7" ry="28.7" transform="translate(-1.2 102.2) rotate(-15.8)" style="fill: #242145;"/>
        <g>
          <path d="m476.5,25.5c0,12.5-8.3,24.1-20.9,27.7l-166.8,47.2c-12.5,3.5-25.5-1.8-32.1-12.3-1.5-2.3-2.6-4.8-3.4-7.6-.7-2.6-1.1-5.3-1.1-7.9,0-12.5,8.3-24.1,20.9-27.6L432.1,0h29c6.4,3.3,11.5,9.1,13.9,16.4.1.4.3.8.4,1.3.7,2.6,1.1,5.2,1.1,7.8Z" style="fill: #fff;"/>
          <g>
            <path d="m291.2,66.5l-3.6,1,1.8-3.3c.8-1.5.3-3.4-1.2-4.3-1.5-.8-3.4-.3-4.3,1.2l-1.8,3.3-1-3.6c-.5-1.7-2.2-2.6-3.9-2.2s-2.6,2.2-2.2,3.9l1,3.6-3.3-1.8c-1.5-.8-3.4-.3-4.3,1.2-.8,1.5-.3,3.4,1.2,4.3l3.3,1.8-3.6,1c-1.7.5-2.6,2.2-2.2,3.9.5,1.7,2.2,2.6,3.9,2.2l3.6-1-1.8,3.3c-.8,1.5-.3,3.4,1.2,4.3.8.4,1.6.5,2.4.3s1.5-.7,1.9-1.5l1.8-3.3,1,3.6c.5,1.7,2.2,2.6,3.9,2.2s2.6-2.2,2.2-3.9l-1-3.6,3.3,1.8c.8.4,1.6.5,2.4.3.8-.2,1.5-.7,1.9-1.5.8-1.5.3-3.4-1.2-4.3l-3.3-1.8,3.6-1c1.7-.5,2.6-2.2,2.2-3.9-.5-1.7-2.2-2.6-3.9-2.2Z" style="fill: #242145;"/>
            <path d="m324.5,57.1l-3.6,1,1.8-3.3c.8-1.5.3-3.4-1.2-4.3-1.5-.8-3.4-.3-4.3,1.2l-1.8,3.3-1-3.6c-.5-1.7-2.2-2.6-3.9-2.2s-2.6,2.2-2.2,3.9l1,3.6-3.3-1.8c-1.5-.8-3.4-.3-4.3,1.2-.8,1.5-.3,3.4,1.2,4.3l3.3,1.8-3.6,1c-1.7.5-2.6,2.2-2.2,3.9.5,1.7,2.2,2.6,3.9,2.2l3.6-1-1.8,3.3c-.8,1.5-.3,3.4,1.2,4.3.8.4,1.6.5,2.4.3s1.5-.7,1.9-1.5l1.8-3.3,1,3.6c.5,1.7,2.2,2.6,3.9,2.2s2.6-2.2,2.2-3.9l-1-3.6,3.3,1.8c.8.4,1.6.5,2.4.3.8-.2,1.5-.7,1.9-1.5.8-1.5.3-3.4-1.2-4.3l-3.3-1.8,3.6-1c1.7-.5,2.6-2.2,2.2-3.9-.5-1.7-2.2-2.6-3.9-2.2Z" style="fill: #242145;"/>
            <path d="m357.7,47.7l-3.6,1,1.8-3.3c.8-1.5.3-3.4-1.2-4.3-1.5-.8-3.4-.3-4.3,1.2l-1.8,3.3-1-3.6c-.5-1.7-2.2-2.6-3.9-2.2-1.7.5-2.6,2.2-2.2,3.9l1,3.6-3.3-1.8c-1.5-.8-3.4-.3-4.3,1.2-.8,1.5-.3,3.4,1.2,4.3l3.3,1.8-3.6,1c-1.7.5-2.6,2.2-2.2,3.9s2.2,2.6,3.9,2.2l3.6-1-1.8,3.3c-.8,1.5-.3,3.4,1.2,4.3.8.4,1.6.5,2.4.3s1.5-.7,1.9-1.5l1.8-3.3,1,3.6c.5,1.7,2.2,2.6,3.9,2.2s2.6-2.2,2.2-3.9l-1-3.6,3.3,1.8c.8.4,1.6.5,2.4.3s1.5-.7,1.9-1.5c.8-1.5.3-3.4-1.2-4.3l-3.3-1.8,3.6-1c1.7-.5,2.6-2.2,2.2-3.9-.5-1.7-2.2-2.6-3.9-2.2Z" style="fill: #242145;"/>
            <path d="m391,38.2l-3.6,1,1.8-3.3c.8-1.5.3-3.4-1.2-4.3-1.5-.8-3.4-.3-4.3,1.2l-1.8,3.3-1-3.6c-.5-1.7-2.2-2.6-3.9-2.2s-2.6,2.2-2.2,3.9l1,3.6-3.3-1.8c-1.5-.8-3.4-.3-4.3,1.2-.8,1.5-.3,3.4,1.2,4.3l3.3,1.8-3.6,1c-1.7.5-2.6,2.2-2.2,3.9.5,1.7,2.2,2.6,3.9,2.2l3.6-1-1.8,3.3c-.8,1.5-.3,3.4,1.2,4.3.8.4,1.6.5,2.4.3.8-.2,1.5-.7,1.9-1.5l1.8-3.3,1,3.6c.5,1.7,2.2,2.6,3.9,2.2,1.7-.5,2.6-2.2,2.2-3.9l-1-3.6,3.3,1.8c.8.4,1.6.5,2.4.3s1.5-.7,1.9-1.5c.8-1.5.3-3.4-1.2-4.3l-3.3-1.8,3.6-1c1.7-.5,2.6-2.2,2.2-3.9-.5-1.7-2.2-2.6-3.9-2.2Z" style="fill: #242145;"/>
            <path d="m424.3,28.8l-3.6,1,1.8-3.3c.8-1.5.3-3.4-1.2-4.3-1.5-.8-3.4-.3-4.3,1.2l-1.8,3.3-1-3.6c-.5-1.7-2.2-2.6-3.9-2.2-1.7.5-2.6,2.2-2.2,3.9l1,3.6-3.3-1.8c-1.5-.8-3.4-.3-4.3,1.2-.8,1.5-.3,3.4,1.2,4.3l3.3,1.8-3.6,1c-1.7.5-2.6,2.2-2.2,3.9.5,1.7,2.2,2.6,3.9,2.2l3.6-1-1.8,3.3c-.8,1.5-.3,3.4,1.2,4.3.8.4,1.6.5,2.4.3.8-.2,1.5-.7,1.9-1.5l1.8-3.3,1,3.6c.5,1.7,2.2,2.6,3.9,2.2,1.7-.5,2.6-2.2,2.2-3.9l-1-3.6,3.3,1.8c.8.4,1.6.5,2.4.3s1.5-.7,1.9-1.5c.8-1.5.3-3.4-1.2-4.3l-3.3-1.8,3.6-1c1.7-.5,2.6-2.2,2.2-3.9-.5-1.7-2.2-2.6-3.9-2.2Z" style="fill: #242145;"/>
            <path d="m457.5,19.4l-3.6,1,1.8-3.3c.8-1.5.3-3.4-1.2-4.3-1.5-.8-3.4-.3-4.3,1.2l-1.8,3.3-1-3.6c-.5-1.7-2.2-2.6-3.9-2.2-1.7.5-2.6,2.2-2.2,3.9l1,3.6-3.3-1.8c-1.5-.8-3.4-.3-4.3,1.2-.8,1.5-.3,3.4,1.2,4.3l3.3,1.8-3.6,1c-1.7.5-2.6,2.2-2.2,3.9s2.2,2.6,3.9,2.2l3.6-1-1.8,3.3c-.8,1.5-.3,3.4,1.2,4.3.8.4,1.6.5,2.4.3s1.5-.7,1.9-1.5l1.8-3.3,1,3.6c.5,1.7,2.2,2.6,3.9,2.2s2.6-2.2,2.2-3.9l-1-3.6,3.3,1.8c.8.4,1.6.5,2.4.3s1.5-.7,1.9-1.5c.8-1.5.3-3.4-1.2-4.3l-3.3-1.8,3.6-1c1.7-.5,2.6-2.2,2.2-3.9s-2.2-2.6-3.9-2.2Z" style="fill: #242145;"/>
          </g>
        </g>
      </g>
    </g>
  </g>
</svg>