<?xml version="1.0" encoding="UTF-8"?>
<svg xmlns="http://www.w3.org/2000/svg" xmlns:xlink="http://www.w3.org/1999/xlink" viewBox="0 0 1800 720">
  <defs>
    <linearGradient id="linear-gradient" x1="900" y1="1648.9" x2="900" y2="2362.7" gradientTransform="translate(0 2372) scale(1 -1)" gradientUnits="userSpaceOnUse">
      <stop offset="0" stop-color="#5765f1"/>
      <stop offset="1" stop-color="#6bf"/>
    </linearGradient>
    <linearGradient id="linear-gradient-2" x1="886.2" y1="399.6" x2="752.6" y2="261.5" gradientUnits="userSpaceOnUse">
      <stop offset="0" stop-color="#eef0fb"/>
      <stop offset="1" stop-color="#fff"/>
    </linearGradient>
    <linearGradient id="linear-gradient-3" x1="382.4" y1="80.7" x2="340.5" y2="37.4" xlink:href="#linear-gradient-2"/>
    <linearGradient id="linear-gradient-4" x1="-114.6" y1="-530.4" x2="-169.1" y2="-586.8" gradientTransform="translate(1607.9 737.8) rotate(-15)" xlink:href="#linear-gradient-2"/>
    <linearGradient id="linear-gradient-5" x1="1037" y1="174.5" x2="959.1" y2="93.9" gradientTransform="translate(2556.3 737.8) rotate(-165) scale(1 -1)" xlink:href="#linear-gradient-2"/>
    <linearGradient id="linear-gradient-6" x1="-41.1" y1="-129.4" x2="-123.4" y2="-214.4" gradientTransform="translate(427.9 737.8) rotate(-15)" xlink:href="#linear-gradient-2"/>
  </defs>
  <g id="background">
    <rect width="1800" height="720" style="fill: url(#linear-gradient);"/>
  </g>
  <g id="Blog_5" data-name="Blog 5">
    <g>
      <path d="m1140,558.7c-26.5,2.1-129,7.7-187.3,10.8,0,.2,0,.3,0,.5,0,3.9-1.6,7.4-4.1,9.9-2.5,2.6-6,4.1-9.9,4.1h-77.4c-7.7,0-14-6.3-14-14s0-.3,0-.5c-58.2-3.1-160.8-8.7-187.3-10.8-37.5-3-44.7-10.1-41.5-43.5,4.3-45.9,26.3-189.3,27.3-199.6,1-10.3,3.3-18.7,21.4-18,12.3.5,161.3,111.3,254.5,181.5,53.4-49.6,192.2-230,206.8-230.5,18-.7,20.4,7.7,21.4,18,1,10.3,27.3,202.8,31.7,248.7,3.2,33.4-4,40.5-41.5,43.5Z" style="fill: #3343d8;"/>
      <path d="m932.3,556.7h-67s9-16,33.5-16,33.5,16,33.5,16Z" style="fill: #242145;"/>
      <path d="m898.8,540.7l2.5-254.6c39.4-88.2,168.6-29.5,208.1-72l19,248.1c-70,62.5-168.1,1-229.6,78.5Z" style="fill: #fff;"/>
      <path d="m1165.5,520.2l-28.7-264.8s-13.7-13.9-27.3-41.4c-13.7-27.5,0,0,0,0l-23.1,155.3,29.1,144.1,50,6.8" style="fill: #dddfff;"/>
      <path d="m679.9,239.2s-13.7,21.3-27.7,24.8l-20,256.2,52.5-26-4.8-255" style="fill: #afb3ff;"/>
      <path d="m655.9,489.3s-5.2,15.5-23.7,30.9l233.1,36.5s9-16,33.5-16c24.5,0,0,0,0,0l-33-59-196.6-19.5" style="fill: #afb3ff;"/>
      <path d="m898.2,540.9l3.1-254.8c-97.4-72-178.1,3.2-221.5-46.9l-24,250.1c75.4,48.7,185.5-27.2,242.3,51.5Z" style="fill: #d0d3ff;"/>
      <path d="m898.2,540.9l3.1-254.8c0-87.6-159.1-31-201.7-112.6l-6.9,262.2c67.7,75.5,152.1,11,205.5,105.2Z" style="fill: #e2e4ff;"/>
      <path d="m1128.5,462.1s6,37.5,37,58l-233.1,36.5s-9-16-33.5-16,0,0,0,0l33-59,196.6-19.5" style="fill: #afb3ff;"/>
      <path d="m898.8,540.9l2.5-254.8c0-87.6-127.1-68.5-161.1-150.1l-5.5,262.2c54,75.5,131.6,28,164.1,142.8Z" style="fill: url(#linear-gradient-2);"/>
      <path d="m898.8,540.7l2.5-254.6c39.4-88.2,168.6-29.5,208.1-72l19,248.1c-70,62.5-168.1,1-229.6,78.5Z" style="fill: #fff;"/>
    </g>
    <g>
      <path d="m508.7,39.6c-1.2,7.2-12.3,108.1-17.7,139.9-3.9,23.2-10,26.7-35.9,21.9-18.3-3.4-88.7-18.2-128.6-26.6,0,.1,0,.2,0,.4-1.4,5.2-6.8,8.3-12,6.9l-52.3-14c-2.6-.7-4.7-2.4-6-4.6-1.3-2.2-1.7-4.8-1-7.4,0-.1,0-.2.1-.4-38.8-12.7-107.2-35-124.7-41.2-24.8-8.8-28.4-14.9-20.2-37,5-13.4,18.1-45.4,31.3-77.5h100.8c18.4,39.3,37.8,80.5,50.1,100.1,5.8-2.3,11.8-4.7,17.9-7.2l.4-.2c42.5-17.1,94-37.5,132.2-51.7,12.3-4.6,23.3-8.5,32.1-11.5,4.5-1.5,8.5-2.8,11.7-3.8,2.1-.6,4-1.1,5.6-1.5,2.6-.6,4.3-.9,5.1-.7,7,1.6,10,4.2,11.1,7.5.8,2.5.6,5.4,0,8.5Z" style="fill: #3343d8;"/>
      <path d="m271.3,150.7l45.3,12.1s-3.2-12.4-19.8-16.9c-16.6-4.4-25.6,4.7-25.6,4.7Z" style="fill: #242145;"/>
      <path d="m334.4,0l-23.9,92.9-13.7,53.1c-25-57.6-90.9-43.4-129.9-81.2-4-3.9-7.8-8.4-11.2-13.5L173.8,0h160.6Z" style="fill: #fff;"/>
      <polygon points="199.2 0 170.9 56.9 167 64.8 155.3 88.2 120.3 83.8 152.7 0 199.2 0" style="fill: #dddfff;"/>
      <path d="m513.7,3.6l-5.1,27.4-27.8,149.4-25.1-22.1-5.7-5,5.9-20.5,30.9-107,7.4-25.8h15.1c1.3,1.5,2.8,2.7,4.4,3.6Z" style="fill: #afb3ff;"/>
      <path d="m470.4,155.3s.7,11.4,10.4,25.2l-164.3-17.5s-3.2-12.5-19.8-16.9c-16.6-4.4,0,0,0,0l33-33.9,136.5,22.4,4.1,20.8Z" style="fill: #afb3ff;"/>
      <path d="m496.5,0l-4.1,24.2-22,131c-4.9,1.6-9.8,2.5-14.7,3-54.9,5.3-110-51.4-158.4-12.2h0s0,0-.1.1h0c0-.1.2-.9.2-.9l.2-.6,13.2-52L334.5,0h162Z" style="fill: #d0d3ff;"/>
      <path d="m482.2,0l-7.1,29.5-19.8,82.7c-13.8,9-26.9,12.8-39.5,13.9-41.4,3.6-77.6-21.4-118.4,20h0s0,0,0,.1h0c0-.1.2-.9.2-.9l.2-.6,13.2-52L334.5,0h147.7Z" style="fill: #e2e4ff;"/>
      <path d="m155.8,51.3s-10.9,24.3-35.5,32.5l151,66.9s9-9.2,25.6-4.8c16.6,4.4,0,0,0,0l-11.6-45.9-129.4-48.8h0Z" style="fill: #afb3ff;"/>
      <path d="m453.1,0l-10.1,41.1-9.4,38.2c-49.9,41-93.5-4.3-136,65.5-.2.4-.4.7-.7,1.1,0,0,0,0,0,.1,0,0,0,0,0,0,0,0,0,0,0,0h0c0-.1,13.7-53.2,13.7-53.2L334.4,0h118.7Z" style="fill: url(#linear-gradient-3);"/>
      <path d="m334.4,0l-23.9,92.9-13.7,53.1c-25-57.6-90.9-43.4-129.9-81.2-4-3.9-7.8-8.4-11.2-13.5L173.8,0h160.6Z" style="fill: #fff;"/>
    </g>
    <g>
      <path d="m1476.8,291.1c-10.2,3.6-50.1,16.7-72.7,24.1,0,0,0,.1,0,.2.4,1.5.2,3.1-.6,4.3-.7,1.3-1.9,2.3-3.5,2.7l-30.5,8.2c-3.1.8-6.2-1-7-4s0-.1,0-.2c-23.3,4.9-64.4,13.6-75,15.5-15.1,2.8-18.7.7-21-12.8-3.1-18.6-9.6-77.4-10.3-81.6-.7-4.2-.7-7.7,6.5-9.4,4.9-1.1,75.4,26.9,119.6,44.7,15.8-25.2,51.5-111,57.2-112.8,7-2.2,8.8.9,10.3,4.9,1.5,4,32.2,77.1,38.8,94.7,4.8,12.8,2.7,16.4-11.8,21.6Z" style="fill: #3343d8;"/>
      <path d="m1394.7,312.2l-26.4,7.1s1.9-7.3,11.5-9.9c9.7-2.6,14.9,2.8,14.9,2.8Z" style="fill: #242145;"/>
      <path d="m1379.8,309.4l-25.9-100.7c6.2-39,63.4-29.5,74.5-50.4l33.7,95.9c-21,32.1-66.2,18.2-82.3,55.2Z" style="fill: #fff;"/>
      <path d="m1482.8,273.2l-39.3-101.4s-6.9-4-15.2-13.4c-8.3-9.4,0,0,0,0l7.3,63.7,26.7,53.8,20.5-2.6" style="fill: #dddfff;"/>
      <path d="m1261.6,213.7s-3.1,9.9-8.3,12.7l19.2,103.1,18-15.8-28.9-100.1" style="fill: #afb3ff;"/>
      <path d="m1278.5,314.9s-.4,6.7-6.1,14.7l95.8-10.2s1.9-7.3,11.5-9.9c9.7-2.6,0,0,0,0l-19.3-19.8-79.6,13.1" style="fill: #afb3ff;"/>
      <path d="m1379.6,309.6l-25.7-100.8c-46-18.1-69.9,20.1-92.3,4.9l17,101.2c34.9,11.2,70.3-30.3,101-5.3Z" style="fill: #d0d3ff;"/>
      <path d="m1379.6,309.6l-25.7-100.8c-9.3-34.5-66,4.6-91.5-23.1l25,104.1c34.7,22.6,61.2-11.7,92.2,19.8Z" style="fill: #e2e4ff;"/>
      <path d="m1462.1,254.2s6.3,14.2,20.7,19l-88.1,39s-5.2-5.4-14.9-2.8c-9.7,2.6,0,0,0,0l6.8-26.8,75.5-28.5" style="fill: #afb3ff;"/>
      <path d="m1379.8,309.5l-25.9-100.8c-9.3-34.5-57.4-13.6-79.4-42.2l25.5,104c29.3,24.1,54.9-2.9,79.8,39Z" style="fill: url(#linear-gradient-4);"/>
      <path d="m1379.8,309.4l-25.9-100.7c6.2-39,63.4-29.5,74.5-50.4l33.7,95.9c-21,32.1-66.2,18.2-82.3,55.2Z" style="fill: #fff;"/>
    </g>
    <g>
      <path d="m1657.6,626.9c-.8,4.7-6.7,57.8-11.3,93.1h-20l-.6,3.3-.6-3.3h-190c-32.9-10.7-79.6-26.1-92.6-30.7-20.7-7.3-23.7-12.4-16.8-30.8,9.4-25.2,53.3-129.6,55.4-135.3,2-5.4,4.5-9.6,13.4-7.3.4.1.9.2,1.4.4,1.3.4,3.6,3.8,6.8,9.4,1.5,2.7,3.2,5.9,5.1,9.5,18.6,36.3,52.5,114.7,69.9,142.2,4.8-1.9,9.8-4,15-6,.1,0,.2,0,.3-.1,35.4-14.2,78.3-31.2,110.1-43.1,10.3-3.8,19.4-7.1,26.7-9.6,3.8-1.3,7-2.3,9.8-3.1,1.8-.5,3.3-1,4.6-1.3,2.2-.5,3.6-.7,4.3-.6,5.8,1.3,8.3,3.5,9.3,6.3.7,2.1.5,4.5,0,7.1Z" style="fill: #3343d8;"/>
      <path d="m1490.4,720h-28.8l-1.8-.5h0s0,0,0,0c0,0,0-.1.2-.1,0,0,0,0,.1-.1.5-.5,1.6-1.3,3.2-2.1,3.5-1.8,9.5-3.7,17.7-1.5,0,0,0,0,0,0,.1,0,.2,0,.3.1,0,0,0,0,0,0h0c3.8,1.1,6.7,2.6,8.9,4.3Z" style="fill: #242145;"/>
      <path d="m1481.1,715.6l37-143.9c-8.9-55.6-90.5-42.1-106.4-72l-48.2,136.9c30,45.8,94.6,25.9,117.5,78.9Z" style="fill: #fff;"/>
      <path d="m1333.9,663.7l56.1-144.9s9.8-5.8,21.7-19.2c11.9-13.4,0,0,0,0l-10.4,91-38.1,76.8-29.2-3.7h0Z" style="fill: #dddfff;"/>
      <path d="m1661.8,596.9l-4.2,22.9-18.6,100.2h-12.6l-.6,3.3-.6-3.3h-15.9l4.5-15.4,25.7-89.2,10.6-36.7s4.5,14.1,11.9,18.2Z" style="fill: #afb3ff;"/>
      <path d="m1625.1,720h-134.7c-2.2-1.7-5.2-3.3-8.9-4.3h0s0,0,0,0h0c-.1,0-.2,0-.3,0h0s0,0,0,0l.4-.5,27-27.7,71.6,11.8,33.5,5.5,8.6,1.4,2.8,14Z" style="fill: #afb3ff;"/>
      <path d="m1649.9,578.7l-5.9,35.4-17.8,105.9-.6,3.3-.6-3.3h-50.9c-32.4-10.3-64-27.6-92.7-4.3h0s0,0,0,0h0c0,0,0,0,0,0h0s.2-.6.2-.6v-.5c.1,0,11.1-43.3,11.1-43.3l25.4-99.5c42.9-16.9,72.4.5,96.5,8.6,8.3,2.8,16,4.5,23.4,3.3,4.1-.6,8-2.1,11.9-4.8Z" style="fill: #d0d3ff;"/>
      <path d="m1481.4,715.8l36.7-144.1c13.2-49.3,94.3,6.5,130.7-33l-35.7,148.8c-49.5,32.4-87.4-16.8-131.7,28.3Z" style="fill: #e2e4ff;"/>
      <path d="m1363.5,636.6s-9,20.2-29.6,27.1l125.8,55.8s7.5-7.7,21.3-4c13.8,3.7,0,0,0,0l-9.7-38.2-107.8-40.7h0Z" style="fill: #afb3ff;"/>
      <path d="m1481,715.7l37.1-144c13.2-49.3,81.9-19.4,113.4-60.2l-36.5,148.5c-41.9,34.4-78.4-4.1-114,55.7Z" style="fill: url(#linear-gradient-5);"/>
      <path d="m1481.1,715.6l37-143.9c-8.9-55.6-90.5-42.1-106.4-72l-48.2,136.9c30,45.8,94.6,25.9,117.5,78.9Z" style="fill: #fff;"/>
    </g>
    <g>
      <path d="m531.1,677.7c-15.4,5.5-75.6,25.2-109.7,36.3,0,.1,0,.2,0,.3.5,2,.3,4-.4,5.7h-52.5l-1.2.3s0-.1,0-.3h-155.8c-5.1-36.3-12.4-102.8-13.3-108.2-.4-2.7-.7-5.3,0-7.5,1-2.9,3.6-5.2,9.8-6.6.7-.2,2.2,0,4.5.6,1.4.3,3,.8,4.9,1.3,2.9.9,6.4,2,10.3,3.3,7.8,2.6,17.4,6.1,28.2,10.2,33.6,12.5,78.9,30.5,116.3,45.5.1,0,.2,0,.3.1,5.5,2.2,10.7,4.3,15.8,6.4,18.3-29.1,54.1-111.8,73.8-150.2,1.9-3.8,3.8-7.2,5.4-10,3.3-5.9,5.8-9.5,7.2-9.9.5-.1,1-.3,1.4-.4,9.4-2.4,12,2,14.2,7.7,2.2,6,48.6,116.3,58.5,142.9,7.2,19.4,4.1,24.8-17.8,32.5Z" style="fill: #3343d8;"/>
      <path d="m407.2,709.6l-38.7,10.4-1.2.3s0-.1,0-.3c.6-1.8,4.1-10.8,16.9-14.4h0s0,0,0,0c.1,0,.2,0,.3,0h0c14.6-3.9,22.5,4.2,22.5,4.2Z" style="fill: #242145;"/>
      <path d="m384.7,705.4l-39.1-151.9c9.4-58.8,95.6-44.4,112.3-76l50.9,144.6c-31.7,48.4-99.9,27.4-124.1,83.3Z" style="fill: #fff;"/>
      <path d="m540.1,650.7l-59.3-153s-10.4-6.1-22.9-20.3c-12.5-14.2,0,0,0,0l11,96.1,40.3,81.1,30.9-3.9h0Z" style="fill: #dddfff;"/>
      <path d="m249.9,711.9l-5,4.4-4.2,3.7h-20.8l-21.5-115.7-4.5-24.2c7.8-4.3,12.5-19.2,12.5-19.2l11.2,38.7,27.2,94.2,5.2,18.1Z" style="fill: #afb3ff;"/>
      <path d="m384.7,705.4h0s0,0,0,0c-.1,0-.2,0-.3,0,0,0,0,0,0,0h0c-12.8,3.6-16.3,12.6-16.9,14.4h-136.8c1.2-3.9,1.3-6.4,1.3-6.4l3.6-18.3,9.1-1.5,35.4-5.8,75.6-12.4,28.5,29.3.5.5h0Z" style="fill: #afb3ff;"/>
      <path d="m384.4,705.6l-38.8-152.1c-69.4-27.3-105.5,30.3-139.2,7.4l25.6,152.7c52.6,17,106-45.7,152.4-8Z" style="fill: #d0d3ff;"/>
      <path d="m384.4,705.6l-38.8-152.1c-14-52.1-99.6,6.9-138-34.8l37.7,157.1c52.3,34.2,92.2-17.7,139,29.9Z" style="fill: #e2e4ff;"/>
      <path d="m508.8,622.1s9.6,21.4,31.3,28.6l-132.9,58.9s-7.9-8.1-22.5-4.2c-14.6,3.9,0,0,0,0l10.2-40.4,113.9-43h0Z" style="fill: #afb3ff;"/>
      <path d="m384.7,705.5l-39.1-152c-14-52.1-86.5-20.5-119.8-63.6l38.5,156.9c44.2,36.3,82.7-4.3,120.4,58.8Z" style="fill: url(#linear-gradient-6);"/>
      <path d="m384.7,705.4l-39.1-151.9c9.4-58.8,95.6-44.4,112.3-76l50.9,144.6c-31.7,48.4-99.9,27.4-124.1,83.3Z" style="fill: #fff;"/>
    </g>
    <g>
      <polygon points="808.2 113.8 822.8 129.4 844.3 126.1 846 110 808.2 113.8" style="fill: #242145;"/>
      <g>
        <path d="m910.1,53.8c-13.1,1.6-72.7-10.2-72.7-10.2l-4.4,70.3,52.8-27.4,25.8-26.7-1.5-6Z" style="fill: #e2e4ff;"/>
        <path d="m825.5,1.6c-5,0-22,.5-22,.5l8,112,1.8,1,19.9-35.5-.2-70.5-7.5-7.5Z" style="fill: #e2e4ff;"/>
        <path d="m841.4,124.9c1.4-5.2-3.1-9.7-8.4-11.1,17.7-37.7,61-26.2,77.1-60l15.2,13.3-83.9,57.9h0Z" style="fill: #fff;"/>
        <path d="m813.3,115.1c5.7-11.7,25.2-65.9,12.2-113.5,0,0,10.6,9,22.9,9.4,3.9,23.1.8,66.4-15.4,102.8-12.9-3.5-19.7,1.3-19.7,1.3Z" style="fill: #fff;"/>
        <path d="m818.4,0c0,.4,0,.9,0,1.7-.6,14.4-4.4,96-5.1,111.6,0,.7,0,1.3,0,1.7,0,.6,0,.9,0,.9l-3.7-.8-88.3-18.9s-15.7-78-19.7-96.2h116.9Z" style="fill: #3343d8;"/>
        <path d="m721.1,96.2l91.9,19.7c-.8,3.3,6,5.9,15.9,8.5,8.4,2.3,11.4,2,12.4.5.7-1,1.7-1.8,2.8-2.6l80.9-56c1.7-1.2,4-.9,5.2.7,1.3,1.7.8,4.1-.9,5.3l-83.2,55.9c.8,3.6-2.1,7.7-5.8,6.7-10.3-2.7-107-28.7-113.1-30.3s-9.2-5.7-6.1-8.5Z" style="fill: #3343d8;"/>
      </g>
    </g>
    <g>
      <polygon points="1571 153.8 1556.4 169.4 1534.9 166.1 1533.2 150 1571 153.8" style="fill: #242145;"/>
      <g>
        <path d="m1469.1,93.8c13.1,1.6,72.7-10.2,72.7-10.2l4.4,70.3-52.8-27.4-25.8-26.7,1.5-6Z" style="fill: #e2e4ff;"/>
        <path d="m1553.7,41.6c5,0,22,.5,22,.5l-8,112-1.8,1-19.9-35.5.2-70.5,7.5-7.5Z" style="fill: #e2e4ff;"/>
        <path d="m1537.8,164.9c-1.4-5.2,3.1-9.7,8.4-11.1-17.7-37.7-61-26.2-77.1-60l-15.2,13.3,83.9,57.9" style="fill: #fff;"/>
        <path d="m1565.9,155.1c-5.7-11.7-25.2-65.9-12.2-113.5,0,0-10.6,9-22.9,9.4-3.9,23.1-.8,66.4,15.4,102.8,12.9-3.5,19.7,1.3,19.7,1.3Z" style="fill: #fff;"/>
        <path d="m1566.1,155.9s-5.1-108.8-5.3-116c-.2-7.2,0-9.5,12.9-9.5s91.9-3.3,97.8-3.2c5.9.1,9.3.3,7,9.9-2.4,9.6-20.4,99.1-20.4,99.1l-91.9,19.7Z" style="fill: #3343d8;"/>
        <path d="m1658.1,136.2l-91.9,19.7c.8,3.3-6,5.9-15.9,8.5-8.4,2.3-11.4,2-12.4.5-.7-1-1.7-1.8-2.8-2.6l-80.9-56c-1.7-1.2-4-.9-5.2.7s-.8,4.1.9,5.3l83.2,55.9c-.8,3.6,2.1,7.7,5.8,6.7,10.3-2.7,107-28.7,113.1-30.3,6-1.6,9.2-5.7,6.1-8.5Z" style="fill: #3343d8;"/>
      </g>
    </g>
    <g>
      <polygon points="271.4 385.6 292.7 386.3 305.6 368.7 295.4 356.1 271.4 385.6" style="fill: #242145;"/>
      <g>
        <path d="m301,271c-8.1,10.4-58.7,44.2-58.7,44.2l46.6,52.8,18-56.7-.6-37.2-5.3-3.2Z" style="fill: #e2e4ff;"/>
        <path d="m204.3,294c-3.6,3.5-15.2,15.9-15.2,15.9l84.8,73.5,2-.6-11-39.2-50-49.7h-10.6Z" style="fill: #e2e4ff;"/>
        <path d="m302.7,370c-2.7-4.6-9.1-4.6-13.8-1.9-14.2-39.2,24.6-61.7,12.1-97l20.1-1.4-18.4,100.3" style="fill: #fff;"/>
        <path d="m275.9,382.9c-4.2-12.3-28.7-64.4-71.6-88.9,0,0,13.8-1.1,22.8-9.5,19.1,13.6,47.5,46.4,61.9,83.6-11.6,6.7-13,14.8-13,14.8Z" style="fill: #fff;"/>
        <path d="m276.3,383.6s-73.4-80.5-78.3-85.8c-4.9-5.2-6.7-6.8-15.8,2.4-9.1,9.2-67.3,62.6-71.4,66.9-4.1,4.3-6.4,6.8,2,11.9,8.5,5.1,84.5,55.7,84.5,55.7l78.9-51.1Z" style="fill: #3343d8;"/>
        <path d="m197.3,434.7l78.9-51.1c1.7,2.9,8.4-.1,17.3-5.2,7.5-4.4,9.5-6.6,9.2-8.4-.2-1.2,0-2.5.2-3.8l17.6-96.8c.4-2,2.2-3.5,4.2-3.2,2.1.3,3.5,2.3,3.1,4.4l-19.4,98.4c3,2,4,6.9.6,8.9-9.2,5.3-95.9,55.4-101.4,58.5s-10.6,2.4-10.3-1.7Z" style="fill: #3343d8;"/>
      </g>
    </g>
    <g>
      <polygon points="1099 713.8 1097.8 715.1 1097.8 715.1 1093.2 720 1062.3 720 1061.2 710 1068.2 710.7 1072.9 711.2 1073.1 711.2 1074.1 711.3 1092.9 713.2 1093.1 713.2 1094 713.3 1095.8 713.5 1099 713.8" style="fill: #242145;"/>
      <g>
        <path d="m997.1,653.8c13.1,1.6,72.7-10.2,72.7-10.2l4.4,70.3-52.8-27.4-25.8-26.7,1.5-6Z" style="fill: #e2e4ff;"/>
        <path d="m1081.7,601.6c5,0,22,.5,22,.5l-8,112-1.8,1-19.9-35.5.2-70.5,7.5-7.5Z" style="fill: #e2e4ff;"/>
        <path d="m1074.2,713.8c-3.5.9-6.6,3.2-8,6.2h-7.6l-76.8-53,.5-.5,14.7-12.8c15.7,33.1,57.4,22.9,75.8,57.4.5.9.9,1.7,1.3,2.6Z" style="fill: #fff;"/>
        <path d="m1093.9,715.1c-5.7-11.7-25.2-65.9-12.2-113.5,0,0-10.6,9-22.9,9.4-3.9,23.1-.8,66.4,15.4,102.8,12.9-3.5,19.7,1.3,19.7,1.3Z" style="fill: #fff;"/>
        <path d="m1094.1,715.9s-5.1-108.8-5.3-116c-.2-7.2,0-9.5,12.9-9.5s91.9-3.3,97.8-3.2c5.9.1,9.3.3,7,9.9-2.4,9.6-20.4,99.1-20.4,99.1l-91.9,19.7Z" style="fill: #3343d8;"/>
        <path d="m1059.6,720h-10.8l-71-47.6c-1.7-1.2-2.2-3.6-.9-5.3,1.2-1.6,3.6-1.9,5.2-.7l.3.2,77.2,53.5Z" style="fill: #3343d8;"/>
        <path d="m1179.9,704.7c-3.1.8-30.2,8.1-57.3,15.3h-31.8c2.4-1.3,3.6-2.6,3.2-4.1l3.7-.8,88.3-18.9c3,2.7,0,6.9-6.1,8.5Z" style="fill: #3343d8;"/>
      </g>
    </g>
    <g>
      <path d="m1755.2,454.8c-21.7,4.4-35.2,12.9-41.9,21.7,2.5,6.4-3.5,13.2-7.9,9.4-4.7-4-53-36.7-61.3-51.3-1.7-2.7-4.1-9.6-6.1-15.8-.6-2-1.2-3.9-1.8-5.5-.7-2-1.3-4-2-6-.2-.7-.5-1.4-.7-2.1-.7-2.2-1.4-4.4-2.1-6.7-1.5-4.9-3-9.9-4.3-14.8,0-.1,0-.3-.1-.4-10.7-38.4-17.7-74.9-21-87.4-5.9-21.6,18.2-38.5,34.9-25l74.6,58.8c2.5,2,4.3,4.6,5.4,7.5,7.1,20.1,36.3,100.9,39.7,110.4,3.7,10.4-1.3,9.5-5.3,7.2Z" style="fill: #3343d8;"/>
      <path d="m1755.2,454.8c-21.7,4.4-35.2,12.9-41.9,21.7-1.3,1.7-2.4,3.4-3.2,5.1,0,0-36-27.6-49.7-38.8-14.9-12.1-19.7-25.4-6.4-34.7,8.8-6.2,19.5-4.4,30.8.8s69.8,45.6,69.8,45.6c.2.1.4.2.6.3Z" style="fill: #fff;"/>
      <path d="m1745.1,439.7c0,0-.2,0-.3,0l-49.3-32.1c0,0-.2-.2-.2-.3-1-3.1-3.1-5.8-5.8-7.6,0,0-.2-.2-.2-.3l-32.4-100.7c0-.2,0-.4.2-.6.2-.1.4-.1.6,0,1.2.9,2.5.6,3.3,0,.8-.6,1.5-1.7,1-3.1,0-.2,0-.4.2-.6.2-.1.4-.1.6,0l50.4,37.9c0,0,.1.1.2.2.9,2.7,2.6,5.1,4.9,6.9,0,0,.1.1.2.2l32,95.5c0,.2,0,.4-.2.6-.2.1-.4.1-.6,0-1.2-.8-2.5-.5-3.2.1-.8.6-1.4,1.7-.9,3.1,0,.2,0,.4-.2.6,0,0-.2.1-.3.1Zm-48.9-33l48.2,31.4c0-1.2.5-2.3,1.5-3,1-.7,2.2-1,3.3-.7l-31.6-94.2c-2.4-1.8-4.1-4.3-5.1-7.1l-49.3-37.1c0,1.2-.6,2.2-1.6,3s-2.2.9-3.3.5l31.9,99.4c2.8,1.9,4.9,4.6,6,7.8Z" style="fill: #a8b2fb;"/>
      <path d="m1675.6,397.4c-20.1-4.5-34.9,8.4-37.6,21.4-.6-2-1.2-3.9-1.8-5.5-.7-2-1.3-4-2-6-.2-.7-.5-1.4-.7-2.1-.7-2.2-1.4-4.4-2.1-6.7,13.7-22.9,39-17.6,39-17.6l5.1,16.4Z" style="fill: #a8b2fb;"/>
    </g>
    <path d="m1019.5,136.1c8-5.2,13.4-13.5,14.8-22.9l2.4-16c.1-.8.8-1.4,1.6-1.4h0c.8,0,1.5.6,1.6,1.4l2.4,16c1.4,9.4,6.8,17.8,14.8,22.9l2.1,1.3c.5.3.7.8.7,1.4h0c0,.6-.3,1.2-.7,1.5l-2.1,1.3c-8,5.2-13.4,13.5-14.8,22.9l-2.4,16c-.1.8-.8,1.4-1.6,1.4h0c-.8,0-1.5-.6-1.6-1.4l-2.4-16c-1.4-9.4-6.8-17.8-14.8-22.9l-2.1-1.3c-.5-.3-.7-.8-.7-1.4h0c0-.6.3-1.2.7-1.5l2.1-1.3Z" style="fill: #ffe65c;"/>
    <path d="m364.8,266.5c9.6-6.2,16.1-16.2,17.8-27.5l2.9-19.2c.1-.9,1-1.6,1.9-1.6h0c1,0,1.8.7,1.9,1.6l2.9,19.2c1.7,11.3,8.2,21.3,17.8,27.5l2.5,1.6c.6.4.9,1,.9,1.6h0c0,.8-.3,1.4-.9,1.7l-2.5,1.6c-9.6,6.2-16.1,16.2-17.8,27.5l-2.9,19.2c-.1.9-1,1.6-1.9,1.6h0c-1,0-1.8-.7-1.9-1.6l-2.9-19.2c-1.7-11.3-8.2-21.3-17.8-27.5l-2.5-1.6c-.6-.4-.9-1-.9-1.6h0c0-.8.3-1.4.9-1.7l2.5-1.6Z" style="fill: #ffafd4;"/>
    <path d="m1671.8,163.5c9.6-6.2,16.1-16.2,17.8-27.5l2.9-19.2c.1-.9,1-1.6,1.9-1.6h0c1,0,1.8.7,1.9,1.6l2.9,19.2c1.7,11.3,8.2,21.3,17.8,27.5l2.5,1.6c.6.4.9,1,.9,1.6h0c0,.8-.3,1.4-.9,1.7l-2.5,1.6c-9.6,6.2-16.1,16.2-17.8,27.5l-2.9,19.2c-.1.9-1,1.6-1.9,1.6h0c-1,0-1.8-.7-1.9-1.6l-2.9-19.2c-1.7-11.3-8.2-21.3-17.8-27.5l-2.5-1.6c-.6-.4-.9-1-.9-1.6h0c0-.8.3-1.4.9-1.7l2.5-1.6Z" style="fill: #59f186;"/>
    <path d="m982.9,174.4c4-2.6,6.7-6.7,7.4-11.5l1.2-8c0-.4.4-.7.8-.7h0c.4,0,.7.3.8.7l1.2,8c.7,4.7,3.4,8.9,7.4,11.5l1,.7c.2.1.4.4.4.7h0c0,.3-.1.6-.4.7l-1,.7c-4,2.6-6.7,6.7-7.4,11.5l-1.2,8c0,.4-.4.7-.8.7h0c-.4,0-.7-.3-.8-.7l-1.2-8c-.7-4.7-3.4-8.9-7.4-11.5l-1-.7c-.2-.1-.4-.4-.4-.7h0c0-.3.1-.6.4-.7l1-.7Z" style="fill: #59f186;"/>
    <path d="m1505.9,453.1c-8-5.2-13.4-13.5-14.8-22.9l-2.4-16c-.1-.8-.8-1.4-1.6-1.4h0c-.8,0-1.5.6-1.6,1.4l-2.4,16c-1.4,9.4-6.8,17.8-14.8,22.9l-2.1,1.3c-.5.3-.7.8-.7,1.4h0c0,.6.3,1.2.7,1.5l2.1,1.3c8,5.2,13.4,13.5,14.8,22.9l2.4,16c.1.8.8,1.4,1.6,1.4h0c.8,0,1.5-.6,1.6-1.4l2.4-16c1.4-9.4,6.8-17.8,14.8-22.9l2.1-1.3c.5-.3.7-.8.7-1.4h0c0-.6-.3-1.2-.7-1.5l-2.1-1.3Z" style="fill: #59f186;"/>
    <path d="m1545.8,490.9c-5.4-3.5-9-9.1-10-15.5l-1.6-10.8c0-.5-.5-.9-1.1-.9h0c-.5,0-1,.4-1.1.9l-1.6,10.8c-1,6.3-4.6,12-10,15.5l-1.4.9c-.3.2-.5.5-.5.9h0c0,.4.2.8.5,1l1.4.9c5.4,3.5,9,9.1,10,15.5l1.6,10.8c0,.5.5.9,1.1.9h0c.5,0,1-.4,1.1-.9l1.6-10.8c1-6.3,4.6-12,10-15.5l1.4-.9c.3-.2.5-.5.5-.9h0c0-.4-.2-.8-.5-1l-1.4-.9Z" style="fill: #ffe65c;"/>
    <path d="m1620.5,441.1c-4.9-3.1-8.1-8.2-9-13.9l-1.5-9.7c0-.5-.5-.8-1-.8h0c-.5,0-.9.4-1,.8l-1.5,9.7c-.9,5.7-4.1,10.8-9,13.9l-1.3.8c-.3.2-.4.5-.4.8h0c0,.4.2.7.4.9l1.3.8c4.9,3.1,8.1,8.2,9,13.9l1.5,9.7c0,.5.5.8,1,.8h0c.5,0,.9-.4,1-.8l1.5-9.7c.9-5.7,4.1-10.8,9-13.9l1.3-.8c.3-.2.4-.5.4-.8h0c0-.4-.2-.7-.4-.9l-1.3-.8Z" style="fill: #ffafd4;"/>
    <path d="m694.9,645.6c8,5.2,13.4,13.5,14.8,22.9l2.4,16c.1.8.8,1.4,1.6,1.4h0c.8,0,1.5-.6,1.6-1.4l2.4-16c1.4-9.4,6.8-17.8,14.8-22.9l2.1-1.3c.5-.3.7-.8.7-1.4h0c0-.6-.3-1.2-.7-1.5l-2.1-1.3c-8-5.2-13.4-13.5-14.8-22.9l-2.4-16c-.1-.8-.8-1.4-1.6-1.4h0c-.8,0-1.5.6-1.6,1.4l-2.4,16c-1.4,9.4-6.8,17.8-14.8,22.9l-2.1,1.3c-.5.3-.7.8-.7,1.4h0c0,.6.3,1.2.7,1.5l2.1,1.3Z" style="fill: #ffe65c;"/>
    <path d="m655,607.7c5.4,3.5,9,9.1,10,15.5l1.6,10.8c0,.5.5.9,1.1.9h0c.5,0,1-.4,1.1-.9l1.6-10.8c1-6.3,4.6-12,10-15.5l1.4-.9c.3-.2.5-.5.5-.9h0c0-.4-.2-.8-.5-1l-1.4-.9c-5.4-3.5-9-9.1-10-15.5l-1.6-10.8c0-.5-.5-.9-1.1-.9h0c-.5,0-1,.4-1.1.9l-1.6,10.8c-1,6.3-4.6,12-10,15.5l-1.4.9c-.3.2-.5.5-.5.9h0c0,.4.2.8.5,1l1.4.9Z" style="fill: #ffafd4;"/>
    <path d="m143,470.7c5.4,3.5,9,9.1,10,15.5l1.6,10.8c0,.5.5.9,1.1.9h0c.5,0,1-.4,1.1-.9l1.6-10.8c1-6.3,4.6-12,10-15.5l1.4-.9c.3-.2.5-.5.5-.9h0c0-.4-.2-.8-.5-1l-1.4-.9c-5.4-3.5-9-9.1-10-15.5l-1.6-10.8c0-.5-.5-.9-1.1-.9h0c-.5,0-1,.4-1.1.9l-1.6,10.8c-1,6.3-4.6,12-10,15.5l-1.4.9c-.3.2-.5.5-.5.9h0c0,.4.2.8.5,1l1.4.9Z" style="fill: #8bd8ff;"/>
    <path d="m580.2,677.5c4.9,3.1,8.1,8.2,9,13.9l1.5,9.7c0,.5.5.8,1,.8h0c.5,0,.9-.4,1-.8l1.5-9.7c.9-5.7,4.1-10.8,9-13.9l1.3-.8c.3-.2.4-.5.4-.8h0c0-.4-.2-.7-.4-.9l-1.3-.8c-4.9-3.1-8.1-8.2-9-13.9l-1.5-9.7c0-.5-.5-.8-1-.8h0c-.5,0-.9.4-1,.8l-1.5,9.7c-.9,5.7-4.1,10.8-9,13.9l-1.3.8c-.3.2-.4.5-.4.8h0c0,.4.2.7.4.9l1.3.8Z" style="fill: #59f186;"/>
  </g>
</svg>