<?xml version="1.0" encoding="UTF-8"?>
<svg xmlns="http://www.w3.org/2000/svg" xmlns:xlink="http://www.w3.org/1999/xlink" viewBox="0 0 1800 720">
  <defs>
    <linearGradient id="linear-gradient" x1="900" y1="-3.1" x2="900" y2="710.7" gradientUnits="userSpaceOnUse">
      <stop offset="0" stop-color="#ffe65c"/>
      <stop offset="1" stop-color="#ffc518"/>
    </linearGradient>
    <linearGradient id="linear-gradient-2" x1="883.6" y1="380.5" x2="724.5" y2="216.1" gradientUnits="userSpaceOnUse">
      <stop offset="0" stop-color="#eef0fb"/>
      <stop offset="1" stop-color="#fff"/>
    </linearGradient>
  </defs>
  <g id="background">
    <rect width="1800" height="720" style="fill: url(#linear-gradient);"/>
  </g>
  <g id="Blog_3" data-name="Blog 3">
    <g>
      <path d="m1365.9,280s58.4-81.4,67.1-91.8c6.8-8.1,5.7-14.1-5.9-17.3-11.7-3.2-31.1-8.5-31.1-8.5l-41.6,99.6,11.5,18.1Z" style="fill: #5765f1;"/>
      <path d="m1380.3,138.7c7.8,2.6,15.1,5,21.6,7.1,17.8,5.8,29.5,9.6,29.5,9.6-54.8,12.5-49,64.8-69.3,103.2-5.6-31.1-15.5-86.5-17.3-99.6-2.4-18.4-16.8-17.8-50.4-24.9l86,4.6Z" style="fill: #cfd5ee;"/>
      <path d="m1232.4,87.8c30.2,8.4,111.5,26.9,158.7,37.6,21,4.7,35.2,7.9,35.2,7.9-9.5,3.8-17.6,7.9-24.5,12.5-32.3,21.8-37.1,54.8-39.9,112.8-5.6-31.1-15.5-86.5-17.3-99.6-2.4-18.4-16.8-17.8-50.4-24.9l-61.9-46.3Z" style="fill: #e2e5fb;"/>
      <path d="m1380.3,138.7c-15.7,24.7-17.9,60.8-18.3,119.9-5.6-31.1-15.5-86.5-17.3-99.6-2.4-18.4-16.8-17.8-50.4-24.9-28.2-6-75.9-14-90.5-16.5-2.7-.4-5.1-2.1-6.6-4.4-3.3-5.1-9.7-14.1-16-17.4-3.3-1.7-7.1-3-11-4.1h0c1.9-7,4.6-12.9,7.6-17.8,1.6-2.6,3.2-4.9,4.9-7,9.1-11.1,18.7-15,18.7-15,0,0,11.7,9.4,37.3,17.8,25.6,8.5,173.8,40.2,173.8,40.2-8.5,4.6-15.6,9.6-21.5,15.3-4.2,4.1-7.8,8.5-10.8,13.3Z" style="fill: #fff;"/>
      <path d="m1365.9,280l-222.3-55.4c-5-1.3-8.9-5.1-10.2-10.1l-27.3-98.9c-2.4-8.6,4.9-16.8,13.7-15.5,3.2.5,6.6,1.1,9.6,1.7,2.5.5,5.1-.8,6.2-3.1,2.4-5.6,7.5-12.7,14.6-11.3,2.3.5,4.8.9,7.5,1.4,2.6.5,5.2,1.1,7.9,1.7,1.5.4,3,.8,4.5,1.2,3.9,1.1,7.7,2.4,11,4.1,6.3,3.2,12.8,12.3,16,17.4,1.5,2.3,3.9,3.9,6.6,4.4,14.6,2.5,62.3,10.5,90.5,16.5,33.6,7.1,48,6.5,50.4,24.9,1.7,13.1,11.6,68.5,17.3,99.6,2.3,12.8,3.9,21.5,3.9,21.5Z" style="fill: #8089ff;"/>
    </g>
    <g>
      <g>
        <path d="m1185.7,569.9c-31.5,2.5-153.6,9.2-223,12.9,0,.2,0,.4,0,.6,0,4.6-1.9,8.8-4.9,11.8-3,3-7.2,4.9-11.8,4.9h-92.1c-9.2,0-16.7-7.5-16.7-16.7s0-.4,0-.6c-69.3-3.7-191.5-10.4-223-12.9-44.7-3.6-53.2-12-49.4-51.8,5.1-54.6,31.4-225.3,32.5-237.6,1.2-12.3,4-22.2,25.4-21.5,14.6.5,192.1,132.5,303,216.1,63.6-59,228.8-273.8,246.2-274.4,21.5-.8,24.2,9.1,25.4,21.5,1.2,12.3,32.6,241.4,37.7,296,3.8,39.8-4.8,48.2-49.4,51.8Z" style="fill: #3343d8;"/>
        <path d="m938.5,567.5h-79.8s10.7-19,39.9-19,39.9,19,39.9,19Z" style="fill: #242145;"/>
        <path d="m898.6,548.4l3-303.2c46.9-105,200.7-35.1,247.8-85.8l22.6,295.4c-83.4,74.4-200.1,1.2-273.4,93.5Z" style="fill: #fff;"/>
        <path d="m1216.1,524l-34.1-315.2s-16.3-16.5-32.6-49.3c-16.3-32.8,0,0,0,0l-27.5,184.8,34.6,171.5,59.6,8.1" style="fill: #dddfff;"/>
        <path d="m637.9,189.5s-16.3,25.4-33,29.6l-23.8,304.9,62.5-31-5.8-303.6" style="fill: #afb3ff;"/>
        <path d="m609.3,487.3s-6.2,18.5-28.2,36.7l277.5,43.5s10.7-19.1,39.9-19.1c29.2,0,0,0,0,0l-39.3-70.3-234.1-23.2" style="fill: #afb3ff;"/>
        <path d="m897.9,548.6l3.7-303.4c-115.9-85.8-212,3.8-263.6-55.8l-28.6,297.8c89.7,58,220.8-32.4,288.5,61.4Z" style="fill: #d0d3ff;"/>
        <path d="m897.9,548.6l3.7-303.4c0-104.2-189.4-36.9-240.2-134l-8.2,312.1c80.5,89.9,181.1,13.1,244.6,125.3Z" style="fill: #e2e4ff;"/>
        <path d="m1172,454.9s7.1,44.7,44.1,69.1l-277.5,43.5s-10.7-19.1-39.9-19.1,0,0,0,0l39.3-70.3,234.1-23.2" style="fill: #afb3ff;"/>
        <path d="m898.6,548.6l3-303.4c0-104.2-151.3-81.6-191.8-178.7l-6.6,312.1c64.3,89.9,156.6,33.3,195.4,170Z" style="fill: url(#linear-gradient-2);"/>
        <path d="m898.6,548.4l3-303.2c46.9-105,200.7-35.1,247.8-85.8l22.6,295.4c-83.4,74.4-200.1,1.2-273.4,93.5Z" style="fill: #fff;"/>
        <path d="m1144.9,443c.3,5.2-2.7,10.1-7.5,12.3-32.1,14.4-67,15.6-101.5,17.4-1.3,0-2.5.1-3.8.2-7.2.4-13.2-5.3-13.2-12.5v-87.5c0-6.7,5.2-12.2,11.9-12.5,28.8-1.5,62.1-2.1,92.4-12.1,7.8-2.6,16,2.8,16.5,11.1l5.2,83.7Z" style="fill: #59f186;"/>
        <path d="m1024.6,287.3c-.8,0-1.6-.6-1.7-1.5-.1-.9.5-1.8,1.5-1.9l3.7-.5c25.7-3.2,49.9-6.2,69.9-13.5.9-.3,1.8.1,2.2,1,.3.9-.1,1.8-1,2.2-20.3,7.5-44.8,10.5-70.6,13.7l-3.7.5c0,0-.1,0-.2,0Z" style="fill: #a8b2fb;"/>
        <path d="m1024.6,265.8c-.8,0-1.6-.6-1.7-1.5-.1-.9.5-1.8,1.5-1.9l3.7-.5c35.4-4.4,68.8-8.6,90.7-24.1.8-.5,1.8-.4,2.4.4.5.8.4,1.8-.4,2.4-22.5,16.1-56.4,20.3-92.2,24.7l-3.7.5c0,0-.1,0-.2,0Z" style="fill: #a8b2fb;"/>
        <path d="m1024.6,244.3c-.8,0-1.6-.6-1.7-1.5-.1-.9.5-1.8,1.5-1.9l3.7-.5c25.5-3.2,49.5-6.2,69.4-13.3.9-.3,1.8.1,2.2,1,.3.9-.1,1.8-1,2.2-20.2,7.3-44.5,10.3-70.1,13.5l-3.7.5c0,0-.1,0-.2,0Z" style="fill: #a8b2fb;"/>
        <path d="m759.6,340.7l84.6,41.6c17.2,8.5,30.2-7.3,23.3-28.4l-33.7-103.8c-6.9-21.1-28.4-31.7-38.8-19.1l-50.9,62.1c-10.4,12.6-1.8,39,15.4,47.5Z" style="fill: #ffc518;"/>
        <g>
          <ellipse cx="813.3" cy="333.8" rx="12.2" ry="17.5" transform="translate(-51 494.9) rotate(-32.9)" style="fill: #242145;"/>
          <path d="m800.4,257.6l-.2,32.6c0,4,1.5,8.3,3.9,11.8,2.4,3.6,5.7,6.5,9.4,7.9,7.4,2.8,13.5-1.5,13.5-9.6l.2-32.6c0-8.1-5.9-16.9-13.3-19.7-7.4-2.8-13.5,1.5-13.5,9.6Z" style="fill: #242145;"/>
        </g>
        <path d="m1010.4,223.2l1.8,73.1c.3,8.2-5.3,15.5-13.3,17.2-16.8,3.6-33.9,7.4-49,14.7-10.9,5.3-23.6-2.4-24.1-14.5l-1.6-64.7c-.2-5.3,2.3-18.3,14.7-26.2,18.1-11.6,33.4-15.4,51.1-15.4s20,5.3,20.4,15.8Z" style="fill: #ffafd4;"/>
        <path d="m918.9,392.5c-.5,0-1.1-.3-1.4-.7-.5-.8-.3-1.8.4-2.3,22.3-15.3,52.8-18.3,79.7-19.3,1,0,1.7.7,1.7,1.6,0,.9-.7,1.7-1.6,1.7-26.4,1-56.2,4-77.9,18.7-.3.2-.6.3-1,.3Z" style="fill: #a8b2fb;"/>
        <path d="m918.9,416.1c-.5,0-1.1-.3-1.4-.7-.5-.8-.3-1.8.4-2.3,22.3-15.3,52.8-18.3,79.7-19.3,1,0,1.7.7,1.7,1.6s-.7,1.7-1.6,1.7c-26.4,1-56.2,4-77.9,18.7-.3.2-.6.3-1,.3Z" style="fill: #a8b2fb;"/>
        <path d="m918.9,439.7c-.5,0-1.1-.3-1.4-.7-.5-.8-.3-1.8.4-2.3,22.3-15.3,52.8-18.3,79.7-19.3,1,0,1.7.7,1.7,1.6,0,.9-.7,1.7-1.6,1.7-26.4,1-56.2,4-77.9,18.7-.3.2-.6.3-1,.3Z" style="fill: #a8b2fb;"/>
        <path d="m918.9,463.3c-.5,0-1.1-.3-1.4-.7-.5-.8-.3-1.8.4-2.3,7.2-5,16-9,25.9-12,.9-.3,1.8.2,2.1,1.1.3.9-.2,1.8-1.1,2.1-9.6,2.9-18,6.8-24.9,11.5-.3.2-.6.3-1,.3Z" style="fill: #a8b2fb;"/>
      </g>
      <path d="m1024.6,222.9c-.8,0-1.6-.6-1.7-1.5-.1-.9.5-1.8,1.5-1.9l3.7-.5c35.4-4.4,68.8-8.6,90.6-24.1.8-.5,1.8-.4,2.4.4.5.8.4,1.8-.4,2.4-22.5,16.1-56.4,20.3-92.2,24.7l-3.7.5c0,0-.1,0-.2,0Z" style="fill: #a8b2fb;"/>
    </g>
    <g>
      <path d="m561.3,667.6l-149.6-22.1c-21.5-3.2-33.1-23.1-26-44.3l44.3-130.9c6.6-19.6,28.5-32.9,48.9-29.8l141.8,20.9c20.4,3,32.6,21.3,27.1,41.1l-36.8,132c-6,21.4-28.3,36.3-49.8,33.1Z" style="fill: #242145;"/>
      <path d="m553.8,657.6l-149.6-22.1c-21.5-3.2-33.1-23.1-26-44.3l44.3-130.9c6.6-19.6,28.5-32.9,48.9-29.8l141.8,20.9c20.4,3,32.6,21.3,27.1,41.1l-36.8,132c-6,21.4-28.3,36.3-49.8,33.1Z" style="fill: #fff;"/>
      <g>
        <path d="m463.4,460.2l-21,20.5c-4.3,4.2-2.8,10.5,2.8,11.3l27.4,4c5.6.8,10.9-4.5,9.6-9.5l-6.3-24.6c-1.3-5-8.2-6-12.4-1.8Z" style="fill: #ffe65c;"/>
        <g>
          <path d="m465.8,486.8c.7-2.3-.6-4.4-3-4.8-2.4-.4-4.9,1.2-5.7,3.5-.8,2.3.6,4.4,3,4.8,2.4.4,4.9-1.2,5.7-3.5Z" style="fill: #242145;"/>
          <path d="m469.1,462.9h0c-2.3-.3-4.7,1.2-5.4,3.3l-2.9,8.8c-.7,2.2.6,4.2,2.8,4.6h0c2.3.3,4.7-1.2,5.4-3.4l2.9-8.8c.7-2.2-.6-4.2-2.8-4.6Z" style="fill: #242145;"/>
        </g>
      </g>
      <g>
        <path d="m467.1,533.5c3.5-10.8-2.7-20.8-13.8-22.4-11-1.6-22.9,5.7-26.4,16.5-3.6,10.8,2.5,21,13.7,22.6,11.2,1.6,23-5.8,26.5-16.7Z" style="fill: #59f186;"/>
        <path d="m458,532.2h0c.7-2.3-.6-4.4-2.9-4.7l-13.6-2c-2.3-.3-4.8,1.2-5.5,3.5h0c-.7,2.3.5,4.4,2.9,4.7l13.7,2c2.3.3,4.8-1.2,5.5-3.5Z" style="fill: #242145;"/>
      </g>
      <g>
        <path d="m436.3,610.3l-27.1-4c-4.4-.7-6.8-4.7-5.4-9.1l8.8-26.5c1.4-4.3,6.1-7.3,10.5-6.6l26.8,4c4.4.6,6.8,4.7,5.4,9l-8.5,26.6c-1.4,4.4-6.1,7.4-10.6,6.8Z" style="fill: #ff78b8;"/>
        <g>
          <path d="m422.8,575.4h0c-2.2,1.4-3.1,4-1.9,5.9l9.8,16.4c1.1,1.9,3.8,2.3,6,.9h0c2.2-1.4,3.1-4.1,1.9-6l-9.8-16.4c-1.1-1.9-3.8-2.3-6-.9Z" style="fill: #242145;"/>
          <path d="m443.2,578.5h0c1.1,1.9.3,4.5-1.9,5.9l-19.1,12.1c-2.2,1.4-4.9,1-6-.9h0c-1.1-1.9-.2-4.6,2-6l19.1-12.1c2.2-1.4,4.9-1,6,.9Z" style="fill: #242145;"/>
        </g>
      </g>
      <g>
        <path d="m609.8,492.6c-.2,0-.3,0-.5,0l-99.6-14.7c-1.9-.3-3.2-2.1-3-4s2.1-3.2,4-3l99.6,14.7c1.9.3,3.2,2.1,3,4-.3,1.7-1.8,3-3.5,3Z" style="fill: #a8b2fb;"/>
        <path d="m568.2,502.7c-.2,0-.3,0-.5,0l-62.9-9.3c-1.9-.3-3.2-2.1-3-4s2.1-3.2,4-3l62.9,9.3c1.9.3,3.2,2.1,3,4-.3,1.7-1.8,3-3.5,3Z" style="fill: #a8b2fb;"/>
      </g>
      <g>
        <path d="m594,547.4c-.2,0-.3,0-.5,0l-101-14.9c-1.9-.3-3.2-2.1-3-4s2.1-3.2,4-3l101,14.9c1.9.3,3.2,2.1,3,4-.3,1.7-1.8,3-3.5,3Z" style="fill: #a8b2fb;"/>
        <path d="m551.8,557.9c-.2,0-.3,0-.5,0l-63.8-9.4c-1.9-.3-3.2-2.1-3-4s2.1-3.2,4-3l63.8,9.4c1.9.3,3.2,2.1,3,4-.3,1.7-1.8,3-3.5,3Z" style="fill: #a8b2fb;"/>
      </g>
      <g>
        <path d="m578.9,604c-.2,0-.3,0-.5,0l-102.5-15.1c-1.9-.3-3.2-2.1-3-4s2.1-3.2,4-3l102.5,15.1c1.9.3,3.2,2.1,3,4-.3,1.7-1.8,3-3.5,3Z" style="fill: #a8b2fb;"/>
        <path d="m536,614.8c-.2,0-.3,0-.5,0l-64.8-9.6c-1.9-.3-3.2-2.1-3-4s2.1-3.2,4-3l64.8,9.6c1.9.3,3.2,2.1,3,4-.3,1.7-1.8,3-3.5,3Z" style="fill: #a8b2fb;"/>
      </g>
    </g>
    <path d="m596.3,148.8c-10.6-6.8-17.7-17.8-19.5-30.2l-3.2-21.1c-.2-1-1-1.8-2.1-1.8h0c-1.1,0-1.9.8-2.1,1.8l-3.2,21.1c-1.9,12.4-9,23.4-19.5,30.2l-2.7,1.8c-.6.4-1,1.1-1,1.8h0c0,.9.4,1.5,1,1.9l2.7,1.8c10.6,6.8,17.7,17.8,19.5,30.2l3.2,21.1c.2,1,1,1.8,2.1,1.8h0c1.1,0,1.9-.8,2.1-1.8l3.2-21.1c1.9-12.4,9-23.4,19.5-30.2l2.7-1.8c.6-.4,1-1.1,1-1.8h0c0-.9-.4-1.5-1-1.9l-2.7-1.8Z" style="fill: #ff78b8;"/>
    <path d="m1292.3,331.6c-8.4-5.4-14.1-14.3-15.6-24.2l-2.5-16.9c-.1-.8-.8-1.4-1.7-1.4h0c-.8,0-1.6.6-1.7,1.4l-2.5,16.9c-1.5,9.9-7.2,18.7-15.6,24.2l-2.2,1.4c-.5.3-.8.9-.8,1.4h0c0,.7.3,1.2.8,1.5l2.2,1.4c8.4,5.4,14.1,14.3,15.6,24.2l2.5,16.9c.1.8.8,1.4,1.7,1.4h0c.8,0,1.6-.6,1.7-1.4l2.5-16.9c1.5-9.9,7.2-18.7,15.6-24.2l2.2-1.4c.5-.3.8-.9.8-1.4h0c0-.7-.3-1.2-.8-1.5l-2.2-1.4Z" style="fill: #2ccb7a;"/>
    <path d="m314.3,147.6c-8.4-5.4-14.1-14.3-15.6-24.2l-2.5-16.9c-.1-.8-.8-1.4-1.7-1.4h0c-.8,0-1.6.6-1.7,1.4l-2.5,16.9c-1.5,9.9-7.2,18.7-15.6,24.2l-2.2,1.4c-.5.3-.8.9-.8,1.4h0c0,.7.3,1.2.8,1.5l2.2,1.4c8.4,5.4,14.1,14.3,15.6,24.2l2.5,16.9c.1.8.8,1.4,1.7,1.4h0c.8,0,1.6-.6,1.7-1.4l2.5-16.9c1.5-9.9,7.2-18.7,15.6-24.2l2.2-1.4c.5-.3.8-.9.8-1.4h0c0-.7-.3-1.2-.8-1.5l-2.2-1.4Z" style="fill: #2ccb7a;"/>
    <path d="m532.4,215.1c-6.3-4.1-10.6-10.7-11.7-18.1l-1.9-12.7c0-.6-.6-1.1-1.3-1.1h0c-.6,0-1.2.5-1.3,1.1l-1.9,12.7c-1.1,7.4-5.4,14.1-11.7,18.1l-1.6,1.1c-.4.2-.6.6-.6,1.1h0c0,.5.2.9.6,1.2l1.6,1.1c6.3,4.1,10.6,10.7,11.7,18.1l1.9,12.7c0,.6.6,1.1,1.3,1.1h0c.6,0,1.2-.5,1.3-1.1l1.9-12.7c1.1-7.4,5.4-14.1,11.7-18.1l1.6-1.1c.4-.2.6-.6.6-1.1h0c0-.5-.2-.9-.6-1.2l-1.6-1.1Z" style="fill: #8089ff;"/>
    <path d="m1546.3,515.2c-10.6,6.8-17.7,17.8-19.5,30.2l-3.2,21.1c-.2,1-1,1.8-2.1,1.8h0c-1.1,0-1.9-.8-2.1-1.8l-3.2-21.1c-1.9-12.4-9-23.4-19.5-30.2l-2.7-1.8c-.6-.4-1-1.1-1-1.8h0c0-.9.4-1.5,1-1.9l2.7-1.8c10.6-6.8,17.7-17.8,19.5-30.2l3.2-21.1c.2-1,1-1.8,2.1-1.8h0c1.1,0,1.9.8,2.1,1.8l3.2,21.1c1.9,12.4,9,23.4,19.5,30.2l2.7,1.8c.6.4,1,1.1,1,1.8h0c0,.9-.4,1.5-1,1.9l-2.7,1.8Z" style="fill: #2ccb7a;"/>
    <path d="m1482.4,448.9c-6.3,4.1-10.6,10.7-11.7,18.1l-1.9,12.7c0,.6-.6,1.1-1.3,1.1h0c-.6,0-1.2-.5-1.3-1.1l-1.9-12.7c-1.1-7.4-5.4-14.1-11.7-18.1l-1.6-1.1c-.4-.2-.6-.6-.6-1.1h0c0-.5.2-.9.6-1.2l1.6-1.1c6.3-4.1,10.6-10.7,11.7-18.1l1.9-12.7c0-.6.6-1.1,1.3-1.1h0c.6,0,1.2.5,1.3,1.1l1.9,12.7c1.1,7.4,5.4,14.1,11.7,18.1l1.6,1.1c.4.2.6.6.6,1.1h0c0,.5-.2.9-.6,1.2l-1.6,1.1Z" style="fill: #ff78b8;"/>
    <path d="m150.1,518.8c10.6-6.8,17.7-17.8,19.5-30.2l3.2-21.1c.2-1,1-1.8,2.1-1.8h0c1.1,0,1.9.8,2.1,1.8l3.2,21.1c1.9,12.4,9,23.4,19.5,30.2l2.7,1.8c.6.4,1,1.1,1,1.8h0c0,.9-.4,1.5-1,1.9l-2.7,1.8c-10.6,6.8-17.7,17.8-19.5,30.2l-3.2,21.1c-.2,1-1,1.8-2.1,1.8h0c-1.1,0-1.9-.8-2.1-1.8l-3.2-21.1c-1.9-12.4-9-23.4-19.5-30.2l-2.7-1.8c-.6-.4-1-1.1-1-1.8h0c0-.9.4-1.5,1-1.9l2.7-1.8Z" style="fill: #8089ff;"/>
    <path d="m214,585.1c6.3-4.1,10.6-10.7,11.7-18.1l1.9-12.7c0-.6.6-1.1,1.3-1.1h0c.6,0,1.2.5,1.3,1.1l1.9,12.7c1.1,7.4,5.4,14.1,11.7,18.1l1.6,1.1c.4.2.6.6.6,1.1h0c0,.5-.2.9-.6,1.2l-1.6,1.1c-6.3,4.1-10.6,10.7-11.7,18.1l-1.9,12.7c0,.6-.6,1.1-1.3,1.1h0c-.6,0-1.2-.5-1.3-1.1l-1.9-12.7c-1.1-7.4-5.4-14.1-11.7-18.1l-1.6-1.1c-.4-.2-.6-.6-.6-1.1h0c0-.5.2-.9.6-1.2l1.6-1.1Z" style="fill: #2ccb7a;"/>
    <path d="m276.1,496.7c7.6-4.9,12.7-12.8,14.1-21.8l2.3-15.2c.1-.7.8-1.3,1.5-1.3h0c.8,0,1.4.6,1.5,1.3l2.3,15.2c1.3,8.9,6.5,16.9,14.1,21.8l2,1.3c.4.3.7.8.7,1.3h0c0,.6-.3,1.1-.7,1.4l-2,1.3c-7.6,4.9-12.7,12.8-14.1,21.8l-2.3,15.2c-.1.7-.8,1.3-1.5,1.3h0c-.8,0-1.4-.6-1.5-1.3l-2.3-15.2c-1.3-8.9-6.5-16.9-14.1-21.8l-2-1.3c-.4-.3-.7-.8-.7-1.3h0c0-.6.3-1.1.7-1.4l2-1.3Z" style="fill: #8089ff;"/>
    <path d="m1470.1,210.9c10.6,6.8,17.7,17.8,19.5,30.2l3.2,21.1c.2,1,1,1.8,2.1,1.8h0c1.1,0,1.9-.8,2.1-1.8l3.2-21.1c1.9-12.4,9-23.4,19.5-30.2l2.7-1.8c.6-.4,1-1.1,1-1.8h0c0-.9-.4-1.5-1-1.9l-2.7-1.8c-10.6-6.8-17.7-17.8-19.5-30.2l-3.2-21.1c-.2-1-1-1.8-2.1-1.8h0c-1.1,0-1.9.8-2.1,1.8l-3.2,21.1c-1.9,12.4-9,23.4-19.5,30.2l-2.7,1.8c-.6.4-1,1.1-1,1.8h0c0,.9.4,1.5,1,1.9l2.7,1.8Z" style="fill: #ff78b8;"/>
    <path d="m1534,144.6c6.3,4.1,10.6,10.7,11.7,18.1l1.9,12.7c0,.6.6,1.1,1.3,1.1h0c.6,0,1.2-.5,1.3-1.1l1.9-12.7c1.1-7.4,5.4-14.1,11.7-18.1l1.6-1.1c.4-.2.6-.6.6-1.1h0c0-.5-.2-.9-.6-1.2l-1.6-1.1c-6.3-4.1-10.6-10.7-11.7-18.1l-1.9-12.7c0-.6-.6-1.1-1.3-1.1h0c-.6,0-1.2.5-1.3,1.1l-1.9,12.7c-1.1,7.4-5.4,14.1-11.7,18.1l-1.6,1.1c-.4.2-.6.6-.6,1.1h0c0,.5.2.9.6,1.2l1.6,1.1Z" style="fill: #2ccb7a;"/>
  </g>
</svg>