<?xml version="1.0" encoding="UTF-8"?>
<svg xmlns="http://www.w3.org/2000/svg" xmlns:xlink="http://www.w3.org/1999/xlink" viewBox="0 0 1800 720">
  <defs>
    <linearGradient id="linear-gradient" x1="900" y1="-3.1" x2="900" y2="710.7" gradientUnits="userSpaceOnUse">
      <stop offset="0" stop-color="#ff78b8"/>
      <stop offset="1" stop-color="#ea459e"/>
    </linearGradient>
  </defs>
  <g id="background">
    <rect width="1800" height="720" style="fill: url(#linear-gradient);"/>
  </g>
  <g id="Blog_2" data-name="Blog 2">
    <g>
      <path d="m139.2,98l-27.8-8.4h0s0,0,0,0l-72.2-21.8c1.3-16-8.7-31.4-24.7-36.2-4.8-1.4-9.7-1.8-14.4-1.2v14.7c3.4-.8,6.9-.6,10.3.4,6.4,1.9,11.1,6.7,13.2,12.5,1.4,4,1.7,8.5.4,12.8-3.1,10.2-13.6,16.3-23.8,14v14.7c14.2,1.8,28.1-5.3,34.9-17.8l65.3,19.7-2,6.8c-.5,1.6-.4,3.2.1,4.6.8,2.1,2.4,3.8,4.7,4.5,2.5.8,5.1.1,6.9-1.5,0,.2,0,.4.2.6.8,2.1,2.4,3.8,4.7,4.5,2,.6,4.1.3,5.8-.7.9,1.8,2.4,3.2,4.4,3.8,3.8,1.2,7.9-1,9-4.8l2.1-6.9c3.5.5,6.9-1.6,7.9-5.1,1.2-3.8-1-7.9-4.8-9Z" style="fill: #ea459e;"/>
      <path d="m140.9,710l-27.8-8.4h0s0,0,0,0l-72.2-21.8c1.3-16-8.7-31.4-24.7-36.2-5.4-1.6-10.9-1.9-16.2-.9v14.9c3.9-1.2,8.1-1.3,12.1,0,6.4,1.9,11.1,6.7,13.2,12.5,1.4,4,1.7,8.5.4,12.8-3.2,10.7-14.6,16.8-25.3,13.6-.1,0-.2,0-.3-.1v14.9c14.8,2.7,29.6-4.5,36.7-17.5l65.3,19.7-2,6.6h45.4c.1-.3.3-.6.4-.9,1.2-3.8-1-7.9-4.9-9Z" style="fill: #ea459e;"/>
      <path d="m142.3,406.3l-27.8-8.4h0s0,0,0,0l-72.2-21.8c1.3-16-8.7-31.4-24.7-36.2-5.8-1.8-11.8-2-17.6-.7v15.1c4.3-1.7,8.9-1.9,13.4-.6,6.4,1.9,11.1,6.7,13.2,12.5,1.5,4,1.7,8.5.4,12.8-3.2,10.7-14.6,16.8-25.3,13.6-.6-.2-1.1-.4-1.7-.6v15.1c15.2,3.4,30.7-3.9,38.1-17.2l65.3,19.7-2.1,6.8c-.5,1.6-.4,3.2.1,4.6.8,2.1,2.5,3.8,4.7,4.5,2.5.8,5.1.1,6.9-1.5,0,.2,0,.4.2.6.8,2.1,2.5,3.8,4.7,4.5,2,.6,4.1.3,5.8-.7.9,1.8,2.4,3.2,4.4,3.8,3.8,1.2,7.9-1,9-4.8l2.1-6.9c3.5.5,6.9-1.6,8-5.1,1.2-3.8-1-7.9-4.8-9Z" style="fill: #ea459e;"/>
      <path d="m297.2,514.3c-2.7-8.9-8.7-16.2-16.9-20.6s-17.6-5.3-26.5-2.7c-16,4.8-26,20.2-24.7,36.2l-72.2,21.8s0,0,0,0h0l-27.8,8.4c-3.8,1.2-6,5.2-4.9,9,1.1,3.5,4.5,5.6,8,5.1l2.1,6.9c1.2,3.8,5.2,6,9,4.9,2-.6,3.6-2,4.4-3.8,1.7,1,3.8,1.3,5.8.7,2.3-.7,4-2.4,4.7-4.5,0-.2.1-.4.2-.6,1.8,1.6,4.4,2.2,6.9,1.5,2.3-.7,4-2.4,4.7-4.5.5-1.4.6-3,.1-4.6l-2.1-6.8,65.3-19.7c7.8,14.1,24.6,21.4,40.6,16.6,8.9-2.7,16.2-8.7,20.6-16.9.8-1.5,1.5-3,2.1-4.6,2.6-7,2.8-14.7.6-22Zm-15.4,19.7c-2.6,4.8-6.8,8.3-12,9.8-10.7,3.2-22.1-2.9-25.3-13.6-1.3-4.4-1.1-8.8.4-12.8,2.1-5.8,6.9-10.6,13.2-12.5,5.2-1.6,10.7-1,15.5,1.6,4.8,2.6,8.3,6.8,9.9,12s1,10.7-1.6,15.5Z" style="fill: #ea459e;"/>
      <path d="m298.5,210.6c-2.7-8.9-8.7-16.2-16.9-20.6s-17.6-5.3-26.5-2.7c-16,4.8-26,20.2-24.7,36.2l-72.2,21.8s0,0,0,0h0l-27.8,8.4c-3.8,1.2-6,5.2-4.8,9,1,3.5,4.5,5.6,7.9,5.1l2.1,6.9c1.2,3.8,5.2,6,9,4.9,2-.6,3.6-2,4.4-3.8,1.7,1,3.8,1.3,5.8.7,2.3-.7,4-2.4,4.7-4.5,0-.2.1-.4.2-.6,1.8,1.6,4.4,2.2,6.9,1.5,2.3-.7,4-2.4,4.7-4.5.5-1.4.6-3,.1-4.6l-2-6.8,65.3-19.7c7.8,14.1,24.6,21.4,40.6,16.6,8.9-2.7,16.2-8.7,20.6-16.9.8-1.5,1.5-3,2-4.6,2.6-7,2.8-14.7.6-22Zm-15.4,19.7c-2.6,4.8-6.8,8.3-12,9.8-10.7,3.2-22.1-2.9-25.3-13.6-1.3-4.4-1.1-8.8.4-12.8,2.1-5.8,6.9-10.6,13.2-12.5,5.2-1.6,10.7-1,15.5,1.6,4.8,2.6,8.3,6.8,9.8,12s1,10.7-1.5,15.5Z" style="fill: #ea459e;"/>
      <path d="m446.1,404.9l-16.1-4.8h0l-11.8-3.6h0s0,0,0,0l-72.2-21.8c1.3-16-8.7-31.4-24.7-36.2-8.9-2.7-18.3-1.7-26.5,2.7-8.2,4.4-14.2,11.7-16.9,20.6-2.2,7.3-2,14.9.6,22,.6,1.6,1.2,3.1,2.1,4.6,4.4,8.2,11.7,14.2,20.6,16.9,16,4.8,32.8-2.5,40.6-16.6l65.3,19.7-2.1,6.8c-.5,1.6-.4,3.2.1,4.6.8,2.1,2.5,3.8,4.7,4.5,2.5.8,5.1.1,6.9-1.5,0,.2,0,.4.2.6.8,2.1,2.5,3.8,4.7,4.5,2,.6,4.1.3,5.8-.7.9,1.8,2.4,3.2,4.4,3.8,3.8,1.1,7.9-1,9-4.9l2.1-6.9c3.5.5,6.9-1.6,8-5.1,1.2-3.8-1-7.9-4.8-9Zm-115.3-27.2c-3.2,10.7-14.6,16.8-25.3,13.6-5.2-1.6-9.5-5.1-12-9.9-2.6-4.8-3.1-10.3-1.5-15.5,1.6-5.2,5.1-9.5,9.8-12,4.8-2.6,10.3-3.1,15.5-1.5,6.4,1.9,11.1,6.7,13.2,12.5,1.5,4,1.7,8.5.4,12.8Z" style="fill: #ea459e;"/>
      <path d="m447.4,101.2l-16.1-4.8h0l-11.8-3.6h0s0,0,0,0l-72.2-21.8c1.3-16-8.7-31.4-24.7-36.2-8.9-2.7-18.3-1.7-26.5,2.7-8.2,4.4-14.2,11.7-16.9,20.6-2.2,7.3-2,14.9.6,22,.6,1.6,1.2,3.1,2,4.6,4.4,8.2,11.7,14.2,20.6,16.9,16,4.8,32.8-2.5,40.6-16.6l65.3,19.7-2,6.8c-.5,1.6-.4,3.2.1,4.6.8,2.1,2.4,3.8,4.7,4.5,2.5.8,5.1.1,6.9-1.5,0,.2,0,.4.2.6.8,2.1,2.4,3.8,4.7,4.5,2,.6,4.1.3,5.8-.7.9,1.8,2.4,3.2,4.4,3.8,3.8,1.1,7.9-1,9-4.9l2.1-6.9c3.5.5,6.9-1.6,7.9-5.1,1.2-3.8-1-7.9-4.8-9Zm-115.3-27.2c-3.2,10.7-14.6,16.8-25.3,13.6-5.2-1.6-9.5-5.1-12-9.9-2.6-4.8-3.1-10.3-1.6-15.5,1.6-5.2,5.1-9.5,9.9-12,4.8-2.6,10.3-3.1,15.5-1.5,6.4,1.9,11.1,6.7,13.2,12.5,1.4,4,1.7,8.5.4,12.8Z" style="fill: #ea459e;"/>
      <path d="m602.3,209.2c-2.7-8.9-8.7-16.2-16.9-20.6-8.2-4.4-17.6-5.3-26.5-2.7-16,4.8-26,20.2-24.7,36.2l-72.2,21.8s0,0,0,0h0l-11.8,3.6h0l-16.1,4.9c-3.8,1.1-6,5.2-4.8,9,1,3.5,4.5,5.6,7.9,5.1l2.1,6.9c1.2,3.8,5.2,6,9,4.9,2-.6,3.6-2,4.4-3.8,1.7,1,3.8,1.3,5.8.7,2.3-.7,4-2.4,4.7-4.5,0-.2.1-.4.2-.6,1.8,1.6,4.4,2.2,6.9,1.5,2.3-.7,4-2.4,4.7-4.5.5-1.4.6-3,.1-4.6l-2-6.8,65.3-19.7c7.8,14.1,24.6,21.4,40.6,16.6,8.9-2.7,16.2-8.7,20.6-16.9.8-1.5,1.5-3,2-4.6,2.6-7,2.8-14.7.6-22Zm-15.4,19.7c-2.6,4.8-6.8,8.3-12,9.8-10.7,3.2-22.1-2.9-25.3-13.6-1.3-4.4-1.1-8.8.4-12.8,2.1-5.8,6.9-10.6,13.2-12.5,5.2-1.6,10.7-1,15.5,1.6,4.8,2.6,8.3,6.8,9.8,12s1,10.7-1.5,15.5Z" style="fill: #ea459e;"/>
      <path d="m751.1,99.8l-16.1-4.9h0l-11.8-3.6h0s-72.2-21.8-72.2-21.8c1.3-16-8.7-31.4-24.7-36.2-8.9-2.7-18.3-1.7-26.5,2.7-8.2,4.4-14.2,11.7-16.9,20.6-2.2,7.3-2,14.9.6,22,.6,1.6,1.2,3.1,2,4.6,4.4,8.2,11.7,14.2,20.6,16.9,16,4.8,32.8-2.5,40.6-16.6l65.3,19.7-2.1,6.8c-.5,1.6-.4,3.2.1,4.6.8,2.1,2.4,3.8,4.7,4.5,2.5.8,5.1,0,6.9-1.5,0,.2,0,.4.2.6.8,2.1,2.4,3.8,4.7,4.5,2,.6,4.1.3,5.8-.7.9,1.8,2.4,3.2,4.4,3.8,3.8,1.2,7.9-1,9-4.8l2.1-6.9c3.5.5,6.9-1.6,7.9-5.1,1.2-3.8-1-7.9-4.9-9Zm-115.3-27.2c-3.2,10.7-14.6,16.8-25.3,13.6-5.2-1.6-9.5-5.1-12-9.9-2.6-4.8-3.1-10.3-1.6-15.5,1.6-5.2,5.1-9.5,9.9-12,4.8-2.6,10.3-3.1,15.5-1.6,6.4,1.9,11.1,6.7,13.2,12.5,1.4,4,1.7,8.5.4,12.8Z" style="fill: #ea459e;"/>
      <path d="m454.4,720c0-3.1-2.1-5.9-5.2-6.8l-16.1-4.8h0l-11.8-3.6h0s-72.2-21.8-72.2-21.8c1.3-16-8.7-31.4-24.7-36.2-8.9-2.7-18.3-1.7-26.5,2.7-8.2,4.4-14.2,11.7-16.9,20.6-2.2,7.3-2,14.9.6,22,.6,1.6,1.2,3.1,2.1,4.6,4.4,8.2,11.7,14.2,20.6,16.9,16,4.8,32.8-2.5,40.6-16.6l65.3,19.7-1,3.4h45.2Zm-120.5-34.1c-3.2,10.7-14.6,16.8-25.3,13.6-5.2-1.6-9.5-5.1-12-9.9-2.6-4.8-3.1-10.3-1.6-15.5s5.1-9.5,9.9-12c4.8-2.6,10.3-3.1,15.5-1.5,6.4,1.9,11.1,6.7,13.2,12.5,1.4,4,1.7,8.5.4,12.8Z" style="fill: #ea459e;"/>
      <path d="m605.4,517.5c-2.7-8.9-8.7-16.2-16.9-20.6-8.2-4.4-17.6-5.3-26.5-2.7-16,4.8-26,20.2-24.7,36.2l-72.2,21.8h0s0,0,0,0l-11.8,3.6h0l-16.1,4.9c-3.8,1.1-6,5.2-4.9,9,1.1,3.5,4.5,5.6,8,5.1l2.1,6.9c1.2,3.8,5.2,6,9,4.9,2-.6,3.6-2,4.4-3.8,1.7,1,3.8,1.3,5.8.7,2.3-.7,4-2.4,4.7-4.5,0-.2.1-.4.2-.6,1.8,1.6,4.4,2.2,6.9,1.5,2.3-.7,4-2.4,4.7-4.5.5-1.4.6-3,.1-4.6l-2.1-6.8,65.3-19.7c7.8,14.1,24.6,21.4,40.6,16.6,8.9-2.7,16.2-8.7,20.6-16.9.8-1.5,1.5-3,2.1-4.6,2.6-7,2.8-14.7.6-22Zm-15.4,19.7c-2.6,4.8-6.8,8.3-12,9.8-10.7,3.2-22.1-2.9-25.3-13.6-1.3-4.4-1.1-8.8.4-12.8,2.1-5.8,6.9-10.6,13.2-12.5,5.2-1.6,10.7-1,15.5,1.6,4.8,2.6,8.3,6.8,9.9,12s1,10.7-1.6,15.5Z" style="fill: #ea459e;"/>
      <path d="m752.9,711.8l-16.1-4.9h0l-11.8-3.6h0s0,0,0,0l-72.2-21.8c1.3-16-8.7-31.4-24.7-36.2-8.9-2.7-18.3-1.7-26.5,2.7s-14.2,11.7-16.9,20.6c-2.2,7.3-2,14.9.6,22,.6,1.6,1.2,3.1,2.1,4.6,4.4,8.2,11.7,14.2,20.6,16.9,16,4.8,32.8-2.5,40.6-16.6l65.3,19.7-1.4,4.8h45.5c.6-3.6-1.5-7.1-5.1-8.2Zm-115.3-27.2c-3.2,10.7-14.6,16.8-25.3,13.6-5.2-1.6-9.5-5.1-12-9.9-2.6-4.8-3.1-10.3-1.6-15.5,1.6-5.2,5.1-9.5,9.9-12,4.8-2.6,10.3-3.1,15.5-1.6,6.4,1.9,11.1,6.7,13.2,12.5,1.4,4,1.7,8.5.4,12.8Z" style="fill: #ea459e;"/>
      <path d="m754.3,408.1l-16.1-4.9-11.8-3.6h0s-72.2-21.8-72.2-21.8c1.3-16-8.7-31.4-24.7-36.2-8.9-2.7-18.3-1.7-26.5,2.7-8.2,4.4-14.2,11.7-16.9,20.6-2.2,7.3-2,14.9.6,22,.6,1.6,1.2,3.1,2.1,4.6,4.4,8.2,11.7,14.2,20.6,16.9,16,4.8,32.8-2.5,40.6-16.6l65.3,19.7-2.1,6.8c-.5,1.6-.4,3.2.1,4.6.8,2.1,2.4,3.8,4.7,4.5,2.5.8,5.1,0,6.9-1.5,0,.2,0,.4.2.6.8,2.1,2.5,3.8,4.7,4.5,2,.6,4.1.3,5.8-.7.9,1.8,2.4,3.2,4.4,3.8,3.8,1.2,7.9-1,9-4.8l2.1-6.9c3.5.5,6.9-1.6,7.9-5.1,1.2-3.8-1-7.9-4.8-9Zm-115.3-27.2c-3.2,10.7-14.6,16.8-25.3,13.6-5.2-1.6-9.5-5.1-12-9.9-2.6-4.8-3.1-10.3-1.5-15.5,1.6-5.2,5.1-9.5,9.8-12,4.8-2.6,10.3-3.1,15.5-1.6,6.4,1.9,11.1,6.7,13.2,12.5,1.5,4,1.7,8.5.4,12.8Z" style="fill: #ea459e;"/>
      <path d="m909.2,516.1c-2.7-8.9-8.7-16.2-16.9-20.6s-17.6-5.3-26.5-2.7c-16,4.8-26,20.2-24.6,36.2l-72.2,21.8s0,0,0,0h0l-27.8,8.4c-3.8,1.1-6,5.2-4.9,9,1.1,3.5,4.5,5.6,7.9,5.1l2.1,6.9c1.2,3.8,5.2,6,9,4.8,2-.6,3.6-2,4.4-3.8,1.7,1,3.8,1.3,5.8.7,2.3-.7,4-2.4,4.7-4.5,0-.2.1-.4.2-.6,1.8,1.6,4.4,2.2,6.9,1.5,2.3-.7,4-2.4,4.7-4.5.5-1.4.6-3,.1-4.6l-2.1-6.8,65.3-19.7c7.8,14.1,24.6,21.4,40.6,16.6,8.9-2.7,16.2-8.7,20.6-16.9.8-1.5,1.5-3,2.1-4.6,2.6-7,2.8-14.7.6-22Zm-15.4,19.7c-2.6,4.8-6.8,8.3-12,9.9-10.7,3.2-22.1-2.9-25.3-13.6-1.3-4.4-1.1-8.8.4-12.8,2.1-5.8,6.9-10.6,13.2-12.5,5.2-1.6,10.7-1,15.5,1.6,4.8,2.6,8.3,6.8,9.9,12,1.6,5.2,1,10.7-1.6,15.5Z" style="fill: #ea459e;"/>
      <path d="m910.5,212.4c-2.7-8.9-8.7-16.2-16.9-20.6-8.2-4.4-17.6-5.3-26.5-2.7-16,4.8-26,20.2-24.7,36.2l-72.2,21.8s0,0,0,0h0l-27.8,8.4c-3.8,1.1-6,5.2-4.8,9,1.1,3.5,4.5,5.6,7.9,5.1l2.1,6.9c1.2,3.8,5.2,6,9,4.8,2-.6,3.6-2,4.4-3.8,1.7,1,3.8,1.3,5.8.7,2.3-.7,4-2.4,4.7-4.5,0-.2.1-.4.2-.6,1.8,1.6,4.4,2.2,6.9,1.5,2.3-.7,4-2.4,4.7-4.5.5-1.4.6-3,.1-4.6l-2-6.8,65.3-19.7c7.8,14.1,24.6,21.4,40.6,16.6,8.9-2.7,16.2-8.7,20.6-16.9.8-1.5,1.5-3,2.1-4.6,2.6-7,2.8-14.7.6-22Zm-15.4,19.7c-2.6,4.8-6.8,8.3-12,9.9-10.7,3.2-22.1-2.9-25.3-13.6-1.3-4.4-1.1-8.8.4-12.8,2.1-5.8,6.9-10.6,13.2-12.5,5.2-1.6,10.7-1,15.5,1.6,4.8,2.6,8.3,6.8,9.9,12,1.6,5.2,1,10.7-1.6,15.5Z" style="fill: #ea459e;"/>
      <path d="m1058.1,406.7l-27.8-8.4h0s0,0,0,0l-72.2-21.8c1.3-16-8.6-31.4-24.6-36.2-8.9-2.7-18.3-1.7-26.5,2.7s-14.2,11.7-16.9,20.6c-2.2,7.3-2,14.9.6,22,.6,1.6,1.2,3.1,2.1,4.6,4.4,8.2,11.7,14.2,20.6,16.9,16,4.8,32.8-2.5,40.6-16.6l65.3,19.7-2.1,6.8c-.5,1.6-.4,3.2.1,4.6.8,2.1,2.4,3.8,4.7,4.5,2.5.8,5.1.1,6.9-1.5,0,.2,0,.4.2.6.8,2.1,2.5,3.8,4.7,4.5,2,.6,4.1.3,5.8-.7.9,1.8,2.4,3.2,4.4,3.8,3.8,1.1,7.9-1,9-4.9l2.1-6.9c3.5.5,6.9-1.6,7.9-5.1,1.2-3.8-1-7.9-4.8-9Zm-115.3-27.2c-3.2,10.7-14.6,16.8-25.3,13.6-5.2-1.6-9.5-5.1-12-9.8-2.6-4.8-3.1-10.3-1.5-15.5,1.6-5.2,5.1-9.5,9.8-12,4.8-2.6,10.3-3.1,15.5-1.6,6.4,1.9,11.1,6.7,13.2,12.5,1.5,4,1.7,8.5.4,12.8Z" style="fill: #ea459e;"/>
      <path d="m1065.8,720c-.5-2.5-2.4-4.7-5-5.5l-27.8-8.4h0s0,0,0,0l-72.2-21.8c1.3-16-8.6-31.4-24.6-36.2-8.9-2.7-18.3-1.7-26.5,2.7s-14.2,11.7-16.9,20.6c-2.2,7.3-2,14.9.6,22,.6,1.6,1.2,3.1,2.1,4.6,4.4,8.2,11.7,14.2,20.6,16.9,16,4.8,32.8-2.5,40.6-16.6l65.3,19.7-.6,2.1h44.6Zm-120.3-32.7c-3.2,10.7-14.6,16.8-25.3,13.6-5.2-1.6-9.5-5.1-12-9.9-2.6-4.8-3.1-10.3-1.6-15.5,1.6-5.2,5.1-9.5,9.8-12,4.8-2.6,10.3-3.1,15.5-1.6,6.4,1.9,11.1,6.7,13.2,12.5,1.4,4,1.7,8.5.4,12.8Z" style="fill: #ea459e;"/>
      <path d="m1217,518.8c-2.7-8.9-8.7-16.2-16.9-20.6-8.2-4.4-17.6-5.3-26.5-2.7-16,4.8-26,20.2-24.7,36.2l-72.2,21.8s0,0,0,0h0l-27.8,8.4c-3.8,1.2-6,5.2-4.9,9,1.1,3.5,4.5,5.6,7.9,5.1l2.1,6.9c1.2,3.8,5.2,6,9,4.9,2-.6,3.6-2,4.4-3.8,1.7,1,3.8,1.3,5.8.7,2.3-.7,4-2.4,4.7-4.5,0-.2.1-.4.2-.6,1.8,1.6,4.4,2.2,6.9,1.5,2.3-.7,4-2.4,4.7-4.5.5-1.4.6-3,.1-4.6l-2.1-6.8,65.3-19.7c7.8,14.1,24.6,21.4,40.6,16.6,8.9-2.7,16.2-8.7,20.6-16.9.8-1.5,1.5-3,2-4.6,2.6-7,2.8-14.7.6-22Zm-15.4,19.7c-2.6,4.8-6.8,8.3-12,9.8-10.7,3.2-22.1-2.9-25.3-13.6-1.3-4.4-1.1-8.8.4-12.8,2.1-5.8,6.9-10.6,13.2-12.5,5.2-1.6,10.7-1,15.5,1.6,4.8,2.6,8.3,6.8,9.9,12s1,10.7-1.6,15.5Z" style="fill: #ea459e;"/>
      <path d="m1369.7,720c0-3.1-2.1-5.9-5.2-6.8l-16.1-4.8-11.8-3.6h0s0,0,0,0l-72.2-21.8c1.3-16-8.6-31.4-24.6-36.2-8.9-2.7-18.3-1.7-26.5,2.7-8.2,4.4-14.2,11.7-16.9,20.6-2.2,7.3-2,14.9.6,22,.6,1.6,1.2,3.1,2.1,4.6,4.4,8.2,11.7,14.2,20.6,16.9,16,4.8,32.8-2.5,40.6-16.6l65.3,19.7-1,3.4h45.2Zm-120.5-34.1c-3.2,10.7-14.6,16.8-25.3,13.6-5.2-1.6-9.5-5.1-12-9.9-2.6-4.8-3.1-10.3-1.6-15.5s5.1-9.5,9.8-12c4.8-2.6,10.3-3.1,15.5-1.5,6.4,1.9,11.1,6.7,13.2,12.5,1.4,4,1.7,8.5.4,12.8Z" style="fill: #ea459e;"/>
      <path d="m1059.4,103l-27.8-8.4h0s0,0,0,0l-72.2-21.8c1.3-16-8.7-31.4-24.7-36.2-8.9-2.7-18.3-1.7-26.5,2.7-8.2,4.4-14.2,11.7-16.9,20.6-2.2,7.3-2,14.9.6,22,.6,1.6,1.2,3.1,2,4.6,4.4,8.2,11.7,14.2,20.6,16.9,16,4.8,32.8-2.5,40.6-16.6l65.3,19.7-2.1,6.8c-.5,1.6-.4,3.2.1,4.6.8,2.1,2.4,3.8,4.7,4.5,2.5.8,5.1.1,6.9-1.5,0,.2,0,.4.2.6.8,2.1,2.4,3.8,4.7,4.5,2,.6,4.1.3,5.8-.7.9,1.8,2.4,3.2,4.4,3.8,3.8,1.1,7.9-1,9-4.9l2.1-6.9c3.5.5,6.9-1.6,7.9-5.1,1.2-3.8-1-7.9-4.9-9Zm-115.3-27.2c-3.2,10.7-14.6,16.8-25.3,13.6-5.2-1.6-9.5-5.1-12-9.8-2.6-4.8-3.1-10.3-1.6-15.5s5.1-9.5,9.9-12c4.8-2.6,10.3-3.1,15.5-1.6,6.4,1.9,11.1,6.7,13.2,12.5,1.4,4,1.7,8.5.4,12.8Z" style="fill: #ea459e;"/>
      <path d="m1214.3,211c-2.7-8.9-8.7-16.2-16.9-20.6-8.2-4.4-17.6-5.3-26.5-2.7-16,4.8-26,20.2-24.7,36.2l-72.2,21.8s0,0,0,0h0l-11.8,3.6h0l-16.1,4.8c-3.8,1.2-6,5.2-4.8,9,1.1,3.5,4.5,5.6,7.9,5.1l2.1,6.9c1.2,3.8,5.2,6,9,4.9,2-.6,3.6-2,4.4-3.8,1.7,1,3.8,1.3,5.8.7,2.3-.7,4-2.4,4.7-4.5,0-.2.1-.4.2-.6,1.8,1.6,4.4,2.2,6.9,1.5,2.3-.7,4-2.4,4.7-4.5.5-1.4.6-3,.1-4.6l-2-6.8,65.3-19.7c7.8,14.1,24.6,21.4,40.6,16.6,8.9-2.7,16.2-8.7,20.6-16.9.8-1.5,1.5-3,2.1-4.6,2.6-7,2.8-14.7.6-22Zm-15.4,19.7c-2.6,4.8-6.8,8.3-12,9.9-10.7,3.2-22.1-2.9-25.3-13.6-1.3-4.4-1.1-8.8.4-12.8,2.1-5.8,6.9-10.6,13.2-12.5,5.2-1.6,10.7-1,15.5,1.5,4.8,2.6,8.3,6.8,9.9,12,1.6,5.2,1,10.7-1.6,15.5Z" style="fill: #ea459e;"/>
      <path d="m1363.1,101.6l-16.1-4.9h0l-11.8-3.6h0s0,0,0,0l-72.2-21.8c1.3-16-8.7-31.4-24.7-36.2-8.9-2.7-18.3-1.7-26.5,2.7-8.2,4.4-14.2,11.7-16.9,20.6-2.2,7.3-2,14.9.6,22,.6,1.6,1.2,3.1,2,4.6,4.4,8.2,11.7,14.2,20.6,16.9,16,4.8,32.8-2.5,40.6-16.6l65.3,19.7-2.1,6.8c-.5,1.6-.4,3.2.1,4.6.8,2.1,2.4,3.8,4.7,4.5,2.5.8,5.1,0,6.9-1.5,0,.2,0,.4.2.6.8,2.1,2.4,3.8,4.7,4.5,2,.6,4.1.3,5.8-.7.9,1.8,2.4,3.2,4.4,3.8,3.8,1.1,7.9-1,9-4.9l2.1-6.9c3.5.5,6.9-1.6,7.9-5.1,1.2-3.8-1-7.9-4.9-9Zm-115.3-27.2c-3.2,10.7-14.6,16.8-25.3,13.6-5.2-1.6-9.5-5.1-12-9.8-2.6-4.8-3.1-10.3-1.6-15.5s5.1-9.5,9.9-12c4.8-2.6,10.3-3.1,15.5-1.6,6.4,1.9,11.1,6.7,13.2,12.5,1.4,4,1.7,8.5.4,12.8Z" style="fill: #ea459e;"/>
      <path d="m1365.9,409.4l-16.1-4.8h0l-11.8-3.6h0s0,0,0,0l-72.2-21.8c1.3-16-8.7-31.4-24.7-36.2-8.9-2.7-18.3-1.7-26.5,2.7-8.2,4.4-14.2,11.7-16.9,20.6-2.2,7.3-2,14.9.6,22,.6,1.6,1.2,3.1,2.1,4.6,4.4,8.2,11.7,14.2,20.6,16.9,16,4.8,32.8-2.5,40.6-16.6l65.3,19.7-2,6.8c-.5,1.6-.4,3.2.1,4.6.8,2.1,2.4,3.8,4.7,4.5,2.5.8,5.1.1,6.9-1.5,0,.2,0,.4.2.6.8,2.1,2.4,3.8,4.7,4.5,2,.6,4.1.3,5.8-.7.9,1.8,2.4,3.2,4.4,3.8,3.8,1.1,7.9-1,9-4.9l2.1-6.9c3.5.5,6.9-1.6,7.9-5.1,1.2-3.8-1-7.9-4.8-9Zm-115.3-27.2c-3.2,10.7-14.6,16.8-25.3,13.6-5.2-1.6-9.5-5.1-12-9.9-2.6-4.8-3.1-10.3-1.6-15.5,1.6-5.2,5.1-9.5,9.9-12,4.8-2.6,10.3-3.1,15.5-1.5,6.4,1.9,11.1,6.7,13.2,12.5,1.4,4,1.7,8.5.4,12.8Z" style="fill: #ea459e;"/>
      <path d="m1520.7,517.5c-2.7-8.9-8.7-16.2-16.9-20.6-8.2-4.4-17.6-5.3-26.5-2.7-16,4.8-26,20.2-24.7,36.2l-72.2,21.8s0,0,0,0h0l-11.8,3.6h0l-16.1,4.9c-3.8,1.1-6,5.2-4.9,9,1.1,3.5,4.5,5.6,7.9,5.1l2.1,6.9c1.2,3.8,5.2,6,9,4.9,2-.6,3.6-2,4.4-3.8,1.7,1,3.8,1.3,5.8.7,2.3-.7,4-2.4,4.7-4.5,0-.2.1-.4.2-.6,1.8,1.6,4.4,2.2,6.9,1.5,2.3-.7,4-2.4,4.7-4.5.5-1.4.6-3,.1-4.6l-2.1-6.8,65.3-19.7c7.8,14.1,24.6,21.4,40.6,16.6,8.9-2.7,16.2-8.7,20.6-16.9.8-1.5,1.5-3,2-4.6,2.6-7,2.8-14.7.6-22Zm-15.4,19.7c-2.6,4.8-6.8,8.3-12,9.8-10.7,3.2-22.1-2.9-25.3-13.6-1.3-4.4-1.1-8.8.4-12.8,2.1-5.8,6.9-10.6,13.2-12.5,5.2-1.6,10.7-1,15.5,1.6,4.8,2.6,8.3,6.8,9.9,12s1,10.7-1.6,15.5Z" style="fill: #ea459e;"/>
      <path d="m1522.1,213.7c-2.7-8.9-8.7-16.2-16.9-20.6-8.2-4.4-17.6-5.3-26.5-2.7-16,4.8-26,20.2-24.6,36.2l-72.2,21.8s0,0,0,0h0l-11.8,3.6-16.1,4.9c-3.8,1.1-6,5.2-4.8,9,1,3.5,4.5,5.6,7.9,5.1l2.1,6.9c1.2,3.8,5.2,6,9,4.9,2-.6,3.6-2,4.4-3.8,1.7,1,3.8,1.3,5.8.7,2.3-.7,4-2.4,4.7-4.5,0-.2.1-.4.2-.6,1.8,1.6,4.4,2.2,6.9,1.5,2.3-.7,4-2.4,4.7-4.5.5-1.4.6-3,.1-4.6l-2.1-6.8,65.3-19.7c7.8,14.1,24.6,21.4,40.6,16.6,8.9-2.7,16.2-8.7,20.6-16.9.8-1.5,1.5-3,2.1-4.6,2.6-7,2.8-14.7.6-22Zm-15.4,19.7c-2.6,4.8-6.8,8.3-12,9.8-10.7,3.2-22.1-2.9-25.3-13.6-1.3-4.4-1.1-8.8.4-12.8,2.1-5.8,6.9-10.6,13.2-12.5,5.2-1.6,10.7-1,15.5,1.6,4.8,2.6,8.3,6.8,9.8,12,1.6,5.2,1,10.7-1.5,15.5Z" style="fill: #ea459e;"/>
      <path d="m1669.6,408.1l-16.1-4.9h0l-11.8-3.6h0s-72.2-21.8-72.2-21.8c1.3-16-8.7-31.4-24.7-36.2-8.9-2.7-18.3-1.7-26.5,2.7-8.2,4.4-14.2,11.7-16.9,20.6-2.2,7.3-2,14.9.6,22,.6,1.6,1.2,3.1,2.1,4.6,4.4,8.2,11.7,14.2,20.6,16.9,16,4.8,32.8-2.5,40.6-16.6l65.3,19.7-2,6.8c-.5,1.6-.4,3.2.1,4.6.8,2.1,2.4,3.8,4.7,4.5,2.5.8,5.1,0,6.9-1.5,0,.2,0,.4.2.6.8,2.1,2.4,3.8,4.7,4.5,2,.6,4.1.3,5.8-.7.9,1.8,2.4,3.2,4.4,3.8,3.8,1.2,7.9-1,9-4.8l2.1-6.9c3.5.5,6.9-1.6,7.9-5.1,1.2-3.8-1-7.9-4.8-9Zm-115.3-27.2c-3.2,10.7-14.6,16.8-25.3,13.6-5.2-1.6-9.5-5.1-12-9.9-2.6-4.8-3.1-10.3-1.6-15.5,1.6-5.2,5.1-9.5,9.9-12,4.8-2.6,10.3-3.1,15.5-1.6,6.4,1.9,11.1,6.7,13.2,12.5,1.4,4,1.7,8.5.4,12.8Z" style="fill: #ea459e;"/>
      <path d="m1670.9,104.3l-16.1-4.9h0l-11.8-3.6h0s0,0,0,0l-72.2-21.8c1.3-16-8.6-31.4-24.6-36.2-8.9-2.7-18.3-1.7-26.5,2.7s-14.2,11.7-16.9,20.6c-2.2,7.3-2,14.9.6,22,.6,1.6,1.2,3.1,2.1,4.6,4.4,8.2,11.7,14.2,20.6,16.9,16,4.8,32.8-2.5,40.6-16.6l65.3,19.7-2.1,6.8c-.5,1.6-.4,3.2.1,4.6.8,2.1,2.4,3.8,4.7,4.5,2.5.8,5.1,0,6.9-1.5,0,.2,0,.4.2.6.8,2.1,2.4,3.8,4.7,4.5,2,.6,4.1.3,5.8-.7.9,1.8,2.4,3.2,4.4,3.8,3.8,1.2,7.9-1,9-4.8l2.1-6.9c3.5.5,6.9-1.6,7.9-5.1,1.2-3.8-1-7.9-4.9-9Zm-115.3-27.2c-3.2,10.7-14.6,16.8-25.3,13.6-5.2-1.6-9.5-5.1-12-9.9-2.6-4.8-3.1-10.3-1.6-15.5,1.6-5.2,5.1-9.5,9.9-12,4.8-2.6,10.3-3.1,15.5-1.6,6.4,1.9,11.1,6.7,13.2,12.5,1.4,4,1.7,8.5.4,12.8Z" style="fill: #ea459e;"/>
      <path d="m1786.6,203c4.5-1.3,9.1-1.1,13.4.6v-15.1c-5.8-1.3-11.8-1.1-17.6.7-16,4.8-26,20.2-24.6,36.2l-72.2,21.8s0,0,0,0h0l-27.8,8.4c-3.8,1.1-6,5.2-4.8,9,1,3.5,4.5,5.6,7.9,5.1l2.1,6.9c1.2,3.8,5.2,6,9,4.8,2-.6,3.6-2,4.4-3.8,1.7,1,3.8,1.3,5.8.7,2.3-.7,4-2.4,4.7-4.5,0-.2.1-.4.2-.6,1.8,1.6,4.4,2.2,6.9,1.5,2.3-.7,4-2.4,4.7-4.5.5-1.4.6-3,.1-4.6l-2.1-6.8,65.3-19.7c7.4,13.4,22.8,20.6,38.1,17.2v-15.1c-.6.2-1.1.4-1.7.6-10.7,3.2-22.1-2.9-25.3-13.6-1.3-4.4-1.1-8.8.4-12.8,2.1-5.8,6.9-10.6,13.2-12.5Z" style="fill: #ea459e;"/>
      <path d="m1677.1,720c-.9-1.7-2.4-3.1-4.4-3.7l-16.1-4.9-11.8-3.6h0s-72.2-21.8-72.2-21.8c1.3-16-8.6-31.4-24.6-36.2-8.9-2.7-18.3-1.7-26.5,2.7s-14.2,11.7-16.9,20.6c-2.2,7.3-2,14.9.6,22,.6,1.6,1.2,3.1,2.1,4.6,4.4,8.2,11.7,14.2,20.6,16.9,16,4.8,32.8-2.5,40.6-16.6l65.3,19.7v.3c0,0,43.3,0,43.3,0Zm-119.7-30.9c-3.2,10.7-14.6,16.8-25.3,13.6-5.2-1.6-9.5-5.1-12-9.9-2.6-4.8-3.1-10.3-1.6-15.5,1.6-5.2,5.1-9.5,9.8-12,4.8-2.6,10.3-3.1,15.5-1.6,6.4,1.9,11.1,6.7,13.2,12.5,1.4,4,1.7,8.5.4,12.8Z" style="fill: #ea459e;"/>
      <path d="m1789.7,511.2c3.4-1,6.9-1.1,10.3-.4v-14.7c-4.8-.6-9.7-.2-14.4,1.2-16,4.8-26,20.2-24.7,36.2l-72.2,21.8s0,0,0,0h0l-27.8,8.4c-3.8,1.1-6,5.2-4.9,9,1.1,3.5,4.5,5.6,7.9,5.1l2.1,6.9c1.2,3.8,5.2,6,9,4.8,2-.6,3.6-2,4.4-3.8,1.7,1,3.8,1.3,5.8.7,2.3-.7,4-2.4,4.7-4.5,0-.2.1-.4.2-.6,1.8,1.6,4.4,2.2,6.9,1.5,2.3-.7,4-2.4,4.7-4.5.5-1.4.6-3,.1-4.6l-2.1-6.8,65.3-19.7c6.8,12.4,20.7,19.6,34.9,17.8v-14.7c-10.3,2.3-20.8-3.7-23.9-14-1.3-4.4-1.1-8.8.4-12.8,2.1-5.8,6.9-10.6,13.2-12.5Z" style="fill: #ea459e;"/>
    </g>
    <g>
      <rect x="683.5" y="142.9" width="433" height="433" rx="140.6" ry="140.6" style="fill: #d01582;"/>
      <path d="m1059.5,720.1c-39.6-43.1-96.4-70.1-159.5-70.1s-119.9,27-159.5,70.1h319Z" style="fill: #d01582;"/>
      <path d="m741.7,0c39.5,42.4,95.8,68.9,158.3,68.9s118.8-26.5,158.4-68.9h-316.7Z" style="fill: #d01582;"/>
    </g>
    <g>
      <path d="m1180.9,542.6c-10.6-6.8-17.7-17.8-19.5-30.2l-3.2-21.1c-.2-1-1-1.8-2.1-1.8h0c-1.1,0-1.9.8-2.1,1.8l-3.2,21.1c-1.9,12.4-9,23.4-19.5,30.2l-2.7,1.8c-.6.4-1,1.1-1,1.8h0c0,.9.4,1.5,1,1.9l2.7,1.8c10.6,6.8,17.7,17.8,19.5,30.2l3.2,21.1c.2,1,1,1.8,2.1,1.8h0c1.1,0,1.9-.8,2.1-1.8l3.2-21.1c1.9-12.4,9-23.4,19.5-30.2l2.7-1.8c.6-.4,1-1.1,1-1.8h0c0-.9-.4-1.5-1-1.9l-2.7-1.8Z" style="fill: #ffe65c;"/>
      <path d="m1117,608.8c-6.3-4.1-10.6-10.7-11.7-18.1l-1.9-12.7c0-.6-.6-1.1-1.3-1.1h0c-.6,0-1.2.5-1.3,1.1l-1.9,12.7c-1.1,7.4-5.4,14.1-11.7,18.1l-1.6,1.1c-.4.2-.6.6-.6,1.1h0c0,.5.2.9.6,1.2l1.6,1.1c6.3,4.1,10.6,10.7,11.7,18.1l1.9,12.7c0,.6.6,1.1,1.3,1.1h0c.6,0,1.2-.5,1.3-1.1l1.9-12.7c1.1-7.4,5.4-14.1,11.7-18.1l1.6-1.1c.4-.2.6-.6.6-1.1h0c0-.5-.2-.9-.6-1.2l-1.6-1.1Z" style="fill: #59f186;"/>
    </g>
    <path d="m650.7,126.6c10.6-6.8,17.7-17.8,19.5-30.2l3.2-21.1c.2-1,1-1.8,2.1-1.8h0c1.1,0,1.9.8,2.1,1.8l3.2,21.1c1.9,12.4,9,23.4,19.5,30.2l2.7,1.8c.6.4,1,1.1,1,1.8h0c0,.9-.4,1.5-1,1.9l-2.7,1.8c-10.6,6.8-17.7,17.8-19.5,30.2l-3.2,21.1c-.2,1-1,1.8-2.1,1.8h0c-1.1,0-1.9-.8-2.1-1.8l-3.2-21.1c-1.9-12.4-9-23.4-19.5-30.2l-2.7-1.8c-.6-.4-1-1.1-1-1.8h0c0-.9.4-1.5,1-1.9l2.7-1.8Z" style="fill: #8bd8ff;"/>
    <path d="m616.6,238.8c6.3-4.1,10.6-10.7,11.7-18.1l1.9-12.7c0-.6.6-1.1,1.3-1.1h0c.6,0,1.2.5,1.3,1.1l1.9,12.7c1.1,7.4,5.4,14.1,11.7,18.1l1.6,1.1c.4.2.6.6.6,1.1h0c0,.5-.2.9-.6,1.2l-1.6,1.1c-6.3,4.1-10.6,10.7-11.7,18.1l-1.9,12.7c0,.6-.6,1.1-1.3,1.1h0c-.6,0-1.2-.5-1.3-1.1l-1.9-12.7c-1.1-7.4-5.4-14.1-11.7-18.1l-1.6-1.1c-.4-.2-.6-.6-.6-1.1h0c0-.5.2-.9.6-1.2l1.6-1.1Z" style="fill: #ffe65c;"/>
    <g>
      <path d="m813.3,413.5l-55.6-144.6c-9.6-25-8.9-52.2,1.9-76.6,10.9-24.4,30.6-43.2,55.5-52.8,25-9.6,52.2-8.9,76.6,1.9,24.4,10.9,43.2,30.6,52.8,55.5l55.6,144.6-186.8,71.9Zm37.8-238.5c-7,0-14.1,1.3-20.8,3.9-14.4,5.6-25.8,16.4-32.1,30.5s-6.7,29.9-1.1,44.3l40.5,105.2,108.1-41.6-40.5-105.2c-5.6-14.4-16.4-25.8-30.5-32.1-7.5-3.3-15.5-5-23.5-5Z" style="fill: #ffe65c;"/>
      <path d="m1011.8,515.9l-125.5,48.3c-29.8,11.5-63.3-3.4-74.7-33.2l-48.3-125.5c-11.5-29.8,18.5-109.1,48.3-120.5l110.4-2.5c29.8-11.5,63.3,3.4,74.7,33.2l72.5,83.2c11.5,29.8-27.6,105.6-57.4,117Z" style="fill: #ffc518;"/>
      <rect x="800.7" y="249.4" width="250.1" height="250.1" rx="57.8" ry="57.8" transform="translate(-72.7 357.6) rotate(-21.1)" style="fill: #ffe65c;"/>
      <path d="m951,376.1l18.7,34.3c2.6,4.8.4,10.9-4.7,12.8l-35.6,13.7c-5.1,2-10.8-1-12.1-6.4l-9.2-38c-.9-3.9-4-6.9-7.8-8-10-2.9-18.1-9.5-21.8-19-6.8-17.7,4.7-38.7,25.8-46.8,21.1-8.1,43.7-.3,50.5,17.4,3.6,9.5,2,19.8-3.4,28.7-2.1,3.4-2.4,7.6-.5,11.1Z" style="fill: #242145;"/>
    </g>
  </g>
</svg>